<svg width="41" height="41" viewBox="0 0 41 41" fill="none" xmlns="http://www.w3.org/2000/svg">
<path d="M23.5655 20.5721L19.2076 16.215C19.1183 16.1254 19.0123 16.0544 18.8955 16.0059C18.7787 15.9574 18.6534 15.9324 18.527 15.9324C18.4005 15.9324 18.2753 15.9574 18.1585 16.0059C18.0416 16.0544 17.9356 16.1254 17.8463 16.215L0.997057 32.1113C0.903621 32.1994 0.82879 32.3053 0.776983 32.4228C0.725177 32.5403 0.697446 32.667 0.695431 32.7954C0.693415 32.9238 0.717155 33.0513 0.765248 33.1704C0.813341 33.2895 0.884811 33.3977 0.975436 33.4887L6.2646 38.7963C6.35539 38.8873 6.46354 38.9593 6.58264 39.0078C6.70175 39.0563 6.82937 39.0804 6.95796 39.0787C7.08655 39.077 7.21349 39.0494 7.33125 38.9978C7.44902 38.9461 7.55521 38.8713 7.64354 38.7778L23.5639 21.9326C23.6534 21.8434 23.7245 21.7375 23.7731 21.6208C23.8217 21.5042 23.8468 21.379 23.8469 21.2527C23.8471 21.1263 23.8223 21.0011 23.774 20.8843C23.7257 20.7676 23.6548 20.6614 23.5655 20.5721ZM39.9855 15.962L36.4709 12.4722C36.3101 12.312 36.1192 12.1852 35.9092 12.0991C35.6992 12.0131 35.4742 11.9695 35.2473 11.9709C34.8796 11.9713 34.5213 12.0873 34.2231 12.3024C34.2231 12.268 34.2279 12.2343 34.2303 12.2047C34.2663 11.6842 34.3224 10.8978 33.8139 10.1851C33.2093 9.37027 32.5455 8.60104 31.8279 7.8837C31.826 7.88136 31.8239 7.87922 31.8215 7.87729C30.7549 6.82667 28.4334 4.84794 24.8772 3.39772C23.5278 2.84463 22.0833 2.5609 20.625 2.56251C18.0977 2.56251 16.1759 3.70282 15.4399 4.37868C14.7153 5.03994 14.24 5.93026 14.0938 6.90034L15.3751 7.68751C15.3751 7.68751 16.0205 7.52735 16.485 7.41604C16.9702 7.31252 17.4681 7.28148 17.9624 7.32395C19.0186 7.41124 20.2679 7.93575 20.8204 8.37217C21.7573 9.12571 22.2081 10.1411 22.2826 11.6626C22.2986 12.0013 21.5203 13.3723 20.3479 14.8529C20.2504 14.976 20.2015 15.1306 20.2105 15.2874C20.2195 15.4442 20.2858 15.5922 20.3968 15.7033L24.0299 19.3365C24.1463 19.4518 24.3025 19.5182 24.4664 19.522C24.6302 19.5257 24.7893 19.4665 24.9108 19.3565C25.8773 18.4756 27.3524 17.1143 27.6871 16.9069C28.3029 16.5281 28.7433 16.4553 28.8642 16.4424C29.178 16.4118 29.4936 16.4783 29.7683 16.633C29.7697 16.6467 29.7682 16.6606 29.7639 16.6737C29.7596 16.6868 29.7527 16.6988 29.7435 16.7091L29.5978 16.8476L29.5737 16.8701C29.4127 17.0305 29.285 17.2212 29.198 17.4312C29.111 17.6412 29.0664 17.8664 29.0667 18.0937C29.0671 18.321 29.1124 18.546 29.2001 18.7557C29.2878 18.9654 29.4162 19.1557 29.5777 19.3156L33.0972 22.8135C33.2172 22.9328 33.3796 22.9998 33.5488 22.9998C33.7181 22.9998 33.8804 22.9328 34.0005 22.8135L39.9807 16.8717C40.041 16.8124 40.0891 16.7418 40.122 16.6639C40.155 16.586 40.1721 16.5024 40.1726 16.4178C40.173 16.3333 40.1567 16.2494 40.1246 16.1712C40.0925 16.093 40.0452 16.0218 39.9855 15.962Z" fill="#0A3238"/>
</svg>
