<svg width="38" height="38" viewBox="0 0 38 38" fill="none" xmlns="http://www.w3.org/2000/svg">
<path d="M16.929 3.99609C6.92892 3.99609 0 11.9962 0 15.9965C0 19.996 1.99994 22.9961 6.0002 22.9961C10.0005 22.9961 12 23.9959 12 26.996C12 30.9962 15.0001 33.996 18.9996 33.996C31.9998 33.996 37.9996 26.9964 37.9996 19.996C37.9996 7.99597 28.929 3.99609 16.929 3.99609ZM14.2599 7.99597C14.5908 7.99189 14.9192 8.05355 15.2262 8.17737C15.5331 8.30119 15.8124 8.4847 16.0478 8.71727C16.2833 8.94984 16.4702 9.22684 16.5978 9.53221C16.7254 9.83758 16.7911 10.1652 16.7911 10.4962C16.7911 10.8271 16.7254 11.1548 16.5978 11.4602C16.4702 11.7655 16.2833 12.0425 16.0478 12.2751C15.8124 12.5077 15.5331 12.6912 15.2262 12.815C14.9192 12.9388 14.5908 13.0005 14.2599 12.9964C13.6021 12.9883 12.9741 12.7213 12.5118 12.2533C12.0495 11.7853 11.7903 11.154 11.7903 10.4962C11.7903 9.83838 12.0495 9.20707 12.5118 8.73907C12.9741 8.27107 13.6021 8.00408 14.2599 7.99597ZM22.26 7.99597C22.5909 7.99189 22.9194 8.05355 23.2263 8.17737C23.5332 8.30119 23.8125 8.4847 24.048 8.71727C24.2834 8.94984 24.4704 9.22684 24.5979 9.53221C24.7255 9.83758 24.7912 10.1652 24.7912 10.4962C24.7912 10.8271 24.7255 11.1548 24.5979 11.4602C24.4704 11.7655 24.2834 12.0425 24.048 12.2751C23.8125 12.5077 23.5332 12.6912 23.2263 12.815C22.9194 12.9388 22.5909 13.0005 22.26 12.9964C21.6023 12.9883 20.9742 12.7213 20.5119 12.2533C20.0497 11.7853 19.7904 11.154 19.7904 10.4962C19.7904 9.83838 20.0497 9.20707 20.5119 8.73907C20.9742 8.27107 21.6023 8.00408 22.26 7.99597ZM29.4994 11.9962C29.8303 11.9922 30.1587 12.0538 30.4655 12.1776C30.7724 12.3014 31.0516 12.4849 31.2871 12.7174C31.5225 12.95 31.7094 13.2269 31.837 13.5322C31.9645 13.8376 32.0302 14.1652 32.0302 14.4961C32.0302 14.827 31.9645 15.1546 31.837 15.4599C31.7094 15.7652 31.5225 16.0422 31.2871 16.2747C31.0516 16.5072 30.7724 16.6907 30.4655 16.8145C30.1587 16.9383 29.8303 17 29.4994 16.9959C28.8417 16.9878 28.2138 16.7208 27.7516 16.2529C27.2894 15.785 27.0302 15.1538 27.0302 14.4961C27.0302 13.8384 27.2894 13.2071 27.7516 12.7392C28.2138 12.2713 28.8417 12.0043 29.4994 11.9962ZM7.25952 12.4762C7.59149 12.4704 7.9213 12.5308 8.22968 12.6538C8.53807 12.7769 8.81886 12.9601 9.05568 13.1928C9.29249 13.4255 9.48059 13.7031 9.60898 14.0093C9.73738 14.3155 9.80351 14.6442 9.80351 14.9762C9.80351 15.3082 9.73738 15.6369 9.60898 15.9431C9.48059 16.2493 9.29249 16.5269 9.05568 16.7596C8.81886 16.9923 8.53807 17.1755 8.22968 17.2986C7.9213 17.4216 7.59149 17.482 7.25952 17.4762C6.60402 17.4648 5.97923 17.1964 5.51971 16.7288C5.0602 16.2612 4.80271 15.6318 4.80271 14.9762C4.80271 14.3206 5.0602 13.6912 5.51971 13.2236C5.97923 12.756 6.60402 12.4876 7.25952 12.4762ZM20.52 23.9959C21.3157 23.9959 22.0788 24.312 22.6414 24.8746C23.204 25.4372 23.5201 26.2003 23.5201 26.996C23.5201 28.6528 21.4168 29.9961 19.76 29.9961C18.9643 29.9961 18.2012 29.68 17.6386 29.1174C17.076 28.5547 16.7599 27.7917 16.7599 26.996C16.7599 25.3392 18.8632 23.9959 20.52 23.9959Z" fill="#0A3238"/>
</svg>
