<svg width="48" height="48" viewBox="0 0 48 48" fill="none" xmlns="http://www.w3.org/2000/svg">
<path d="M39.8997 11.94C39.8511 10.9372 39.431 9.98846 38.7211 9.27857C38.0112 8.56867 37.0624 8.14853 36.0596 8.1C34.6596 8.04 33.3196 8 32.0196 8C21.9596 8 14.9796 9.94 11.0996 13.82C3.73964 21.18 4.79964 31.62 11.2796 37.62H11.2996C14.014 30.0308 19.4923 23.7454 26.6396 20.02C26.2196 20.38 17.2396 27.18 15.6196 40.52C17.7196 41.48 20.0196 42.02 22.3396 42.02C26.4396 42.02 30.6596 40.42 34.1796 36.92C38.5596 32.52 40.4597 24.2 39.8997 11.94Z" fill="#0A3238"/>
</svg>
