<svg width="46" height="46" viewBox="0 0 46 46" fill="none" xmlns="http://www.w3.org/2000/svg">
<path d="M21.0837 11.5013C26.3737 11.5013 30.667 15.7946 30.667 21.0846C30.667 26.3746 26.3737 30.668 21.0837 30.668C15.7937 30.668 11.5004 26.3746 11.5004 21.0846C11.5004 15.7946 15.7937 11.5013 21.0837 11.5013ZM21.0837 1.91797L25.6645 8.47297C24.2462 7.95547 22.6937 7.66797 21.0837 7.66797C19.4737 7.66797 17.9212 7.95547 16.5029 8.47297L21.0837 1.91797ZM4.48535 11.5013L12.4587 10.8305C11.2691 11.8353 10.2582 13.0341 9.46869 14.3763C8.62535 15.7946 8.14619 17.2513 7.87785 18.7655L4.48535 11.5013ZM4.52368 30.668L7.89702 23.4421C8.46029 26.5328 10.0712 29.3351 12.4587 31.3771L4.52368 30.668ZM37.6628 11.5013L34.2703 18.7655C33.728 15.6618 32.1136 12.8468 29.7087 10.8113L37.6628 11.5013ZM44.0837 24.918H40.2504C40.2504 28.8471 38.7554 32.7763 35.7654 35.7663C34.3428 37.1932 32.6518 38.3241 30.7898 39.0939C28.9278 39.8637 26.9318 40.2571 24.917 40.2513V44.0846C29.8237 44.0846 34.7304 42.168 38.4678 38.4688C42.2053 34.7696 44.0837 29.8246 44.0837 24.918ZM36.417 24.918H32.5837C32.5837 26.8346 31.8362 28.8471 30.3412 30.3421C28.8462 31.8371 26.8337 32.5846 24.917 32.5846V36.418C26.4279 36.4205 27.9245 36.1248 29.3209 35.5477C30.7172 34.9707 31.986 34.1237 33.0544 33.0553C34.1228 31.987 34.9697 30.7182 35.5468 29.3218C36.1238 27.9254 36.4195 26.4289 36.417 24.918Z" fill="#0A3238"/>
</svg>
