<svg width="46" height="36" viewBox="0 0 46 36" fill="none" xmlns="http://www.w3.org/2000/svg">
<g clip-path="url(#clip0_785_289)">
<path d="M18.533 15.2416L24.6313 22.9184C24.6313 22.9184 23.4641 30.1155 19.2474 33.4737C15.0308 36.8332 0.5 35.8727 0.5 35.8727C0.5 35.8727 0.767188 34.2457 1.27344 31.9753L7.92641 24.0884C8.20555 23.7579 7.86523 23.2713 7.45883 23.4204L3.21195 24.9736C4.22727 22.0444 5.51258 19.3458 7.05102 18.1202C11.2677 14.7621 18.533 15.2416 18.533 15.2416ZM45.256 2.1818L43.8596 0.423986C43.4736 -0.06117 42.7684 -0.142029 42.2839 0.243986L25.9377 12.7455L23.5372 9.72422C23.1793 9.27352 22.4727 9.35789 22.2301 9.87961L20.4491 13.7152L26.5473 21.3919L30.6816 20.5165C31.2441 20.3977 31.4846 19.729 31.1274 19.279L28.7305 16.2612L45.0767 3.75961C45.5612 3.3743 45.642 2.66766 45.256 2.1818Z" fill="#0A3238"/>
</g>
<defs>
<clipPath id="clip0_785_289">
<rect width="45" height="36" fill="white" transform="translate(0.5)"/>
</clipPath>
</defs>
</svg>
