<svg width="23" height="23" viewBox="0 0 23 23" fill="none" xmlns="http://www.w3.org/2000/svg">
<path d="M22.8333 9.88406C22.795 9.6166 22.6002 9.39807 22.339 9.32935L21.1961 9.02863C20.961 8.11027 20.5978 7.23498 20.1128 6.41744L20.7091 5.395C20.8451 5.16164 20.8284 4.86956 20.6665 4.65334C20.3405 4.21774 19.978 3.79965 19.5891 3.41058C19.201 3.0224 18.7829 2.65987 18.3462 2.33292C18.13 2.17102 17.8379 2.15421 17.6045 2.29042L16.5821 2.88677C15.7646 2.40168 14.8894 2.03856 13.971 1.80337L13.6704 0.660661C13.6015 0.399381 13.3831 0.20462 13.1156 0.166206C12.0369 0.0112485 10.913 0.0112485 9.83427 0.166206C9.5668 0.204575 9.3484 0.399336 9.27964 0.660661L8.97892 1.80337C8.0606 2.03851 7.18542 2.40164 6.36777 2.88677L5.34551 2.29042C5.11216 2.15429 4.81995 2.1711 4.60371 2.33292C4.16718 2.65982 3.74901 3.02236 3.36087 3.41058C2.97198 3.79962 2.60949 4.21769 2.28344 4.65329C2.12157 4.86953 2.10481 5.16159 2.24086 5.39495L2.83711 6.41739C2.35206 7.23503 1.98894 8.11027 1.75379 9.02858L0.611044 9.3293C0.349719 9.39802 0.154957 9.6166 0.116633 9.88406C0.039266 10.4237 0 10.9756 0 11.5247C0 12.0738 0.039266 12.6257 0.116678 13.1653C0.155002 13.4328 0.349764 13.6513 0.611089 13.7201L1.75384 14.0208C1.98903 14.9392 2.35215 15.8144 2.83715 16.6319L2.2409 17.6545C2.10486 17.8878 2.12162 18.1798 2.28348 18.3961C2.60953 18.8317 2.97202 19.2498 3.36096 19.6389C3.74901 20.027 4.16718 20.3895 4.60376 20.7165C4.82 20.8784 5.11211 20.8952 5.34555 20.759L6.36782 20.1626C7.18537 20.6477 8.06065 21.0109 8.97897 21.246L9.27969 22.3888C9.34845 22.65 9.5669 22.8448 9.83436 22.8831C10.3737 22.9607 10.9257 23 11.475 23C12.0243 23 12.5763 22.9607 13.1157 22.8832C13.3832 22.8449 13.6016 22.6501 13.6704 22.3888L13.9711 21.2461C14.8894 21.011 15.7645 20.6478 16.5822 20.1627L17.6045 20.7591C17.8379 20.8953 18.1301 20.8785 18.3463 20.7166C18.7829 20.3897 19.201 20.0271 19.5892 19.639C19.978 19.2499 20.3405 18.8318 20.6666 18.3962C20.8285 18.18 20.8452 17.8879 20.7091 17.6546L20.1129 16.6321C20.5979 15.8144 20.9611 14.9393 21.1962 14.0209L22.339 13.7202C22.6003 13.6515 22.7951 13.4329 22.8333 13.1654C22.9108 12.6258 22.95 12.0739 22.95 11.5248C22.95 10.9758 22.9107 10.4237 22.8333 9.88406ZM11.475 18.6789C7.53029 18.6789 4.32105 15.4697 4.32105 11.525C4.32105 7.58027 7.53029 4.37103 11.475 4.37103C15.4197 4.37103 18.629 7.58027 18.629 11.525C18.629 15.4697 15.4197 18.6789 11.475 18.6789Z" fill="#0C8582"/>
<path d="M11.4757 5.71555C8.2725 5.71555 5.6665 8.32154 5.6665 11.5248C5.6665 14.728 8.2725 17.334 11.4757 17.334C14.679 17.334 17.285 14.728 17.285 11.5248C17.285 8.32154 14.679 5.71555 11.4757 5.71555ZM14.8319 10.5599L11.2309 14.1607C11.1049 14.2868 10.9339 14.3577 10.7556 14.3577C10.5772 14.3577 10.4062 14.2868 10.2801 14.1607L8.47968 12.3603C8.21709 12.0978 8.21709 11.672 8.47968 11.4094C8.74221 11.1469 9.16795 11.1469 9.43053 11.4094L10.7556 12.7345L13.881 9.60898C14.1436 9.34644 14.5693 9.34644 14.8319 9.60898C15.0944 9.87154 15.0944 10.2973 14.8319 10.5599Z" fill="#0C8582"/>
</svg>
