<svg width="96" height="40" viewBox="0 0 96 40" fill="none" xmlns="http://www.w3.org/2000/svg">
<path d="M8.94188 8.12C8.90188 8.16 8.90188 8.12 8.90188 8.16V8.12H8.94188C9.02188 8.04 9.18188 7.96 9.18188 7.84C9.18188 7.76 9.06188 7.72 9.10188 7.6C9.06188 7.52 9.18188 7.44 9.18188 7.36C9.18188 7.2 9.10188 7.16 9.06188 7.04C8.98188 6.88 9.10188 6.92 9.14188 6.8C9.18188 6.76 9.14188 6.68 9.10188 6.6C9.14188 6.36 9.50188 6.68 9.58188 6.4C9.58188 6.28 9.54188 6.2 9.66188 6.12C9.74188 6.04 9.82188 6.04 9.90188 5.92C10.0219 5.72 9.94188 5.44 10.0219 5.2C10.0219 5.16 10.0619 5.12 10.1019 5.08C10.1019 5 10.0619 4.96 10.0219 4.88C10.0219 4.76 10.0219 4.68 10.1019 4.6C10.2619 4.52 10.4619 4.56 10.5819 4.52C10.5819 4.52 10.5819 4.48 10.5819 4.44C10.5819 4.4 10.5419 4.36 10.5819 4.36C10.7019 4.2 10.8219 4.28 10.6219 4.04C10.5819 3.96 10.5419 3.96 10.5819 3.88C10.5819 3.8 10.6619 3.72 10.7419 3.68C10.8219 3.64 10.9019 3.64 10.9819 3.6C11.0219 3.56 11.0619 3.56 11.0619 3.52C11.1019 3.56 11.1019 3.6 11.1419 3.56C11.0219 3.52 11.0619 3.48 11.0619 3.4V3.44C11.5819 3.44 11.5819 2.8 11.7419 2.44C11.7819 2.32 11.8619 2.28 11.9019 2.12C11.8619 2 11.8219 1.88 11.9019 1.8C11.9819 1.72 12.1019 1.76 12.1819 1.72C12.3019 1.68 12.3819 1.56 12.5019 1.52C12.7419 1.44 13.1019 1.48 13.3819 1.48H13.8619C14.0619 1.52 14.0619 1.56 14.1419 1.68C14.3019 1.92 14.4619 1.8 14.7019 1.88C14.8619 1.96 14.9419 2.08 15.1019 2.16C15.2219 2.28 15.3019 2.32 15.4219 2.36C15.5819 2.44 15.7019 2.48 15.8219 2.52C15.8619 2.52 15.9419 2.48 15.9819 2.56C16.0219 2.64 15.9419 2.6 15.9419 2.64C15.9419 2.72 15.8619 2.64 15.9419 2.76L16.1019 2.88C16.2619 3 16.3419 3.08 16.4219 3.2C16.7419 3.6 16.9419 4.08 17.0219 4.56C17.0619 4.68 17.0219 4.84 17.1019 4.96C17.1019 5.08 17.1419 5.2 17.2219 5.32C17.3019 5.68 17.1419 5.96 17.1819 6.28C17.2219 6.4 17.3019 6.52 17.3019 6.64C17.3819 6.8 17.3419 6.92 17.3419 7.04C17.3419 7.16 17.3019 7.28 17.2619 7.36C17.2619 7.56 17.2619 7.76 17.3019 7.96C17.3419 8.52 17.1819 9.04 17.2219 9.56C17.2219 9.76 17.3419 9.88 17.3019 10.04C17.3019 10.16 17.2619 10.28 17.2619 10.4C17.1419 10.68 17.2219 10.96 17.1019 11.2C16.9819 11.44 16.9819 11.6 16.9819 11.88V12.2C16.9019 12.32 16.8219 12.36 16.8619 12.52C16.9019 12.64 16.9419 12.68 16.9819 12.84C16.9419 12.96 16.9419 13.08 16.9019 13.2C16.9019 13.4 16.9819 13.68 16.8219 13.84C16.7419 13.96 16.5819 13.96 16.5419 14.12L16.5819 14.52C16.5419 14.68 16.5019 14.8 16.5419 15C16.5419 15.16 16.5819 15.32 16.5819 15.48C16.6219 15.8 16.5019 15.88 16.3019 16.04C16.1419 16.2 16.3019 16.32 16.3019 16.52C16.2619 16.76 16.1019 16.92 16.1019 17.16C16.1019 17.32 16.1419 17.4 16.1019 17.56C16.0619 17.68 16.0219 17.76 16.0619 17.88C15.9819 18.12 15.9019 18.32 15.8619 18.56C15.8619 18.72 15.9019 18.84 15.9419 19V19.4C15.9419 19.56 16.0619 19.64 15.9819 19.76C15.9819 19.92 15.8619 20 15.7819 20.12C15.7419 20.28 15.6619 20.32 15.7419 20.48C15.7419 20.68 15.7819 20.76 15.7019 20.92C15.6619 21.16 15.6619 21.44 15.6219 21.72C15.6219 21.88 15.5419 22 15.5419 22.16V22.32C15.5419 22.32 15.5819 22.36 15.5819 22.4C15.7019 22.44 15.6619 22.52 15.5819 22.52C15.4619 22.64 15.4219 22.6 15.4619 22.8C15.4619 22.96 15.4619 23.08 15.4219 23.2C15.4219 23.32 15.3419 23.52 15.5419 23.4C15.6619 23.36 15.6219 23.16 15.7019 23.08C15.7419 22.96 15.9019 22.92 15.9019 22.76C15.8219 22.68 15.6219 22.6 15.6619 22.44C15.6619 22.44 15.7419 22.44 15.7019 22.4C15.7419 22.36 15.7419 22.32 15.7819 22.24C15.7819 22.12 15.8219 21.96 15.9019 21.88C15.9819 22.04 16.1419 22.28 16.3419 22.16C16.3419 22.12 16.3819 22 16.4619 21.92C16.4619 21.84 16.5419 21.8 16.5819 21.68C16.5819 21.56 16.5819 21.04 16.4219 20.96C16.3419 20.88 16.1819 21.16 16.1019 21.2C16.0619 21 16.1419 20.84 16.1819 20.68C16.2619 20.48 16.2619 20.28 16.3419 20.08C16.3819 20 16.4219 19.92 16.4219 19.84L16.5819 19.64C16.6619 19.56 16.9419 19.72 16.8619 19.44C16.8619 19.28 16.6619 19.24 16.6219 19.12C16.5819 18.96 16.7019 18.8 16.7419 18.64C16.8219 18.36 16.8219 18.08 16.9419 17.84C17.1019 17.52 17.3019 17.2 17.3819 16.88C17.4219 16.68 17.5019 16.64 17.5819 16.48C17.6619 16.32 17.6219 16.12 17.7419 15.96C17.8219 15.8 17.9819 15.72 18.1019 15.56C18.1419 15.4 18.1419 15.24 18.2619 15.08C18.3019 14.96 18.3819 14.88 18.4619 14.72C18.4619 14.6 18.5019 14.48 18.6219 14.44C18.6619 14.4 18.8219 14.44 18.8219 14.36C18.8619 14.32 18.8619 14.2 18.8619 14.16C18.8619 14.04 18.9019 13.76 19.1019 13.84C19.1819 13.88 19.2219 13.96 19.1819 14C19.5019 14.08 19.3419 13.4 19.3819 13.16C19.4219 12.84 19.7019 12.72 19.8619 12.48C19.9419 12.36 19.9419 12.2 19.9819 12.08C20.0619 11.92 20.1819 11.84 20.2219 11.72C20.4219 11.56 20.5019 11.32 20.5819 11.12C20.7019 10.84 20.9019 10.52 21.0619 10.28C21.1819 10.16 21.2619 10.08 21.3819 9.92C21.4619 9.8 21.5019 9.6 21.5819 9.44C21.6619 9.32 21.8219 9.24 21.9419 9.12C22.0619 9 22.0619 8.84 22.2219 8.72C22.4219 8.52 22.5819 8.24 22.8219 8.04C23.0219 7.8 23.2619 7.56 23.5419 7.4C23.8219 7.24 24.1019 6.96 24.4619 6.8C24.7019 6.64 24.9419 6.56 25.3019 6.68C25.4619 6.72 25.6219 6.72 25.7819 6.76C25.8219 6.76 25.9819 6.72 26.0219 6.76C26.0619 6.84 25.9819 6.8 25.9819 6.84C25.9819 6.92 25.9019 6.84 25.9019 6.92C25.9419 7 26.1019 7 26.1419 7C26.3019 7 26.4619 7.04 26.6219 7.08C26.7819 7.16 26.8619 7.28 26.9419 7.4L27.1019 7.64C27.2219 7.72 27.2219 7.68 27.3819 7.68C27.5419 7.72 27.5419 7.8 27.6619 7.96C27.8219 8.12 27.8219 8.2 27.8619 8.36C28.0219 8.72 28.4219 8.92 28.6219 9.28C28.7819 9.56 28.8619 9.92 28.9019 10.24C28.9419 10.4 28.9019 10.56 28.9019 10.72C28.9019 10.96 29.0219 11.16 29.0619 11.36C29.1419 11.68 29.2219 12 29.2219 12.28C29.1819 12.4 29.1019 12.52 29.0619 12.64C29.0219 12.84 29.1019 13.08 29.1019 13.28C29.1019 13.44 29.1019 13.56 29.0219 13.68C29.0219 13.84 29.0219 14.04 28.9819 14.2C28.9419 14.36 28.8619 14.48 28.8219 14.6C28.7819 14.8 28.7819 15.04 28.7019 15.24C28.7019 15.56 28.6219 15.88 28.6219 16.2C28.5819 16.4 28.6219 16.52 28.5419 16.68C28.5019 16.84 28.5419 17.04 28.4619 17.2C28.4619 17.32 28.3419 17.32 28.3019 17.4C28.1819 17.52 28.1419 17.76 28.1019 17.92C28.0619 18.28 28.1819 18.64 28.1419 19C28.1019 19.12 27.9819 19.2 27.9819 19.32C27.9419 19.36 27.9819 19.44 27.9819 19.48C27.9419 19.56 27.9419 19.6 27.9019 19.72C27.9419 19.88 27.9419 19.92 27.9019 20.08C27.8619 20.28 27.8619 20.48 27.7819 20.68C27.7819 20.8 27.7019 20.84 27.6219 20.96L27.5019 21.36C27.4619 21.48 27.3819 21.56 27.3819 21.68C27.3419 21.76 27.3419 21.8 27.3819 21.92C27.3819 22.04 27.3019 22.12 27.3019 22.24C27.3019 22.4 27.3819 22.48 27.3419 22.6L27.2219 22.92C27.2219 23.08 27.1419 23.2 27.1819 23.36C27.1819 23.56 27.2619 23.8 27.2619 24.04C27.2619 24.2 27.1819 24.2 27.1019 24.32C27.0619 24.48 27.1019 24.6 27.1819 24.76C27.2219 24.96 27.1819 24.96 27.1819 25.12C27.1019 25.2 27.1419 25.32 27.1019 25.44C27.0619 25.72 27.1419 26.04 27.1019 26.32C27.1019 26.48 27.1019 26.56 27.0219 26.68C26.9019 26.88 26.8619 26.96 26.8219 27.2C26.8219 27.36 26.7419 27.52 26.7819 27.68C26.7819 27.88 26.8219 28.04 26.8619 28.24C26.9019 28.4 26.9019 28.56 26.8619 28.68C26.8219 28.88 26.7019 28.96 26.7019 29.16C26.7419 29.32 26.7419 29.48 26.7419 29.6C26.7019 29.8 26.6219 29.8 26.5419 29.92C26.4219 29.96 26.4219 30 26.4219 30.12C26.4219 30.16 26.5019 30.24 26.5019 30.32C26.5019 30.4 26.4219 30.44 26.4219 30.56C26.3419 30.84 26.5819 31.2 26.6219 31.52L26.5819 31.92C26.5819 32 26.5419 32.08 26.5419 32.16C26.5419 32.24 26.5419 32.28 26.5819 32.36C26.6219 32.4 26.6219 32.44 26.6619 32.52C26.6619 32.64 26.5819 32.72 26.5819 32.84C26.5819 32.92 26.5819 32.96 26.6219 33.04C26.5819 33.08 26.4619 33.12 26.4619 33.16C26.3819 33.28 26.5419 33.4 26.5819 33.52C26.6619 33.68 26.6619 33.92 26.6619 34.12C26.7019 34.28 26.6619 34.44 26.7019 34.6C26.7819 34.76 26.7819 34.84 26.7419 35C26.6619 35.32 26.7419 35.68 26.8619 36.04C26.9419 36.2 27.0219 36.36 27.0619 36.52C27.1019 36.72 27.1019 36.92 27.1419 37.08C27.1419 37.52 27.3019 37.72 27.7419 37.92C28.0219 38.08 28.3819 38.12 28.7419 38.2C28.8619 38.24 29.6619 38.4 29.4619 38.72C29.3819 38.88 28.7419 38.6 28.9019 38.96C28.9819 39.08 29.2219 39.08 29.2219 39.28C29.2619 39.4 29.0219 39.48 28.9019 39.52C28.7419 39.56 28.5819 39.48 28.4219 39.52C28.2619 39.56 28.2219 39.64 28.0619 39.56C27.9019 39.52 27.7819 39.44 27.6219 39.32C27.5019 39.16 27.4219 39.16 27.2619 39.08C26.9819 39 26.5819 38.88 26.3819 38.68C26.1019 38.4 25.9819 37.96 25.7819 37.64C25.5819 37.32 25.3419 37.12 25.1819 36.8C24.9819 36.44 24.8219 36.12 24.6619 35.76C24.3019 35.04 24.1019 34.32 23.9019 33.56C23.8219 33.2 23.7419 32.8 23.7019 32.4C23.7019 32.24 23.7019 32.04 23.6619 31.88C23.6619 31.68 23.5819 31.48 23.5419 31.28C23.5419 31.08 23.5819 30.92 23.6219 30.76C23.5819 30.6 23.5419 30.44 23.5419 30.28C23.5419 29.92 23.5019 29.52 23.5419 29.2C23.5419 29 23.5819 28.84 23.5419 28.64C23.5419 28.48 23.5819 28.36 23.6219 28.16V27.08C23.5819 26.36 23.7419 25.6 23.7819 24.88C23.8219 24.2 23.8219 23.52 23.9819 22.88C24.1819 22.2 24.1019 21.44 24.2219 20.76C24.2619 20.6 24.3419 20.48 24.3419 20.32C24.3419 20.24 24.3019 20.12 24.3419 20.04C24.3419 19.76 24.4219 19.48 24.5019 19.2C24.5819 18.88 24.5019 18.56 24.6219 18.28C24.7419 17.96 24.8219 17.64 24.8619 17.28C24.8219 16.92 24.9819 16.64 25.0219 16.28C25.0619 15.92 25.1019 15.56 25.1819 15.24C25.3819 14.52 25.5419 13.8 25.7019 13.08C25.9819 11.64 26.3419 10.24 26.1819 8.72C26.1419 8.44 26.1419 7.92 25.9019 7.72C25.7419 7.56 25.6619 7.68 25.5419 7.8C25.4219 7.88 25.3019 8 25.1419 8.08C24.9419 8.24 24.5819 8.32 24.4219 8.52C24.1819 8.76 23.9819 9.08 23.7819 9.32C23.6219 9.44 23.5419 9.56 23.4219 9.68C23.3019 9.8 23.2619 9.92 23.1419 10.04C23.1019 10.16 22.9819 10.16 22.8619 10.28C22.7819 10.4 22.6619 10.6 22.6219 10.76C22.5419 10.92 22.5419 11.04 22.4619 11.2C22.4619 11.32 22.3419 11.4 22.2619 11.52C22.1019 11.8 21.9019 12.04 21.7419 12.32C21.7019 12.48 21.6219 12.64 21.5419 12.76C21.4219 12.88 21.3419 12.96 21.3019 13.12L20.8619 13.96C20.7419 14.08 20.7419 14.2 20.6219 14.32C20.5419 14.44 20.4219 14.52 20.3419 14.68C20.3419 14.8 20.3019 14.88 20.2619 15C20.1419 15.16 19.9819 15.24 19.9419 15.44C19.9019 15.56 19.7819 15.64 19.7019 15.76C19.5819 15.88 19.6219 15.96 19.5819 16.16C19.5019 16.28 19.4219 16.36 19.3819 16.48C19.3019 16.64 19.1819 16.76 19.1019 16.92C19.0219 17.16 18.9819 17.44 18.8619 17.68C18.7419 17.96 18.5819 18.16 18.5819 18.52C18.5819 18.88 18.3819 19.08 18.2219 19.36C18.1819 19.48 18.2219 19.6 18.1819 19.76C18.1419 19.96 18.0619 20.16 17.9819 20.36C17.9019 20.64 17.8619 20.92 17.8219 21.2C17.8219 21.36 17.7419 21.48 17.7019 21.6C17.5819 21.72 17.4219 21.72 17.3419 21.88C17.2619 21.96 17.2619 22.12 17.3019 22.28C17.3819 22.44 17.3819 22.56 17.3819 22.72C17.4219 23.08 17.3019 23.36 17.1819 23.68C17.1019 24 17.0619 24.32 17.0219 24.64L16.9819 25.04C16.9019 25.24 16.9819 25.44 16.9419 25.64C16.9019 25.8 16.9019 25.96 16.8219 26.12C16.7819 26.28 16.8219 26.52 16.7419 26.64C16.7019 26.8 16.5419 26.84 16.5419 27C16.5419 27.16 16.7419 27.32 16.5419 27.44C16.4219 27.48 16.3419 27.44 16.2619 27.56C16.2219 27.72 16.3419 27.88 16.3819 28.04C16.4619 28.2 16.3819 28.28 16.3819 28.44L16.5419 28.72C16.5819 28.8 16.5819 28.92 16.6219 29.04L16.5019 29.4C16.4219 29.52 16.3819 29.68 16.2619 29.84C16.2219 30 16.1419 30.12 16.1019 30.28C16.0219 30.4 15.9019 30.56 15.8219 30.72C15.7019 30.96 15.7419 31.28 15.6619 31.56C15.6619 31.68 15.6219 31.76 15.5019 31.84C15.4619 31.96 15.3419 32.16 15.2619 32.2C15.1019 32.2 15.0219 32.12 14.9019 32.08C14.7819 32.04 14.5819 32.08 14.4219 32.04C14.0619 31.96 14.0219 31.6 13.8219 31.32C13.7419 31.16 13.6219 31.12 13.5019 31C13.3819 30.88 13.3819 30.72 13.3019 30.56C13.2619 30.44 13.1819 30.28 13.0619 30.24C12.8619 30.12 12.8219 30.28 12.7419 30.08C12.5419 29.4 12.3019 28.68 12.3019 27.96C12.3019 27.2 12.1819 26.4 12.1819 25.6C12.1419 25.28 12.1019 24.88 12.1819 24.6C12.2619 24.44 12.1819 24.36 12.1819 24.16C12.1419 23.96 12.1819 23.72 12.1819 23.52C12.1819 23.36 12.1819 23.24 12.2619 23.08C12.3419 22.92 12.3419 22.84 12.3419 22.6C12.3419 22.44 12.3019 22.28 12.2619 22.12C12.3019 21.92 12.3819 21.72 12.3819 21.52C12.4219 21.4 12.4219 21.28 12.4619 21.16C12.5419 21 12.4619 20.76 12.4619 20.6C12.4219 20.24 12.5019 19.88 12.5419 19.52C12.6219 19.36 12.6619 19.2 12.7019 19.04C12.7019 18.92 12.7819 18.72 12.7819 18.6C12.7819 18.48 12.6619 18.36 12.7019 18.24C12.7019 18.16 12.7019 18.08 12.7419 18C12.7819 17.88 12.7419 17.8 12.7419 17.68C12.7019 17.36 12.8219 17.04 12.9019 16.76C12.9019 16.64 12.8619 16.44 12.9019 16.28C12.9019 16.12 13.0219 15.96 12.9819 15.8C12.9819 15.64 12.9019 15.52 12.9419 15.4L13.0619 15C13.0619 14.88 13.0219 14.76 13.1019 14.6C13.1819 14.48 13.2619 14.44 13.2219 14.28C13.1819 14.08 13.1819 13.92 13.1819 13.72C13.2619 13.6 13.2619 13.44 13.3019 13.32C13.3019 13.12 13.2619 12.96 13.3419 12.76C13.3419 12.6 13.4619 12.44 13.4619 12.28C13.5419 11.92 13.4619 11.6 13.6219 11.28C13.7019 10.96 13.6619 10.6 13.7419 10.24C13.7819 10.08 13.8619 9.92 13.8619 9.72C13.9019 9.56 13.9019 9.4 13.9019 9.24L14.0219 8.08C14.0219 7.76 14.0619 7.4 14.1419 7.08C14.1419 6.92 14.2219 6.8 14.1819 6.6V6.04C14.2219 5.72 14.2219 5.36 14.2619 5.04C14.2219 4.64 14.3419 4.24 14.3019 3.84C14.2619 3.68 14.2619 2.92 14.0219 2.92C13.9419 2.92 13.9419 3 13.8619 3C13.7819 3.04 13.7019 3.04 13.6219 3.08C13.4619 3.08 13.3819 3.12 13.3419 3.28C13.1819 3.52 13.4219 3.84 13.1419 4C12.8619 4.16 12.4619 4.08 12.2619 4.36C12.2219 4.52 12.1419 4.6 12.0619 4.72C11.9019 4.8 11.9019 4.88 11.8619 5.04C11.8219 5.24 11.7819 5.32 11.6619 5.44C11.5419 5.6 11.5019 5.76 11.4219 5.92C11.3419 6.04 11.2219 6.04 11.2219 6.12C11.1419 6.2 11.1419 6.32 11.1819 6.4C11.1019 6.76 10.9019 7.04 10.7419 7.36C10.6219 7.6 10.5419 7.84 10.3819 8.08C10.2219 8.4 10.5419 8.72 10.6219 9.04C10.7019 9.28 10.5419 9.24 10.4219 9.36C10.3019 9.44 10.2619 9.52 10.2619 9.68C10.3019 9.84 10.2619 9.92 10.1019 10.04C10.0219 10.16 9.94188 10.24 9.82188 10.36C9.78188 10.48 9.66188 10.56 9.54188 10.68C9.50188 10.8 9.42188 10.92 9.38188 11.08C9.22188 11.36 9.14188 11.72 8.98188 12.04C8.94188 12.2 8.86188 12.36 8.78188 12.52C8.70188 12.6 8.66188 12.72 8.58188 12.84L8.34188 13.76C8.30188 13.92 8.22188 14.08 8.18188 14.24C8.14188 14.36 8.14188 14.48 8.10188 14.6C8.06188 14.72 7.90188 14.8 7.86188 14.92C7.90188 15 7.98188 15.28 8.02188 15.28C7.86188 15.44 7.86188 15.64 7.74188 15.8C7.74188 15.88 7.66188 15.92 7.62188 16C7.58188 16.12 7.62188 16.24 7.58188 16.36C7.58188 16.52 7.66188 16.68 7.66188 16.88C7.66188 17.08 7.50188 17.08 7.38188 17.2C7.10188 17.48 7.10188 18.04 6.98188 18.4C6.94188 18.64 6.94188 18.88 6.86188 19.08C6.82188 19.28 6.66188 19.48 6.74188 19.68C6.74188 19.8 6.82188 19.88 6.78188 20L6.66188 20.2C6.58188 20.36 6.62188 20.48 6.54188 20.64C6.50188 20.72 6.50188 20.72 6.50188 20.76C6.46188 20.84 6.50188 20.92 6.54188 21C6.50188 21.2 6.26188 21.2 6.22188 21.36C6.10188 21.48 6.10188 21.64 6.14188 21.84C6.22188 22.08 6.06188 22.08 5.98188 22.28C5.86188 22.48 5.94188 22.68 5.98188 22.88C5.98188 23.08 5.86188 23.28 5.82188 23.48L5.70187 24.08C5.70187 24.32 5.74188 24.56 5.74188 24.8C5.70187 25 5.70187 25.24 5.70187 25.44C5.74188 25.6 5.78188 25.76 5.78188 25.92L5.62188 26.56C5.58188 26.8 5.46188 26.8 5.30188 26.96C5.18188 27.12 5.14188 27.32 5.06188 27.48C5.06188 27.6 5.02188 27.64 5.02188 27.76C5.02188 27.84 5.10188 27.88 5.06188 27.96L4.90188 28.08C4.86188 28.16 4.86188 28.28 4.82188 28.36C4.78188 28.44 4.86188 28.56 4.86188 28.64C4.90188 28.76 4.86188 28.88 4.78188 29C4.74188 29.16 4.70188 29.16 4.50188 29.28C4.34188 29.4 4.46188 29.52 4.46188 29.72L4.42188 30L4.46188 30.28C4.46188 30.48 4.38188 30.68 4.34188 30.88C4.34188 31.08 4.22188 31.24 4.18188 31.44C4.10188 31.64 4.02188 31.84 3.98188 32.04C3.94188 32.24 3.94188 32.44 3.86188 32.64C3.82188 32.84 3.66188 32.92 3.66188 33.16C3.62188 33.36 3.62188 33.56 3.54188 33.72C3.42188 33.96 3.30188 34.12 3.34188 34.4C3.38188 34.64 3.42188 34.72 3.22188 34.84C3.06187 34.92 2.74188 34.92 2.54188 34.88C2.34188 34.8 2.30188 34.68 2.18188 34.52C2.06188 34.36 1.86188 34.32 1.74187 34.16C1.66188 34 1.62188 33.84 1.54188 33.64C1.50188 33.6 1.46188 33.48 1.38188 33.44C1.30188 33.4 1.22188 33.44 1.14188 33.4C0.981875 33.28 1.02188 33.04 0.901875 32.92C0.781875 32.72 0.581875 32.68 0.541875 32.48C0.461875 32.24 0.461875 32 0.421875 31.76C0.421875 31.52 0.341875 31.28 0.381875 31.04C0.341875 30.6 0.221875 30.12 0.261875 29.68C0.261875 29.48 0.301875 29.24 0.341875 29.08C0.341875 28.92 0.461875 28.88 0.421875 28.72C0.421875 28.52 0.301875 28.4 0.381875 28.2C0.421875 27.96 0.341875 27.72 0.341875 27.48C0.381875 27.32 0.421875 27.16 0.421875 26.96C0.421875 26.72 0.421875 26.48 0.461875 26.24C0.461875 25.8 0.421875 25.32 0.461875 24.88C0.541875 24.44 0.581875 24 0.621875 23.56C0.701875 23.12 0.621875 22.64 0.741875 22.2C0.821875 22 0.861875 21.88 0.821875 21.68C0.781875 21.4 0.821875 21.16 0.821875 20.88C0.861875 20.4 0.901875 19.92 0.901875 19.44C0.901875 19 0.981875 18.56 1.02188 18.12C1.06188 17.92 1.02188 17.68 1.02188 17.52C1.10188 17.28 1.10188 17.04 1.14188 16.84C1.18188 16.36 1.26188 15.92 1.30188 15.48C1.34188 15.28 1.34188 15.08 1.34188 14.88C1.38188 14.68 1.50188 14.56 1.54188 14.36C1.62188 14.2 1.50188 14.04 1.54188 13.84C1.50188 13.64 1.54188 13.44 1.54188 13.24C1.58188 13.04 1.66188 12.8 1.66188 12.6C1.70188 12.4 1.74187 12.16 1.74187 11.92C1.78188 11.48 1.90188 11.08 1.94188 10.64C2.02188 10.2 2.06188 9.76 2.18188 9.32C2.34188 8.52 2.50188 7.68 2.70188 6.88C2.74188 6.68 2.74188 6.48 2.74188 6.24C2.78188 6.08 2.90188 5.92 2.90188 5.72C2.90188 5.52 2.94188 5.32 2.98188 5.12C2.98188 4.92 3.06187 4.72 3.06187 4.52C3.22188 3.64 3.42188 2.76 3.42188 1.84C3.42188 1.56 3.26188 0.799999 3.78188 0.999999C3.98188 1.12 4.22188 1.24 4.38188 1.36L4.70188 1.56C4.78188 1.64 4.82188 1.76 4.90188 1.88C4.98188 2.08 5.18188 2.24 5.30188 2.44C5.34188 2.52 5.34188 2.6 5.42188 2.68C5.46188 2.76 5.58188 2.8 5.62188 2.88C5.74188 3.04 5.66188 3.24 5.74188 3.32C5.78188 3.4 5.86188 3.32 5.90188 3.36C6.02188 3.4 6.06188 3.44 6.14188 3.56C6.34188 3.92 6.22188 4.4 6.14188 4.8C6.14188 4.96 6.10188 5.16 6.10188 5.36C6.10188 5.48 6.14188 5.6 6.06188 5.68C5.94188 5.76 5.86188 5.68 5.82188 5.84C5.74188 6 5.82188 6.32 5.86188 6.48C5.94188 6.72 5.94188 6.92 5.90188 7.12C5.86188 7.28 5.78188 7.48 5.74188 7.6C5.66188 7.64 5.58188 7.68 5.54188 7.76C5.54188 7.84 5.58188 7.92 5.58188 8C5.62188 8.2 5.62188 8.44 5.50188 8.6L5.26188 8.92C5.22188 9.08 5.22188 9.28 5.14188 9.44C5.10188 9.64 5.02188 9.84 4.98188 10.04C4.98188 10.24 4.94188 10.44 4.94188 10.68C4.98188 10.84 5.14188 11 5.02188 11.16C4.94188 11.24 4.86188 11.24 4.86188 11.32V11.52C4.82188 11.76 4.78188 11.96 4.78188 12.16C4.74188 12.28 4.78188 12.36 4.82188 12.44C4.82188 12.6 4.78188 12.56 4.70188 12.64C4.62188 12.8 4.74188 13 4.74188 13.2C4.78188 13.4 4.58188 13.44 4.58188 13.64C4.58188 13.76 4.66188 13.84 4.66188 13.96C4.70188 14.04 4.62188 14.12 4.66188 14.2C4.66188 14.28 4.70188 14.36 4.70188 14.44C4.70188 14.52 4.62188 14.6 4.58188 14.68C4.54188 14.88 4.58188 15.08 4.54188 15.28C4.46188 15.52 4.50188 15.72 4.54188 15.96C4.54188 16.16 4.38188 16.2 4.30188 16.4C4.26188 16.56 4.34188 16.8 4.38188 17C4.38188 17.08 4.38188 17.2 4.34188 17.28C4.26188 17.36 4.22188 17.28 4.14188 17.28C3.70188 17.28 4.22188 18 4.30188 18.2C4.34188 18.4 4.34188 18.56 4.22188 18.68C4.18188 18.76 4.10188 18.8 4.10188 18.92C4.14188 19.04 4.22188 19.12 4.22188 19.24C4.22188 19.44 4.14188 19.6 4.14188 19.8C4.14188 20.04 4.18188 20.28 4.18188 20.56C4.14188 20.76 4.14188 20.96 4.14188 21.16C4.14188 21.32 4.10188 21.64 4.26188 21.72C4.38188 21.8 4.42188 21.76 4.38188 21.64C4.38188 21.6 4.30188 21.6 4.22188 21.52C4.22188 21.4 4.38188 21.12 4.46188 21C4.50188 20.88 4.66188 20.84 4.70188 20.68C4.74188 20.64 4.82188 20.48 4.78188 20.4C4.82188 20.32 4.78188 20.24 4.78188 20.12L4.94188 19.88C4.94188 19.76 4.90188 19.68 4.90188 19.6C4.86188 19.44 4.98188 19.12 5.10188 19C5.18188 18.84 5.34188 18.76 5.38188 18.6C5.50188 18.44 5.54188 18.24 5.58188 18.08C5.66188 17.92 5.58188 17.84 5.74188 17.8C5.82188 17.8 5.86188 17.84 5.94188 17.76C6.02188 17.68 5.98188 17.6 5.94188 17.56C5.86188 17.52 5.82188 17.56 5.74188 17.48C5.74188 17.44 5.78188 17.32 5.70187 17.24C5.66188 17.12 5.42188 16.88 5.66188 16.8C5.82188 16.72 5.90188 17 6.02188 16.96C6.14188 16.92 6.18188 16.56 6.10188 16.48C5.98188 16.4 5.82188 16.6 5.70187 16.36C5.70187 16.28 5.74188 16.24 5.78188 16.2C5.82188 16.08 5.90188 16.16 5.98188 16.12C6.14188 16.08 6.18188 15.84 6.22188 15.68C6.22188 15.48 6.14188 15.36 6.18188 15.2C6.22188 15.16 6.38188 15.12 6.38188 15.04C6.34188 14.96 6.26188 14.88 6.26188 14.84C6.18188 14.6 6.46188 14.6 6.54188 14.48C6.62188 14.36 6.42188 14.08 6.62188 14.04C6.78188 13.96 7.06188 14.2 7.10188 14C7.14188 13.92 7.06188 13.84 7.02188 13.76C7.06188 13.68 7.10188 13.68 7.14188 13.6C7.18188 13.52 7.30188 13.28 7.30188 13.16C7.30188 12.96 7.22188 12.8 7.30188 12.6C7.38188 12.44 7.38188 12.2 7.46188 12.04C7.54188 11.88 7.66188 11.8 7.78188 11.68C7.90188 11.44 7.98188 11.32 7.90188 11.04C7.86188 10.84 7.86188 10.76 8.02188 10.68C8.10188 10.64 8.14188 10.64 8.18188 10.56C8.22188 10.52 8.18188 10.52 8.22188 10.48C8.14188 10.4 7.98188 10.36 7.98188 10.24C7.90188 10.08 8.02188 10.08 8.10188 9.96C8.14188 9.88 8.06188 9.76 8.10188 9.72C8.18188 9.64 8.26188 9.72 8.34188 9.6C8.34188 9.48 8.18188 9.32 8.14188 9.2C8.10188 9.04 8.14188 8.96 8.22188 8.84C8.34188 8.64 8.26188 8.36 8.54188 8.28C8.62188 8.4 8.54188 8.88 8.74188 8.8C8.82188 8.72 8.78188 8.56 8.82188 8.44C8.82188 8.36 8.94188 8.24 8.94188 8.12C8.94188 8.16 8.94188 8.16 8.94188 8.16C8.94188 8.16 8.94188 8.16 8.90188 8.16H8.94188V8.12ZM11.0219 3.04L11.0619 3.4C10.9819 3.32 10.8619 3.36 10.8619 3.24C10.8219 3.12 10.9419 3 11.0219 3.04ZM10.6619 4.6C10.6619 4.56 10.6219 4.56 10.6219 4.56C10.5419 4.6 10.6219 4.64 10.6619 4.6ZM8.62188 7.88C8.74188 7.8 8.86188 8.04 8.90188 8.12C8.78188 8.16 8.54188 8.24 8.54188 8.28C8.58188 8.16 8.46188 7.96 8.62188 7.88ZM7.62188 10.88C7.82188 10.88 7.62188 11.24 7.50188 11.24C7.34188 11.2 7.46188 10.84 7.62188 10.88ZM6.98188 12.68C6.82188 12.44 6.98188 13 6.98188 12.68V12.68ZM14.6219 13.88C14.6219 14 14.4619 14.24 14.5819 14.32C14.7019 14.24 15.0219 13.56 14.6619 13.56C14.5419 13.56 14.6219 13.8 14.6219 13.88ZM19.1019 14.28C19.1019 14.36 19.1419 14.4 19.2219 14.32C19.2619 14.24 19.1819 14.08 19.1819 14C19.1419 14.12 19.0619 14.2 19.1019 14.28ZM14.3819 16.12C14.3819 16.16 14.3819 16.16 14.3819 16.2C14.5019 16.08 14.6619 15.84 14.7019 15.64C14.7019 15.56 14.7019 15.12 14.5019 15.16C14.4619 15.16 14.3819 15.4 14.3419 15.44C14.3819 15.56 14.4219 15.68 14.3819 15.8C14.4219 15.88 14.3819 16 14.3819 16.12ZM14.1819 16.92C14.1019 17 14.1419 17.24 14.3019 17.2C14.5019 17.16 14.3419 16.92 14.1819 16.92ZM14.3419 17.48C14.2219 17.28 13.8219 17.92 14.0619 18.04C14.1419 18.08 14.3819 17.6 14.3419 17.48ZM13.9819 18.4C13.9819 18.56 14.1819 18.56 14.2619 18.44C14.2619 18.28 14.0219 18.32 13.9819 18.4ZM14.1419 19.44C14.1419 19.28 13.9019 19.32 13.9019 19.44C13.9419 19.6 14.1419 19.56 14.1419 19.44ZM14.0619 20.52C13.8219 20.36 13.8219 20.72 13.9019 20.76C14.0219 20.84 14.0219 20.6 14.0619 20.52ZM13.2619 20.52C13.2219 20.52 13.1819 20.52 13.2219 20.56C13.2619 20.52 13.3019 20.52 13.2619 20.52ZM13.1419 21.08C13.2219 21.2 13.3019 21.16 13.3419 21.04C13.3819 20.92 13.2219 20.68 13.1819 20.56C12.9019 20.56 12.9419 20.92 13.1419 21.08ZM16.1419 21.64C16.1019 21.72 15.9419 21.8 15.9419 21.84C15.9419 21.72 15.9019 21.2 16.1019 21.2C16.1819 21.32 16.1819 21.52 16.1419 21.64ZM13.2619 21.4C13.1019 21.36 12.8219 21.48 13.0219 21.68C13.1019 21.8 13.1819 21.72 13.2619 21.68C13.3819 21.6 13.4619 21.6 13.6219 21.6C13.7019 21.56 14.0619 21.4 13.8219 21.28C13.7419 21.24 13.6619 21.36 13.5819 21.4C13.5019 21.44 13.3819 21.44 13.2619 21.4ZM3.78188 21.76C3.58188 21.76 3.70188 22.12 3.86188 22.12C4.10188 22.12 3.90188 21.76 3.78188 21.76ZM12.9419 21.92C12.9419 21.96 12.8619 22.08 12.9419 22.08C13.0219 22.04 13.0219 21.92 12.9419 21.92ZM13.5019 22.36C13.4619 22.4 13.5019 22.52 13.5819 22.56C13.7019 22.6 13.7419 22.48 13.7419 22.4C13.8219 22.16 13.5819 22.16 13.5019 22.36ZM16.0219 22.52C15.9419 22.6 16.1019 22.64 16.1419 22.56C16.1019 22.52 16.0619 22.48 16.0219 22.52ZM4.78188 23.44C4.74188 23.2 4.58188 23.4 4.58188 23.52C4.62188 23.76 4.82188 23.6 4.78188 23.44ZM25.1819 24.12C25.1419 24.24 25.3419 24.32 25.3419 24.16C25.3019 24.04 25.2219 24 25.1819 24.12ZM25.2219 24.88C25.1019 25.08 25.1419 24.68 25.2219 24.88V24.88ZM25.1419 25.84C25.1019 25.68 24.9019 25.76 24.9819 25.92C25.0219 26.04 25.1819 25.96 25.1419 25.84ZM24.7819 27.4C24.7819 27.52 24.8219 27.76 24.9819 27.6C25.0619 27.44 25.0219 27.28 25.0219 27.12C25.0219 27.04 25.0219 26.88 24.9019 26.92C24.7819 26.96 24.7419 27.28 24.7819 27.4ZM50.5881 37C50.3481 36.96 50.1081 37 49.9481 36.8C49.7881 36.6 49.5481 36.32 49.4681 36.08C49.3081 35.84 49.1481 35.68 49.1081 35.44C48.9481 35.16 48.9481 34.8 48.8681 34.52C48.8281 34.28 48.6281 34.08 48.6281 33.88C48.5881 33.72 48.5881 33.6 48.5881 33.48C48.6281 33.32 48.5881 33.2 48.5081 33.04C48.4281 32.76 48.2681 32.48 48.3081 32.16C48.3081 32.04 48.3481 31.96 48.3081 31.8C48.3481 31.64 48.2681 31.48 48.1881 31.32C48.1481 30.76 48.3081 30.24 48.2281 29.68C48.1881 29.36 48.1881 29.08 48.1881 28.76C48.1881 28.48 48.2681 28.2 48.2681 27.88C48.2681 27.64 48.3081 27.4 48.3081 27.12C48.3481 26.84 48.2681 26.56 48.2681 26.28C48.3081 25.76 48.4281 25.24 48.3881 24.68C48.3881 24.52 48.3481 24.36 48.3881 24.2C48.3881 24.08 48.4681 23.96 48.4681 23.8C48.5081 23.56 48.5081 23.24 48.5081 22.96C48.5081 22.68 48.5081 22.4 48.5881 22.16C48.6681 21.88 48.6681 21.6 48.6681 21.32C48.6681 21.2 48.7481 20.8 48.4681 20.84C48.3881 20.84 48.2681 20.96 48.1881 21C48.0681 21.04 47.9481 21.04 47.7881 21C47.6281 20.92 47.5881 20.88 47.4281 21C47.3481 21.04 47.2681 21.12 47.1881 21.24C47.0281 21.48 46.9481 21.32 46.7081 21.36C46.5881 21.36 46.5481 21.48 46.4281 21.48C46.3081 21.52 46.1881 21.4 46.1081 21.32L46.0281 21.28C45.8681 21.48 45.6681 21.28 45.5081 21.36C45.3881 21.4 45.3881 21.48 45.3081 21.56C45.2681 21.68 45.1881 21.68 45.0681 21.68C44.8681 21.64 44.7081 21.52 44.5081 21.52C44.3881 21.52 44.3081 21.52 44.1881 21.56C44.0681 21.64 44.0281 21.64 43.8281 21.52C43.5081 21.32 43.4281 21.52 43.1881 21.64C43.0681 21.72 43.0281 21.68 42.9081 21.6C42.7881 21.52 42.7081 21.52 42.5881 21.52C42.3081 21.52 42.2681 21.68 42.0281 21.8C41.8681 21.88 41.8281 21.8 41.7081 21.8C41.5081 21.8 41.5081 21.88 41.4281 22C41.3881 22.12 41.3081 22.16 41.2681 22.2C41.2281 22.24 41.1881 22.28 41.1481 22.28C41.1081 22.32 41.0681 22.32 41.0281 22.32C40.9081 22.4 40.9881 22.44 41.0281 22.52C41.1081 22.68 41.1081 22.64 41.0681 22.8C41.0681 22.84 41.0281 22.88 41.0281 22.96C41.0281 23.04 41.0681 23.08 41.0281 23.16C41.0281 23.28 40.9081 23.4 40.8281 23.48C40.6681 23.68 40.5881 23.96 40.5881 24.24C40.5481 24.36 40.6281 24.48 40.5481 24.64C40.4681 24.72 40.3481 24.76 40.3081 24.88C40.1881 25.04 40.3081 25.12 40.3081 25.28C40.3081 25.44 40.1881 25.56 40.1881 25.72C40.1081 25.96 40.2281 26.16 40.1881 26.4C40.1481 26.52 40.0281 26.6 39.9881 26.72L39.9081 27.16C39.9081 27.28 39.8681 27.36 39.8681 27.48C39.8681 27.64 39.9081 27.72 39.8681 27.88C39.7881 28.12 39.5481 28.28 39.4681 28.48C39.3881 28.72 39.3481 28.92 39.3881 29.2C39.3481 29.48 39.3881 29.8 39.2681 30.04C39.2281 30.16 39.2681 30.24 39.2281 30.36C39.1881 30.48 39.1481 30.56 39.0681 30.68C39.0681 30.8 39.0681 30.88 39.0281 31C38.9881 31.12 38.8681 31.2 38.8281 31.32V31.72C38.7881 31.88 38.8281 32 38.7881 32.16C38.7481 32.28 38.6681 32.4 38.6681 32.52C38.6281 32.68 38.6281 32.84 38.5881 33C38.5481 33.2 38.5081 33.52 38.5081 33.76C38.5081 33.88 38.5481 33.96 38.5081 34.08C38.5081 34.24 38.4281 34.36 38.3481 34.44C38.1081 34.88 37.5081 35 37.0281 34.76C36.7481 34.64 36.5881 34.56 36.5481 34.24C36.4281 33.96 36.3481 33.56 36.4281 33.28C36.4281 33.04 36.6281 33.04 36.7081 32.84C36.7881 32.72 36.7481 32.56 36.7481 32.44C36.7481 32.32 36.7881 32.16 36.7881 32.08C36.7481 32 36.6281 31.92 36.6281 31.84C36.6281 31.72 36.6681 31.72 36.7481 31.6C36.8681 31.4 36.8281 31.12 36.9481 30.92C37.0281 30.72 37.1481 30.48 37.2281 30.24C37.2281 30.08 37.1881 30.04 37.1481 29.88C37.1481 29.72 37.1881 29.68 37.2281 29.56C37.3881 29.36 37.4281 29.12 37.4681 28.88C37.5481 28.64 37.5481 28.36 37.5881 28.12C37.5881 27.88 37.7081 27.6 37.7881 27.4C37.8681 27.12 37.8281 26.84 37.9081 26.6C37.9481 26.48 38.0281 26.4 38.1081 26.28V25.96C38.1881 25.68 38.2281 25.4 38.3081 25.12C38.2681 25.04 38.2681 24.92 38.3081 24.84C38.3481 24.68 38.4681 24.64 38.5081 24.52C38.5081 24.44 38.5481 24.32 38.5481 24.2C38.5481 24.04 38.5481 24 38.6281 23.88C38.7481 23.68 38.9081 23.4 38.8681 23.16C38.8281 23.08 38.8281 22.84 38.7881 22.8C38.6281 22.68 38.4681 22.76 38.3481 22.8C38.0681 22.84 37.7881 22.84 37.5481 22.84C37.2681 22.88 37.0281 22.96 36.7881 22.76C36.5481 22.6 36.4281 22.36 36.3081 22.2C36.1081 21.96 35.7881 21.84 35.5881 21.64C35.1881 21.28 34.9481 20.72 35.3881 20.36C35.5881 20.24 35.8281 20.2 36.0281 20.12C36.1481 20.08 36.2281 20.04 36.3881 20C36.5081 20 36.6281 20.12 36.7881 20.12C36.9881 20.12 37.2281 20 37.4681 19.96C37.5481 19.92 37.6281 19.96 37.7481 19.96C37.8681 19.96 37.9881 19.88 38.1481 19.84C38.3881 19.8 38.5881 19.68 38.8681 19.72C39.1081 19.76 39.5081 19.8 39.7081 19.64C39.9081 19.48 39.9481 19.28 40.0681 19.04C40.1881 18.8 40.3081 18.56 40.3481 18.28C40.3481 18 40.4681 17.72 40.5481 17.44C40.5881 17.32 40.6681 17.2 40.7081 17.08C40.7481 16.92 40.7881 16.76 40.8681 16.64C40.9481 16.4 41.1081 16.28 41.1881 16.04C41.2281 15.76 41.3481 15.48 41.4681 15.24C41.5881 15.04 41.6681 14.8 41.7481 14.56C41.8681 14.36 41.9481 14.12 42.0281 13.92L42.2681 13.16C42.3081 13.04 42.2681 12.92 42.3481 12.8C42.4681 12.68 42.5481 12.64 42.5481 12.48C42.5481 12.24 42.6681 11.96 42.7481 11.76C42.7881 11.6 42.9081 11.56 42.9881 11.44C43.0681 11.32 43.0681 11.16 43.1081 11L43.4681 10.36C43.5081 10.24 43.4681 10.12 43.5081 10.04C43.5881 9.92 43.7081 9.8 43.7481 9.68C43.7881 9.56 43.8281 9.4 43.9081 9.24C44.0281 9 44.2281 8.8 44.3081 8.52C44.3481 8.44 44.3081 8.32 44.3881 8.24C44.4681 8.12 44.5481 8.08 44.6281 7.96C44.6681 7.84 44.7481 7.76 44.8281 7.64C44.9081 7.52 44.9081 7.4 44.9481 7.28C45.0281 7.2 45.1081 7.12 45.1481 7.04C45.2281 6.92 45.2281 6.8 45.2681 6.68C45.3081 6.6 45.3881 6.52 45.4681 6.4C45.5881 6.24 45.5881 6.08 45.6281 5.92C45.7081 5.8 45.7881 5.72 45.8281 5.6L45.9481 5.28C46.0281 5.2 46.0681 5.08 46.1481 5C46.2281 4.88 46.3481 4.84 46.4281 4.72C46.5081 4.68 46.5081 4.56 46.5481 4.48C46.5881 4.36 46.6681 4.24 46.7481 4.12C46.7881 4 46.8281 3.88 46.9081 3.8L47.2281 3.6C47.3881 3.44 47.4681 3.2 47.5881 3C47.7081 2.76 47.8281 2.6 48.0281 2.4C48.1881 2.2 48.2681 2.04 48.4681 1.96C48.7481 1.8 48.8681 1.56 49.0681 1.32C49.3881 0.96 50.0281 1.04 50.4681 1.08C50.7481 1.08 50.9481 1.24 51.2281 1.28C51.4681 1.28 51.7481 1.44 51.9881 1.56C52.4281 1.88 52.9881 2.28 53.1481 2.84C53.2281 3.12 53.3081 3.4 53.4281 3.64C53.5881 3.92 53.5881 4.24 53.7081 4.56C53.7481 4.84 53.8281 5.12 53.7881 5.4C53.7881 5.76 53.7481 6.04 53.8281 6.4C53.9881 7 53.8681 7.64 53.8681 8.24C53.9081 8.52 53.7881 8.8 53.7881 9.08C53.7481 9.36 53.7881 9.68 53.7481 9.96C53.7481 10.24 53.7081 10.52 53.7081 10.8C53.6681 11.04 53.6681 11.4 53.5481 11.64C53.4281 11.84 53.3081 11.88 53.2681 12.12C53.2281 12.44 53.3881 12.68 53.3881 12.96C53.3881 13.28 53.2681 13.52 53.2681 13.76C53.2281 14 53.1081 14.24 53.1081 14.48C53.1481 14.72 53.1481 14.96 53.1081 15.2C53.1081 15.4 53.1081 15.52 53.0281 15.68C52.9881 15.84 52.9881 15.84 53.0281 16C53.0281 16.28 52.9881 16.6 52.9081 16.84C52.8681 16.96 52.8681 17.08 52.8281 17.24C52.7881 17.4 52.7881 17.52 52.7881 17.68C52.7881 17.92 52.6681 18.2 52.7081 18.48C52.7881 18.72 53.1481 18.84 53.1881 19.08C53.2281 19.2 53.2281 19.32 53.2681 19.44C53.2681 19.52 53.3081 19.64 53.3081 19.76C53.3481 20 53.1081 20.32 53.0281 20.52C52.8681 20.72 52.5481 20.64 52.4281 20.88C52.3481 21.12 52.2681 21.44 52.2281 21.72C52.1481 21.88 52.1081 22 52.1481 22.2C52.1481 22.32 52.1481 22.4 52.1081 22.52C52.1081 22.64 52.1481 22.72 52.1481 22.84C52.1481 23.04 52.0281 23.08 51.9481 23.2C51.7881 23.4 51.9081 23.64 51.9881 23.88C52.0681 24.04 52.0281 24.16 51.9481 24.28C51.8281 24.4 51.8281 24.48 51.8281 24.68C51.8281 24.84 51.8281 24.96 51.8681 25.12C51.8681 25.28 51.7881 25.4 51.7481 25.56C51.7081 25.8 51.6681 26.12 51.6681 26.4C51.6681 26.56 51.6681 26.68 51.7081 26.84C51.7081 26.96 51.6281 27.08 51.6281 27.2C51.6281 27.32 51.7081 27.44 51.7081 27.56C51.7081 27.68 51.6681 27.8 51.6681 27.92C51.5881 28.16 51.5881 28.44 51.5881 28.72C51.5881 29.04 51.5081 29.32 51.5081 29.6C51.5481 29.72 51.5881 29.84 51.5881 30C51.5481 30.16 51.5881 30.32 51.5881 30.48C51.5881 30.76 51.5881 31.04 51.6281 31.36C51.5881 31.6 51.5481 31.88 51.5881 32.16V32.6C51.5481 32.76 51.5081 32.84 51.5481 33C51.5881 33.12 51.6681 33.2 51.6681 33.28C51.7081 33.44 51.7081 33.56 51.7481 33.68C51.7481 33.96 51.7881 34.24 51.8681 34.48C51.9481 34.64 51.9481 34.64 51.9481 34.8C51.9081 34.96 51.9081 35.08 51.9081 35.24C51.9881 35.36 51.9481 35.48 51.9481 35.6C51.9481 35.76 52.0281 35.92 52.1081 36.04C52.1481 36.2 52.3481 36.64 52.0681 36.68L51.7081 36.64C51.5881 36.6 51.4681 36.48 51.3481 36.44C51.0681 36.4 51.0681 36.68 51.0681 36.84C51.0681 36.96 51.1081 36.96 50.9881 37C50.8681 37.04 50.7081 37 50.5881 37ZM43.2681 19.04C43.3881 19 43.5081 18.92 43.6681 18.88C43.8681 18.8 44.1481 18.8 44.3481 18.8C44.5481 18.8 44.6681 18.88 44.8681 18.84C45.0681 18.8 45.1881 18.68 45.3881 18.64C45.5881 18.6 45.7081 18.64 45.9081 18.68C45.9881 18.68 46.0681 18.64 46.1481 18.64C46.2281 18.6 46.3081 18.64 46.4281 18.64C46.5881 18.64 46.7481 18.6 46.9081 18.6L47.1481 18.48C47.2681 18.48 47.3481 18.52 47.4681 18.48C47.6681 18.48 47.8281 18.4 48.0281 18.36C48.2281 18.32 48.4281 18.32 48.6281 18.32C49.1081 18.36 49.0281 17.92 49.1081 17.6C49.1081 17.44 49.0681 17.28 49.1481 17.12C49.1881 16.88 49.1881 16.68 49.2281 16.48C49.2281 16.28 49.2681 16.12 49.3481 15.96C49.3881 15.76 49.3481 15.68 49.3881 15.48C49.4281 15.32 49.5481 15.28 49.5481 15.12C49.5881 15.04 49.5081 14.92 49.5081 14.84C49.4681 14.72 49.5081 14.6 49.5081 14.52C49.5481 14.12 49.5881 13.72 49.7081 13.36C49.7481 13.2 49.8681 13.12 49.8281 12.92C49.7881 12.68 49.7881 12.52 49.8281 12.28C49.9081 11.96 49.8681 11.6 50.0281 11.32L50.1481 10.8C50.1881 10.6 50.1081 10.48 50.1481 10.28C50.1081 10.12 50.2281 10 50.2681 9.84C50.3081 9.68 50.1881 9.48 50.2681 9.32C50.3081 9.08 50.3081 8.88 50.3081 8.68C50.3081 8.44 50.3881 8.28 50.4281 8.08C50.4281 7.92 50.3881 7.72 50.3881 7.52C50.4281 7.32 50.4281 7.12 50.4681 6.92C50.5081 6.72 50.4281 6.52 50.4681 6.28C50.4681 6.08 50.5081 5.88 50.5081 5.64C50.5081 5.28 50.5881 4.92 50.6281 4.56V3.32C50.5881 3.12 50.5881 2.56 50.2681 2.64C50.1081 2.68 49.9081 2.8 49.7481 2.88C49.6281 2.96 49.5481 3.16 49.4681 3.28C49.3481 3.44 49.2281 3.48 49.0681 3.6C48.8681 3.72 48.8681 3.8 48.8681 4C48.7481 4.36 48.5081 4.68 48.1881 4.88C48.0681 5 47.9881 4.96 47.9881 5.16C47.9481 5.36 47.8681 5.52 47.7881 5.68C47.7081 5.72 47.6281 5.76 47.5881 5.84C47.5481 5.92 47.5481 6 47.5081 6.04C47.4681 6.2 47.3081 6.28 47.1881 6.4C47.1081 6.52 47.1081 6.72 47.0281 6.88L46.7881 7.4C46.5881 7.72 46.4281 8.08 46.1881 8.4C46.1481 8.52 46.1081 8.68 45.9481 8.76C45.7881 8.92 45.7481 8.92 45.7881 9.16C45.7481 9.32 45.7081 9.44 45.7081 9.6C45.6681 9.76 45.6281 9.8 45.5481 9.92C45.4281 10.04 45.5081 10.24 45.5081 10.4C45.4681 10.64 45.3481 10.64 45.1881 10.76C45.1081 10.84 44.9081 10.96 44.8281 11.08C44.7481 11.2 44.8281 11.4 44.7881 11.56C44.7881 11.92 44.5481 12.24 44.4281 12.52C44.3081 12.68 44.1881 12.76 44.0281 12.84C43.8281 12.96 43.9081 13.04 43.9081 13.24C43.9081 13.44 43.8281 13.56 43.8281 13.76C43.7881 13.84 43.8281 13.92 43.7881 14C43.7881 14.12 43.7081 14.16 43.6681 14.24C43.5881 14.36 43.5881 14.52 43.5081 14.68C43.4281 14.84 43.2281 14.92 43.0681 15.04C43.0681 15.04 43.0681 15.04 43.1081 15.08C43.1081 15.16 43.1081 15.32 43.0681 15.4C42.9881 15.52 42.8681 15.48 42.9081 15.68C42.9881 15.88 43.0681 15.88 42.9081 16.04C42.8281 16.16 42.7881 16.24 42.7881 16.4C42.7881 16.6 42.7481 16.76 42.7481 16.92C42.7481 17.12 42.6681 17.24 42.6281 17.44C42.6281 17.6 42.6681 17.76 42.5881 17.96L42.3881 18.32C42.3481 18.4 42.3481 18.48 42.3481 18.56C42.3081 18.68 42.2681 18.76 42.2681 18.88C42.3481 19.12 43.0681 19.08 43.2681 19.04ZM51.3881 12.24C51.5481 12.36 51.4681 12 51.4681 11.92C51.4281 11.8 51.4681 11.72 51.5481 11.64C51.6281 11.6 51.6681 11.64 51.7481 11.6L51.9081 11.44C52.0281 11.36 51.9881 11.24 51.7881 11.2L51.6281 11.24C51.5481 11.2 51.5081 11.12 51.4681 11.12C51.3081 11.08 51.1881 11.24 51.2281 11.36C51.1881 11.52 51.3481 11.68 51.2281 11.84C51.2281 11.92 51.2681 12.2 51.3881 12.24ZM50.6281 14.08C50.7481 14.32 50.9081 14.04 50.9881 13.96C51.1081 13.8 51.2281 13.72 51.1881 13.48C51.1481 13.4 51.1481 13.16 51.3081 13.16C51.4281 13.12 51.4281 13.28 51.4681 13.36C51.5081 13.32 51.7081 13.08 51.6681 13C51.6681 12.92 51.3881 12.76 51.3081 12.76C51.1481 12.76 51.0681 13 51.0281 13.08C50.9081 13.16 50.7481 13.12 50.7481 13.28C50.7081 13.4 50.8681 13.52 50.8681 13.68C50.8281 13.8 50.5881 13.84 50.6281 14.08ZM51.1881 16.28C51.5081 16.2 51.4281 16.04 51.3481 15.8C51.3081 15.56 51.3481 15.4 51.4281 15.16C51.5481 14.92 51.4681 14.64 51.5881 14.4C51.7081 14.28 51.3881 13.92 51.2681 14.08C51.1881 14.16 51.2281 14.32 51.1881 14.4C51.1481 14.52 51.0681 14.64 50.9881 14.72C50.9481 14.84 50.8681 14.92 50.8681 15.08C50.8281 15.2 50.9481 15.28 51.0281 15.44C51.0281 15.56 50.9481 15.56 50.9081 15.64C50.8281 15.76 50.7881 15.84 50.8681 15.96C50.8681 16.2 50.9081 16.32 51.1881 16.28ZM43.0281 14.92C42.9881 14.96 43.0281 15 43.0681 15.04C43.1481 14.92 43.0281 14.8 43.0281 14.92ZM50.7081 16.88C50.7881 16.92 50.8281 16.76 50.7081 16.76C50.6681 16.76 50.6281 16.84 50.7081 16.88ZM50.8681 18.08C51.1481 18.16 50.9481 17.8 50.8281 17.76C50.6281 17.76 50.7081 18.08 50.8681 18.08ZM42.0681 18.8C42.1081 18.76 42.0681 18.64 41.9881 18.64C41.9481 18.68 41.9481 18.84 42.0681 18.8ZM47.9481 19.68C48.0281 19.64 48.1881 19.44 48.0281 19.4C47.9081 19.4 47.8681 19.6 47.9481 19.68ZM46.2281 19.92C46.3081 19.84 46.5481 19.96 46.5881 19.84C46.6681 19.72 46.5881 19.56 46.4681 19.56C46.3081 19.52 46.2281 19.64 46.1481 19.76C46.1081 19.76 45.9881 19.8 46.0281 19.88C46.1081 19.96 46.1481 19.92 46.2281 19.92ZM47.3881 19.8C47.5081 19.76 47.5081 19.6 47.3481 19.64C47.2681 19.68 47.2681 19.84 47.3881 19.8ZM44.3881 20.12C44.3881 20.12 44.6281 20.16 44.6681 20.08C44.7081 19.96 44.5481 19.84 44.4681 19.84C44.1881 19.72 44.0281 20.12 44.3881 20.12ZM43.6681 20.12C43.7081 20.28 43.9481 20.28 43.9481 20.12C43.9081 20 43.6681 20 43.6681 20.12ZM50.1481 21.12C50.2281 21.12 50.1881 20.88 50.1081 20.88C50.0681 20.92 49.9881 21.08 50.1481 21.12ZM50.4281 22.52C50.5481 22.48 50.5481 22.16 50.5481 22.08V21.56C50.5481 21.48 50.5481 21.36 50.5881 21.28C50.5881 21.2 50.6681 21.12 50.6681 21.08C50.6681 20.92 50.4681 20.92 50.3881 20.96C50.3081 21.08 50.3081 21.28 50.2681 21.4C50.2281 21.68 49.9881 22 50.1881 22.32C50.2281 22.4 50.3481 22.52 50.4281 22.52ZM48.1081 21.24C48.0681 21.32 47.9481 21.28 47.9481 21.2C47.9881 21.08 48.1081 21.16 48.1081 21.24ZM45.8281 21.24C45.9081 21.28 45.9481 21.24 45.9881 21.24L45.9081 21.2C45.8281 21.2 45.8281 21.24 45.8281 21.24ZM49.0281 22.28C49.1081 22.24 49.1481 22.04 49.0281 22.04C48.9081 22.04 48.9081 22.24 49.0281 22.28ZM50.1881 24.88C50.4281 24.72 50.5481 24 50.2281 23.8C50.3081 23.8 50.1881 23.56 50.1481 23.48C50.1481 23.36 50.1881 23.04 50.0281 23C49.8681 22.96 49.9481 23.36 49.9081 23.44C49.8681 23.52 49.7881 23.56 49.7481 23.64C49.7081 23.76 49.7081 23.88 49.7481 24C49.7881 24.2 49.8681 24.4 49.9481 24.6C49.9481 24.76 49.9881 25.04 50.1881 24.88ZM50.1881 24.04C50.1481 24.08 50.0281 24.08 50.0281 24C49.9881 23.92 50.2281 23.84 50.2281 23.8C50.2281 23.88 50.2681 23.96 50.1881 24.04ZM49.2681 32.24C49.3881 32.28 49.4681 32.08 49.5081 32C49.5481 31.88 49.5081 31.8 49.6681 31.84C49.7481 31.88 49.9481 32.08 50.0281 32.04C50.1081 31.96 49.9481 31.8 49.9081 31.76C49.8281 31.68 49.6281 31.6 49.6281 31.52C49.6281 31.4 49.8681 31.36 49.8681 31.28C49.9481 31.24 49.9881 31.16 49.9881 31.08C49.9881 30.92 49.9081 30.84 49.9081 30.72C49.9481 30.56 50.0681 30.4 50.1081 30.24C50.1481 29.96 50.1481 29.68 50.1081 29.4C50.1081 29.24 50.1081 29.12 50.0281 28.96C49.9881 28.76 49.9481 28.68 49.9481 28.48L50.0681 28.16C50.0681 28.08 50.1481 28.04 50.1481 28C50.1081 27.88 50.0681 27.88 50.0281 27.8C49.9881 27.52 50.1481 27.28 50.1481 27C50.1081 26.72 50.1081 26.4 50.1481 26.16C50.1881 26.04 50.2281 25.96 50.3081 25.88C50.4281 25.76 50.5881 25.68 50.5081 25.52C50.5081 25.28 50.1081 25.08 49.9081 25.16C49.7081 25.24 49.3881 25.44 49.4681 25.68C49.5081 25.8 49.5481 25.84 49.6281 25.88C49.7081 25.92 49.7481 25.96 49.7481 26C49.7881 26.08 49.7481 26.16 49.7881 26.2C49.8281 26.32 49.9481 26.28 49.9881 26.36C50.0281 26.48 49.7481 26.52 49.7081 26.52C49.3081 26.68 49.4681 26.84 49.5881 27.16C49.6681 27.32 49.7081 27.52 49.7081 27.68C49.7081 27.8 49.6281 27.84 49.6681 27.92V27.96H49.6281C49.5881 28 49.4681 28 49.5081 27.96C49.5481 27.92 49.5881 27.96 49.6281 27.92C49.5081 27.84 49.3881 27.8 49.2281 27.88C49.1481 28 49.2281 28.12 49.2681 28.28C49.2681 28.4 49.3081 28.56 49.3081 28.72C49.3081 28.8 49.3081 29.12 49.3881 29.2C49.4681 29.24 49.5481 29.16 49.6681 29.16C49.7481 29.16 49.9081 29.28 49.8281 29.4C49.7881 29.48 49.6681 29.48 49.5481 29.52C49.4681 29.56 49.4681 29.64 49.3881 29.72C49.3481 29.68 49.0281 29.4 48.9881 29.6C49.0281 29.72 49.2681 29.96 49.3881 29.96V30V29.72C49.5481 29.76 49.4681 29.92 49.3881 30C49.3881 30.08 49.4281 30.16 49.3881 30.2C49.3881 30.28 49.2681 30.28 49.1881 30.32C49.0281 30.52 49.2681 30.88 49.1881 31.12C49.1481 31.24 49.1081 31.32 49.1881 31.48L49.2281 31.88C49.2281 31.96 49.1481 32.16 49.2681 32.24ZM48.8281 28.4C48.8681 28.36 48.8681 28.32 48.8281 28.28C48.7881 28.32 48.7881 28.36 48.8281 28.4ZM48.6681 32.56C48.6681 32.52 48.6681 32.52 48.6281 32.52C48.5481 32.56 48.6681 32.64 48.6681 32.56ZM50.0281 32.72C50.0681 32.68 50.0681 32.64 50.0681 32.6C49.9881 32.52 49.9881 32.72 50.0281 32.72ZM49.4281 33C49.7081 33 49.7881 32.72 49.4281 32.68C49.3481 32.68 49.1881 32.68 49.1881 32.84C49.1881 32.96 49.3081 33 49.4281 33ZM49.6281 33.68C49.8281 33.64 49.9081 33.12 49.6681 33.16C49.4281 33.2 49.5081 33.68 49.6281 33.68ZM50.0281 35C50.1481 34.96 50.1081 34.72 50.1081 34.64C50.1081 34.48 50.0681 34.32 50.0681 34.2C50.1081 34.08 50.2281 33.96 50.1881 33.84C50.0681 33.72 50.0281 33.84 49.9481 33.92C49.9081 34 49.8281 34.08 49.7481 34.2C49.7481 34.28 49.7081 34.44 49.7481 34.56C49.7881 34.68 49.8681 34.72 49.9081 34.84C49.9081 34.96 49.9081 35.08 50.0281 35ZM50.3881 34.28L50.4281 34.24C50.3881 34.2 50.3881 34.2 50.3481 34.2C50.3081 34.16 50.3881 34.28 50.3881 34.28ZM50.7481 36.44C50.7881 36.48 50.9081 36.52 50.9081 36.44C50.9081 36.36 50.7881 36.32 50.7481 36.44ZM60.8925 38.6C60.5725 38.56 60.2525 38.48 59.9325 38.44C59.3725 38.36 58.8525 38.12 58.4125 37.8C58.1725 37.64 58.0125 37.4 57.8125 37.2C57.7325 37.12 57.6525 37.04 57.5725 36.92C57.4925 36.76 57.4525 36.6 57.3325 36.44C56.9725 35.96 56.6125 35.52 56.3325 34.96C56.0525 34.44 55.8125 33.92 55.8125 33.36C55.8525 32.68 55.9725 32.08 56.1725 31.48C56.2925 31.24 56.3325 30.96 56.4925 30.72C56.6525 30.48 56.8525 30.24 57.0525 30C57.4525 29.48 57.8525 28.96 58.2925 28.48C58.7325 28.04 59.2125 27.6 59.6925 27.2C60.1325 26.76 60.5725 26.28 61.0925 25.92C61.6125 25.56 62.1725 25.32 62.6525 24.96C62.8525 24.84 63.0925 24.64 62.9325 24.4C62.8125 24.2 62.4925 24 62.2925 23.84C61.8125 23.4 61.3725 23 60.8525 22.6C59.8525 21.88 58.8925 21.08 58.1725 20.04C58.0125 19.8 57.9325 19.52 57.7725 19.28C57.6125 19 57.4125 18.76 57.2525 18.52C56.9325 17.96 56.6525 17.36 56.4525 16.76C56.2925 16.2 55.9325 15.64 55.9325 15.08C55.9325 14.76 55.9325 14.48 55.8925 14.2C55.8125 13.88 55.8925 13.56 55.9325 13.28C56.0925 12.64 56.2125 12 56.4925 11.44L56.8925 10.72C57.0925 10.48 57.2925 10.36 57.5325 10.2C58.0125 9.84 58.3325 9.32 58.6925 8.88C58.8525 8.64 59.0125 8.56 59.2925 8.44C59.5325 8.36 59.6525 8.28 59.8125 8.04C59.9725 7.84 60.1725 7.72 60.3725 7.6C60.6525 7.44 60.8525 7.24 61.1325 7.04C61.5725 6.72 62.0125 6.32 62.5325 6.04C62.7325 5.92 63.0125 5.8 63.2525 5.68C63.4925 5.6 63.7725 5.52 64.0125 5.36C64.4525 5.04 64.8525 4.68 65.3325 4.4C65.6125 4.28 65.7725 4.16 66.0925 4.12C66.3725 4.04 66.6125 3.96 66.8525 3.8C67.3325 3.48 67.8925 3.52 68.3725 3.32C68.6525 3.24 68.8925 3.08 69.1325 3C69.4525 2.92 69.7325 2.84 70.0125 2.8C70.6125 2.72 71.2525 2.68 71.8525 2.72C72.9325 2.8 74.1325 3.12 74.8925 3.96C75.2125 4.36 75.6125 4.8 75.7325 5.32C75.7325 5.52 75.7725 5.8 75.6525 5.96C75.4925 6.2 75.2525 6.12 75.0125 6.2C74.7725 6.28 74.6525 6.52 74.3325 6.48C74.0125 6.48 73.7725 6.48 73.4525 6.52C72.8525 6.6 72.2525 6.28 71.6125 6.32C71.3325 6.36 71.0525 6.48 70.7725 6.56L69.8125 6.8C69.5725 6.92 69.3325 7.04 69.0925 7.12C68.8125 7.16 68.5725 7.2 68.2925 7.32C68.0525 7.44 67.8925 7.56 67.6125 7.6C67.3325 7.64 67.1325 7.68 66.8525 7.84C66.3725 8.16 65.8525 8.32 65.2925 8.52C65.0525 8.6 64.8525 8.8 64.6125 8.96C64.3725 9.12 64.0525 9.28 63.7725 9.4C63.5325 9.52 63.2525 9.6 63.0525 9.76C62.8525 9.92 62.6925 10.16 62.4925 10.32C62.2925 10.44 62.0125 10.48 61.8125 10.64C61.5725 10.84 61.3725 11.04 61.1725 11.24C60.7325 11.64 60.2125 11.88 59.7725 12.32C58.9725 13.24 58.2925 14.28 58.0125 15.44C57.9325 15.76 57.9325 16.04 57.8925 16.36C57.8525 16.68 57.7725 16.92 57.8925 17.24C57.9725 17.48 58.0925 17.76 58.2125 18C58.3725 18.28 58.5725 18.52 58.7725 18.8C59.4925 19.72 60.4525 20.48 61.3725 21.24C61.8925 21.68 62.4125 22.08 62.9325 22.48C63.3325 22.8 63.6925 23.24 64.1325 23.52C64.6125 23.84 65.0525 23.64 65.5725 23.44C66.1725 23.2 66.7725 23 67.3725 22.8C68.6525 22.48 69.8925 22.08 71.0925 21.52C71.6125 21.28 72.1725 20.92 72.7325 20.72L73.6525 20.52C73.9725 20.48 74.2925 20.32 74.6125 20.2C75.2125 20 75.7725 19.76 76.3725 19.56C76.8925 19.36 77.3325 19.68 77.6925 20.04C77.8525 20.24 78.0125 20.4 78.0125 20.68C78.0125 20.96 77.8125 21.12 77.5325 21.16C77.2925 21.2 77.0525 21.24 76.8125 21.36C76.5325 21.44 76.2525 21.6 75.9325 21.68C75.6925 21.72 75.5325 21.8 75.3325 21.96C75.0925 22.16 74.8925 22.24 74.6125 22.28C74.2925 22.32 74.0125 22.44 73.7325 22.52C73.4525 22.6 73.1325 22.68 72.8925 22.84C72.3725 23.08 72.0125 23.32 71.4125 23.16C71.1325 23.12 70.9325 23.12 70.6525 23.2C70.3325 23.32 70.0125 23.4 69.6925 23.44C69.3725 23.48 69.0525 23.48 68.7725 23.6C68.5325 23.68 68.3325 23.84 68.0925 23.88C67.5325 23.96 67.0125 24.24 66.4525 24.44C66.3325 24.48 65.9325 24.52 65.8525 24.64C65.6925 24.8 65.9725 25 66.0925 25.08C66.4925 25.44 66.8925 25.8 67.2925 26.12C67.7325 26.52 68.1725 26.96 68.5325 27.4C68.9725 27.88 69.2525 28.4 69.5725 28.92C69.9325 29.48 70.1725 30.12 70.3725 30.72C70.5325 31.36 70.6925 31.92 70.6925 32.6C70.6925 32.88 70.6525 33.16 70.6125 33.44C70.5325 33.72 70.3725 33.92 70.2525 34.16L69.8925 34.92C69.7725 35.2 69.6125 35.36 69.3725 35.56C69.2125 35.72 69.1325 36 68.9725 36.2C68.7725 36.4 68.5325 36.52 68.2925 36.68C67.8125 36.96 67.4125 37.36 66.8525 37.52C66.5725 37.64 66.2925 37.68 66.0125 37.72C65.8525 37.76 65.6925 37.8 65.5325 37.88C65.4125 37.92 65.3325 38.04 65.2125 38.12C64.9325 38.24 64.7725 38.16 64.4925 38.16C64.3725 38.16 64.2925 38.2 64.1725 38.28C64.0125 38.32 63.8125 38.36 63.6525 38.36L61.7725 38.6C61.4525 38.64 61.1725 38.68 60.8925 38.6ZM61.5725 7.96C61.7725 8.08 62.0125 7.72 62.0525 7.6C62.1325 7.52 62.0525 7.4 62.0925 7.28C62.1725 7.2 62.3325 7.12 62.4525 7.2C62.5325 7.2 62.6525 7.2 62.7325 7.24C62.8125 7.24 62.8525 7.28 62.9725 7.32C63.1725 7.28 63.3325 7.12 63.4525 7.08C63.4525 7 63.4525 6.84 63.5725 6.88C63.6125 6.92 63.5725 7 63.5325 7.04L63.4525 7.08C63.4525 7.08 63.4925 7.08 63.5325 7.04C63.6925 6.96 63.8525 6.92 64.0125 6.76C64.0525 6.68 64.0525 6.56 64.1725 6.52C64.2925 6.44 64.4125 6.44 64.4925 6.4C64.6925 6.32 64.8925 6.08 65.0925 6.04C65.1725 6 65.2925 6 65.3325 6C65.4525 6 65.5325 5.88 65.6125 5.84C65.7325 5.68 65.9325 5.64 66.0125 5.52C66.0525 5.36 65.9325 5.16 65.9725 5.04C66.0125 5.04 66.0925 4.96 66.1325 4.92L66.2925 4.76C66.5325 4.64 66.5325 4.76 66.4125 4.96C66.3725 5.04 66.2925 5.16 66.4525 5.24C66.5325 5.24 66.6125 5.16 66.6925 5.2C66.7725 5.2 66.8925 5.2 66.9725 5.32C67.0925 5.4 67.0925 5.56 67.2925 5.52C67.4125 5.44 67.4925 5.28 67.4125 5.16C67.3725 5.04 67.1725 5.04 67.1325 4.92C67.0125 4.76 67.2525 4.72 67.4125 4.76C67.4925 4.84 67.5725 4.88 67.6525 4.88L67.8925 5C68.0525 5.12 68.2925 5.12 68.3325 4.92C68.3725 4.68 68.2925 4.56 68.4925 4.56C68.8125 4.52 69.0525 4.52 69.1725 4.24C69.2125 4.24 69.3325 4.44 69.4925 4.44C69.6525 4.4 69.6125 4.32 69.6525 4.2C69.6925 4.04 69.8525 4.04 69.8525 3.92C69.9325 3.72 69.6925 3.68 69.7325 3.6C69.8125 3.48 69.9725 3.56 70.1325 3.52C70.2125 3.36 70.0925 3.16 69.9325 3.08C69.8125 3.08 69.6525 3.28 69.4925 3.36C69.4525 3.32 69.0525 3.44 69.0525 3.48C69.1325 3.44 69.1325 3.64 69.1325 3.68C69.0525 3.8 68.9325 3.84 68.8525 3.84C68.7725 3.96 68.5325 4.08 68.4125 4C68.3725 3.92 68.3325 3.8 68.2525 3.8C68.0925 3.72 68.0125 3.84 67.9725 3.96C67.8125 4.08 67.8125 4.28 67.5725 4.2C67.3325 4.08 67.2125 4.24 67.0525 4.4C66.9325 4.44 66.8525 4.44 66.7325 4.44C66.6125 4.4 66.5325 4.44 66.3725 4.48C66.2125 4.52 65.9325 4.44 65.7325 4.56C65.6125 4.64 65.4125 4.72 65.5725 4.92C65.5325 4.92 65.4925 4.96 65.4925 5C65.4125 4.92 65.2925 5 65.3725 5.04C65.2125 5.08 65.1325 5.32 64.9725 5.44C64.9325 5.48 64.8925 5.52 64.8125 5.48L64.6125 5.44L64.6525 5.36C64.6525 5.36 64.5725 5.36 64.6125 5.44C64.3325 5.56 64.0525 5.92 63.8525 6.12C63.7725 6.24 63.6525 6.36 63.5725 6.32C63.4125 6.24 63.4525 6.04 63.2925 6.04C63.1725 6.04 63.0925 6.28 62.9725 6.32C62.8925 6.44 62.7325 6.44 62.6525 6.56C62.5725 6.68 62.6125 6.72 62.4125 6.76C62.3325 6.76 62.2125 6.64 62.0525 6.72C61.9325 6.76 61.8125 6.92 61.6925 7C61.5325 7.08 61.4925 7.24 61.5325 7.32C61.5725 7.48 61.6125 7.6 61.5725 7.72C61.5325 7.8 61.4125 7.92 61.5725 7.96ZM68.2525 4.4C68.2125 4.4 68.2125 4.36 68.2125 4.36C68.2125 4.28 68.2925 4.32 68.2525 4.4ZM68.3325 5.12C68.4125 5.16 68.4125 5.12 68.4525 5.08C68.4125 5.08 68.3325 5.08 68.3325 5.12ZM65.4925 5.56C65.3325 5.6 65.2925 5.48 65.1725 5.4C65.2125 5.4 65.2525 5.36 65.2925 5.36C65.3325 5.4 65.4125 5.24 65.4925 5.24C65.5725 5.2 65.7325 5.28 65.7325 5.36C65.7725 5.52 65.5725 5.6 65.4925 5.56ZM65.9725 6.36C66.0925 6.36 66.0125 6.2 65.8925 6.24C65.8125 6.32 65.8925 6.36 65.9725 6.36ZM65.0525 6.72C65.0925 6.68 65.0125 6.6 64.9325 6.6C64.8925 6.68 64.9325 6.76 65.0525 6.72ZM64.2925 7.16C64.3325 7.2 64.4925 7.2 64.4925 7.12C64.5325 7 64.2925 7.08 64.2925 7.16ZM62.3325 7.52C62.5725 7.52 62.5325 7.28 62.4125 7.2C62.2925 7.28 62.0925 7.48 62.3325 7.52ZM59.5725 10.28C59.6525 10.32 59.8125 10.2 59.8125 10.08C59.7725 9.96 59.3725 9.84 59.4525 9.72C59.4925 9.64 59.6925 9.76 59.7725 9.76C59.8925 9.72 59.9325 9.6 60.0125 9.52C60.0525 9.48 60.1725 9.48 60.2525 9.44C60.4125 9.36 60.4125 9.24 60.4525 9.08C60.5725 8.88 60.8125 8.88 60.9725 8.84C61.3725 8.76 61.0125 8.52 61.0925 8.28C61.1325 8.12 61.2925 8.08 61.2925 8C61.2925 7.84 61.2525 7.64 61.0925 7.6C60.8925 7.6 60.8525 7.72 60.7325 7.84C60.6925 7.92 60.5725 7.88 60.5725 8C60.5725 8.04 60.6125 8.08 60.5725 8.16C60.5325 8.28 60.4125 8.28 60.3325 8.32L60.0925 8.56C59.9725 8.72 59.8525 8.72 59.6525 8.8C59.4525 8.88 59.4525 9.08 59.2925 9.28C59.2525 9.32 59.1325 9.4 59.1325 9.52C59.0525 9.64 58.9725 9.76 58.8525 9.76C58.7725 9.84 58.6525 10.04 58.7325 10.16C58.7725 10.2 59.0925 10.24 59.1725 10.2C59.2525 10.2 59.2925 10.16 59.4125 10.2C59.4525 10.2 59.4925 10.28 59.5725 10.28ZM57.4925 10.88C57.5325 10.96 57.7325 10.88 57.7725 10.88C57.8925 10.84 57.9725 10.72 58.0925 10.64C58.2125 10.56 58.6525 10.4 58.3725 10.2C58.4125 10.16 58.4525 10.16 58.4525 10.12C58.4125 10.08 58.2925 10.12 58.4125 10.16C58.2925 10.16 57.4525 10.72 57.4925 10.88ZM56.8125 12.28C56.8125 12.6 57.4925 12.2 57.5325 12.2C57.6525 12.16 57.7325 11.96 57.8125 11.88C57.8125 11.84 57.8125 11.76 57.8525 11.72C57.8925 11.68 57.9725 11.64 58.0125 11.56C58.0125 11.44 57.8925 11.52 57.8925 11.56C57.6925 11.68 57.5725 11.84 57.4125 11.96C57.3325 12.08 57.2125 12.12 57.0525 12.16C57.0125 12.2 56.8525 12.2 56.8125 12.28ZM59.5725 35.68C59.7725 35.68 60.0125 35.72 60.2925 35.68C60.8125 35.64 61.2925 35.52 61.8125 35.48C62.3325 35.4 62.8525 35.28 63.3725 35.12C64.2525 34.84 65.2125 34.52 65.9725 33.92C66.7325 33.36 67.2525 32.44 67.3725 31.48C67.4525 31 67.5325 30.44 67.4125 30C67.3325 29.56 67.0125 29.12 66.7725 28.76C66.4525 28.36 66.0125 28.08 65.6125 27.76C65.1725 27.44 64.7725 27.04 64.3325 26.72C64.2125 26.6 64.0125 26.48 63.8125 26.52C63.6125 26.52 63.4125 26.68 63.2925 26.84C63.1725 27 63.0525 27.16 62.9725 27.32C62.7725 27.48 62.5725 27.64 62.3725 27.76L61.8125 27.96C61.6525 28.08 61.5725 28.24 61.5325 28.4C61.4525 28.64 61.3725 28.76 61.2125 28.92C61.0125 29.08 60.8125 29.16 60.6125 29.28C60.4125 29.44 60.3325 29.6 60.2125 29.84C60.0125 30.04 59.8925 30.16 59.8525 30.44C59.8525 30.76 59.6925 30.84 59.5325 31.04C59.2925 31.2 59.1725 31.36 59.0925 31.6C58.8125 32.12 58.6525 32.68 58.4925 33.24C58.4125 33.48 58.2925 33.72 58.3325 33.96C58.3725 34.24 58.4125 34.52 58.3325 34.8C58.2925 35 58.1725 35.2 58.2925 35.4C58.3725 35.52 58.6525 35.6 58.8125 35.64C59.0925 35.72 59.2925 35.68 59.5725 35.68ZM78.2753 38.6C77.9553 38.56 77.6353 38.48 77.3153 38.44C76.7553 38.36 76.2353 38.12 75.7953 37.8C75.5553 37.64 75.3953 37.4 75.1953 37.2C75.1153 37.12 75.0353 37.04 74.9553 36.92C74.8753 36.76 74.8353 36.6 74.7153 36.44C74.3553 35.96 73.9953 35.52 73.7153 34.96C73.4353 34.44 73.1953 33.92 73.1953 33.36C73.2353 32.68 73.3553 32.08 73.5553 31.48C73.6753 31.24 73.7153 30.96 73.8753 30.72C74.0353 30.48 74.2353 30.24 74.4353 30C74.8353 29.48 75.2353 28.96 75.6753 28.48C76.1153 28.04 76.5953 27.6 77.0753 27.2C77.5153 26.76 77.9553 26.28 78.4753 25.92C78.9953 25.56 79.5553 25.32 80.0353 24.96C80.2353 24.84 80.4753 24.64 80.3153 24.4C80.1953 24.2 79.8753 24 79.6753 23.84C79.1953 23.4 78.7553 23 78.2353 22.6C77.2353 21.88 76.2753 21.08 75.5553 20.04C75.3953 19.8 75.3153 19.52 75.1553 19.28C74.9953 19 74.7953 18.76 74.6353 18.52C74.3153 17.96 74.0353 17.36 73.8353 16.76C73.6753 16.2 73.3153 15.64 73.3153 15.08C73.3153 14.76 73.3153 14.48 73.2753 14.2C73.1953 13.88 73.2753 13.56 73.3153 13.28C73.4753 12.64 73.5953 12 73.8753 11.44L74.2753 10.72C74.4753 10.48 74.6753 10.36 74.9153 10.2C75.3953 9.84 75.7153 9.32 76.0753 8.88C76.2353 8.64 76.3953 8.56 76.6753 8.44C76.9153 8.36 77.0353 8.28 77.1953 8.04C77.3553 7.84 77.5553 7.72 77.7553 7.6C78.0353 7.44 78.2353 7.24 78.5153 7.04C78.9553 6.72 79.3953 6.32 79.9153 6.04C80.1153 5.92 80.3953 5.8 80.6353 5.68C80.8753 5.6 81.1553 5.52 81.3953 5.36C81.8353 5.04 82.2353 4.68 82.7153 4.4C82.9953 4.28 83.1553 4.16 83.4753 4.12C83.7553 4.04 83.9953 3.96 84.2353 3.8C84.7153 3.48 85.2753 3.52 85.7553 3.32C86.0353 3.24 86.2753 3.08 86.5153 3C86.8353 2.92 87.1153 2.84 87.3953 2.8C87.9953 2.72 88.6353 2.68 89.2353 2.72C90.3153 2.8 91.5153 3.12 92.2753 3.96C92.5953 4.36 92.9953 4.8 93.1153 5.32C93.1153 5.52 93.1553 5.8 93.0353 5.96C92.8753 6.2 92.6353 6.12 92.3953 6.2C92.1553 6.28 92.0353 6.52 91.7153 6.48C91.3953 6.48 91.1553 6.48 90.8353 6.52C90.2353 6.6 89.6353 6.28 88.9953 6.32C88.7153 6.36 88.4353 6.48 88.1553 6.56L87.1953 6.8C86.9553 6.92 86.7153 7.04 86.4753 7.12C86.1953 7.16 85.9553 7.2 85.6753 7.32C85.4353 7.44 85.2753 7.56 84.9953 7.6C84.7153 7.64 84.5153 7.68 84.2353 7.84C83.7553 8.16 83.2353 8.32 82.6753 8.52C82.4353 8.6 82.2353 8.8 81.9953 8.96C81.7553 9.12 81.4353 9.28 81.1553 9.4C80.9153 9.52 80.6353 9.6 80.4353 9.76C80.2353 9.92 80.0753 10.16 79.8753 10.32C79.6753 10.44 79.3953 10.48 79.1953 10.64C78.9553 10.84 78.7553 11.04 78.5553 11.24C78.1153 11.64 77.5953 11.88 77.1553 12.32C76.3553 13.24 75.6753 14.28 75.3953 15.44C75.3153 15.76 75.3153 16.04 75.2753 16.36C75.2353 16.68 75.1553 16.92 75.2753 17.24C75.3553 17.48 75.4753 17.76 75.5953 18C75.7553 18.28 75.9553 18.52 76.1553 18.8C76.8753 19.72 77.8353 20.48 78.7553 21.24C79.2753 21.68 79.7953 22.08 80.3153 22.48C80.7153 22.8 81.0753 23.24 81.5153 23.52C81.9953 23.84 82.4353 23.64 82.9553 23.44C83.5553 23.2 84.1553 23 84.7553 22.8C86.0353 22.48 87.2753 22.08 88.4753 21.52C88.9953 21.28 89.5553 20.92 90.1153 20.72L91.0353 20.52C91.3553 20.48 91.6753 20.32 91.9953 20.2C92.5953 20 93.1553 19.76 93.7553 19.56C94.2753 19.36 94.7153 19.68 95.0753 20.04C95.2353 20.24 95.3953 20.4 95.3953 20.68C95.3953 20.96 95.1953 21.12 94.9153 21.16C94.6753 21.2 94.4353 21.24 94.1953 21.36C93.9153 21.44 93.6353 21.6 93.3153 21.68C93.0753 21.72 92.9153 21.8 92.7153 21.96C92.4753 22.16 92.2753 22.24 91.9953 22.28C91.6753 22.32 91.3953 22.44 91.1153 22.52C90.8353 22.6 90.5153 22.68 90.2753 22.84C89.7553 23.08 89.3953 23.32 88.7953 23.16C88.5153 23.12 88.3153 23.12 88.0353 23.2C87.7153 23.32 87.3953 23.4 87.0753 23.44C86.7553 23.48 86.4353 23.48 86.1553 23.6C85.9153 23.68 85.7153 23.84 85.4753 23.88C84.9153 23.96 84.3953 24.24 83.8353 24.44C83.7153 24.48 83.3153 24.52 83.2353 24.64C83.0753 24.8 83.3553 25 83.4753 25.08C83.8753 25.44 84.2753 25.8 84.6753 26.12C85.1153 26.52 85.5553 26.96 85.9153 27.4C86.3553 27.88 86.6353 28.4 86.9553 28.92C87.3153 29.48 87.5553 30.12 87.7553 30.72C87.9153 31.36 88.0753 31.92 88.0753 32.6C88.0753 32.88 88.0353 33.16 87.9953 33.44C87.9153 33.72 87.7553 33.92 87.6353 34.16L87.2753 34.92C87.1553 35.2 86.9953 35.36 86.7553 35.56C86.5953 35.72 86.5153 36 86.3553 36.2C86.1553 36.4 85.9153 36.52 85.6753 36.68C85.1953 36.96 84.7953 37.36 84.2353 37.52C83.9553 37.64 83.6753 37.68 83.3953 37.72C83.2353 37.76 83.0753 37.8 82.9153 37.88C82.7953 37.92 82.7153 38.04 82.5953 38.12C82.3153 38.24 82.1553 38.16 81.8753 38.16C81.7553 38.16 81.6753 38.2 81.5553 38.28C81.3953 38.32 81.1953 38.36 81.0353 38.36L79.1553 38.6C78.8353 38.64 78.5553 38.68 78.2753 38.6ZM78.9553 7.96C79.1553 8.08 79.3953 7.72 79.4353 7.6C79.5153 7.52 79.4353 7.4 79.4753 7.28C79.5553 7.2 79.7153 7.12 79.8353 7.2C79.9153 7.2 80.0353 7.2 80.1153 7.24C80.1953 7.24 80.2353 7.28 80.3553 7.32C80.5553 7.28 80.7153 7.12 80.8353 7.08C80.8353 7 80.8353 6.84 80.9553 6.88C80.9953 6.92 80.9553 7 80.9153 7.04L80.8353 7.08C80.8353 7.08 80.8753 7.08 80.9153 7.04C81.0753 6.96 81.2353 6.92 81.3953 6.76C81.4353 6.68 81.4353 6.56 81.5553 6.52C81.6753 6.44 81.7953 6.44 81.8753 6.4C82.0753 6.32 82.2753 6.08 82.4753 6.04C82.5553 6 82.6753 6 82.7153 6C82.8353 6 82.9153 5.88 82.9953 5.84C83.1153 5.68 83.3153 5.64 83.3953 5.52C83.4353 5.36 83.3153 5.16 83.3553 5.04C83.3953 5.04 83.4753 4.96 83.5153 4.92L83.6753 4.76C83.9153 4.64 83.9153 4.76 83.7953 4.96C83.7553 5.04 83.6753 5.16 83.8353 5.24C83.9153 5.24 83.9953 5.16 84.0753 5.2C84.1553 5.2 84.2753 5.2 84.3553 5.32C84.4753 5.4 84.4753 5.56 84.6753 5.52C84.7953 5.44 84.8753 5.28 84.7953 5.16C84.7553 5.04 84.5553 5.04 84.5153 4.92C84.3953 4.76 84.6353 4.72 84.7953 4.76C84.8753 4.84 84.9553 4.88 85.0353 4.88L85.2753 5C85.4353 5.12 85.6753 5.12 85.7153 4.92C85.7553 4.68 85.6753 4.56 85.8753 4.56C86.1953 4.52 86.4353 4.52 86.5553 4.24C86.5953 4.24 86.7153 4.44 86.8753 4.44C87.0353 4.4 86.9953 4.32 87.0353 4.2C87.0753 4.04 87.2353 4.04 87.2353 3.92C87.3153 3.72 87.0753 3.68 87.1153 3.6C87.1953 3.48 87.3553 3.56 87.5153 3.52C87.5953 3.36 87.4753 3.16 87.3153 3.08C87.1953 3.08 87.0353 3.28 86.8753 3.36C86.8353 3.32 86.4353 3.44 86.4353 3.48C86.5153 3.44 86.5153 3.64 86.5153 3.68C86.4353 3.8 86.3153 3.84 86.2353 3.84C86.1553 3.96 85.9153 4.08 85.7953 4C85.7553 3.92 85.7153 3.8 85.6353 3.8C85.4753 3.72 85.3953 3.84 85.3553 3.96C85.1953 4.08 85.1953 4.28 84.9553 4.2C84.7153 4.08 84.5953 4.24 84.4353 4.4C84.3153 4.44 84.2353 4.44 84.1153 4.44C83.9953 4.4 83.9153 4.44 83.7553 4.48C83.5953 4.52 83.3153 4.44 83.1153 4.56C82.9953 4.64 82.7953 4.72 82.9553 4.92C82.9153 4.92 82.8753 4.96 82.8753 5C82.7953 4.92 82.6753 5 82.7553 5.04C82.5953 5.08 82.5153 5.32 82.3553 5.44C82.3153 5.48 82.2753 5.52 82.1953 5.48L81.9953 5.44L82.0353 5.36C82.0353 5.36 81.9553 5.36 81.9953 5.44C81.7153 5.56 81.4353 5.92 81.2353 6.12C81.1553 6.24 81.0353 6.36 80.9553 6.32C80.7953 6.24 80.8353 6.04 80.6753 6.04C80.5553 6.04 80.4753 6.28 80.3553 6.32C80.2753 6.44 80.1153 6.44 80.0353 6.56C79.9553 6.68 79.9953 6.72 79.7953 6.76C79.7153 6.76 79.5953 6.64 79.4353 6.72C79.3153 6.76 79.1953 6.92 79.0753 7C78.9153 7.08 78.8753 7.24 78.9153 7.32C78.9553 7.48 78.9953 7.6 78.9553 7.72C78.9153 7.8 78.7953 7.92 78.9553 7.96ZM85.6353 4.4C85.5953 4.4 85.5953 4.36 85.5953 4.36C85.5953 4.28 85.6753 4.32 85.6353 4.4ZM85.7153 5.12C85.7953 5.16 85.7953 5.12 85.8353 5.08C85.7953 5.08 85.7153 5.08 85.7153 5.12ZM82.8753 5.56C82.7153 5.6 82.6753 5.48 82.5553 5.4C82.5953 5.4 82.6353 5.36 82.6753 5.36C82.7153 5.4 82.7953 5.24 82.8753 5.24C82.9553 5.2 83.1153 5.28 83.1153 5.36C83.1553 5.52 82.9553 5.6 82.8753 5.56ZM83.3553 6.36C83.4753 6.36 83.3953 6.2 83.2753 6.24C83.1953 6.32 83.2753 6.36 83.3553 6.36ZM82.4353 6.72C82.4753 6.68 82.3953 6.6 82.3153 6.6C82.2753 6.68 82.3153 6.76 82.4353 6.72ZM81.6753 7.16C81.7153 7.2 81.8753 7.2 81.8753 7.12C81.9153 7 81.6753 7.08 81.6753 7.16ZM79.7153 7.52C79.9553 7.52 79.9153 7.28 79.7953 7.2C79.6753 7.28 79.4753 7.48 79.7153 7.52ZM76.9553 10.28C77.0353 10.32 77.1953 10.2 77.1953 10.08C77.1553 9.96 76.7553 9.84 76.8353 9.72C76.8753 9.64 77.0753 9.76 77.1553 9.76C77.2753 9.72 77.3153 9.6 77.3953 9.52C77.4353 9.48 77.5553 9.48 77.6353 9.44C77.7953 9.36 77.7953 9.24 77.8353 9.08C77.9553 8.88 78.1953 8.88 78.3553 8.84C78.7553 8.76 78.3953 8.52 78.4753 8.28C78.5153 8.12 78.6753 8.08 78.6753 8C78.6753 7.84 78.6353 7.64 78.4753 7.6C78.2753 7.6 78.2353 7.72 78.1153 7.84C78.0753 7.92 77.9553 7.88 77.9553 8C77.9553 8.04 77.9953 8.08 77.9553 8.16C77.9153 8.28 77.7953 8.28 77.7153 8.32L77.4753 8.56C77.3553 8.72 77.2353 8.72 77.0353 8.8C76.8353 8.88 76.8353 9.08 76.6753 9.28C76.6353 9.32 76.5153 9.4 76.5153 9.52C76.4353 9.64 76.3553 9.76 76.2353 9.76C76.1553 9.84 76.0353 10.04 76.1153 10.16C76.1553 10.2 76.4753 10.24 76.5553 10.2C76.6353 10.2 76.6753 10.16 76.7953 10.2C76.8353 10.2 76.8753 10.28 76.9553 10.28ZM74.8753 10.88C74.9153 10.96 75.1153 10.88 75.1553 10.88C75.2753 10.84 75.3553 10.72 75.4753 10.64C75.5953 10.56 76.0353 10.4 75.7553 10.2C75.7953 10.16 75.8353 10.16 75.8353 10.12C75.7953 10.08 75.6753 10.12 75.7953 10.16C75.6753 10.16 74.8353 10.72 74.8753 10.88ZM74.1953 12.28C74.1953 12.6 74.8753 12.2 74.9153 12.2C75.0353 12.16 75.1153 11.96 75.1953 11.88C75.1953 11.84 75.1953 11.76 75.2353 11.72C75.2753 11.68 75.3553 11.64 75.3953 11.56C75.3953 11.44 75.2753 11.52 75.2753 11.56C75.0753 11.68 74.9553 11.84 74.7953 11.96C74.7153 12.08 74.5953 12.12 74.4353 12.16C74.3953 12.2 74.2353 12.2 74.1953 12.28ZM76.9553 35.68C77.1553 35.68 77.3953 35.72 77.6753 35.68C78.1953 35.64 78.6753 35.52 79.1953 35.48C79.7153 35.4 80.2353 35.28 80.7553 35.12C81.6353 34.84 82.5953 34.52 83.3553 33.92C84.1153 33.36 84.6353 32.44 84.7553 31.48C84.8353 31 84.9153 30.44 84.7953 30C84.7153 29.56 84.3953 29.12 84.1553 28.76C83.8353 28.36 83.3953 28.08 82.9953 27.76C82.5553 27.44 82.1553 27.04 81.7153 26.72C81.5953 26.6 81.3953 26.48 81.1953 26.52C80.9953 26.52 80.7953 26.68 80.6753 26.84C80.5553 27 80.4353 27.16 80.3553 27.32C80.1553 27.48 79.9553 27.64 79.7553 27.76L79.1953 27.96C79.0353 28.08 78.9553 28.24 78.9153 28.4C78.8353 28.64 78.7553 28.76 78.5953 28.92C78.3953 29.08 78.1953 29.16 77.9953 29.28C77.7953 29.44 77.7153 29.6 77.5953 29.84C77.3953 30.04 77.2753 30.16 77.2353 30.44C77.2353 30.76 77.0753 30.84 76.9153 31.04C76.6753 31.2 76.5553 31.36 76.4753 31.6C76.1953 32.12 76.0353 32.68 75.8753 33.24C75.7953 33.48 75.6753 33.72 75.7153 33.96C75.7553 34.24 75.7953 34.52 75.7153 34.8C75.6753 35 75.5553 35.2 75.6753 35.4C75.7553 35.52 76.0353 35.6 76.1953 35.64C76.4753 35.72 76.6753 35.68 76.9553 35.68Z" fill="#1F2A44"/>
</svg>
