<svg width="78" height="32" viewBox="0 0 78 32" fill="none" xmlns="http://www.w3.org/2000/svg">
<path d="M7.27142 6.14154C7.23889 6.17407 7.23889 6.14154 7.23889 6.17407V6.14154H7.27142C7.33647 6.07648 7.46658 6.01143 7.46658 5.91384C7.46658 5.84879 7.369 5.81626 7.40153 5.71868C7.369 5.65362 7.46658 5.58857 7.46658 5.52351C7.46658 5.3934 7.40153 5.36088 7.369 5.26329C7.30394 5.13319 7.40153 5.16571 7.43405 5.06813C7.46658 5.0356 7.43405 4.97055 7.40153 4.90549C7.43405 4.71033 7.7268 4.97055 7.79186 4.74286C7.79186 4.64527 7.75933 4.58022 7.85691 4.51516C7.92197 4.45011 7.98702 4.45011 8.05208 4.35252C8.14966 4.18989 8.0846 3.9622 8.14966 3.76703C8.14966 3.7345 8.18218 3.70198 8.21471 3.66945C8.21471 3.60439 8.18218 3.57187 8.14966 3.50681C8.14966 3.40923 8.14966 3.34417 8.21471 3.27912C8.34482 3.21406 8.50746 3.24659 8.60504 3.21406C8.60504 3.21406 8.60504 3.18154 8.60504 3.14901C8.60504 3.11648 8.57251 3.08395 8.60504 3.08395C8.70262 2.95384 8.80021 3.0189 8.63757 2.82373C8.60504 2.75868 8.57251 2.75868 8.60504 2.69362C8.60504 2.62857 8.6701 2.56351 8.73515 2.53099C8.80021 2.49846 8.86526 2.49846 8.93032 2.46593C8.96284 2.43341 8.99537 2.43341 8.99537 2.40088C9.0279 2.43341 9.0279 2.46593 9.06043 2.43341C8.96284 2.40088 8.99537 2.36835 8.99537 2.3033V2.33582C9.41823 2.33582 9.41823 1.81538 9.54834 1.52264C9.58087 1.42505 9.64592 1.39253 9.67845 1.26242C9.64592 1.16483 9.61339 1.06725 9.67845 1.0022C9.7435 0.937142 9.84109 0.969669 9.90614 0.937142C10.0037 0.904613 10.0688 0.807031 10.1664 0.774504C10.3615 0.709448 10.6543 0.741975 10.882 0.741975H11.2723C11.4349 0.774504 11.4349 0.807031 11.5 0.904613C11.6301 1.09978 11.7602 1.0022 11.9554 1.06725C12.0855 1.13231 12.1505 1.22989 12.2806 1.29494C12.3782 1.39253 12.4433 1.42505 12.5409 1.45758C12.671 1.52264 12.7686 1.55516 12.8661 1.58769C12.8987 1.58769 12.9637 1.55516 12.9963 1.62022C13.0288 1.68527 12.9637 1.65274 12.9637 1.68527C12.9637 1.75033 12.8987 1.68527 12.9637 1.78285L13.0938 1.88044C13.2239 1.97802 13.289 2.04307 13.3541 2.14066C13.6143 2.46593 13.7769 2.85626 13.842 3.24659C13.8745 3.34417 13.842 3.47428 13.907 3.57187C13.907 3.66945 13.9395 3.76703 14.0046 3.86461C14.0697 4.15736 13.9395 4.38505 13.9721 4.64527C14.0046 4.74286 14.0697 4.84044 14.0697 4.93802C14.1347 5.06813 14.1022 5.16571 14.1022 5.26329C14.1022 5.36088 14.0697 5.45846 14.0371 5.52351C14.0371 5.68615 14.0371 5.84879 14.0697 6.01143C14.1022 6.46681 13.9721 6.88967 14.0046 7.31253C14.0046 7.47516 14.1022 7.57275 14.0697 7.70286C14.0697 7.80044 14.0371 7.89802 14.0371 7.9956C13.9395 8.22329 14.0046 8.45099 13.907 8.64615C13.8094 8.84132 13.8094 8.97143 13.8094 9.19912V9.45934C13.7444 9.55692 13.6793 9.58945 13.7119 9.71956C13.7444 9.81714 13.7769 9.84967 13.8094 9.97978C13.7769 10.0774 13.7769 10.1749 13.7444 10.2725C13.7444 10.4352 13.8094 10.6629 13.6793 10.793C13.6143 10.8905 13.4842 10.8905 13.4516 11.0207L13.4842 11.3459C13.4516 11.476 13.4191 11.5736 13.4516 11.7363C13.4516 11.8664 13.4842 11.9965 13.4842 12.1266C13.5167 12.3868 13.4191 12.4519 13.2565 12.582C13.1264 12.7121 13.2565 12.8097 13.2565 12.9723C13.2239 13.1675 13.0938 13.2976 13.0938 13.4927C13.0938 13.6229 13.1264 13.6879 13.0938 13.818C13.0613 13.9156 13.0288 13.9807 13.0613 14.0782C12.9963 14.2734 12.9312 14.436 12.8987 14.6312C12.8987 14.7613 12.9312 14.8589 12.9637 14.989V15.3143C12.9637 15.4444 13.0613 15.5095 12.9963 15.607C12.9963 15.7371 12.8987 15.8022 12.8336 15.8998C12.8011 16.0299 12.736 16.0624 12.8011 16.1925C12.8011 16.3552 12.8336 16.4202 12.7686 16.5503C12.736 16.7455 12.736 16.9732 12.7035 17.2009C12.7035 17.331 12.6384 17.4286 12.6384 17.5587V17.6888C12.6384 17.6888 12.671 17.7213 12.671 17.7538C12.7686 17.7864 12.736 17.8514 12.671 17.8514C12.5734 17.949 12.5409 17.9165 12.5734 18.0791C12.5734 18.2092 12.5734 18.3068 12.5409 18.4044C12.5409 18.502 12.4758 18.6646 12.6384 18.567C12.736 18.5345 12.7035 18.3719 12.7686 18.3068C12.8011 18.2092 12.9312 18.1767 12.9312 18.0466C12.8661 17.9815 12.7035 17.9165 12.736 17.7864C12.736 17.7864 12.8011 17.7864 12.7686 17.7538C12.8011 17.7213 12.8011 17.6888 12.8336 17.6237C12.8336 17.5262 12.8661 17.396 12.9312 17.331C12.9963 17.4611 13.1264 17.6563 13.289 17.5587C13.289 17.5262 13.3215 17.4286 13.3866 17.3635C13.3866 17.2985 13.4516 17.2659 13.4842 17.1684C13.4842 17.0708 13.4842 16.6479 13.3541 16.5829C13.289 16.5178 13.1589 16.7455 13.0938 16.778C13.0613 16.6154 13.1264 16.4853 13.1589 16.3552C13.2239 16.1925 13.2239 16.0299 13.289 15.8673C13.3215 15.8022 13.3541 15.7371 13.3541 15.6721L13.4842 15.5095C13.5492 15.4444 13.7769 15.5745 13.7119 15.3468C13.7119 15.2167 13.5492 15.1842 13.5167 15.0866C13.4842 14.9565 13.5817 14.8264 13.6143 14.6963C13.6793 14.4686 13.6793 14.2409 13.7769 14.0457C13.907 13.7855 14.0697 13.5253 14.1347 13.2651C14.1672 13.1024 14.2323 13.0699 14.2974 12.9398C14.3624 12.8097 14.3299 12.647 14.4275 12.5169C14.4925 12.3868 14.6226 12.3218 14.7202 12.1916C14.7527 12.0615 14.7527 11.9314 14.8503 11.8013C14.8828 11.7037 14.9479 11.6387 15.013 11.5086C15.013 11.411 15.0455 11.3134 15.1431 11.2809C15.1756 11.2483 15.3057 11.2809 15.3057 11.2158C15.3382 11.1833 15.3382 11.0857 15.3382 11.0532C15.3382 10.9556 15.3708 10.7279 15.5334 10.793C15.5984 10.8255 15.631 10.8905 15.5984 10.9231C15.8587 10.9881 15.7286 10.4352 15.7611 10.24C15.7936 9.97978 16.0213 9.8822 16.1514 9.68703C16.2165 9.58945 16.2165 9.45934 16.249 9.36176C16.3141 9.23165 16.4116 9.16659 16.4442 9.06901C16.6068 8.9389 16.6719 8.74374 16.7369 8.5811C16.8345 8.3534 16.9971 8.09318 17.1272 7.89802C17.2248 7.80044 17.2899 7.73538 17.3875 7.60527C17.4525 7.50769 17.485 7.34505 17.5501 7.21494C17.6152 7.11736 17.7453 7.05231 17.8428 6.95472C17.9404 6.85714 17.9404 6.72703 18.0705 6.62945C18.2332 6.46681 18.3633 6.23912 18.5584 6.07648C18.7211 5.88132 18.9163 5.68615 19.1439 5.55604C19.3716 5.42593 19.5993 5.19824 19.8921 5.06813C20.0872 4.93802 20.2824 4.87297 20.5752 4.97055C20.7053 5.00308 20.8354 5.00308 20.9655 5.0356C20.998 5.0356 21.1281 5.00308 21.1606 5.0356C21.1932 5.10066 21.1281 5.06813 21.1281 5.10066C21.1281 5.16571 21.0631 5.10066 21.0631 5.16571C21.0956 5.23077 21.2257 5.23077 21.2582 5.23077C21.3883 5.23077 21.5184 5.26329 21.6486 5.29582C21.7787 5.36088 21.8437 5.45846 21.9088 5.55604L22.0389 5.75121C22.1365 5.81626 22.1365 5.78373 22.2666 5.78373C22.3967 5.81626 22.3967 5.88132 22.4943 6.01143C22.6244 6.14154 22.6244 6.20659 22.6569 6.3367C22.787 6.62945 23.1123 6.79209 23.2749 7.08483C23.405 7.31253 23.4701 7.60527 23.5026 7.86549C23.5352 7.9956 23.5026 8.12571 23.5026 8.25582C23.5026 8.45099 23.6002 8.61363 23.6327 8.77626C23.6978 9.03648 23.7628 9.2967 23.7628 9.52439C23.7303 9.62198 23.6653 9.71956 23.6327 9.81714C23.6002 9.97978 23.6653 10.1749 23.6653 10.3376C23.6653 10.4677 23.6653 10.5653 23.6002 10.6629C23.6002 10.793 23.6002 10.9556 23.5677 11.0857C23.5352 11.2158 23.4701 11.3134 23.4376 11.411C23.405 11.5736 23.405 11.7688 23.34 11.9314C23.34 12.1916 23.2749 12.4519 23.2749 12.7121C23.2424 12.8747 23.2749 12.9723 23.2099 13.1024C23.1774 13.2325 23.2099 13.3952 23.1448 13.5253C23.1448 13.6229 23.0472 13.6229 23.0147 13.6879C22.9171 13.7855 22.8846 13.9807 22.8521 14.1108C22.8195 14.4035 22.9171 14.6963 22.8846 14.989C22.8521 15.0866 22.7545 15.1516 22.7545 15.2492C22.722 15.2818 22.7545 15.3468 22.7545 15.3793C22.722 15.4444 22.722 15.4769 22.6894 15.5745C22.722 15.7046 22.722 15.7371 22.6894 15.8673C22.6569 16.0299 22.6569 16.1925 22.5919 16.3552C22.5919 16.4527 22.5268 16.4853 22.4617 16.5829L22.3642 16.9081C22.3316 17.0057 22.2666 17.0708 22.2666 17.1684C22.2341 17.2334 22.2341 17.2659 22.2666 17.3635C22.2666 17.4611 22.2015 17.5262 22.2015 17.6237C22.2015 17.7538 22.2666 17.8189 22.2341 17.9165L22.1365 18.1767C22.1365 18.3068 22.0714 18.4044 22.1039 18.5345C22.1039 18.6971 22.169 18.8923 22.169 19.0875C22.169 19.2176 22.1039 19.2176 22.0389 19.3152C22.0064 19.4453 22.0389 19.5429 22.1039 19.673C22.1365 19.8356 22.1039 19.8356 22.1039 19.9657C22.0389 20.0308 22.0714 20.1284 22.0389 20.2259C22.0064 20.4536 22.0714 20.7138 22.0389 20.9415C22.0389 21.0716 22.0389 21.1367 21.9738 21.2343C21.8763 21.3969 21.8437 21.462 21.8112 21.6571C21.8112 21.7873 21.7461 21.9174 21.7787 22.0475C21.7787 22.2101 21.8112 22.3402 21.8437 22.5029C21.8763 22.633 21.8763 22.7631 21.8437 22.8607C21.8112 23.0233 21.7136 23.0884 21.7136 23.251C21.7461 23.3811 21.7461 23.5112 21.7461 23.6088C21.7136 23.7714 21.6486 23.7714 21.5835 23.869C21.4859 23.9015 21.4859 23.9341 21.4859 24.0316C21.4859 24.0642 21.551 24.1292 21.551 24.1943C21.551 24.2593 21.4859 24.2919 21.4859 24.3895C21.4209 24.6171 21.616 24.9099 21.6486 25.1701L21.616 25.4954C21.616 25.5604 21.5835 25.6255 21.5835 25.6905C21.5835 25.7556 21.5835 25.7881 21.616 25.8532C21.6486 25.8857 21.6486 25.9182 21.6811 25.9833C21.6811 26.0809 21.616 26.1459 21.616 26.2435C21.616 26.3086 21.616 26.3411 21.6486 26.4062C21.616 26.4387 21.5184 26.4712 21.5184 26.5037C21.4534 26.6013 21.5835 26.6989 21.616 26.7965C21.6811 26.9266 21.6811 27.1218 21.6811 27.2844C21.7136 27.4145 21.6811 27.5446 21.7136 27.6747C21.7787 27.8048 21.7787 27.8699 21.7461 28C21.6811 28.2602 21.7461 28.553 21.8437 28.8457C21.9088 28.9758 21.9738 29.1059 22.0064 29.236C22.0389 29.3987 22.0389 29.5613 22.0714 29.6914C22.0714 30.0492 22.2015 30.2119 22.5593 30.3745C22.787 30.5046 23.0798 30.5371 23.3725 30.6022C23.4701 30.6347 24.1206 30.7648 23.958 31.0251C23.893 31.1552 23.3725 30.9275 23.5026 31.2202C23.5677 31.3178 23.7628 31.3178 23.7628 31.4804C23.7954 31.578 23.6002 31.6431 23.5026 31.6756C23.3725 31.7081 23.2424 31.6431 23.1123 31.6756C22.9822 31.7081 22.9497 31.7732 22.8195 31.7081C22.6894 31.6756 22.5919 31.6105 22.4617 31.513C22.3642 31.3829 22.2991 31.3829 22.169 31.3178C21.9413 31.2527 21.616 31.1552 21.4534 30.9925C21.2257 30.7648 21.1281 30.407 20.9655 30.1468C20.8028 29.8866 20.6077 29.724 20.4776 29.4637C20.3149 29.171 20.1848 28.9108 20.0547 28.618C19.762 28.0325 19.5993 27.447 19.4367 26.829C19.3716 26.5363 19.3066 26.211 19.2741 25.8857C19.2741 25.7556 19.2741 25.593 19.2415 25.4629C19.2415 25.3002 19.1765 25.1376 19.1439 24.9749C19.1439 24.8123 19.1765 24.6822 19.209 24.5521C19.1765 24.422 19.1439 24.2919 19.1439 24.1618C19.1439 23.869 19.1114 23.5437 19.1439 23.2835C19.1439 23.1209 19.1765 22.9908 19.1439 22.8281C19.1439 22.698 19.1765 22.6004 19.209 22.4378V21.5596C19.1765 20.9741 19.3066 20.356 19.3391 19.7705C19.3716 19.2176 19.3716 18.6646 19.5017 18.1442C19.6644 17.5912 19.5993 16.9732 19.6969 16.4202C19.7294 16.2901 19.7945 16.1925 19.7945 16.0624C19.7945 15.9974 19.762 15.8998 19.7945 15.8347C19.7945 15.607 19.8595 15.3793 19.9246 15.1516C19.9897 14.8914 19.9246 14.6312 20.0222 14.4035C20.1198 14.1433 20.1848 13.8831 20.2173 13.5903C20.1848 13.2976 20.3149 13.0699 20.3475 12.7771C20.38 12.4844 20.4125 12.1916 20.4776 11.9314C20.6402 11.3459 20.7703 10.7604 20.9004 10.1749C21.1281 9.00395 21.4209 7.86549 21.2908 6.62945C21.2582 6.40176 21.2582 5.9789 21.0631 5.81626C20.933 5.68615 20.8679 5.78373 20.7703 5.88132C20.6727 5.94637 20.5752 6.04396 20.445 6.10901C20.2824 6.23912 19.9897 6.30417 19.8595 6.46681C19.6644 6.66198 19.5017 6.9222 19.3391 7.11736C19.209 7.21494 19.1439 7.31253 19.0464 7.41011C18.9488 7.50769 18.9163 7.60527 18.8187 7.70286C18.7861 7.80044 18.6886 7.80044 18.591 7.89802C18.5259 7.9956 18.4283 8.15824 18.3958 8.28835C18.3308 8.41846 18.3308 8.51604 18.2657 8.64615C18.2657 8.74374 18.1681 8.80879 18.1031 8.90637C17.973 9.13406 17.8103 9.32923 17.6802 9.55692C17.6477 9.68703 17.5826 9.81714 17.5176 9.91472C17.42 10.0123 17.3549 10.0774 17.3224 10.2075L16.9646 10.8905C16.867 10.9881 16.867 11.0857 16.7694 11.1833C16.7044 11.2809 16.6068 11.3459 16.5417 11.476C16.5417 11.5736 16.5092 11.6387 16.4767 11.7363C16.3791 11.8664 16.249 11.9314 16.2165 12.0941C16.1839 12.1916 16.0864 12.2567 16.0213 12.3543C15.9237 12.4519 15.9563 12.5169 15.9237 12.6796C15.8587 12.7771 15.7936 12.8422 15.7611 12.9398C15.696 13.0699 15.5984 13.1675 15.5334 13.2976C15.4683 13.4927 15.4358 13.7204 15.3382 13.9156C15.2406 14.1433 15.1105 14.3059 15.1105 14.5987C15.1105 14.8914 14.9479 15.0541 14.8178 15.2818C14.7853 15.3793 14.8178 15.4769 14.7853 15.607C14.7527 15.7697 14.6877 15.9323 14.6226 16.0949C14.5576 16.3226 14.525 16.5503 14.4925 16.778C14.4925 16.9081 14.4275 17.0057 14.3949 17.1033C14.2974 17.2009 14.1672 17.2009 14.1022 17.331C14.0371 17.396 14.0371 17.5262 14.0697 17.6563C14.1347 17.7864 14.1347 17.884 14.1347 18.0141C14.1672 18.3068 14.0697 18.5345 13.9721 18.7947C13.907 19.0549 13.8745 19.3152 13.842 19.5754L13.8094 19.9007C13.7444 20.0633 13.8094 20.2259 13.7769 20.3886C13.7444 20.5187 13.7444 20.6488 13.6793 20.7789C13.6468 20.909 13.6793 21.1042 13.6143 21.2018C13.5817 21.3319 13.4516 21.3644 13.4516 21.4945C13.4516 21.6246 13.6143 21.7547 13.4516 21.8523C13.3541 21.8848 13.289 21.8523 13.2239 21.9499C13.1914 22.08 13.289 22.2101 13.3215 22.3402C13.3866 22.4703 13.3215 22.5354 13.3215 22.6655L13.4516 22.8932C13.4842 22.9582 13.4842 23.0558 13.5167 23.1534L13.4191 23.4462C13.3541 23.5437 13.3215 23.6738 13.2239 23.804C13.1914 23.9341 13.1264 24.0316 13.0938 24.1618C13.0288 24.2593 12.9312 24.3895 12.8661 24.5196C12.7686 24.7147 12.8011 24.9749 12.736 25.2026C12.736 25.3002 12.7035 25.3653 12.6059 25.4303C12.5734 25.5279 12.4758 25.6905 12.4108 25.7231C12.2806 25.7231 12.2156 25.658 12.118 25.6255C12.0204 25.593 11.8578 25.6255 11.7277 25.593C11.4349 25.5279 11.4024 25.2352 11.2398 25.0075C11.1747 24.8774 11.0771 24.8448 10.9795 24.7473C10.882 24.6497 10.882 24.5196 10.8169 24.3895C10.7844 24.2919 10.7193 24.1618 10.6217 24.1292C10.4591 24.0316 10.4266 24.1618 10.3615 23.9991C10.1989 23.4462 10.0037 22.8607 10.0037 22.2752C10.0037 21.6571 9.90614 21.0066 9.90614 20.356C9.87361 20.0958 9.84109 19.7705 9.90614 19.5429C9.9712 19.4127 9.90614 19.3477 9.90614 19.1851C9.87361 19.0224 9.90614 18.8273 9.90614 18.6646C9.90614 18.5345 9.90614 18.4369 9.9712 18.3068C10.0363 18.1767 10.0363 18.1116 10.0363 17.9165C10.0363 17.7864 10.0037 17.6563 9.9712 17.5262C10.0037 17.3635 10.0688 17.2009 10.0688 17.0382C10.1013 16.9407 10.1013 16.8431 10.1338 16.7455C10.1989 16.6154 10.1338 16.4202 10.1338 16.2901C10.1013 15.9974 10.1664 15.7046 10.1989 15.4119C10.2639 15.2818 10.2965 15.1516 10.329 15.0215C10.329 14.924 10.3941 14.7613 10.3941 14.6637C10.3941 14.5662 10.2965 14.4686 10.329 14.371C10.329 14.3059 10.329 14.2409 10.3615 14.1758C10.3941 14.0782 10.3615 14.0132 10.3615 13.9156C10.329 13.6554 10.4266 13.3952 10.4916 13.1675C10.4916 13.0699 10.4591 12.9073 10.4916 12.7771C10.4916 12.647 10.5892 12.5169 10.5567 12.3868C10.5567 12.2567 10.4916 12.1591 10.5242 12.0615L10.6217 11.7363C10.6217 11.6387 10.5892 11.5411 10.6543 11.411C10.7193 11.3134 10.7844 11.2809 10.7519 11.1508C10.7193 10.9881 10.7193 10.858 10.7193 10.6954C10.7844 10.5978 10.7844 10.4677 10.8169 10.3701C10.8169 10.2075 10.7844 10.0774 10.8494 9.91472C10.8494 9.78461 10.947 9.6545 10.947 9.52439C11.0121 9.23165 10.947 8.97143 11.0771 8.71121C11.1422 8.45099 11.1097 8.15824 11.1747 7.86549C11.2072 7.73538 11.2723 7.60527 11.2723 7.44264C11.3048 7.31253 11.3048 7.18242 11.3048 7.05231L11.4024 6.10901C11.4024 5.84879 11.4349 5.55604 11.5 5.29582C11.5 5.16571 11.565 5.06813 11.5325 4.90549V4.45011C11.565 4.18989 11.565 3.89714 11.5976 3.63692C11.565 3.31165 11.6626 2.98637 11.6301 2.6611C11.5976 2.53099 11.5976 1.91296 11.4024 1.91296C11.3374 1.91296 11.3374 1.97802 11.2723 1.97802C11.2072 2.01055 11.1422 2.01055 11.0771 2.04307C10.947 2.04307 10.882 2.0756 10.8494 2.20571C10.7193 2.40088 10.9145 2.6611 10.6868 2.79121C10.4591 2.92132 10.1338 2.85626 9.9712 3.08395C9.93867 3.21406 9.87361 3.27912 9.80856 3.3767C9.67845 3.44176 9.67845 3.50681 9.64592 3.63692C9.61339 3.79956 9.58087 3.86461 9.48328 3.9622C9.3857 4.09231 9.35317 4.22242 9.28812 4.35252C9.22306 4.45011 9.12548 4.45011 9.12548 4.51516C9.06043 4.58022 9.06043 4.6778 9.09295 4.74286C9.0279 5.0356 8.86526 5.26329 8.73515 5.52351C8.63757 5.71868 8.57251 5.91384 8.4424 6.10901C8.31229 6.36923 8.57251 6.62945 8.63757 6.88967C8.70262 7.08483 8.57251 7.05231 8.47493 7.14989C8.37735 7.21494 8.34482 7.28 8.34482 7.41011C8.37735 7.54022 8.34482 7.60527 8.21471 7.70286C8.14966 7.80044 8.0846 7.86549 7.98702 7.96307C7.95449 8.06066 7.85691 8.12571 7.75933 8.22329C7.7268 8.32088 7.66175 8.41846 7.62922 8.54857C7.49911 8.77626 7.43405 9.06901 7.30394 9.32923C7.27142 9.45934 7.20636 9.58945 7.14131 9.71956C7.07625 9.78461 7.04372 9.8822 6.97867 9.97978L6.7835 10.7279C6.75098 10.858 6.68592 10.9881 6.65339 11.1182C6.62087 11.2158 6.62087 11.3134 6.58834 11.411C6.55581 11.5086 6.4257 11.5736 6.39317 11.6712C6.4257 11.7363 6.49076 11.964 6.52328 11.964C6.39317 12.0941 6.39317 12.2567 6.29559 12.3868C6.29559 12.4519 6.23054 12.4844 6.19801 12.5494C6.16548 12.647 6.19801 12.7446 6.16548 12.8422C6.16548 12.9723 6.23054 13.1024 6.23054 13.2651C6.23054 13.4277 6.10043 13.4277 6.00284 13.5253C5.77515 13.753 5.77515 14.2084 5.67757 14.5011C5.64504 14.6963 5.64504 14.8914 5.57999 15.0541C5.54746 15.2167 5.41735 15.3793 5.4824 15.542C5.4824 15.6396 5.54746 15.7046 5.51493 15.8022L5.41735 15.9648C5.35229 16.0949 5.38482 16.1925 5.31977 16.3226C5.28724 16.3877 5.28724 16.3877 5.28724 16.4202C5.25471 16.4853 5.28724 16.5503 5.31977 16.6154C5.28724 16.778 5.09207 16.778 5.05955 16.9081C4.96196 17.0057 4.96196 17.1358 4.99449 17.2985C5.05955 17.4936 4.92944 17.4936 4.86438 17.6563C4.7668 17.8189 4.83186 17.9815 4.86438 18.1442C4.86438 18.3068 4.7668 18.4694 4.73427 18.6321L4.63669 19.12C4.63669 19.3152 4.66922 19.5103 4.66922 19.7055C4.63669 19.8681 4.63669 20.0633 4.63669 20.2259C4.66922 20.356 4.70174 20.4862 4.70174 20.6163L4.57164 21.1367C4.53911 21.3319 4.44153 21.3319 4.31142 21.462C4.21383 21.5921 4.18131 21.7547 4.11625 21.8848C4.11625 21.9824 4.08372 22.0149 4.08372 22.1125C4.08372 22.1776 4.14878 22.2101 4.11625 22.2752L3.98614 22.3727C3.95361 22.4378 3.95361 22.5354 3.92109 22.6004C3.88856 22.6655 3.95361 22.7631 3.95361 22.8281C3.98614 22.9257 3.95361 23.0233 3.88856 23.1209C3.85603 23.251 3.8235 23.251 3.66087 23.3486C3.53076 23.4462 3.62834 23.5437 3.62834 23.7064L3.59581 23.9341L3.62834 24.1618C3.62834 24.3244 3.56328 24.487 3.53076 24.6497C3.53076 24.8123 3.43317 24.9424 3.40065 25.1051C3.33559 25.2677 3.27054 25.4303 3.23801 25.593C3.20548 25.7556 3.20548 25.9182 3.14043 26.0809C3.1079 26.2435 2.97779 26.3086 2.97779 26.5037C2.94526 26.6664 2.94526 26.829 2.88021 26.9591C2.78262 27.1543 2.68504 27.2844 2.71757 27.5121C2.7501 27.7073 2.78262 27.7723 2.61999 27.8699C2.48988 27.9349 2.22966 27.9349 2.06702 27.9024C1.90438 27.8374 1.87185 27.7398 1.77427 27.6097C1.67669 27.4796 1.51405 27.447 1.41647 27.3169C1.35142 27.1868 1.31889 27.0567 1.25383 26.8941C1.22131 26.8615 1.18878 26.764 1.12372 26.7314C1.05867 26.6989 0.993613 26.7314 0.928558 26.6989C0.798448 26.6013 0.830975 26.4062 0.733393 26.3086C0.635811 26.1459 0.473173 26.1134 0.440646 25.9508C0.375591 25.7556 0.375591 25.5604 0.343063 25.3653C0.343063 25.1701 0.278008 24.9749 0.310536 24.7798C0.278008 24.422 0.180426 24.0316 0.212953 23.6738C0.212953 23.5112 0.245481 23.316 0.278008 23.1859C0.278008 23.0558 0.375591 23.0233 0.343063 22.8932C0.343063 22.7305 0.245481 22.633 0.310536 22.4703C0.343063 22.2752 0.278008 22.08 0.278008 21.8848C0.310536 21.7547 0.343063 21.6246 0.343063 21.462C0.343063 21.2668 0.343063 21.0716 0.375591 20.8765C0.375591 20.5187 0.343063 20.1284 0.375591 19.7705C0.440646 19.4127 0.473173 19.0549 0.505701 18.6971C0.570756 18.3393 0.505701 17.949 0.603283 17.5912C0.668338 17.4286 0.700866 17.331 0.668338 17.1684C0.635811 16.9407 0.668338 16.7455 0.668338 16.5178C0.700866 16.1275 0.733393 15.7371 0.733393 15.3468C0.733393 14.989 0.798448 14.6312 0.830975 14.2734C0.863503 14.1108 0.830975 13.9156 0.830975 13.7855C0.89603 13.5903 0.89603 13.3952 0.928558 13.2325C0.961085 12.8422 1.02614 12.4844 1.05867 12.1266C1.0912 11.964 1.0912 11.8013 1.0912 11.6387C1.12372 11.476 1.22131 11.3785 1.25383 11.2158C1.31889 11.0857 1.22131 10.9556 1.25383 10.793C1.22131 10.6303 1.25383 10.4677 1.25383 10.3051C1.28636 10.1424 1.35142 9.94725 1.35142 9.78461C1.38394 9.62198 1.41647 9.42681 1.41647 9.23165C1.449 8.87385 1.54658 8.54857 1.57911 8.19077C1.64416 7.83297 1.67669 7.47516 1.77427 7.11736C1.90438 6.46681 2.03449 5.78373 2.19713 5.13319C2.22966 4.97055 2.22966 4.80791 2.22966 4.61275C2.26218 4.48264 2.35977 4.35252 2.35977 4.18989C2.35977 4.02725 2.39229 3.86461 2.42482 3.70198C2.42482 3.53934 2.48988 3.3767 2.48988 3.21406C2.61999 2.49846 2.78262 1.78285 2.78262 1.03472C2.78262 0.807031 2.65251 0.18901 3.07537 0.351647C3.23801 0.449228 3.43317 0.546811 3.56328 0.644394L3.8235 0.807031C3.88856 0.872085 3.92109 0.969669 3.98614 1.06725C4.0512 1.22989 4.21383 1.36 4.31142 1.52264C4.34394 1.58769 4.34394 1.65274 4.409 1.7178C4.44153 1.78285 4.53911 1.81538 4.57164 1.88044C4.66922 2.01055 4.60416 2.17319 4.66922 2.23824C4.70174 2.3033 4.7668 2.23824 4.79933 2.27077C4.89691 2.3033 4.92944 2.33582 4.99449 2.43341C5.15713 2.72615 5.05955 3.11648 4.99449 3.44176C4.99449 3.57187 4.96196 3.7345 4.96196 3.89714C4.96196 3.99472 4.99449 4.09231 4.92944 4.15736C4.83186 4.22242 4.7668 4.15736 4.73427 4.28747C4.66922 4.41758 4.73427 4.6778 4.7668 4.80791C4.83186 5.00308 4.83186 5.16571 4.79933 5.32835C4.7668 5.45846 4.70174 5.6211 4.66922 5.71868C4.60416 5.75121 4.53911 5.78373 4.50658 5.84879C4.50658 5.91384 4.53911 5.9789 4.53911 6.04396C4.57164 6.20659 4.57164 6.40176 4.47405 6.53187L4.27889 6.79209C4.24636 6.9222 4.24636 7.08483 4.18131 7.21494C4.14878 7.37758 4.08372 7.54022 4.0512 7.70286C4.0512 7.86549 4.01867 8.02813 4.01867 8.22329C4.0512 8.3534 4.18131 8.48352 4.08372 8.61363C4.01867 8.67868 3.95361 8.67868 3.95361 8.74374V8.90637C3.92109 9.10154 3.88856 9.26417 3.88856 9.42681C3.85603 9.52439 3.88856 9.58945 3.92109 9.6545C3.92109 9.78461 3.88856 9.75209 3.8235 9.81714C3.75845 9.94725 3.85603 10.1099 3.85603 10.2725C3.88856 10.4352 3.72592 10.4677 3.72592 10.6303C3.72592 10.7279 3.79098 10.793 3.79098 10.8905C3.8235 10.9556 3.75845 11.0207 3.79098 11.0857C3.79098 11.1508 3.8235 11.2158 3.8235 11.2809C3.8235 11.3459 3.75845 11.411 3.72592 11.476C3.69339 11.6387 3.72592 11.8013 3.69339 11.964C3.62834 12.1591 3.66087 12.3218 3.69339 12.5169C3.69339 12.6796 3.56328 12.7121 3.49823 12.8747C3.4657 13.0048 3.53076 13.2 3.56328 13.3626C3.56328 13.4277 3.56328 13.5253 3.53076 13.5903C3.4657 13.6554 3.43317 13.5903 3.36812 13.5903C3.01032 13.5903 3.43317 14.1758 3.49823 14.3385C3.53076 14.5011 3.53076 14.6312 3.43317 14.7288C3.40065 14.7938 3.33559 14.8264 3.33559 14.924C3.36812 15.0215 3.43317 15.0866 3.43317 15.1842C3.43317 15.3468 3.36812 15.4769 3.36812 15.6396C3.36812 15.8347 3.40065 16.0299 3.40065 16.2576C3.36812 16.4202 3.36812 16.5829 3.36812 16.7455C3.36812 16.8756 3.33559 17.1358 3.4657 17.2009C3.56328 17.2659 3.59581 17.2334 3.56328 17.1358C3.56328 17.1033 3.49823 17.1033 3.43317 17.0382C3.43317 16.9407 3.56328 16.713 3.62834 16.6154C3.66087 16.5178 3.79098 16.4853 3.8235 16.3552C3.85603 16.3226 3.92109 16.1925 3.88856 16.1275C3.92109 16.0624 3.88856 15.9974 3.88856 15.8998L4.01867 15.7046C4.01867 15.607 3.98614 15.542 3.98614 15.4769C3.95361 15.3468 4.0512 15.0866 4.14878 14.989C4.21383 14.8589 4.34394 14.7938 4.37647 14.6637C4.47405 14.5336 4.50658 14.371 4.53911 14.2409C4.60416 14.1108 4.53911 14.0457 4.66922 14.0132C4.73427 14.0132 4.7668 14.0457 4.83186 13.9807C4.89691 13.9156 4.86438 13.8505 4.83186 13.818C4.7668 13.7855 4.73427 13.818 4.66922 13.753C4.66922 13.7204 4.70174 13.6229 4.63669 13.5578C4.60416 13.4602 4.409 13.2651 4.60416 13.2C4.73427 13.1349 4.79933 13.3626 4.89691 13.3301C4.99449 13.2976 5.02702 13.0048 4.96196 12.9398C4.86438 12.8747 4.73427 13.0374 4.63669 12.8422C4.63669 12.7771 4.66922 12.7446 4.70174 12.7121C4.73427 12.6145 4.79933 12.6796 4.86438 12.647C4.99449 12.6145 5.02702 12.4193 5.05955 12.2892C5.05955 12.1266 4.99449 12.029 5.02702 11.8989C5.05955 11.8664 5.18966 11.8338 5.18966 11.7688C5.15713 11.7037 5.09207 11.6387 5.09207 11.6062C5.02702 11.411 5.25471 11.411 5.31977 11.3134C5.38482 11.2158 5.22218 10.9881 5.38482 10.9556C5.51493 10.8905 5.74262 11.0857 5.77515 10.9231C5.80768 10.858 5.74262 10.793 5.7101 10.7279C5.74262 10.6629 5.77515 10.6629 5.80768 10.5978C5.84021 10.5327 5.93779 10.3376 5.93779 10.24C5.93779 10.0774 5.87273 9.94725 5.93779 9.78461C6.00284 9.6545 6.00284 9.45934 6.0679 9.32923C6.13295 9.19912 6.23054 9.13406 6.32812 9.03648C6.4257 8.84132 6.49076 8.74374 6.4257 8.51604C6.39317 8.3534 6.39317 8.28835 6.52328 8.22329C6.58834 8.19077 6.62087 8.19077 6.65339 8.12571C6.68592 8.09318 6.65339 8.09318 6.68592 8.06066C6.62087 7.9956 6.49076 7.96307 6.49076 7.86549C6.4257 7.73538 6.52328 7.73538 6.58834 7.6378C6.62087 7.57275 6.55581 7.47516 6.58834 7.44264C6.65339 7.37758 6.71845 7.44264 6.7835 7.34505C6.7835 7.24747 6.65339 7.11736 6.62087 7.01978C6.58834 6.88967 6.62087 6.82461 6.68592 6.72703C6.7835 6.56439 6.71845 6.3367 6.94614 6.27165C7.0112 6.36923 6.94614 6.75956 7.10878 6.6945C7.17383 6.62945 7.14131 6.49934 7.17383 6.40176C7.17383 6.3367 7.27142 6.23912 7.27142 6.14154C7.27142 6.17407 7.27142 6.17407 7.27142 6.17407C7.27142 6.17407 7.27142 6.17407 7.23889 6.17407H7.27142V6.14154ZM8.96284 2.01055L8.99537 2.3033C8.93032 2.23824 8.83273 2.27077 8.83273 2.17319C8.80021 2.0756 8.89779 1.97802 8.96284 2.01055ZM8.6701 3.27912C8.6701 3.24659 8.63757 3.24659 8.63757 3.24659C8.57251 3.27912 8.63757 3.31165 8.6701 3.27912ZM7.0112 5.94637C7.10878 5.88132 7.20636 6.07648 7.23889 6.14154C7.14131 6.17407 6.94614 6.23912 6.94614 6.27165C6.97867 6.17407 6.88109 6.01143 7.0112 5.94637ZM6.19801 8.38593C6.36065 8.38593 6.19801 8.67868 6.10043 8.67868C5.97032 8.64615 6.0679 8.3534 6.19801 8.38593ZM5.67757 9.84967C5.54746 9.6545 5.67757 10.1099 5.67757 9.84967V9.84967ZM11.8903 10.8255C11.8903 10.9231 11.7602 11.1182 11.8578 11.1833C11.9554 11.1182 12.2156 10.5653 11.9228 10.5653C11.8253 10.5653 11.8903 10.7604 11.8903 10.8255ZM15.5334 11.1508C15.5334 11.2158 15.5659 11.2483 15.631 11.1833C15.6635 11.1182 15.5984 10.9881 15.5984 10.9231C15.5659 11.0207 15.5009 11.0857 15.5334 11.1508ZM11.6952 12.647C11.6952 12.6796 11.6952 12.6796 11.6952 12.7121C11.7927 12.6145 11.9228 12.4193 11.9554 12.2567C11.9554 12.1916 11.9554 11.8338 11.7927 11.8664C11.7602 11.8664 11.6952 12.0615 11.6626 12.0941C11.6952 12.1916 11.7277 12.2892 11.6952 12.3868C11.7277 12.4519 11.6952 12.5494 11.6952 12.647ZM11.5325 13.2976C11.4675 13.3626 11.5 13.5578 11.6301 13.5253C11.7927 13.4927 11.6626 13.2976 11.5325 13.2976ZM11.6626 13.753C11.565 13.5903 11.2398 14.1108 11.4349 14.2084C11.5 14.2409 11.6952 13.8505 11.6626 13.753ZM11.3699 14.5011C11.3699 14.6312 11.5325 14.6312 11.5976 14.5336C11.5976 14.4035 11.4024 14.436 11.3699 14.5011ZM11.5 15.3468C11.5 15.2167 11.3048 15.2492 11.3048 15.3468C11.3374 15.4769 11.5 15.4444 11.5 15.3468ZM11.4349 16.2251C11.2398 16.0949 11.2398 16.3877 11.3048 16.4202C11.4024 16.4853 11.4024 16.2901 11.4349 16.2251ZM10.7844 16.2251C10.7519 16.2251 10.7193 16.2251 10.7519 16.2576C10.7844 16.2251 10.8169 16.2251 10.7844 16.2251ZM10.6868 16.6804C10.7519 16.778 10.8169 16.7455 10.8494 16.6479C10.882 16.5503 10.7519 16.3552 10.7193 16.2576C10.4916 16.2576 10.5242 16.5503 10.6868 16.6804ZM13.1264 17.1358C13.0938 17.2009 12.9637 17.2659 12.9637 17.2985C12.9637 17.2009 12.9312 16.778 13.0938 16.778C13.1589 16.8756 13.1589 17.0382 13.1264 17.1358ZM10.7844 16.9407C10.6543 16.9081 10.4266 17.0057 10.5892 17.1684C10.6543 17.2659 10.7193 17.2009 10.7844 17.1684C10.882 17.1033 10.947 17.1033 11.0771 17.1033C11.1422 17.0708 11.4349 16.9407 11.2398 16.8431C11.1747 16.8105 11.1097 16.9081 11.0446 16.9407C10.9795 16.9732 10.882 16.9732 10.7844 16.9407ZM3.07537 17.2334C2.91273 17.2334 3.01032 17.5262 3.14043 17.5262C3.33559 17.5262 3.17295 17.2334 3.07537 17.2334ZM10.5242 17.3635C10.5242 17.396 10.4591 17.4936 10.5242 17.4936C10.5892 17.4611 10.5892 17.3635 10.5242 17.3635ZM10.9795 17.7213C10.947 17.7538 10.9795 17.8514 11.0446 17.884C11.1422 17.9165 11.1747 17.8189 11.1747 17.7538C11.2398 17.5587 11.0446 17.5587 10.9795 17.7213ZM13.0288 17.8514C12.9637 17.9165 13.0938 17.949 13.1264 17.884C13.0938 17.8514 13.0613 17.8189 13.0288 17.8514ZM3.88856 18.5996C3.85603 18.4044 3.72592 18.567 3.72592 18.6646C3.75845 18.8598 3.92109 18.7297 3.88856 18.5996ZM20.4776 19.1525C20.445 19.2501 20.6077 19.3152 20.6077 19.1851C20.5752 19.0875 20.5101 19.0549 20.4776 19.1525ZM20.5101 19.7705C20.4125 19.9332 20.445 19.6079 20.5101 19.7705V19.7705ZM20.445 20.5512C20.4125 20.4211 20.2499 20.4862 20.3149 20.6163C20.3475 20.7138 20.4776 20.6488 20.445 20.5512ZM20.1523 21.8198C20.1523 21.9174 20.1848 22.1125 20.3149 21.9824C20.38 21.8523 20.3475 21.7222 20.3475 21.5921C20.3475 21.527 20.3475 21.3969 20.2499 21.4295C20.1523 21.462 20.1198 21.7222 20.1523 21.8198ZM41.1376 29.6264C40.9424 29.5938 40.7473 29.6264 40.6172 29.4637C40.487 29.3011 40.2919 29.0734 40.2268 28.8782C40.0967 28.6831 39.9666 28.553 39.9341 28.3578C39.804 28.1301 39.804 27.8374 39.7389 27.6097C39.7064 27.4145 39.5438 27.2519 39.5438 27.0892C39.5112 26.9591 39.5112 26.8615 39.5112 26.764C39.5438 26.6338 39.5112 26.5363 39.4462 26.4062C39.3811 26.1785 39.251 25.9508 39.2835 25.6905C39.2835 25.593 39.3161 25.5279 39.2835 25.3978C39.3161 25.2677 39.251 25.1376 39.1859 25.0075C39.1534 24.5521 39.2835 24.1292 39.2185 23.6738C39.1859 23.4136 39.1859 23.1859 39.1859 22.9257C39.1859 22.698 39.251 22.4703 39.251 22.2101C39.251 22.0149 39.2835 21.8198 39.2835 21.5921C39.3161 21.3644 39.251 21.1367 39.251 20.909C39.2835 20.4862 39.3811 20.0633 39.3486 19.6079C39.3486 19.4778 39.3161 19.3477 39.3486 19.2176C39.3486 19.12 39.4136 19.0224 39.4136 18.8923C39.4462 18.6971 39.4462 18.4369 39.4462 18.2092C39.4462 17.9815 39.4462 17.7538 39.5112 17.5587C39.5763 17.331 39.5763 17.1033 39.5763 16.8756C39.5763 16.778 39.6413 16.4527 39.4136 16.4853C39.3486 16.4853 39.251 16.5829 39.1859 16.6154C39.0884 16.6479 38.9908 16.6479 38.8607 16.6154C38.7306 16.5503 38.698 16.5178 38.5679 16.6154C38.5029 16.6479 38.4378 16.713 38.3728 16.8105C38.2427 17.0057 38.1776 16.8756 37.9824 16.9081C37.8848 16.9081 37.8523 17.0057 37.7547 17.0057C37.6572 17.0382 37.5596 16.9407 37.4945 16.8756L37.4295 16.8431C37.2994 17.0057 37.1367 16.8431 37.0066 16.9081C36.909 16.9407 36.909 17.0057 36.844 17.0708C36.8114 17.1684 36.7464 17.1684 36.6488 17.1684C36.4862 17.1358 36.3561 17.0382 36.1934 17.0382C36.0958 17.0382 36.0308 17.0382 35.9332 17.0708C35.8356 17.1358 35.8031 17.1358 35.6405 17.0382C35.3802 16.8756 35.3152 17.0382 35.12 17.1358C35.0224 17.2009 34.9899 17.1684 34.8923 17.1033C34.7947 17.0382 34.7297 17.0382 34.6321 17.0382C34.4044 17.0382 34.3719 17.1684 34.1767 17.2659C34.0466 17.331 34.0141 17.2659 33.9165 17.2659C33.7539 17.2659 33.7539 17.331 33.6888 17.4286C33.6563 17.5262 33.5912 17.5587 33.5587 17.5912C33.5262 17.6237 33.4936 17.6563 33.4611 17.6563C33.4286 17.6888 33.3961 17.6888 33.3635 17.6888C33.2659 17.7538 33.331 17.7864 33.3635 17.8514C33.4286 17.9815 33.4286 17.949 33.3961 18.0791C33.3961 18.1116 33.3635 18.1442 33.3635 18.2092C33.3635 18.2743 33.3961 18.3068 33.3635 18.3719C33.3635 18.4694 33.2659 18.567 33.2009 18.6321C33.0708 18.7947 33.0057 19.0224 33.0057 19.2501C32.9732 19.3477 33.0383 19.4453 32.9732 19.5754C32.9081 19.6404 32.8106 19.673 32.778 19.7705C32.6805 19.9007 32.778 19.9657 32.778 20.0958C32.778 20.2259 32.6805 20.3235 32.6805 20.4536C32.6154 20.6488 32.713 20.8114 32.6805 21.0066C32.6479 21.1042 32.5503 21.1692 32.5178 21.2668L32.4528 21.6246C32.4528 21.7222 32.4202 21.7873 32.4202 21.8848C32.4202 22.0149 32.4528 22.08 32.4202 22.2101C32.3552 22.4053 32.16 22.5354 32.095 22.698C32.0299 22.8932 31.9974 23.0558 32.0299 23.2835C31.9974 23.5112 32.0299 23.7714 31.9323 23.9666C31.8998 24.0642 31.9323 24.1292 31.8998 24.2268C31.8673 24.3244 31.8347 24.3895 31.7697 24.487C31.7697 24.5846 31.7697 24.6497 31.7372 24.7473C31.7046 24.8448 31.607 24.9099 31.5745 25.0075V25.3327C31.542 25.4629 31.5745 25.5604 31.542 25.6905C31.5095 25.7881 31.4444 25.8857 31.4444 25.9833C31.4119 26.1134 31.4119 26.2435 31.3794 26.3736C31.3468 26.5363 31.3143 26.7965 31.3143 26.9916C31.3143 27.0892 31.3468 27.1543 31.3143 27.2519C31.3143 27.382 31.2492 27.4796 31.1842 27.5446C30.989 27.9024 30.5011 28 30.1108 27.8048C29.8831 27.7073 29.753 27.6422 29.7205 27.382C29.6229 27.1543 29.5578 26.829 29.6229 26.6013C29.6229 26.4062 29.7855 26.4062 29.8506 26.2435C29.9156 26.1459 29.8831 26.0158 29.8831 25.9182C29.8831 25.8207 29.9156 25.6905 29.9156 25.6255C29.8831 25.5604 29.7855 25.4954 29.7855 25.4303C29.7855 25.3327 29.818 25.3327 29.8831 25.2352C29.9807 25.0725 29.9481 24.8448 30.0457 24.6822C30.1108 24.5196 30.2084 24.3244 30.2734 24.1292C30.2734 23.9991 30.2409 23.9666 30.2084 23.8365C30.2084 23.7064 30.2409 23.6738 30.2734 23.5763C30.4035 23.4136 30.4361 23.2185 30.4686 23.0233C30.5336 22.8281 30.5336 22.6004 30.5662 22.4053C30.5662 22.2101 30.6638 21.9824 30.7288 21.8198C30.7939 21.5921 30.7613 21.3644 30.8264 21.1692C30.8589 21.0716 30.924 21.0066 30.989 20.909V20.6488C31.0541 20.4211 31.0866 20.1934 31.1517 19.9657C31.1191 19.9007 31.1191 19.8031 31.1517 19.738C31.1842 19.6079 31.2818 19.5754 31.3143 19.4778C31.3143 19.4127 31.3468 19.3152 31.3468 19.2176C31.3468 19.0875 31.3468 19.0549 31.4119 18.9574C31.5095 18.7947 31.6396 18.567 31.607 18.3719C31.5745 18.3068 31.5745 18.1116 31.542 18.0791C31.4119 17.9815 31.2818 18.0466 31.1842 18.0791C30.9565 18.1116 30.7288 18.1116 30.5336 18.1116C30.3059 18.1442 30.1108 18.2092 29.9156 18.0466C29.7205 17.9165 29.6229 17.7213 29.5253 17.5912C29.3627 17.396 29.1024 17.2985 28.9398 17.1358C28.6145 16.8431 28.4194 16.3877 28.7772 16.0949C28.9398 15.9974 29.135 15.9648 29.2976 15.8998C29.3952 15.8673 29.4602 15.8347 29.5903 15.8022C29.6879 15.8022 29.7855 15.8998 29.9156 15.8998C30.0783 15.8998 30.2734 15.8022 30.4686 15.7697C30.5336 15.7371 30.5987 15.7697 30.6963 15.7697C30.7939 15.7697 30.8914 15.7046 31.0216 15.6721C31.2167 15.6396 31.3794 15.542 31.607 15.5745C31.8022 15.607 32.1275 15.6396 32.2901 15.5095C32.4528 15.3793 32.4853 15.2167 32.5829 15.0215C32.6805 14.8264 32.778 14.6312 32.8106 14.4035C32.8106 14.1758 32.9081 13.9481 32.9732 13.7204C33.0057 13.6229 33.0708 13.5253 33.1033 13.4277C33.1358 13.2976 33.1684 13.1675 33.2334 13.0699C33.2985 12.8747 33.4286 12.7771 33.4936 12.582C33.5262 12.3543 33.6238 12.1266 33.7213 11.9314C33.8189 11.7688 33.884 11.5736 33.949 11.3785C34.0466 11.2158 34.1117 11.0207 34.1767 10.858L34.3719 10.24C34.4044 10.1424 34.3719 10.0448 34.4369 9.94725C34.5345 9.84967 34.5996 9.81714 34.5996 9.68703C34.5996 9.49187 34.6972 9.26417 34.7622 9.10154C34.7947 8.97143 34.8923 8.9389 34.9574 8.84132C35.0224 8.74374 35.0224 8.61363 35.055 8.48352L35.3477 7.96307C35.3802 7.86549 35.3477 7.76791 35.3802 7.70286C35.4453 7.60527 35.5429 7.50769 35.5754 7.41011C35.6079 7.31253 35.6405 7.18242 35.7055 7.05231C35.8031 6.85714 35.9657 6.6945 36.0308 6.46681C36.0633 6.40176 36.0308 6.30417 36.0958 6.23912C36.1609 6.14154 36.2259 6.10901 36.291 6.01143C36.3235 5.91384 36.3886 5.84879 36.4536 5.75121C36.5187 5.65362 36.5187 5.55604 36.5512 5.45846C36.6163 5.3934 36.6813 5.32835 36.7139 5.26329C36.7789 5.16571 36.7789 5.06813 36.8114 4.97055C36.844 4.90549 36.909 4.84044 36.9741 4.74286C37.0717 4.61275 37.0717 4.48264 37.1042 4.35252C37.1692 4.25494 37.2343 4.18989 37.2668 4.09231L37.3644 3.83209C37.4295 3.76703 37.462 3.66945 37.527 3.60439C37.5921 3.50681 37.6897 3.47428 37.7547 3.3767C37.8198 3.34417 37.8198 3.24659 37.8523 3.18154C37.8848 3.08395 37.9499 2.98637 38.015 2.88879C38.0475 2.79121 38.08 2.69362 38.1451 2.62857L38.4053 2.46593C38.5354 2.33582 38.6005 2.14066 38.698 1.97802C38.7956 1.78285 38.8932 1.65274 39.0558 1.49011C39.1859 1.32747 39.251 1.19736 39.4136 1.13231C39.6413 1.0022 39.7389 0.807031 39.9016 0.611865C40.1618 0.31912 40.6822 0.384174 41.04 0.416701C41.2677 0.416701 41.4303 0.546811 41.658 0.579338C41.8532 0.579338 42.0809 0.709448 42.2761 0.807031C42.6339 1.06725 43.0892 1.39253 43.2194 1.84791C43.2844 2.0756 43.3495 2.3033 43.447 2.49846C43.5772 2.72615 43.5772 2.98637 43.6747 3.24659C43.7073 3.47428 43.7723 3.70198 43.7398 3.92967C43.7398 4.22242 43.7073 4.45011 43.7723 4.74286C43.9024 5.23077 43.8048 5.75121 43.8048 6.23912C43.8374 6.46681 43.7398 6.6945 43.7398 6.9222C43.7073 7.14989 43.7398 7.41011 43.7073 7.6378C43.7073 7.86549 43.6747 8.09318 43.6747 8.32088C43.6422 8.51604 43.6422 8.80879 43.5446 9.00395C43.447 9.16659 43.3495 9.19912 43.3169 9.39428C43.2844 9.6545 43.4145 9.84967 43.4145 10.0774C43.4145 10.3376 43.3169 10.5327 43.3169 10.7279C43.2844 10.9231 43.1868 11.1182 43.1868 11.3134C43.2194 11.5086 43.2194 11.7037 43.1868 11.8989C43.1868 12.0615 43.1868 12.1591 43.1218 12.2892C43.0892 12.4193 43.0892 12.4193 43.1218 12.5494C43.1218 12.7771 43.0892 13.0374 43.0242 13.2325C42.9917 13.3301 42.9917 13.4277 42.9591 13.5578C42.9266 13.6879 42.9266 13.7855 42.9266 13.9156C42.9266 14.1108 42.829 14.3385 42.8616 14.5662C42.9266 14.7613 43.2194 14.8589 43.2519 15.0541C43.2844 15.1516 43.2844 15.2492 43.3169 15.3468C43.3169 15.4119 43.3495 15.5095 43.3495 15.607C43.382 15.8022 43.1868 16.0624 43.1218 16.2251C42.9917 16.3877 42.7314 16.3226 42.6339 16.5178C42.5688 16.713 42.5038 16.9732 42.4712 17.2009C42.4062 17.331 42.3736 17.4286 42.4062 17.5912C42.4062 17.6888 42.4062 17.7538 42.3736 17.8514C42.3736 17.949 42.4062 18.0141 42.4062 18.1116C42.4062 18.2743 42.3086 18.3068 42.2435 18.4044C42.1134 18.567 42.211 18.7622 42.2761 18.9574C42.3411 19.0875 42.3086 19.1851 42.2435 19.2826C42.1459 19.3802 42.1459 19.4453 42.1459 19.6079C42.1459 19.738 42.1459 19.8356 42.1785 19.9657C42.1785 20.0958 42.1134 20.1934 42.0809 20.3235C42.0484 20.5187 42.0158 20.7789 42.0158 21.0066C42.0158 21.1367 42.0158 21.2343 42.0484 21.3644C42.0484 21.462 41.9833 21.5596 41.9833 21.6571C41.9833 21.7547 42.0484 21.8523 42.0484 21.9499C42.0484 22.0475 42.0158 22.1451 42.0158 22.2426C41.9508 22.4378 41.9508 22.6655 41.9508 22.8932C41.9508 23.1534 41.8857 23.3811 41.8857 23.6088C41.9183 23.7064 41.9508 23.804 41.9508 23.9341C41.9183 24.0642 41.9508 24.1943 41.9508 24.3244C41.9508 24.5521 41.9508 24.7798 41.9833 25.04C41.9508 25.2352 41.9183 25.4629 41.9508 25.6905V26.0484C41.9183 26.1785 41.8857 26.2435 41.9183 26.3736C41.9508 26.4712 42.0158 26.5363 42.0158 26.6013C42.0484 26.7314 42.0484 26.829 42.0809 26.9266C42.0809 27.1543 42.1134 27.382 42.1785 27.5771C42.2435 27.7073 42.2435 27.7073 42.2435 27.8374C42.211 27.9675 42.211 28.0651 42.211 28.1952C42.2761 28.2927 42.2435 28.3903 42.2435 28.4879C42.2435 28.618 42.3086 28.7481 42.3736 28.8457C42.4062 28.9758 42.5688 29.3336 42.3411 29.3662L42.0484 29.3336C41.9508 29.3011 41.8532 29.2035 41.7556 29.171C41.5279 29.1385 41.5279 29.3662 41.5279 29.4963C41.5279 29.5938 41.5605 29.5938 41.4629 29.6264C41.3653 29.6589 41.2352 29.6264 41.1376 29.6264ZM35.1851 15.0215C35.2827 14.989 35.3802 14.924 35.5103 14.8914C35.673 14.8264 35.9007 14.8264 36.0633 14.8264C36.2259 14.8264 36.3235 14.8914 36.4862 14.8589C36.6488 14.8264 36.7464 14.7288 36.909 14.6963C37.0717 14.6637 37.1692 14.6963 37.3319 14.7288C37.3969 14.7288 37.462 14.6963 37.527 14.6963C37.5921 14.6637 37.6572 14.6963 37.7547 14.6963C37.8848 14.6963 38.015 14.6637 38.1451 14.6637L38.3402 14.5662C38.4378 14.5662 38.5029 14.5987 38.6005 14.5662C38.7631 14.5662 38.8932 14.5011 39.0558 14.4686C39.2185 14.436 39.3811 14.436 39.5438 14.436C39.9341 14.4686 39.869 14.1108 39.9341 13.8505C39.9341 13.7204 39.9016 13.5903 39.9666 13.4602C39.9991 13.2651 39.9991 13.1024 40.0317 12.9398C40.0317 12.7771 40.0642 12.647 40.1292 12.5169C40.1618 12.3543 40.1292 12.2892 40.1618 12.1266C40.1943 11.9965 40.2919 11.964 40.2919 11.8338C40.3244 11.7688 40.2594 11.6712 40.2594 11.6062C40.2268 11.5086 40.2594 11.411 40.2594 11.3459C40.2919 11.0207 40.3244 10.6954 40.422 10.4026C40.4545 10.2725 40.5521 10.2075 40.5196 10.0448C40.487 9.84967 40.487 9.71956 40.5196 9.52439C40.5846 9.26417 40.5521 8.97143 40.6822 8.74374L40.7798 8.32088C40.8123 8.15824 40.7473 8.06066 40.7798 7.89802C40.7473 7.76791 40.8448 7.67033 40.8774 7.54022C40.9099 7.41011 40.8123 7.24747 40.8774 7.11736C40.9099 6.9222 40.9099 6.75956 40.9099 6.59692C40.9099 6.40176 40.975 6.27165 41.0075 6.10901C41.0075 5.9789 40.975 5.81626 40.975 5.65362C41.0075 5.49099 41.0075 5.32835 41.04 5.16571C41.0725 5.00308 41.0075 4.84044 41.04 4.64527C41.04 4.48264 41.0725 4.32 41.0725 4.12483C41.0725 3.83209 41.1376 3.53934 41.1701 3.24659V2.23824C41.1376 2.0756 41.1376 1.62022 40.8774 1.68527C40.7473 1.7178 40.5846 1.81538 40.4545 1.88044C40.3569 1.94549 40.2919 2.10813 40.2268 2.20571C40.1292 2.33582 40.0317 2.36835 39.9016 2.46593C39.7389 2.56351 39.7389 2.62857 39.7389 2.79121C39.6413 3.08395 39.4462 3.34417 39.1859 3.50681C39.0884 3.60439 39.0233 3.57187 39.0233 3.7345C38.9908 3.89714 38.9257 4.02725 38.8607 4.15736C38.7956 4.18989 38.7306 4.22242 38.698 4.28747C38.6655 4.35252 38.6655 4.41758 38.633 4.45011C38.6005 4.58022 38.4703 4.64527 38.3728 4.74286C38.3077 4.84044 38.3077 5.00308 38.2427 5.13319L38.0475 5.55604C37.8848 5.81626 37.7547 6.10901 37.5596 6.36923C37.527 6.46681 37.4945 6.59692 37.3644 6.66198C37.2343 6.79209 37.2018 6.79209 37.2343 6.98725C37.2018 7.11736 37.1692 7.21494 37.1692 7.34505C37.1367 7.47516 37.1042 7.50769 37.0391 7.60527C36.9416 7.70286 37.0066 7.86549 37.0066 7.9956C36.9741 8.19077 36.8765 8.19077 36.7464 8.28835C36.6813 8.3534 36.5187 8.45099 36.4536 8.54857C36.3886 8.64615 36.4536 8.80879 36.4211 8.9389C36.4211 9.23165 36.2259 9.49187 36.1284 9.71956C36.0308 9.84967 35.9332 9.91472 35.8031 9.97978C35.6405 10.0774 35.7055 10.1424 35.7055 10.3051C35.7055 10.4677 35.6405 10.5653 35.6405 10.7279C35.6079 10.793 35.6405 10.858 35.6079 10.9231C35.6079 11.0207 35.5429 11.0532 35.5103 11.1182C35.4453 11.2158 35.4453 11.3459 35.3802 11.476C35.3152 11.6062 35.1525 11.6712 35.0224 11.7688C35.0224 11.7688 35.0224 11.7688 35.055 11.8013C35.055 11.8664 35.055 11.9965 35.0224 12.0615C34.9574 12.1591 34.8598 12.1266 34.8923 12.2892C34.9574 12.4519 35.0224 12.4519 34.8923 12.582C34.8273 12.6796 34.7947 12.7446 34.7947 12.8747C34.7947 13.0374 34.7622 13.1675 34.7622 13.2976C34.7622 13.4602 34.6972 13.5578 34.6646 13.7204C34.6646 13.8505 34.6972 13.9807 34.6321 14.1433L34.4695 14.436C34.4369 14.5011 34.4369 14.5662 34.4369 14.6312C34.4044 14.7288 34.3719 14.7938 34.3719 14.8914C34.4369 15.0866 35.0224 15.0541 35.1851 15.0215ZM41.7881 9.49187C41.9183 9.58945 41.8532 9.2967 41.8532 9.23165C41.8207 9.13406 41.8532 9.06901 41.9183 9.00395C41.9833 8.97143 42.0158 9.00395 42.0809 8.97143L42.211 8.84132C42.3086 8.77626 42.2761 8.67868 42.1134 8.64615L41.9833 8.67868C41.9183 8.64615 41.8857 8.5811 41.8532 8.5811C41.7231 8.54857 41.6255 8.67868 41.658 8.77626C41.6255 8.90637 41.7556 9.03648 41.658 9.16659C41.658 9.23165 41.6906 9.45934 41.7881 9.49187ZM41.1701 10.9881C41.2677 11.1833 41.3978 10.9556 41.4629 10.8905C41.5605 10.7604 41.658 10.6954 41.6255 10.5002C41.593 10.4352 41.593 10.24 41.7231 10.24C41.8207 10.2075 41.8207 10.3376 41.8532 10.4026C41.8857 10.3701 42.0484 10.1749 42.0158 10.1099C42.0158 10.0448 41.7881 9.91472 41.7231 9.91472C41.593 9.91472 41.5279 10.1099 41.4954 10.1749C41.3978 10.24 41.2677 10.2075 41.2677 10.3376C41.2352 10.4352 41.3653 10.5327 41.3653 10.6629C41.3328 10.7604 41.1376 10.793 41.1701 10.9881ZM41.6255 12.7771C41.8857 12.7121 41.8207 12.582 41.7556 12.3868C41.7231 12.1916 41.7556 12.0615 41.8207 11.8664C41.9183 11.6712 41.8532 11.4435 41.9508 11.2483C42.0484 11.1508 41.7881 10.858 41.6906 10.9881C41.6255 11.0532 41.658 11.1833 41.6255 11.2483C41.593 11.3459 41.5279 11.4435 41.4629 11.5086C41.4303 11.6062 41.3653 11.6712 41.3653 11.8013C41.3328 11.8989 41.4303 11.964 41.4954 12.0941C41.4954 12.1916 41.4303 12.1916 41.3978 12.2567C41.3328 12.3543 41.3002 12.4193 41.3653 12.5169C41.3653 12.7121 41.3978 12.8097 41.6255 12.7771ZM34.9899 11.6712C34.9574 11.7037 34.9899 11.7363 35.0224 11.7688C35.0875 11.6712 34.9899 11.5736 34.9899 11.6712ZM41.2352 13.2651C41.3002 13.2976 41.3328 13.1675 41.2352 13.1675C41.2027 13.1675 41.1701 13.2325 41.2352 13.2651ZM41.3653 14.2409C41.593 14.3059 41.4303 14.0132 41.3328 13.9807C41.1701 13.9807 41.2352 14.2409 41.3653 14.2409ZM34.2092 14.8264C34.2418 14.7938 34.2092 14.6963 34.1442 14.6963C34.1117 14.7288 34.1117 14.8589 34.2092 14.8264ZM38.9908 15.542C39.0558 15.5095 39.1859 15.3468 39.0558 15.3143C38.9583 15.3143 38.9257 15.4769 38.9908 15.542ZM37.5921 15.7371C37.6572 15.6721 37.8523 15.7697 37.8848 15.6721C37.9499 15.5745 37.8848 15.4444 37.7873 15.4444C37.6572 15.4119 37.5921 15.5095 37.527 15.607C37.4945 15.607 37.3969 15.6396 37.4295 15.7046C37.4945 15.7697 37.527 15.7371 37.5921 15.7371ZM38.5354 15.6396C38.633 15.607 38.633 15.4769 38.5029 15.5095C38.4378 15.542 38.4378 15.6721 38.5354 15.6396ZM36.0958 15.8998C36.0958 15.8998 36.291 15.9323 36.3235 15.8673C36.3561 15.7697 36.2259 15.6721 36.1609 15.6721C35.9332 15.5745 35.8031 15.8998 36.0958 15.8998ZM35.5103 15.8998C35.5429 16.0299 35.738 16.0299 35.738 15.8998C35.7055 15.8022 35.5103 15.8022 35.5103 15.8998ZM40.7798 16.713C40.8448 16.713 40.8123 16.5178 40.7473 16.5178C40.7147 16.5503 40.6497 16.6804 40.7798 16.713ZM41.0075 17.8514C41.1051 17.8189 41.1051 17.5587 41.1051 17.4936V17.0708C41.1051 17.0057 41.1051 16.9081 41.1376 16.8431C41.1376 16.778 41.2027 16.713 41.2027 16.6804C41.2027 16.5503 41.04 16.5503 40.975 16.5829C40.9099 16.6804 40.9099 16.8431 40.8774 16.9407C40.8448 17.1684 40.6497 17.4286 40.8123 17.6888C40.8448 17.7538 40.9424 17.8514 41.0075 17.8514ZM39.1209 16.8105C39.0884 16.8756 38.9908 16.8431 38.9908 16.778C39.0233 16.6804 39.1209 16.7455 39.1209 16.8105ZM37.2668 16.8105C37.3319 16.8431 37.3644 16.8105 37.3969 16.8105L37.3319 16.778C37.2668 16.778 37.2668 16.8105 37.2668 16.8105ZM39.869 17.6563C39.9341 17.6237 39.9666 17.4611 39.869 17.4611C39.7714 17.4611 39.7714 17.6237 39.869 17.6563ZM40.8123 19.7705C41.0075 19.6404 41.1051 19.0549 40.8448 18.8923C40.9099 18.8923 40.8123 18.6971 40.7798 18.6321C40.7798 18.5345 40.8123 18.2743 40.6822 18.2418C40.5521 18.2092 40.6172 18.5345 40.5846 18.5996C40.5521 18.6646 40.487 18.6971 40.4545 18.7622C40.422 18.8598 40.422 18.9574 40.4545 19.0549C40.487 19.2176 40.5521 19.3802 40.6172 19.5429C40.6172 19.673 40.6497 19.9007 40.8123 19.7705ZM40.8123 19.0875C40.7798 19.12 40.6822 19.12 40.6822 19.0549C40.6497 18.9899 40.8448 18.9248 40.8448 18.8923C40.8448 18.9574 40.8774 19.0224 40.8123 19.0875ZM40.0642 25.7556C40.1618 25.7881 40.2268 25.6255 40.2594 25.5604C40.2919 25.4629 40.2594 25.3978 40.3895 25.4303C40.4545 25.4629 40.6172 25.6255 40.6822 25.593C40.7473 25.5279 40.6172 25.3978 40.5846 25.3653C40.5196 25.3002 40.3569 25.2352 40.3569 25.1701C40.3569 25.0725 40.5521 25.04 40.5521 24.9749C40.6172 24.9424 40.6497 24.8774 40.6497 24.8123C40.6497 24.6822 40.5846 24.6171 40.5846 24.5196C40.6172 24.3895 40.7147 24.2593 40.7473 24.1292C40.7798 23.9015 40.7798 23.6738 40.7473 23.4462C40.7473 23.316 40.7473 23.2185 40.6822 23.0884C40.6497 22.9257 40.6172 22.8607 40.6172 22.698L40.7147 22.4378C40.7147 22.3727 40.7798 22.3402 40.7798 22.3077C40.7473 22.2101 40.7147 22.2101 40.6822 22.1451C40.6497 21.9174 40.7798 21.7222 40.7798 21.4945C40.7473 21.2668 40.7473 21.0066 40.7798 20.8114C40.8123 20.7138 40.8448 20.6488 40.9099 20.5837C41.0075 20.4862 41.1376 20.4211 41.0725 20.291C41.0725 20.0958 40.7473 19.9332 40.5846 19.9982C40.422 20.0633 40.1618 20.2259 40.2268 20.4211C40.2594 20.5187 40.2919 20.5512 40.3569 20.5837C40.422 20.6163 40.4545 20.6488 40.4545 20.6813C40.487 20.7464 40.4545 20.8114 40.487 20.844C40.5196 20.9415 40.6172 20.909 40.6497 20.9741C40.6822 21.0716 40.4545 21.1042 40.422 21.1042C40.0967 21.2343 40.2268 21.3644 40.3244 21.6246C40.3895 21.7547 40.422 21.9174 40.422 22.0475C40.422 22.1451 40.3569 22.1776 40.3895 22.2426V22.2752H40.3569C40.3244 22.3077 40.2268 22.3077 40.2594 22.2752C40.2919 22.2426 40.3244 22.2752 40.3569 22.2426C40.2594 22.1776 40.1618 22.1451 40.0317 22.2101C39.9666 22.3077 40.0317 22.4053 40.0642 22.5354C40.0642 22.633 40.0967 22.7631 40.0967 22.8932C40.0967 22.9582 40.0967 23.2185 40.1618 23.2835C40.2268 23.316 40.2919 23.251 40.3895 23.251C40.4545 23.251 40.5846 23.3486 40.5196 23.4462C40.487 23.5112 40.3895 23.5112 40.2919 23.5437C40.2268 23.5763 40.2268 23.6413 40.1618 23.7064C40.1292 23.6738 39.869 23.4462 39.8365 23.6088C39.869 23.7064 40.0642 23.9015 40.1618 23.9015V23.9341V23.7064C40.2919 23.7389 40.2268 23.869 40.1618 23.9341C40.1618 23.9991 40.1943 24.0642 40.1618 24.0967C40.1618 24.1618 40.0642 24.1618 39.9991 24.1943C39.869 24.3569 40.0642 24.6497 39.9991 24.8448C39.9666 24.9424 39.9341 25.0075 39.9991 25.1376L40.0317 25.4629C40.0317 25.5279 39.9666 25.6905 40.0642 25.7556ZM39.7064 22.633C39.7389 22.6004 39.7389 22.5679 39.7064 22.5354C39.6739 22.5679 39.6739 22.6004 39.7064 22.633ZM39.5763 26.0158C39.5763 25.9833 39.5763 25.9833 39.5438 25.9833C39.4787 26.0158 39.5763 26.0809 39.5763 26.0158ZM40.6822 26.1459C40.7147 26.1134 40.7147 26.0809 40.7147 26.0484C40.6497 25.9833 40.6497 26.1459 40.6822 26.1459ZM40.1943 26.3736C40.422 26.3736 40.487 26.1459 40.1943 26.1134C40.1292 26.1134 39.9991 26.1134 39.9991 26.2435C39.9991 26.3411 40.0967 26.3736 40.1943 26.3736ZM40.3569 26.9266C40.5196 26.8941 40.5846 26.4712 40.3895 26.5037C40.1943 26.5363 40.2594 26.9266 40.3569 26.9266ZM40.6822 28C40.7798 27.9675 40.7473 27.7723 40.7473 27.7073C40.7473 27.5771 40.7147 27.447 40.7147 27.3495C40.7473 27.2519 40.8448 27.1543 40.8123 27.0567C40.7147 26.9591 40.6822 27.0567 40.6172 27.1218C40.5846 27.1868 40.5196 27.2519 40.4545 27.3495C40.4545 27.4145 40.422 27.5446 40.4545 27.6422C40.487 27.7398 40.5521 27.7723 40.5846 27.8699C40.5846 27.9675 40.5846 28.0651 40.6822 28ZM40.975 27.4145L41.0075 27.382C40.975 27.3495 40.975 27.3495 40.9424 27.3495C40.9099 27.3169 40.975 27.4145 40.975 27.4145ZM41.2677 29.171C41.3002 29.2035 41.3978 29.236 41.3978 29.171C41.3978 29.1059 41.3002 29.0734 41.2677 29.171ZM49.517 30.9275C49.2568 30.8949 48.9965 30.8299 48.7363 30.7974C48.2809 30.7323 47.8581 30.5371 47.5003 30.2769C47.3051 30.1468 47.175 29.9516 47.0124 29.789C46.9473 29.724 46.8823 29.6589 46.8172 29.5613C46.7521 29.4312 46.7196 29.3011 46.622 29.171C46.3293 28.7807 46.0365 28.4229 45.8088 27.9675C45.5812 27.5446 45.386 27.1218 45.386 26.6664C45.4185 26.1134 45.5161 25.6255 45.6787 25.1376C45.7763 24.9424 45.8088 24.7147 45.939 24.5196C46.0691 24.3244 46.2317 24.1292 46.3943 23.9341C46.7196 23.5112 47.0449 23.0884 47.4027 22.698C47.7605 22.3402 48.1508 21.9824 48.5412 21.6571C48.899 21.2993 49.2568 20.909 49.6796 20.6163C50.1025 20.3235 50.5579 20.1284 50.9482 19.8356C51.1108 19.738 51.306 19.5754 51.1759 19.3802C51.0783 19.2176 50.8181 19.0549 50.6554 18.9248C50.2651 18.567 49.9073 18.2418 49.4845 17.9165C48.6713 17.331 47.8906 16.6804 47.3051 15.8347C47.175 15.6396 47.1099 15.4119 46.9798 15.2167C46.8497 14.989 46.6871 14.7938 46.557 14.5987C46.2968 14.1433 46.0691 13.6554 45.9064 13.1675C45.7763 12.7121 45.4836 12.2567 45.4836 11.8013C45.4836 11.5411 45.4836 11.3134 45.451 11.0857C45.386 10.8255 45.451 10.5653 45.4836 10.3376C45.6137 9.81714 45.7113 9.2967 45.939 8.84132L46.2642 8.25582C46.4269 8.06066 46.5895 7.96307 46.7847 7.83297C47.175 7.54022 47.4352 7.11736 47.728 6.75956C47.8581 6.56439 47.9882 6.49934 48.2159 6.40176C48.411 6.3367 48.5086 6.27165 48.6387 6.07648C48.7688 5.91384 48.9315 5.81626 49.0941 5.71868C49.3218 5.58857 49.4845 5.42593 49.7121 5.26329C50.0699 5.00308 50.4277 4.6778 50.8506 4.45011C51.0132 4.35252 51.2409 4.25494 51.4361 4.15736C51.6313 4.09231 51.859 4.02725 52.0541 3.89714C52.4119 3.63692 52.7372 3.34417 53.1275 3.11648C53.3552 3.0189 53.4853 2.92132 53.7456 2.88879C53.9732 2.82373 54.1684 2.75868 54.3636 2.62857C54.7539 2.36835 55.2093 2.40088 55.5996 2.23824C55.8273 2.17319 56.0225 2.04307 56.2176 1.97802C56.4779 1.91296 56.7056 1.84791 56.9332 1.81538C57.4212 1.75033 57.9416 1.7178 58.4295 1.75033C59.3077 1.81538 60.2836 2.0756 60.9016 2.75868C61.1618 3.08395 61.4871 3.44176 61.5847 3.86461C61.5847 4.02725 61.6172 4.25494 61.5196 4.38505C61.3895 4.58022 61.1943 4.51516 60.9992 4.58022C60.804 4.64527 60.7064 4.84044 60.4462 4.80791C60.186 4.80791 59.9908 4.80791 59.7306 4.84044C59.2427 4.90549 58.7548 4.64527 58.2343 4.6778C58.0067 4.71033 57.779 4.80791 57.5513 4.87297L56.7706 5.06813C56.5754 5.16571 56.3803 5.26329 56.1851 5.32835C55.9574 5.36088 55.7623 5.3934 55.5346 5.49099C55.3394 5.58857 55.2093 5.68615 54.9816 5.71868C54.7539 5.75121 54.5913 5.78373 54.3636 5.91384C53.9732 6.17407 53.5504 6.30417 53.095 6.46681C52.8998 6.53187 52.7372 6.6945 52.542 6.82461C52.3469 6.95472 52.0867 7.08483 51.859 7.18242C51.6638 7.28 51.4361 7.34505 51.2735 7.47516C51.1108 7.60527 50.9807 7.80044 50.8181 7.93055C50.6554 8.02813 50.4277 8.06066 50.2651 8.19077C50.0699 8.3534 49.9073 8.51604 49.7447 8.67868C49.3869 9.00395 48.964 9.19912 48.6062 9.55692C47.9557 10.3051 47.4027 11.1508 47.175 12.0941C47.1099 12.3543 47.1099 12.582 47.0774 12.8422C47.0449 13.1024 46.9798 13.2976 47.0774 13.5578C47.1425 13.753 47.2401 13.9807 47.3376 14.1758C47.4677 14.4035 47.6304 14.5987 47.793 14.8264C48.3785 15.5745 49.1592 16.1925 49.9073 16.8105C50.3302 17.1684 50.753 17.4936 51.1759 17.8189C51.5012 18.0791 51.7939 18.4369 52.1517 18.6646C52.542 18.9248 52.8998 18.7622 53.3227 18.5996C53.8106 18.4044 54.2985 18.2418 54.7864 18.0791C55.8273 17.8189 56.8357 17.4936 57.8115 17.0382C58.2343 16.8431 58.6897 16.5503 59.1451 16.3877L59.8932 16.2251C60.1535 16.1925 60.4137 16.0624 60.6739 15.9648C61.1618 15.8022 61.6172 15.607 62.1051 15.4444C62.528 15.2818 62.8858 15.542 63.1785 15.8347C63.3086 15.9974 63.4387 16.1275 63.4387 16.3552C63.4387 16.5829 63.2761 16.713 63.0484 16.7455C62.8532 16.778 62.6581 16.8105 62.4629 16.9081C62.2352 16.9732 62.0075 17.1033 61.7473 17.1684C61.5521 17.2009 61.422 17.2659 61.2594 17.396C61.0642 17.5587 60.9016 17.6237 60.6739 17.6563C60.4137 17.6888 60.186 17.7864 59.9583 17.8514C59.7306 17.9165 59.4704 17.9815 59.2752 18.1116C58.8524 18.3068 58.5596 18.502 58.0717 18.3719C57.844 18.3393 57.6814 18.3393 57.4537 18.4044C57.1935 18.502 56.9332 18.567 56.673 18.5996C56.4128 18.6321 56.1526 18.6321 55.9249 18.7297C55.7297 18.7947 55.5671 18.9248 55.3719 18.9574C54.9165 19.0224 54.4937 19.2501 54.0383 19.4127C53.9407 19.4453 53.6154 19.4778 53.5504 19.5754C53.4203 19.7055 53.648 19.8681 53.7456 19.9332C54.0708 20.2259 54.3961 20.5187 54.7214 20.7789C55.0792 21.1042 55.437 21.462 55.7297 21.8198C56.0875 22.2101 56.3152 22.633 56.5754 23.0558C56.8682 23.5112 57.0634 24.0316 57.226 24.5196C57.3561 25.04 57.4862 25.4954 57.4862 26.0484C57.4862 26.276 57.4537 26.5037 57.4212 26.7314C57.3561 26.9591 57.226 27.1218 57.1284 27.3169L56.8357 27.9349C56.7381 28.1626 56.608 28.2927 56.4128 28.4554C56.2827 28.5855 56.2176 28.8132 56.0875 28.9758C55.9249 29.1385 55.7297 29.236 55.5346 29.3662C55.1442 29.5938 54.819 29.9191 54.3636 30.0492C54.1359 30.1468 53.9082 30.1793 53.6805 30.2119C53.5504 30.2444 53.4203 30.2769 53.2902 30.342C53.1926 30.3745 53.1275 30.4721 53.0299 30.5371C52.8023 30.6347 52.6721 30.5697 52.4445 30.5697C52.3469 30.5697 52.2818 30.6022 52.1842 30.6673C52.0541 30.6998 51.8915 30.7323 51.7614 30.7323L50.2326 30.9275C49.9724 30.96 49.7447 30.9925 49.517 30.9275ZM50.0699 6.01143C50.2326 6.10901 50.4277 5.81626 50.4603 5.71868C50.5253 5.65362 50.4603 5.55604 50.4928 5.45846C50.5579 5.3934 50.688 5.32835 50.7856 5.3934C50.8506 5.3934 50.9482 5.3934 51.0132 5.42593C51.0783 5.42593 51.1108 5.45846 51.2084 5.49099C51.371 5.45846 51.5012 5.32835 51.5987 5.29582C51.5987 5.23077 51.5987 5.10066 51.6963 5.13319C51.7288 5.16571 51.6963 5.23077 51.6638 5.26329L51.5987 5.29582C51.5987 5.29582 51.6313 5.29582 51.6638 5.26329C51.7939 5.19824 51.924 5.16571 52.0541 5.0356C52.0867 4.97055 52.0867 4.87297 52.1842 4.84044C52.2818 4.77538 52.3794 4.77538 52.4445 4.74286C52.6071 4.6778 52.7697 4.48264 52.9324 4.45011C52.9974 4.41758 53.095 4.41758 53.1275 4.41758C53.2251 4.41758 53.2902 4.32 53.3552 4.28747C53.4528 4.15736 53.6154 4.12483 53.6805 4.02725C53.713 3.89714 53.6154 3.7345 53.648 3.63692C53.6805 3.63692 53.7456 3.57187 53.7781 3.53934L53.9082 3.40923C54.1034 3.31165 54.1034 3.40923 54.0058 3.57187C53.9732 3.63692 53.9082 3.7345 54.0383 3.79956C54.1034 3.79956 54.1684 3.7345 54.2335 3.76703C54.2985 3.76703 54.3961 3.76703 54.4612 3.86461C54.5587 3.92967 54.5587 4.05978 54.7214 4.02725C54.819 3.9622 54.884 3.83209 54.819 3.7345C54.7864 3.63692 54.6238 3.63692 54.5913 3.53934C54.4937 3.40923 54.6888 3.3767 54.819 3.40923C54.884 3.47428 54.9491 3.50681 55.0141 3.50681L55.2093 3.60439C55.3394 3.70198 55.5346 3.70198 55.5671 3.53934C55.5996 3.34417 55.5346 3.24659 55.6972 3.24659C55.9574 3.21406 56.1526 3.21406 56.2502 2.98637C56.2827 2.98637 56.3803 3.14901 56.5104 3.14901C56.6405 3.11648 56.608 3.05143 56.6405 2.95384C56.673 2.82373 56.8031 2.82373 56.8031 2.72615C56.8682 2.56351 56.673 2.53099 56.7056 2.46593C56.7706 2.36835 56.9007 2.43341 57.0308 2.40088C57.0959 2.27077 56.9983 2.10813 56.8682 2.04307C56.7706 2.04307 56.6405 2.20571 56.5104 2.27077C56.4779 2.23824 56.1526 2.33582 56.1526 2.36835C56.2176 2.33582 56.2176 2.49846 56.2176 2.53099C56.1526 2.62857 56.055 2.6611 55.9899 2.6611C55.9249 2.75868 55.7297 2.85626 55.6321 2.79121C55.5996 2.72615 55.5671 2.62857 55.502 2.62857C55.3719 2.56351 55.3069 2.6611 55.2743 2.75868C55.1442 2.85626 55.1442 3.0189 54.9491 2.95384C54.7539 2.85626 54.6563 2.98637 54.5262 3.11648C54.4286 3.14901 54.3636 3.14901 54.266 3.14901C54.1684 3.11648 54.1034 3.14901 53.9732 3.18154C53.8431 3.21406 53.6154 3.14901 53.4528 3.24659C53.3552 3.31165 53.1926 3.3767 53.3227 3.53934C53.2902 3.53934 53.2576 3.57187 53.2576 3.60439C53.1926 3.53934 53.095 3.60439 53.1601 3.63692C53.0299 3.66945 52.9649 3.86461 52.8348 3.9622C52.8023 3.99472 52.7697 4.02725 52.7047 3.99472L52.542 3.9622L52.5746 3.89714C52.5746 3.89714 52.5095 3.89714 52.542 3.9622C52.3143 4.05978 52.0867 4.35252 51.924 4.51516C51.859 4.61275 51.7614 4.71033 51.6963 4.6778C51.5662 4.61275 51.5987 4.45011 51.4686 4.45011C51.371 4.45011 51.306 4.64527 51.2084 4.6778C51.1434 4.77538 51.0132 4.77538 50.9482 4.87297C50.8831 4.97055 50.9157 5.00308 50.753 5.0356C50.688 5.0356 50.5904 4.93802 50.4603 5.00308C50.3627 5.0356 50.2651 5.16571 50.1675 5.23077C50.0374 5.29582 50.0049 5.42593 50.0374 5.49099C50.0699 5.6211 50.1025 5.71868 50.0699 5.81626C50.0374 5.88132 49.9398 5.9789 50.0699 6.01143ZM55.502 3.11648C55.4695 3.11648 55.4695 3.08395 55.4695 3.08395C55.4695 3.0189 55.5346 3.05143 55.502 3.11648ZM55.5671 3.70198C55.6321 3.7345 55.6321 3.70198 55.6647 3.66945C55.6321 3.66945 55.5671 3.66945 55.5671 3.70198ZM53.2576 4.05978C53.1275 4.09231 53.095 3.99472 52.9974 3.92967C53.0299 3.92967 53.0625 3.89714 53.095 3.89714C53.1275 3.92967 53.1926 3.79956 53.2576 3.79956C53.3227 3.76703 53.4528 3.83209 53.4528 3.89714C53.4853 4.02725 53.3227 4.09231 53.2576 4.05978ZM53.648 4.71033C53.7456 4.71033 53.6805 4.58022 53.5829 4.61275C53.5179 4.6778 53.5829 4.71033 53.648 4.71033ZM52.8998 5.00308C52.9324 4.97055 52.8673 4.90549 52.8023 4.90549C52.7697 4.97055 52.8023 5.0356 52.8998 5.00308ZM52.2818 5.36088C52.3143 5.3934 52.4445 5.3934 52.4445 5.32835C52.477 5.23077 52.2818 5.29582 52.2818 5.36088ZM50.688 5.65362C50.8831 5.65362 50.8506 5.45846 50.753 5.3934C50.6554 5.45846 50.4928 5.6211 50.688 5.65362ZM48.4436 7.89802C48.5086 7.93055 48.6387 7.83297 48.6387 7.73538C48.6062 7.6378 48.2809 7.54022 48.346 7.44264C48.3785 7.37758 48.5412 7.47516 48.6062 7.47516C48.7038 7.44264 48.7363 7.34505 48.8014 7.28C48.8339 7.24747 48.9315 7.24747 48.9965 7.21494C49.1266 7.14989 49.1266 7.05231 49.1592 6.9222C49.2568 6.75956 49.4519 6.75956 49.582 6.72703C49.9073 6.66198 49.6146 6.46681 49.6796 6.27165C49.7121 6.14154 49.8423 6.10901 49.8423 6.04396C49.8423 5.91384 49.8097 5.75121 49.6796 5.71868C49.517 5.71868 49.4845 5.81626 49.3869 5.91384C49.3543 5.9789 49.2568 5.94637 49.2568 6.04396C49.2568 6.07648 49.2893 6.10901 49.2568 6.17407C49.2242 6.27165 49.1266 6.27165 49.0616 6.30417L48.8664 6.49934C48.7688 6.62945 48.6713 6.62945 48.5086 6.6945C48.346 6.75956 48.346 6.9222 48.2159 7.08483C48.1834 7.11736 48.0858 7.18242 48.0858 7.28C48.0207 7.37758 47.9557 7.47516 47.8581 7.47516C47.793 7.54022 47.6954 7.70286 47.7605 7.80044C47.793 7.83297 48.0532 7.86549 48.1183 7.83297C48.1834 7.83297 48.2159 7.80044 48.3135 7.83297C48.346 7.83297 48.3785 7.89802 48.4436 7.89802ZM46.7521 8.38593C46.7847 8.45099 46.9473 8.38593 46.9798 8.38593C47.0774 8.3534 47.1425 8.25582 47.2401 8.19077C47.3376 8.12571 47.6954 7.9956 47.4677 7.83297C47.5003 7.80044 47.5328 7.80044 47.5328 7.76791C47.5003 7.73538 47.4027 7.76791 47.5003 7.80044C47.4027 7.80044 46.7196 8.25582 46.7521 8.38593ZM46.1992 9.52439C46.1992 9.78461 46.7521 9.45934 46.7847 9.45934C46.8823 9.42681 46.9473 9.26417 47.0124 9.19912C47.0124 9.16659 47.0124 9.10154 47.0449 9.06901C47.0774 9.03648 47.1425 9.00395 47.175 8.9389C47.175 8.84132 47.0774 8.90637 47.0774 8.9389C46.9148 9.03648 46.8172 9.16659 46.6871 9.26417C46.622 9.36176 46.5245 9.39428 46.3943 9.42681C46.3618 9.45934 46.2317 9.45934 46.1992 9.52439ZM48.4436 28.553C48.6062 28.553 48.8014 28.5855 49.0291 28.553C49.4519 28.5204 49.8423 28.4229 50.2651 28.3903C50.688 28.3253 51.1108 28.2277 51.5337 28.0976C52.2493 27.8699 53.0299 27.6097 53.648 27.1218C54.266 26.6664 54.6888 25.9182 54.7864 25.1376C54.8515 24.7473 54.9165 24.2919 54.819 23.9341C54.7539 23.5763 54.4937 23.2185 54.2985 22.9257C54.0383 22.6004 53.6805 22.3727 53.3552 22.1125C52.9974 21.8523 52.6721 21.527 52.3143 21.2668C52.2168 21.1692 52.0541 21.0716 51.8915 21.1042C51.7288 21.1042 51.5662 21.2343 51.4686 21.3644C51.371 21.4945 51.2735 21.6246 51.2084 21.7547C51.0458 21.8848 50.8831 22.0149 50.7205 22.1125L50.2651 22.2752C50.135 22.3727 50.0699 22.5029 50.0374 22.633C49.9724 22.8281 49.9073 22.9257 49.7772 23.0558C49.6146 23.1859 49.4519 23.251 49.2893 23.3486C49.1266 23.4787 49.0616 23.6088 48.964 23.804C48.8014 23.9666 48.7038 24.0642 48.6713 24.2919C48.6713 24.5521 48.5412 24.6171 48.411 24.7798C48.2159 24.9099 48.1183 25.04 48.0532 25.2352C47.8256 25.658 47.6954 26.1134 47.5653 26.5688C47.5003 26.764 47.4027 26.9591 47.4352 27.1543C47.4677 27.382 47.5003 27.6097 47.4352 27.8374C47.4027 28 47.3051 28.1626 47.4027 28.3253C47.4677 28.4229 47.6954 28.4879 47.8256 28.5204C48.0532 28.5855 48.2159 28.553 48.4436 28.553ZM63.6525 30.9275C63.3922 30.8949 63.132 30.8299 62.8718 30.7974C62.4164 30.7323 61.9936 30.5371 61.6358 30.2769C61.4406 30.1468 61.3105 29.9516 61.1478 29.789C61.0828 29.724 61.0177 29.6589 60.9527 29.5613C60.8876 29.4312 60.8551 29.3011 60.7575 29.171C60.4648 28.7807 60.172 28.4229 59.9443 27.9675C59.7166 27.5446 59.5215 27.1218 59.5215 26.6664C59.554 26.1134 59.6516 25.6255 59.8142 25.1376C59.9118 24.9424 59.9443 24.7147 60.0744 24.5196C60.2045 24.3244 60.3672 24.1292 60.5298 23.9341C60.8551 23.5112 61.1804 23.0884 61.5382 22.698C61.896 22.3402 62.2863 21.9824 62.6766 21.6571C63.0344 21.2993 63.3922 20.909 63.8151 20.6163C64.2379 20.3235 64.6933 20.1284 65.0837 19.8356C65.2463 19.738 65.4415 19.5754 65.3114 19.3802C65.2138 19.2176 64.9536 19.0549 64.7909 18.9248C64.4006 18.567 64.0428 18.2418 63.6199 17.9165C62.8067 17.331 62.0261 16.6804 61.4406 15.8347C61.3105 15.6396 61.2454 15.4119 61.1153 15.2167C60.9852 14.989 60.8226 14.7938 60.6925 14.5987C60.4322 14.1433 60.2045 13.6554 60.0419 13.1675C59.9118 12.7121 59.619 12.2567 59.619 11.8013C59.619 11.5411 59.619 11.3134 59.5865 11.0857C59.5215 10.8255 59.5865 10.5653 59.619 10.3376C59.7492 9.81714 59.8467 9.2967 60.0744 8.84132L60.3997 8.25582C60.5623 8.06066 60.725 7.96307 60.9201 7.83297C61.3105 7.54022 61.5707 7.11736 61.8634 6.75956C61.9936 6.56439 62.1237 6.49934 62.3514 6.40176C62.5465 6.3367 62.6441 6.27165 62.7742 6.07648C62.9043 5.91384 63.067 5.81626 63.2296 5.71868C63.4573 5.58857 63.6199 5.42593 63.8476 5.26329C64.2054 5.00308 64.5632 4.6778 64.9861 4.45011C65.1487 4.35252 65.3764 4.25494 65.5716 4.15736C65.7667 4.09231 65.9944 4.02725 66.1896 3.89714C66.5474 3.63692 66.8727 3.34417 67.263 3.11648C67.4907 3.0189 67.6208 2.92132 67.881 2.88879C68.1087 2.82373 68.3039 2.75868 68.499 2.62857C68.8894 2.36835 69.3448 2.40088 69.7351 2.23824C69.9628 2.17319 70.1579 2.04307 70.3531 1.97802C70.6133 1.91296 70.841 1.84791 71.0687 1.81538C71.5566 1.75033 72.0771 1.7178 72.565 1.75033C73.4432 1.81538 74.419 2.0756 75.0371 2.75868C75.2973 3.08395 75.6226 3.44176 75.7201 3.86461C75.7201 4.02725 75.7527 4.25494 75.6551 4.38505C75.525 4.58022 75.3298 4.51516 75.1347 4.58022C74.9395 4.64527 74.8419 4.84044 74.5817 4.80791C74.3215 4.80791 74.1263 4.80791 73.8661 4.84044C73.3782 4.90549 72.8903 4.64527 72.3698 4.6778C72.1421 4.71033 71.9144 4.80791 71.6867 4.87297L70.9061 5.06813C70.7109 5.16571 70.5158 5.26329 70.3206 5.32835C70.0929 5.36088 69.8977 5.3934 69.67 5.49099C69.4749 5.58857 69.3448 5.68615 69.1171 5.71868C68.8894 5.75121 68.7267 5.78373 68.499 5.91384C68.1087 6.17407 67.6859 6.30417 67.2305 6.46681C67.0353 6.53187 66.8727 6.6945 66.6775 6.82461C66.4823 6.95472 66.2221 7.08483 65.9944 7.18242C65.7993 7.28 65.5716 7.34505 65.4089 7.47516C65.2463 7.60527 65.1162 7.80044 64.9536 7.93055C64.7909 8.02813 64.5632 8.06066 64.4006 8.19077C64.2054 8.3534 64.0428 8.51604 63.8801 8.67868C63.5223 9.00395 63.0995 9.19912 62.7417 9.55692C62.0911 10.3051 61.5382 11.1508 61.3105 12.0941C61.2454 12.3543 61.2454 12.582 61.2129 12.8422C61.1804 13.1024 61.1153 13.2976 61.2129 13.5578C61.2779 13.753 61.3755 13.9807 61.4731 14.1758C61.6032 14.4035 61.7659 14.5987 61.9285 14.8264C62.514 15.5745 63.2947 16.1925 64.0428 16.8105C64.4656 17.1684 64.8885 17.4936 65.3114 17.8189C65.6366 18.0791 65.9294 18.4369 66.2872 18.6646C66.6775 18.9248 67.0353 18.7622 67.4582 18.5996C67.9461 18.4044 68.434 18.2418 68.9219 18.0791C69.9628 17.8189 70.9711 17.4936 71.947 17.0382C72.3698 16.8431 72.8252 16.5503 73.2806 16.3877L74.0287 16.2251C74.2889 16.1925 74.5492 16.0624 74.8094 15.9648C75.2973 15.8022 75.7527 15.607 76.2406 15.4444C76.6634 15.2818 77.0212 15.542 77.314 15.8347C77.4441 15.9974 77.5742 16.1275 77.5742 16.3552C77.5742 16.5829 77.4116 16.713 77.1839 16.7455C76.9887 16.778 76.7936 16.8105 76.5984 16.9081C76.3707 16.9732 76.143 17.1033 75.8828 17.1684C75.6876 17.2009 75.5575 17.2659 75.3949 17.396C75.1997 17.5587 75.0371 17.6237 74.8094 17.6563C74.5492 17.6888 74.3215 17.7864 74.0938 17.8514C73.8661 17.9165 73.6059 17.9815 73.4107 18.1116C72.9878 18.3068 72.6951 18.502 72.2072 18.3719C71.9795 18.3393 71.8169 18.3393 71.5892 18.4044C71.3289 18.502 71.0687 18.567 70.8085 18.5996C70.5483 18.6321 70.2881 18.6321 70.0604 18.7297C69.8652 18.7947 69.7026 18.9248 69.5074 18.9574C69.052 19.0224 68.6292 19.2501 68.1738 19.4127C68.0762 19.4453 67.7509 19.4778 67.6859 19.5754C67.5558 19.7055 67.7834 19.8681 67.881 19.9332C68.2063 20.2259 68.5316 20.5187 68.8569 20.7789C69.2147 21.1042 69.5725 21.462 69.8652 21.8198C70.223 22.2101 70.4507 22.633 70.7109 23.0558C71.0037 23.5112 71.1988 24.0316 71.3615 24.5196C71.4916 25.04 71.6217 25.4954 71.6217 26.0484C71.6217 26.276 71.5892 26.5037 71.5566 26.7314C71.4916 26.9591 71.3615 27.1218 71.2639 27.3169L70.9711 27.9349C70.8736 28.1626 70.7434 28.2927 70.5483 28.4554C70.4182 28.5855 70.3531 28.8132 70.223 28.9758C70.0604 29.1385 69.8652 29.236 69.67 29.3662C69.2797 29.5938 68.9544 29.9191 68.499 30.0492C68.2714 30.1468 68.0437 30.1793 67.816 30.2119C67.6859 30.2444 67.5558 30.2769 67.4256 30.342C67.3281 30.3745 67.263 30.4721 67.1654 30.5371C66.9377 30.6347 66.8076 30.5697 66.5799 30.5697C66.4823 30.5697 66.4173 30.6022 66.3197 30.6673C66.1896 30.6998 66.027 30.7323 65.8969 30.7323L64.3681 30.9275C64.1078 30.96 63.8801 30.9925 63.6525 30.9275ZM64.2054 6.01143C64.3681 6.10901 64.5632 5.81626 64.5958 5.71868C64.6608 5.65362 64.5958 5.55604 64.6283 5.45846C64.6933 5.3934 64.8234 5.32835 64.921 5.3934C64.9861 5.3934 65.0837 5.3934 65.1487 5.42593C65.2138 5.42593 65.2463 5.45846 65.3439 5.49099C65.5065 5.45846 65.6366 5.32835 65.7342 5.29582C65.7342 5.23077 65.7342 5.10066 65.8318 5.13319C65.8643 5.16571 65.8318 5.23077 65.7993 5.26329L65.7342 5.29582C65.7342 5.29582 65.7667 5.29582 65.7993 5.26329C65.9294 5.19824 66.0595 5.16571 66.1896 5.0356C66.2221 4.97055 66.2221 4.87297 66.3197 4.84044C66.4173 4.77538 66.5149 4.77538 66.5799 4.74286C66.7426 4.6778 66.9052 4.48264 67.0678 4.45011C67.1329 4.41758 67.2305 4.41758 67.263 4.41758C67.3606 4.41758 67.4256 4.32 67.4907 4.28747C67.5883 4.15736 67.7509 4.12483 67.816 4.02725C67.8485 3.89714 67.7509 3.7345 67.7834 3.63692C67.816 3.63692 67.881 3.57187 67.9136 3.53934L68.0437 3.40923C68.2388 3.31165 68.2388 3.40923 68.1412 3.57187C68.1087 3.63692 68.0437 3.7345 68.1738 3.79956C68.2388 3.79956 68.3039 3.7345 68.3689 3.76703C68.434 3.76703 68.5316 3.76703 68.5966 3.86461C68.6942 3.92967 68.6942 4.05978 68.8569 4.02725C68.9544 3.9622 69.0195 3.83209 68.9544 3.7345C68.9219 3.63692 68.7593 3.63692 68.7267 3.53934C68.6292 3.40923 68.8243 3.3767 68.9544 3.40923C69.0195 3.47428 69.0845 3.50681 69.1496 3.50681L69.3448 3.60439C69.4749 3.70198 69.67 3.70198 69.7026 3.53934C69.7351 3.34417 69.67 3.24659 69.8327 3.24659C70.0929 3.21406 70.2881 3.21406 70.3856 2.98637C70.4182 2.98637 70.5158 3.14901 70.6459 3.14901C70.776 3.11648 70.7434 3.05143 70.776 2.95384C70.8085 2.82373 70.9386 2.82373 70.9386 2.72615C71.0037 2.56351 70.8085 2.53099 70.841 2.46593C70.9061 2.36835 71.0362 2.43341 71.1663 2.40088C71.2314 2.27077 71.1338 2.10813 71.0037 2.04307C70.9061 2.04307 70.776 2.20571 70.6459 2.27077C70.6133 2.23824 70.2881 2.33582 70.2881 2.36835C70.3531 2.33582 70.3531 2.49846 70.3531 2.53099C70.2881 2.62857 70.1905 2.6611 70.1254 2.6611C70.0604 2.75868 69.8652 2.85626 69.7676 2.79121C69.7351 2.72615 69.7026 2.62857 69.6375 2.62857C69.5074 2.56351 69.4423 2.6611 69.4098 2.75868C69.2797 2.85626 69.2797 3.0189 69.0845 2.95384C68.8894 2.85626 68.7918 2.98637 68.6617 3.11648C68.5641 3.14901 68.499 3.14901 68.4015 3.14901C68.3039 3.11648 68.2388 3.14901 68.1087 3.18154C67.9786 3.21406 67.7509 3.14901 67.5883 3.24659C67.4907 3.31165 67.3281 3.3767 67.4582 3.53934C67.4256 3.53934 67.3931 3.57187 67.3931 3.60439C67.3281 3.53934 67.2305 3.60439 67.2955 3.63692C67.1654 3.66945 67.1004 3.86461 66.9703 3.9622C66.9377 3.99472 66.9052 4.02725 66.8401 3.99472L66.6775 3.9622L66.71 3.89714C66.71 3.89714 66.645 3.89714 66.6775 3.9622C66.4498 4.05978 66.2221 4.35252 66.0595 4.51516C65.9944 4.61275 65.8969 4.71033 65.8318 4.6778C65.7017 4.61275 65.7342 4.45011 65.6041 4.45011C65.5065 4.45011 65.4415 4.64527 65.3439 4.6778C65.2788 4.77538 65.1487 4.77538 65.0837 4.87297C65.0186 4.97055 65.0511 5.00308 64.8885 5.0356C64.8234 5.0356 64.7259 4.93802 64.5958 5.00308C64.4982 5.0356 64.4006 5.16571 64.303 5.23077C64.1729 5.29582 64.1404 5.42593 64.1729 5.49099C64.2054 5.6211 64.2379 5.71868 64.2054 5.81626C64.1729 5.88132 64.0753 5.9789 64.2054 6.01143ZM69.6375 3.11648C69.605 3.11648 69.605 3.08395 69.605 3.08395C69.605 3.0189 69.67 3.05143 69.6375 3.11648ZM69.7026 3.70198C69.7676 3.7345 69.7676 3.70198 69.8001 3.66945C69.7676 3.66945 69.7026 3.66945 69.7026 3.70198ZM67.3931 4.05978C67.263 4.09231 67.2305 3.99472 67.1329 3.92967C67.1654 3.92967 67.1979 3.89714 67.2305 3.89714C67.263 3.92967 67.3281 3.79956 67.3931 3.79956C67.4582 3.76703 67.5883 3.83209 67.5883 3.89714C67.6208 4.02725 67.4582 4.09231 67.3931 4.05978ZM67.7834 4.71033C67.881 4.71033 67.816 4.58022 67.7184 4.61275C67.6533 4.6778 67.7184 4.71033 67.7834 4.71033ZM67.0353 5.00308C67.0678 4.97055 67.0028 4.90549 66.9377 4.90549C66.9052 4.97055 66.9377 5.0356 67.0353 5.00308ZM66.4173 5.36088C66.4498 5.3934 66.5799 5.3934 66.5799 5.32835C66.6125 5.23077 66.4173 5.29582 66.4173 5.36088ZM64.8234 5.65362C65.0186 5.65362 64.9861 5.45846 64.8885 5.3934C64.7909 5.45846 64.6283 5.6211 64.8234 5.65362ZM62.579 7.89802C62.6441 7.93055 62.7742 7.83297 62.7742 7.73538C62.7417 7.6378 62.4164 7.54022 62.4815 7.44264C62.514 7.37758 62.6766 7.47516 62.7417 7.47516C62.8393 7.44264 62.8718 7.34505 62.9369 7.28C62.9694 7.24747 63.067 7.24747 63.132 7.21494C63.2621 7.14989 63.2621 7.05231 63.2947 6.9222C63.3922 6.75956 63.5874 6.75956 63.7175 6.72703C64.0428 6.66198 63.75 6.46681 63.8151 6.27165C63.8476 6.14154 63.9777 6.10901 63.9777 6.04396C63.9777 5.91384 63.9452 5.75121 63.8151 5.71868C63.6525 5.71868 63.6199 5.81626 63.5223 5.91384C63.4898 5.9789 63.3922 5.94637 63.3922 6.04396C63.3922 6.07648 63.4248 6.10901 63.3922 6.17407C63.3597 6.27165 63.2621 6.27165 63.1971 6.30417L63.0019 6.49934C62.9043 6.62945 62.8067 6.62945 62.6441 6.6945C62.4815 6.75956 62.4815 6.9222 62.3514 7.08483C62.3188 7.11736 62.2212 7.18242 62.2212 7.28C62.1562 7.37758 62.0911 7.47516 61.9936 7.47516C61.9285 7.54022 61.8309 7.70286 61.896 7.80044C61.9285 7.83297 62.1887 7.86549 62.2538 7.83297C62.3188 7.83297 62.3514 7.80044 62.4489 7.83297C62.4815 7.83297 62.514 7.89802 62.579 7.89802ZM60.8876 8.38593C60.9201 8.45099 61.0828 8.38593 61.1153 8.38593C61.2129 8.3534 61.2779 8.25582 61.3755 8.19077C61.4731 8.12571 61.8309 7.9956 61.6032 7.83297C61.6358 7.80044 61.6683 7.80044 61.6683 7.76791C61.6358 7.73538 61.5382 7.76791 61.6358 7.80044C61.5382 7.80044 60.8551 8.25582 60.8876 8.38593ZM60.3347 9.52439C60.3347 9.78461 60.8876 9.45934 60.9201 9.45934C61.0177 9.42681 61.0828 9.26417 61.1478 9.19912C61.1478 9.16659 61.1478 9.10154 61.1804 9.06901C61.2129 9.03648 61.2779 9.00395 61.3105 8.9389C61.3105 8.84132 61.2129 8.90637 61.2129 8.9389C61.0503 9.03648 60.9527 9.16659 60.8226 9.26417C60.7575 9.36176 60.6599 9.39428 60.5298 9.42681C60.4973 9.45934 60.3672 9.45934 60.3347 9.52439ZM62.579 28.553C62.7417 28.553 62.9369 28.5855 63.1645 28.553C63.5874 28.5204 63.9777 28.4229 64.4006 28.3903C64.8234 28.3253 65.2463 28.2277 65.6692 28.0976C66.3848 27.8699 67.1654 27.6097 67.7834 27.1218C68.4015 26.6664 68.8243 25.9182 68.9219 25.1376C68.987 24.7473 69.052 24.2919 68.9544 23.9341C68.8894 23.5763 68.6292 23.2185 68.434 22.9257C68.1738 22.6004 67.816 22.3727 67.4907 22.1125C67.1329 21.8523 66.8076 21.527 66.4498 21.2668C66.3522 21.1692 66.1896 21.0716 66.027 21.1042C65.8643 21.1042 65.7017 21.2343 65.6041 21.3644C65.5065 21.4945 65.4089 21.6246 65.3439 21.7547C65.1812 21.8848 65.0186 22.0149 64.856 22.1125L64.4006 22.2752C64.2705 22.3727 64.2054 22.5029 64.1729 22.633C64.1078 22.8281 64.0428 22.9257 63.9127 23.0558C63.75 23.1859 63.5874 23.251 63.4248 23.3486C63.2621 23.4787 63.1971 23.6088 63.0995 23.804C62.9369 23.9666 62.8393 24.0642 62.8067 24.2919C62.8067 24.5521 62.6766 24.6171 62.5465 24.7798C62.3514 24.9099 62.2538 25.04 62.1887 25.2352C61.961 25.658 61.8309 26.1134 61.7008 26.5688C61.6358 26.764 61.5382 26.9591 61.5707 27.1543C61.6032 27.382 61.6358 27.6097 61.5707 27.8374C61.5382 28 61.4406 28.1626 61.5382 28.3253C61.6032 28.4229 61.8309 28.4879 61.961 28.5204C62.1887 28.5855 62.3514 28.553 62.579 28.553Z" fill="white"/>
</svg>
