<svg width="144" height="59" viewBox="0 0 144 59" fill="none" xmlns="http://www.w3.org/2000/svg">
<path d="M13.78 11.68C13.72 11.74 13.72 11.68 13.72 11.74V11.68H13.78C13.9 11.56 14.14 11.44 14.14 11.26C14.14 11.14 13.96 11.08 14.02 10.9C13.96 10.78 14.14 10.66 14.14 10.54C14.14 10.3 14.02 10.24 13.96 10.06C13.84 9.82 14.02 9.88 14.08 9.7C14.14 9.64 14.08 9.52 14.02 9.4C14.08 9.04 14.62 9.52 14.74 9.1C14.74 8.92 14.68 8.8 14.86 8.68C14.98 8.56 15.1 8.56 15.22 8.38C15.4 8.08 15.28 7.66 15.4 7.3C15.4 7.24 15.46 7.18 15.52 7.12C15.52 7 15.46 6.94 15.4 6.82C15.4 6.64 15.4 6.52 15.52 6.4C15.76 6.28 16.06 6.34 16.24 6.28C16.24 6.28 16.24 6.22 16.24 6.16C16.24 6.1 16.18 6.04 16.24 6.04C16.42 5.8 16.6 5.92 16.3 5.56C16.24 5.44 16.18 5.44 16.24 5.32C16.24 5.2 16.36 5.08 16.48 5.02C16.6 4.96 16.72 4.96 16.84 4.9C16.9 4.84 16.96 4.84 16.96 4.78C17.02 4.84 17.02 4.9 17.08 4.84C16.9 4.78 16.96 4.72 16.96 4.6V4.66C17.74 4.66 17.74 3.7 17.98 3.16C18.04 2.98 18.16 2.92 18.22 2.68C18.16 2.5 18.1 2.32 18.22 2.2C18.34 2.08 18.52 2.14 18.64 2.08C18.82 2.02 18.94 1.84 19.12 1.78C19.48 1.66 20.02 1.72 20.44 1.72H21.16C21.46 1.78 21.46 1.84 21.58 2.02C21.82 2.38 22.06 2.2 22.42 2.32C22.66 2.44 22.78 2.62 23.02 2.74C23.2 2.92 23.32 2.98 23.5 3.04C23.74 3.16 23.92 3.22 24.1 3.28C24.16 3.28 24.28 3.22 24.34 3.34C24.4 3.46 24.28 3.4 24.28 3.46C24.28 3.58 24.16 3.46 24.28 3.64L24.52 3.82C24.76 4 24.88 4.12 25 4.3C25.48 4.9 25.78 5.62 25.9 6.34C25.96 6.52 25.9 6.76 26.02 6.94C26.02 7.12 26.08 7.3 26.2 7.48C26.32 8.02 26.08 8.44 26.14 8.92C26.2 9.1 26.32 9.28 26.32 9.46C26.44 9.7 26.38 9.88 26.38 10.06C26.38 10.24 26.32 10.42 26.26 10.54C26.26 10.84 26.26 11.14 26.32 11.44C26.38 12.28 26.14 13.06 26.2 13.84C26.2 14.14 26.38 14.32 26.32 14.56C26.32 14.74 26.26 14.92 26.26 15.1C26.08 15.52 26.2 15.94 26.02 16.3C25.84 16.66 25.84 16.9 25.84 17.32V17.8C25.72 17.98 25.6 18.04 25.66 18.28C25.72 18.46 25.78 18.52 25.84 18.76C25.78 18.94 25.78 19.12 25.72 19.3C25.72 19.6 25.84 20.02 25.6 20.26C25.48 20.44 25.24 20.44 25.18 20.68L25.24 21.28C25.18 21.52 25.12 21.7 25.18 22C25.18 22.24 25.24 22.48 25.24 22.72C25.3 23.2 25.12 23.32 24.82 23.56C24.58 23.8 24.82 23.98 24.82 24.28C24.76 24.64 24.52 24.88 24.52 25.24C24.52 25.48 24.58 25.6 24.52 25.84C24.46 26.02 24.4 26.14 24.46 26.32C24.34 26.68 24.22 26.98 24.16 27.34C24.16 27.58 24.22 27.76 24.28 28V28.6C24.28 28.84 24.46 28.96 24.34 29.14C24.34 29.38 24.16 29.5 24.04 29.68C23.98 29.92 23.86 29.98 23.98 30.22C23.98 30.52 24.04 30.64 23.92 30.88C23.86 31.24 23.86 31.66 23.8 32.08C23.8 32.32 23.68 32.5 23.68 32.74V32.98C23.68 32.98 23.74 33.04 23.74 33.1C23.92 33.16 23.86 33.28 23.74 33.28C23.56 33.46 23.5 33.4 23.56 33.7C23.56 33.94 23.56 34.12 23.5 34.3C23.5 34.48 23.38 34.78 23.68 34.6C23.86 34.54 23.8 34.24 23.92 34.12C23.98 33.94 24.22 33.88 24.22 33.64C24.1 33.52 23.8 33.4 23.86 33.16C23.86 33.16 23.98 33.16 23.92 33.1C23.98 33.04 23.98 32.98 24.04 32.86C24.04 32.68 24.1 32.44 24.22 32.32C24.34 32.56 24.58 32.92 24.88 32.74C24.88 32.68 24.94 32.5 25.06 32.38C25.06 32.26 25.18 32.2 25.24 32.02C25.24 31.84 25.24 31.06 25 30.94C24.88 30.82 24.64 31.24 24.52 31.3C24.46 31 24.58 30.76 24.64 30.52C24.76 30.22 24.76 29.92 24.88 29.62C24.94 29.5 25 29.38 25 29.26L25.24 28.96C25.36 28.84 25.78 29.08 25.66 28.66C25.66 28.42 25.36 28.36 25.3 28.18C25.24 27.94 25.42 27.7 25.48 27.46C25.6 27.04 25.6 26.62 25.78 26.26C26.02 25.78 26.32 25.3 26.44 24.82C26.5 24.52 26.62 24.46 26.74 24.22C26.86 23.98 26.8 23.68 26.98 23.44C27.1 23.2 27.34 23.08 27.52 22.84C27.58 22.6 27.58 22.36 27.76 22.12C27.82 21.94 27.94 21.82 28.06 21.58C28.06 21.4 28.12 21.22 28.3 21.16C28.36 21.1 28.6 21.16 28.6 21.04C28.66 20.98 28.66 20.8 28.66 20.74C28.66 20.56 28.72 20.14 29.02 20.26C29.14 20.32 29.2 20.44 29.14 20.5C29.62 20.62 29.38 19.6 29.44 19.24C29.5 18.76 29.92 18.58 30.16 18.22C30.28 18.04 30.28 17.8 30.34 17.62C30.46 17.38 30.64 17.26 30.7 17.08C31 16.84 31.12 16.48 31.24 16.18C31.42 15.76 31.72 15.28 31.96 14.92C32.14 14.74 32.26 14.62 32.44 14.38C32.56 14.2 32.62 13.9 32.74 13.66C32.86 13.48 33.1 13.36 33.28 13.18C33.46 13 33.46 12.76 33.7 12.58C34 12.28 34.24 11.86 34.6 11.56C34.9 11.2 35.26 10.84 35.68 10.6C36.1 10.36 36.52 9.94 37.06 9.7C37.42 9.46 37.78 9.34 38.32 9.52C38.56 9.58 38.8 9.58 39.04 9.64C39.1 9.64 39.34 9.58 39.4 9.64C39.46 9.76 39.34 9.7 39.34 9.76C39.34 9.88 39.22 9.76 39.22 9.88C39.28 10 39.52 10 39.58 10C39.82 10 40.06 10.06 40.3 10.12C40.54 10.24 40.66 10.42 40.78 10.6L41.02 10.96C41.2 11.08 41.2 11.02 41.44 11.02C41.68 11.08 41.68 11.2 41.86 11.44C42.1 11.68 42.1 11.8 42.16 12.04C42.4 12.58 43 12.88 43.3 13.42C43.54 13.84 43.66 14.38 43.72 14.86C43.78 15.1 43.72 15.34 43.72 15.58C43.72 15.94 43.9 16.24 43.96 16.54C44.08 17.02 44.2 17.5 44.2 17.92C44.14 18.1 44.02 18.28 43.96 18.46C43.9 18.76 44.02 19.12 44.02 19.42C44.02 19.66 44.02 19.84 43.9 20.02C43.9 20.26 43.9 20.56 43.84 20.8C43.78 21.04 43.66 21.22 43.6 21.4C43.54 21.7 43.54 22.06 43.42 22.36C43.42 22.84 43.3 23.32 43.3 23.8C43.24 24.1 43.3 24.28 43.18 24.52C43.12 24.76 43.18 25.06 43.06 25.3C43.06 25.48 42.88 25.48 42.82 25.6C42.64 25.78 42.58 26.14 42.52 26.38C42.46 26.92 42.64 27.46 42.58 28C42.52 28.18 42.34 28.3 42.34 28.48C42.28 28.54 42.34 28.66 42.34 28.72C42.28 28.84 42.28 28.9 42.22 29.08C42.28 29.32 42.28 29.38 42.22 29.62C42.16 29.92 42.16 30.22 42.04 30.52C42.04 30.7 41.92 30.76 41.8 30.94L41.62 31.54C41.56 31.72 41.44 31.84 41.44 32.02C41.38 32.14 41.38 32.2 41.44 32.38C41.44 32.56 41.32 32.68 41.32 32.86C41.32 33.1 41.44 33.22 41.38 33.4L41.2 33.88C41.2 34.12 41.08 34.3 41.14 34.54C41.14 34.84 41.26 35.2 41.26 35.56C41.26 35.8 41.14 35.8 41.02 35.98C40.96 36.22 41.02 36.4 41.14 36.64C41.2 36.94 41.14 36.94 41.14 37.18C41.02 37.3 41.08 37.48 41.02 37.66C40.96 38.08 41.08 38.56 41.02 38.98C41.02 39.22 41.02 39.34 40.9 39.52C40.72 39.82 40.66 39.94 40.6 40.3C40.6 40.54 40.48 40.78 40.54 41.02C40.54 41.32 40.6 41.56 40.66 41.86C40.72 42.1 40.72 42.34 40.66 42.52C40.6 42.82 40.42 42.94 40.42 43.24C40.48 43.48 40.48 43.72 40.48 43.9C40.42 44.2 40.3 44.2 40.18 44.38C40 44.44 40 44.5 40 44.68C40 44.74 40.12 44.86 40.12 44.98C40.12 45.1 40 45.16 40 45.34C39.88 45.76 40.24 46.3 40.3 46.78L40.24 47.38C40.24 47.5 40.18 47.62 40.18 47.74C40.18 47.86 40.18 47.92 40.24 48.04C40.3 48.1 40.3 48.16 40.36 48.28C40.36 48.46 40.24 48.58 40.24 48.76C40.24 48.88 40.24 48.94 40.3 49.06C40.24 49.12 40.06 49.18 40.06 49.24C39.94 49.42 40.18 49.6 40.24 49.78C40.36 50.02 40.36 50.38 40.36 50.68C40.42 50.92 40.36 51.16 40.42 51.4C40.54 51.64 40.54 51.76 40.48 52C40.36 52.48 40.48 53.02 40.66 53.56C40.78 53.8 40.9 54.04 40.96 54.28C41.02 54.58 41.02 54.88 41.08 55.12C41.08 55.78 41.32 56.08 41.98 56.38C42.4 56.62 42.94 56.68 43.48 56.8C43.66 56.86 44.86 57.1 44.56 57.58C44.44 57.82 43.48 57.4 43.72 57.94C43.84 58.12 44.2 58.12 44.2 58.42C44.26 58.6 43.9 58.72 43.72 58.78C43.48 58.84 43.24 58.72 43 58.78C42.76 58.84 42.7 58.96 42.46 58.84C42.22 58.78 42.04 58.66 41.8 58.48C41.62 58.24 41.5 58.24 41.26 58.12C40.84 58 40.24 57.82 39.94 57.52C39.52 57.1 39.34 56.44 39.04 55.96C38.74 55.48 38.38 55.18 38.14 54.7C37.84 54.16 37.6 53.68 37.36 53.14C36.82 52.06 36.52 50.98 36.22 49.84C36.1 49.3 35.98 48.7 35.92 48.1C35.92 47.86 35.92 47.56 35.86 47.32C35.86 47.02 35.74 46.72 35.68 46.42C35.68 46.12 35.74 45.88 35.8 45.64C35.74 45.4 35.68 45.16 35.68 44.92C35.68 44.38 35.62 43.78 35.68 43.3C35.68 43 35.74 42.76 35.68 42.46C35.68 42.22 35.74 42.04 35.8 41.74V40.12C35.74 39.04 35.98 37.9 36.04 36.82C36.1 35.8 36.1 34.78 36.34 33.82C36.64 32.8 36.52 31.66 36.7 30.64C36.76 30.4 36.88 30.22 36.88 29.98C36.88 29.86 36.82 29.68 36.88 29.56C36.88 29.14 37 28.72 37.12 28.3C37.24 27.82 37.12 27.34 37.3 26.92C37.48 26.44 37.6 25.96 37.66 25.42C37.6 24.88 37.84 24.46 37.9 23.92C37.96 23.38 38.02 22.84 38.14 22.36C38.44 21.28 38.68 20.2 38.92 19.12C39.34 16.96 39.88 14.86 39.64 12.58C39.58 12.16 39.58 11.38 39.22 11.08C38.98 10.84 38.86 11.02 38.68 11.2C38.5 11.32 38.32 11.5 38.08 11.62C37.78 11.86 37.24 11.98 37 12.28C36.64 12.64 36.34 13.12 36.04 13.48C35.8 13.66 35.68 13.84 35.5 14.02C35.32 14.2 35.26 14.38 35.08 14.56C35.02 14.74 34.84 14.74 34.66 14.92C34.54 15.1 34.36 15.4 34.3 15.64C34.18 15.88 34.18 16.06 34.06 16.3C34.06 16.48 33.88 16.6 33.76 16.78C33.52 17.2 33.22 17.56 32.98 17.98C32.92 18.22 32.8 18.46 32.68 18.64C32.5 18.82 32.38 18.94 32.32 19.18L31.66 20.44C31.48 20.62 31.48 20.8 31.3 20.98C31.18 21.16 31 21.28 30.88 21.52C30.88 21.7 30.82 21.82 30.76 22C30.58 22.24 30.34 22.36 30.28 22.66C30.22 22.84 30.04 22.96 29.92 23.14C29.74 23.32 29.8 23.44 29.74 23.74C29.62 23.92 29.5 24.04 29.44 24.22C29.32 24.46 29.14 24.64 29.02 24.88C28.9 25.24 28.84 25.66 28.66 26.02C28.48 26.44 28.24 26.74 28.24 27.28C28.24 27.82 27.94 28.12 27.7 28.54C27.64 28.72 27.7 28.9 27.64 29.14C27.58 29.44 27.46 29.74 27.34 30.04C27.22 30.46 27.16 30.88 27.1 31.3C27.1 31.54 26.98 31.72 26.92 31.9C26.74 32.08 26.5 32.08 26.38 32.32C26.26 32.44 26.26 32.68 26.32 32.92C26.44 33.16 26.44 33.34 26.44 33.58C26.5 34.12 26.32 34.54 26.14 35.02C26.02 35.5 25.96 35.98 25.9 36.46L25.84 37.06C25.72 37.36 25.84 37.66 25.78 37.96C25.72 38.2 25.72 38.44 25.6 38.68C25.54 38.92 25.6 39.28 25.48 39.46C25.42 39.7 25.18 39.76 25.18 40C25.18 40.24 25.48 40.48 25.18 40.66C25 40.72 24.88 40.66 24.76 40.84C24.7 41.08 24.88 41.32 24.94 41.56C25.06 41.8 24.94 41.92 24.94 42.16L25.18 42.58C25.24 42.7 25.24 42.88 25.3 43.06L25.12 43.6C25 43.78 24.94 44.02 24.76 44.26C24.7 44.5 24.58 44.68 24.52 44.92C24.4 45.1 24.22 45.34 24.1 45.58C23.92 45.94 23.98 46.42 23.86 46.84C23.86 47.02 23.8 47.14 23.62 47.26C23.56 47.44 23.38 47.74 23.26 47.8C23.02 47.8 22.9 47.68 22.72 47.62C22.54 47.56 22.24 47.62 22 47.56C21.46 47.44 21.4 46.9 21.1 46.48C20.98 46.24 20.8 46.18 20.62 46C20.44 45.82 20.44 45.58 20.32 45.34C20.26 45.16 20.14 44.92 19.96 44.86C19.66 44.68 19.6 44.92 19.48 44.62C19.18 43.6 18.82 42.52 18.82 41.44C18.82 40.3 18.64 39.1 18.64 37.9C18.58 37.42 18.52 36.82 18.64 36.4C18.76 36.16 18.64 36.04 18.64 35.74C18.58 35.44 18.64 35.08 18.64 34.78C18.64 34.54 18.64 34.36 18.76 34.12C18.88 33.88 18.88 33.76 18.88 33.4C18.88 33.16 18.82 32.92 18.76 32.68C18.82 32.38 18.94 32.08 18.94 31.78C19 31.6 19 31.42 19.06 31.24C19.18 31 19.06 30.64 19.06 30.4C19 29.86 19.12 29.32 19.18 28.78C19.3 28.54 19.36 28.3 19.42 28.06C19.42 27.88 19.54 27.58 19.54 27.4C19.54 27.22 19.36 27.04 19.42 26.86C19.42 26.74 19.42 26.62 19.48 26.5C19.54 26.32 19.48 26.2 19.48 26.02C19.42 25.54 19.6 25.06 19.72 24.64C19.72 24.46 19.66 24.16 19.72 23.92C19.72 23.68 19.9 23.44 19.84 23.2C19.84 22.96 19.72 22.78 19.78 22.6L19.96 22C19.96 21.82 19.9 21.64 20.02 21.4C20.14 21.22 20.26 21.16 20.2 20.92C20.14 20.62 20.14 20.38 20.14 20.08C20.26 19.9 20.26 19.66 20.32 19.48C20.32 19.18 20.26 18.94 20.38 18.64C20.38 18.4 20.56 18.16 20.56 17.92C20.68 17.38 20.56 16.9 20.8 16.42C20.92 15.94 20.86 15.4 20.98 14.86C21.04 14.62 21.16 14.38 21.16 14.08C21.22 13.84 21.22 13.6 21.22 13.36L21.4 11.62C21.4 11.14 21.46 10.6 21.58 10.12C21.58 9.88 21.7 9.7 21.64 9.4V8.56C21.7 8.08 21.7 7.54 21.76 7.06C21.7 6.46 21.88 5.86 21.82 5.26C21.76 5.02 21.76 3.88 21.4 3.88C21.28 3.88 21.28 4 21.16 4C21.04 4.06 20.92 4.06 20.8 4.12C20.56 4.12 20.44 4.18 20.38 4.42C20.14 4.78 20.5 5.26 20.08 5.5C19.66 5.74 19.06 5.62 18.76 6.04C18.7 6.28 18.58 6.4 18.46 6.58C18.22 6.7 18.22 6.82 18.16 7.06C18.1 7.36 18.04 7.48 17.86 7.66C17.68 7.9 17.62 8.14 17.5 8.38C17.38 8.56 17.2 8.56 17.2 8.68C17.08 8.8 17.08 8.98 17.14 9.1C17.02 9.64 16.72 10.06 16.48 10.54C16.3 10.9 16.18 11.26 15.94 11.62C15.7 12.1 16.18 12.58 16.3 13.06C16.42 13.42 16.18 13.36 16 13.54C15.82 13.66 15.76 13.78 15.76 14.02C15.82 14.26 15.76 14.38 15.52 14.56C15.4 14.74 15.28 14.86 15.1 15.04C15.04 15.22 14.86 15.34 14.68 15.52C14.62 15.7 14.5 15.88 14.44 16.12C14.2 16.54 14.08 17.08 13.84 17.56C13.78 17.8 13.66 18.04 13.54 18.28C13.42 18.4 13.36 18.58 13.24 18.76L12.88 20.14C12.82 20.38 12.7 20.62 12.64 20.86C12.58 21.04 12.58 21.22 12.52 21.4C12.46 21.58 12.22 21.7 12.16 21.88C12.22 22 12.34 22.42 12.4 22.42C12.16 22.66 12.16 22.96 11.98 23.2C11.98 23.32 11.86 23.38 11.8 23.5C11.74 23.68 11.8 23.86 11.74 24.04C11.74 24.28 11.86 24.52 11.86 24.82C11.86 25.12 11.62 25.12 11.44 25.3C11.02 25.72 11.02 26.56 10.84 27.1C10.78 27.46 10.78 27.82 10.66 28.12C10.6 28.42 10.36 28.72 10.48 29.02C10.48 29.2 10.6 29.32 10.54 29.5L10.36 29.8C10.24 30.04 10.3 30.22 10.18 30.46C10.12 30.58 10.12 30.58 10.12 30.64C10.06 30.76 10.12 30.88 10.18 31C10.12 31.3 9.76 31.3 9.7 31.54C9.52 31.72 9.52 31.96 9.58 32.26C9.7 32.62 9.46 32.62 9.34 32.92C9.16 33.22 9.28 33.52 9.34 33.82C9.34 34.12 9.16 34.42 9.1 34.72L8.92 35.62C8.92 35.98 8.98 36.34 8.98 36.7C8.92 37 8.92 37.36 8.92 37.66C8.98 37.9 9.04 38.14 9.04 38.38L8.8 39.34C8.74 39.7 8.56 39.7 8.32 39.94C8.14 40.18 8.08 40.48 7.96 40.72C7.96 40.9 7.9 40.96 7.9 41.14C7.9 41.26 8.02 41.32 7.96 41.44L7.72 41.62C7.66 41.74 7.66 41.92 7.6 42.04C7.54 42.16 7.66 42.34 7.66 42.46C7.72 42.64 7.66 42.82 7.54 43C7.48 43.24 7.42 43.24 7.12 43.42C6.88 43.6 7.06 43.78 7.06 44.08L7 44.5L7.06 44.92C7.06 45.22 6.94 45.52 6.88 45.82C6.88 46.12 6.7 46.36 6.64 46.66C6.52 46.96 6.4 47.26 6.34 47.56C6.28 47.86 6.28 48.16 6.16 48.46C6.1 48.76 5.86 48.88 5.86 49.24C5.8 49.54 5.8 49.84 5.68 50.08C5.5 50.44 5.32 50.68 5.38 51.1C5.44 51.46 5.5 51.58 5.2 51.76C4.96 51.88 4.48 51.88 4.18 51.82C3.88 51.7 3.82 51.52 3.64 51.28C3.46 51.04 3.16 50.98 2.98 50.74C2.86 50.5 2.8 50.26 2.68 49.96C2.62 49.9 2.56 49.72 2.44 49.66C2.32 49.6 2.2 49.66 2.08 49.6C1.84 49.42 1.9 49.06 1.72 48.88C1.54 48.58 1.24 48.52 1.18 48.22C1.06 47.86 1.06 47.5 1 47.14C1 46.78 0.88 46.42 0.94 46.06C0.88 45.4 0.7 44.68 0.76 44.02C0.76 43.72 0.82 43.36 0.88 43.12C0.88 42.88 1.06 42.82 1 42.58C1 42.28 0.82 42.1 0.94 41.8C1 41.44 0.88 41.08 0.88 40.72C0.94 40.48 1 40.24 1 39.94C1 39.58 1 39.22 1.06 38.86C1.06 38.2 1 37.48 1.06 36.82C1.18 36.16 1.24 35.5 1.3 34.84C1.42 34.18 1.3 33.46 1.48 32.8C1.6 32.5 1.66 32.32 1.6 32.02C1.54 31.6 1.6 31.24 1.6 30.82C1.66 30.1 1.72 29.38 1.72 28.66C1.72 28 1.84 27.34 1.9 26.68C1.96 26.38 1.9 26.02 1.9 25.78C2.02 25.42 2.02 25.06 2.08 24.76C2.14 24.04 2.26 23.38 2.32 22.72C2.38 22.42 2.38 22.12 2.38 21.82C2.44 21.52 2.62 21.34 2.68 21.04C2.8 20.8 2.62 20.56 2.68 20.26C2.62 19.96 2.68 19.66 2.68 19.36C2.74 19.06 2.86 18.7 2.86 18.4C2.92 18.1 2.98 17.74 2.98 17.38C3.04 16.72 3.22 16.12 3.28 15.46C3.4 14.8 3.46 14.14 3.64 13.48C3.88 12.28 4.12 11.02 4.42 9.82C4.48 9.52 4.48 9.22 4.48 8.86C4.54 8.62 4.72 8.38 4.72 8.08C4.72 7.78 4.78 7.48 4.84 7.18C4.84 6.88 4.96 6.58 4.96 6.28C5.2 4.96 5.5 3.64 5.5 2.26C5.5 1.84 5.26 0.699999 6.04 0.999999C6.34 1.18 6.7 1.36 6.94 1.54L7.42 1.84C7.54 1.96 7.6 2.14 7.72 2.32C7.84 2.62 8.14 2.86 8.32 3.16C8.38 3.28 8.38 3.4 8.5 3.52C8.56 3.64 8.74 3.7 8.8 3.82C8.98 4.06 8.86 4.36 8.98 4.48C9.04 4.6 9.16 4.48 9.22 4.54C9.4 4.6 9.46 4.66 9.58 4.84C9.88 5.38 9.7 6.1 9.58 6.7C9.58 6.94 9.52 7.24 9.52 7.54C9.52 7.72 9.58 7.9 9.46 8.02C9.28 8.14 9.16 8.02 9.1 8.26C8.98 8.5 9.1 8.98 9.16 9.22C9.28 9.58 9.28 9.88 9.22 10.18C9.16 10.42 9.04 10.72 8.98 10.9C8.86 10.96 8.74 11.02 8.68 11.14C8.68 11.26 8.74 11.38 8.74 11.5C8.8 11.8 8.8 12.16 8.62 12.4L8.26 12.88C8.2 13.12 8.2 13.42 8.08 13.66C8.02 13.96 7.9 14.26 7.84 14.56C7.84 14.86 7.78 15.16 7.78 15.52C7.84 15.76 8.08 16 7.9 16.24C7.78 16.36 7.66 16.36 7.66 16.48V16.78C7.6 17.14 7.54 17.44 7.54 17.74C7.48 17.92 7.54 18.04 7.6 18.16C7.6 18.4 7.54 18.34 7.42 18.46C7.3 18.7 7.48 19 7.48 19.3C7.54 19.6 7.24 19.66 7.24 19.96C7.24 20.14 7.36 20.26 7.36 20.44C7.42 20.56 7.3 20.68 7.36 20.8C7.36 20.92 7.42 21.04 7.42 21.16C7.42 21.28 7.3 21.4 7.24 21.52C7.18 21.82 7.24 22.12 7.18 22.42C7.06 22.78 7.12 23.08 7.18 23.44C7.18 23.74 6.94 23.8 6.82 24.1C6.76 24.34 6.88 24.7 6.94 25C6.94 25.12 6.94 25.3 6.88 25.42C6.76 25.54 6.7 25.42 6.58 25.42C5.92 25.42 6.7 26.5 6.82 26.8C6.88 27.1 6.88 27.34 6.7 27.52C6.64 27.64 6.52 27.7 6.52 27.88C6.58 28.06 6.7 28.18 6.7 28.36C6.7 28.66 6.58 28.9 6.58 29.2C6.58 29.56 6.64 29.92 6.64 30.34C6.58 30.64 6.58 30.94 6.58 31.24C6.58 31.48 6.52 31.96 6.76 32.08C6.94 32.2 7 32.14 6.94 31.96C6.94 31.9 6.82 31.9 6.7 31.78C6.7 31.6 6.94 31.18 7.06 31C7.12 30.82 7.36 30.76 7.42 30.52C7.48 30.46 7.6 30.22 7.54 30.1C7.6 29.98 7.54 29.86 7.54 29.68L7.78 29.32C7.78 29.14 7.72 29.02 7.72 28.9C7.66 28.66 7.84 28.18 8.02 28C8.14 27.76 8.38 27.64 8.44 27.4C8.62 27.16 8.68 26.86 8.74 26.62C8.86 26.38 8.74 26.26 8.98 26.2C9.1 26.2 9.16 26.26 9.28 26.14C9.4 26.02 9.34 25.9 9.28 25.84C9.16 25.78 9.1 25.84 8.98 25.72C8.98 25.66 9.04 25.48 8.92 25.36C8.86 25.18 8.5 24.82 8.86 24.7C9.1 24.58 9.22 25 9.4 24.94C9.58 24.88 9.64 24.34 9.52 24.22C9.34 24.1 9.1 24.4 8.92 24.04C8.92 23.92 8.98 23.86 9.04 23.8C9.1 23.62 9.22 23.74 9.34 23.68C9.58 23.62 9.64 23.26 9.7 23.02C9.7 22.72 9.58 22.54 9.64 22.3C9.7 22.24 9.94 22.18 9.94 22.06C9.88 21.94 9.76 21.82 9.76 21.76C9.64 21.4 10.06 21.4 10.18 21.22C10.3 21.04 10 20.62 10.3 20.56C10.54 20.44 10.96 20.8 11.02 20.5C11.08 20.38 10.96 20.26 10.9 20.14C10.96 20.02 11.02 20.02 11.08 19.9C11.14 19.78 11.32 19.42 11.32 19.24C11.32 18.94 11.2 18.7 11.32 18.4C11.44 18.16 11.44 17.8 11.56 17.56C11.68 17.32 11.86 17.2 12.04 17.02C12.22 16.66 12.34 16.48 12.22 16.06C12.16 15.76 12.16 15.64 12.4 15.52C12.52 15.46 12.58 15.46 12.64 15.34C12.7 15.28 12.64 15.28 12.7 15.22C12.58 15.1 12.34 15.04 12.34 14.86C12.22 14.62 12.4 14.62 12.52 14.44C12.58 14.32 12.46 14.14 12.52 14.08C12.64 13.96 12.76 14.08 12.88 13.9C12.88 13.72 12.64 13.48 12.58 13.3C12.52 13.06 12.58 12.94 12.7 12.76C12.88 12.46 12.76 12.04 13.18 11.92C13.3 12.1 13.18 12.82 13.48 12.7C13.6 12.58 13.54 12.34 13.6 12.16C13.6 12.04 13.78 11.86 13.78 11.68C13.78 11.74 13.78 11.74 13.78 11.74C13.78 11.74 13.78 11.74 13.72 11.74H13.78V11.68ZM16.9 4.06L16.96 4.6C16.84 4.48 16.66 4.54 16.66 4.36C16.6 4.18 16.78 4 16.9 4.06ZM16.36 6.4C16.36 6.34 16.3 6.34 16.3 6.34C16.18 6.4 16.3 6.46 16.36 6.4ZM13.3 11.32C13.48 11.2 13.66 11.56 13.72 11.68C13.54 11.74 13.18 11.86 13.18 11.92C13.24 11.74 13.06 11.44 13.3 11.32ZM11.8 15.82C12.1 15.82 11.8 16.36 11.62 16.36C11.38 16.3 11.56 15.76 11.8 15.82ZM10.84 18.52C10.6 18.16 10.84 19 10.84 18.52V18.52ZM22.3 20.32C22.3 20.5 22.06 20.86 22.24 20.98C22.42 20.86 22.9 19.84 22.36 19.84C22.18 19.84 22.3 20.2 22.3 20.32ZM29.02 20.92C29.02 21.04 29.08 21.1 29.2 20.98C29.26 20.86 29.14 20.62 29.14 20.5C29.08 20.68 28.96 20.8 29.02 20.92ZM21.94 23.68C21.94 23.74 21.94 23.74 21.94 23.8C22.12 23.62 22.36 23.26 22.42 22.96C22.42 22.84 22.42 22.18 22.12 22.24C22.06 22.24 21.94 22.6 21.88 22.66C21.94 22.84 22 23.02 21.94 23.2C22 23.32 21.94 23.5 21.94 23.68ZM21.64 24.88C21.52 25 21.58 25.36 21.82 25.3C22.12 25.24 21.88 24.88 21.64 24.88ZM21.88 25.72C21.7 25.42 21.1 26.38 21.46 26.56C21.58 26.62 21.94 25.9 21.88 25.72ZM21.34 27.1C21.34 27.34 21.64 27.34 21.76 27.16C21.76 26.92 21.4 26.98 21.34 27.1ZM21.58 28.66C21.58 28.42 21.22 28.48 21.22 28.66C21.28 28.9 21.58 28.84 21.58 28.66ZM21.46 30.28C21.1 30.04 21.1 30.58 21.22 30.64C21.4 30.76 21.4 30.4 21.46 30.28ZM20.26 30.28C20.2 30.28 20.14 30.28 20.2 30.34C20.26 30.28 20.32 30.28 20.26 30.28ZM20.08 31.12C20.2 31.3 20.32 31.24 20.38 31.06C20.44 30.88 20.2 30.52 20.14 30.34C19.72 30.34 19.78 30.88 20.08 31.12ZM24.58 31.96C24.52 32.08 24.28 32.2 24.28 32.26C24.28 32.08 24.22 31.3 24.52 31.3C24.64 31.48 24.64 31.78 24.58 31.96ZM20.26 31.6C20.02 31.54 19.6 31.72 19.9 32.02C20.02 32.2 20.14 32.08 20.26 32.02C20.44 31.9 20.56 31.9 20.8 31.9C20.92 31.84 21.46 31.6 21.1 31.42C20.98 31.36 20.86 31.54 20.74 31.6C20.62 31.66 20.44 31.66 20.26 31.6ZM6.04 32.14C5.74 32.14 5.92 32.68 6.16 32.68C6.52 32.68 6.22 32.14 6.04 32.14ZM19.78 32.38C19.78 32.44 19.66 32.62 19.78 32.62C19.9 32.56 19.9 32.38 19.78 32.38ZM20.62 33.04C20.56 33.1 20.62 33.28 20.74 33.34C20.92 33.4 20.98 33.22 20.98 33.1C21.1 32.74 20.74 32.74 20.62 33.04ZM24.4 33.28C24.28 33.4 24.52 33.46 24.58 33.34C24.52 33.28 24.46 33.22 24.4 33.28ZM7.54 34.66C7.48 34.3 7.24 34.6 7.24 34.78C7.3 35.14 7.6 34.9 7.54 34.66ZM38.14 35.68C38.08 35.86 38.38 35.98 38.38 35.74C38.32 35.56 38.2 35.5 38.14 35.68ZM38.2 36.82C38.02 37.12 38.08 36.52 38.2 36.82V36.82ZM38.08 38.26C38.02 38.02 37.72 38.14 37.84 38.38C37.9 38.56 38.14 38.44 38.08 38.26ZM37.54 40.6C37.54 40.78 37.6 41.14 37.84 40.9C37.96 40.66 37.9 40.42 37.9 40.18C37.9 40.06 37.9 39.82 37.72 39.88C37.54 39.94 37.48 40.42 37.54 40.6ZM76.2494 55C75.8894 54.94 75.5294 55 75.2894 54.7C75.0494 54.4 74.6894 53.98 74.5694 53.62C74.3294 53.26 74.0894 53.02 74.0294 52.66C73.7894 52.24 73.7894 51.7 73.6694 51.28C73.6094 50.92 73.3094 50.62 73.3094 50.32C73.2494 50.08 73.2494 49.9 73.2494 49.72C73.3094 49.48 73.2494 49.3 73.1294 49.06C73.0094 48.64 72.7694 48.22 72.8294 47.74C72.8294 47.56 72.8894 47.44 72.8294 47.2C72.8894 46.96 72.7694 46.72 72.6494 46.48C72.5894 45.64 72.8294 44.86 72.7094 44.02C72.6494 43.54 72.6494 43.12 72.6494 42.64C72.6494 42.22 72.7694 41.8 72.7694 41.32C72.7694 40.96 72.8294 40.6 72.8294 40.18C72.8894 39.76 72.7694 39.34 72.7694 38.92C72.8294 38.14 73.0094 37.36 72.9494 36.52C72.9494 36.28 72.8894 36.04 72.9494 35.8C72.9494 35.62 73.0694 35.44 73.0694 35.2C73.1294 34.84 73.1294 34.36 73.1294 33.94C73.1294 33.52 73.1294 33.1 73.2494 32.74C73.3694 32.32 73.3694 31.9 73.3694 31.48C73.3694 31.3 73.4894 30.7 73.0694 30.76C72.9494 30.76 72.7694 30.94 72.6494 31C72.4694 31.06 72.2894 31.06 72.0494 31C71.8094 30.88 71.7494 30.82 71.5094 31C71.3894 31.06 71.2694 31.18 71.1494 31.36C70.9094 31.72 70.7894 31.48 70.4294 31.54C70.2494 31.54 70.1894 31.72 70.0094 31.72C69.8294 31.78 69.6494 31.6 69.5294 31.48L69.4094 31.42C69.1694 31.72 68.8694 31.42 68.6294 31.54C68.4494 31.6 68.4494 31.72 68.3294 31.84C68.2694 32.02 68.1494 32.02 67.9694 32.02C67.6694 31.96 67.4294 31.78 67.1294 31.78C66.9494 31.78 66.8294 31.78 66.6494 31.84C66.4694 31.96 66.4094 31.96 66.1094 31.78C65.6294 31.48 65.5094 31.78 65.1494 31.96C64.9694 32.08 64.9094 32.02 64.7294 31.9C64.5494 31.78 64.4294 31.78 64.2494 31.78C63.8294 31.78 63.7694 32.02 63.4094 32.2C63.1694 32.32 63.1094 32.2 62.9294 32.2C62.6294 32.2 62.6294 32.32 62.5094 32.5C62.4494 32.68 62.3294 32.74 62.2694 32.8C62.2094 32.86 62.1494 32.92 62.0894 32.92C62.0294 32.98 61.9694 32.98 61.9094 32.98C61.7294 33.1 61.8494 33.16 61.9094 33.28C62.0294 33.52 62.0294 33.46 61.9694 33.7C61.9694 33.76 61.9094 33.82 61.9094 33.94C61.9094 34.06 61.9694 34.12 61.9094 34.24C61.9094 34.42 61.7294 34.6 61.6094 34.72C61.3694 35.02 61.2494 35.44 61.2494 35.86C61.1894 36.04 61.3094 36.22 61.1894 36.46C61.0694 36.58 60.8894 36.64 60.8294 36.82C60.6494 37.06 60.8294 37.18 60.8294 37.42C60.8294 37.66 60.6494 37.84 60.6494 38.08C60.5294 38.44 60.7094 38.74 60.6494 39.1C60.5894 39.28 60.4094 39.4 60.3494 39.58L60.2294 40.24C60.2294 40.42 60.1694 40.54 60.1694 40.72C60.1694 40.96 60.2294 41.08 60.1694 41.32C60.0494 41.68 59.6894 41.92 59.5694 42.22C59.4494 42.58 59.3894 42.88 59.4494 43.3C59.3894 43.72 59.4494 44.2 59.2694 44.56C59.2094 44.74 59.2694 44.86 59.2094 45.04C59.1494 45.22 59.0894 45.34 58.9694 45.52C58.9694 45.7 58.9694 45.82 58.9094 46C58.8494 46.18 58.6694 46.3 58.6094 46.48V47.08C58.5494 47.32 58.6094 47.5 58.5494 47.74C58.4894 47.92 58.3694 48.1 58.3694 48.28C58.3094 48.52 58.3094 48.76 58.2494 49C58.1894 49.3 58.1294 49.78 58.1294 50.14C58.1294 50.32 58.1894 50.44 58.1294 50.62C58.1294 50.86 58.0094 51.04 57.8894 51.16C57.5294 51.82 56.6294 52 55.9094 51.64C55.4894 51.46 55.2494 51.34 55.1894 50.86C55.0094 50.44 54.8894 49.84 55.0094 49.42C55.0094 49.06 55.3094 49.06 55.4294 48.76C55.5494 48.58 55.4894 48.34 55.4894 48.16C55.4894 47.98 55.5494 47.74 55.5494 47.62C55.4894 47.5 55.3094 47.38 55.3094 47.26C55.3094 47.08 55.3694 47.08 55.4894 46.9C55.6694 46.6 55.6094 46.18 55.7894 45.88C55.9094 45.58 56.0894 45.22 56.2094 44.86C56.2094 44.62 56.1494 44.56 56.0894 44.32C56.0894 44.08 56.1494 44.02 56.2094 43.84C56.4494 43.54 56.5094 43.18 56.5694 42.82C56.6894 42.46 56.6894 42.04 56.7494 41.68C56.7494 41.32 56.9294 40.9 57.0494 40.6C57.1694 40.18 57.1094 39.76 57.2294 39.4C57.2894 39.22 57.4094 39.1 57.5294 38.92V38.44C57.6494 38.02 57.7094 37.6 57.8294 37.18C57.7694 37.06 57.7694 36.88 57.8294 36.76C57.8894 36.52 58.0694 36.46 58.1294 36.28C58.1294 36.16 58.1894 35.98 58.1894 35.8C58.1894 35.56 58.1894 35.5 58.3094 35.32C58.4894 35.02 58.7294 34.6 58.6694 34.24C58.6094 34.12 58.6094 33.76 58.5494 33.7C58.3094 33.52 58.0694 33.64 57.8894 33.7C57.4694 33.76 57.0494 33.76 56.6894 33.76C56.2694 33.82 55.9094 33.94 55.5494 33.64C55.1894 33.4 55.0094 33.04 54.8294 32.8C54.5294 32.44 54.0494 32.26 53.7494 31.96C53.1494 31.42 52.7894 30.58 53.4494 30.04C53.7494 29.86 54.1094 29.8 54.4094 29.68C54.5894 29.62 54.7094 29.56 54.9494 29.5C55.1294 29.5 55.3094 29.68 55.5494 29.68C55.8494 29.68 56.2094 29.5 56.5694 29.44C56.6894 29.38 56.8094 29.44 56.9894 29.44C57.1694 29.44 57.3494 29.32 57.5894 29.26C57.9494 29.2 58.2494 29.02 58.6694 29.08C59.0294 29.14 59.6294 29.2 59.9294 28.96C60.2294 28.72 60.2894 28.42 60.4694 28.06C60.6494 27.7 60.8294 27.34 60.8894 26.92C60.8894 26.5 61.0694 26.08 61.1894 25.66C61.2494 25.48 61.3694 25.3 61.4294 25.12C61.4894 24.88 61.5494 24.64 61.6694 24.46C61.7894 24.1 62.0294 23.92 62.1494 23.56C62.2094 23.14 62.3894 22.72 62.5694 22.36C62.7494 22.06 62.8694 21.7 62.9894 21.34C63.1694 21.04 63.2894 20.68 63.4094 20.38L63.7694 19.24C63.8294 19.06 63.7694 18.88 63.8894 18.7C64.0694 18.52 64.1894 18.46 64.1894 18.22C64.1894 17.86 64.3694 17.44 64.4894 17.14C64.5494 16.9 64.7294 16.84 64.8494 16.66C64.9694 16.48 64.9694 16.24 65.0294 16L65.5694 15.04C65.6294 14.86 65.5694 14.68 65.6294 14.56C65.7494 14.38 65.9294 14.2 65.9894 14.02C66.0494 13.84 66.1094 13.6 66.2294 13.36C66.4094 13 66.7094 12.7 66.8294 12.28C66.8894 12.16 66.8294 11.98 66.9494 11.86C67.0694 11.68 67.1894 11.62 67.3094 11.44C67.3694 11.26 67.4894 11.14 67.6094 10.96C67.7294 10.78 67.7294 10.6 67.7894 10.42C67.9094 10.3 68.0294 10.18 68.0894 10.06C68.2094 9.88 68.2094 9.7 68.2694 9.52C68.3294 9.4 68.4494 9.28 68.5694 9.1C68.7494 8.86 68.7494 8.62 68.8094 8.38C68.9294 8.2 69.0494 8.08 69.1094 7.9L69.2894 7.42C69.4094 7.3 69.4694 7.12 69.5894 7C69.7094 6.82 69.8894 6.76 70.0094 6.58C70.1294 6.52 70.1294 6.34 70.1894 6.22C70.2494 6.04 70.3694 5.86 70.4894 5.68C70.5494 5.5 70.6094 5.32 70.7294 5.2L71.2094 4.9C71.4494 4.66 71.5694 4.3 71.7494 4C71.9294 3.64 72.1094 3.4 72.4094 3.1C72.6494 2.8 72.7694 2.56 73.0694 2.44C73.4894 2.2 73.6694 1.84 73.9694 1.48C74.4494 0.939999 75.4094 1.06 76.0694 1.12C76.4894 1.12 76.7894 1.36 77.2094 1.42C77.5694 1.42 77.9894 1.66 78.3494 1.84C79.0094 2.32 79.8494 2.92 80.0894 3.76C80.2094 4.18 80.3294 4.6 80.5094 4.96C80.7494 5.38 80.7494 5.86 80.9294 6.34C80.9894 6.76 81.1094 7.18 81.0494 7.6C81.0494 8.14 80.9894 8.56 81.1094 9.1C81.3494 10 81.1694 10.96 81.1694 11.86C81.2294 12.28 81.0494 12.7 81.0494 13.12C80.9894 13.54 81.0494 14.02 80.9894 14.44C80.9894 14.86 80.9294 15.28 80.9294 15.7C80.8694 16.06 80.8694 16.6 80.6894 16.96C80.5094 17.26 80.3294 17.32 80.2694 17.68C80.2094 18.16 80.4494 18.52 80.4494 18.94C80.4494 19.42 80.2694 19.78 80.2694 20.14C80.2094 20.5 80.0294 20.86 80.0294 21.22C80.0894 21.58 80.0894 21.94 80.0294 22.3C80.0294 22.6 80.0294 22.78 79.9094 23.02C79.8494 23.26 79.8494 23.26 79.9094 23.5C79.9094 23.92 79.8494 24.4 79.7294 24.76C79.6694 24.94 79.6694 25.12 79.6094 25.36C79.5494 25.6 79.5494 25.78 79.5494 26.02C79.5494 26.38 79.3694 26.8 79.4294 27.22C79.5494 27.58 80.0894 27.76 80.1494 28.12C80.2094 28.3 80.2094 28.48 80.2694 28.66C80.2694 28.78 80.3294 28.96 80.3294 29.14C80.3894 29.5 80.0294 29.98 79.9094 30.28C79.6694 30.58 79.1894 30.46 79.0094 30.82C78.8894 31.18 78.7694 31.66 78.7094 32.08C78.5894 32.32 78.5294 32.5 78.5894 32.8C78.5894 32.98 78.5894 33.1 78.5294 33.28C78.5294 33.46 78.5894 33.58 78.5894 33.76C78.5894 34.06 78.4094 34.12 78.2894 34.3C78.0494 34.6 78.2294 34.96 78.3494 35.32C78.4694 35.56 78.4094 35.74 78.2894 35.92C78.1094 36.1 78.1094 36.22 78.1094 36.52C78.1094 36.76 78.1094 36.94 78.1694 37.18C78.1694 37.42 78.0494 37.6 77.9894 37.84C77.9294 38.2 77.8694 38.68 77.8694 39.1C77.8694 39.34 77.8694 39.52 77.9294 39.76C77.9294 39.94 77.8094 40.12 77.8094 40.3C77.8094 40.48 77.9294 40.66 77.9294 40.84C77.9294 41.02 77.8694 41.2 77.8694 41.38C77.7494 41.74 77.7494 42.16 77.7494 42.58C77.7494 43.06 77.6294 43.48 77.6294 43.9C77.6894 44.08 77.7494 44.26 77.7494 44.5C77.6894 44.74 77.7494 44.98 77.7494 45.22C77.7494 45.64 77.7494 46.06 77.8094 46.54C77.7494 46.9 77.6894 47.32 77.7494 47.74V48.4C77.6894 48.64 77.6294 48.76 77.6894 49C77.7494 49.18 77.8694 49.3 77.8694 49.42C77.9294 49.66 77.9294 49.84 77.9894 50.02C77.9894 50.44 78.0494 50.86 78.1694 51.22C78.2894 51.46 78.2894 51.46 78.2894 51.7C78.2294 51.94 78.2294 52.12 78.2294 52.36C78.3494 52.54 78.2894 52.72 78.2894 52.9C78.2894 53.14 78.4094 53.38 78.5294 53.56C78.5894 53.8 78.8894 54.46 78.4694 54.52L77.9294 54.46C77.7494 54.4 77.5694 54.22 77.3894 54.16C76.9694 54.1 76.9694 54.52 76.9694 54.76C76.9694 54.94 77.0294 54.94 76.8494 55C76.6694 55.06 76.4294 55 76.2494 55ZM65.2694 28.06C65.4494 28 65.6294 27.88 65.8694 27.82C66.1694 27.7 66.5894 27.7 66.8894 27.7C67.1894 27.7 67.3694 27.82 67.6694 27.76C67.9694 27.7 68.1494 27.52 68.4494 27.46C68.7494 27.4 68.9294 27.46 69.2294 27.52C69.3494 27.52 69.4694 27.46 69.5894 27.46C69.7094 27.4 69.8294 27.46 70.0094 27.46C70.2494 27.46 70.4894 27.4 70.7294 27.4L71.0894 27.22C71.2694 27.22 71.3894 27.28 71.5694 27.22C71.8694 27.22 72.1094 27.1 72.4094 27.04C72.7094 26.98 73.0094 26.98 73.3094 26.98C74.0294 27.04 73.9094 26.38 74.0294 25.9C74.0294 25.66 73.9694 25.42 74.0894 25.18C74.1494 24.82 74.1494 24.52 74.2094 24.22C74.2094 23.92 74.2694 23.68 74.3894 23.44C74.4494 23.14 74.3894 23.02 74.4494 22.72C74.5094 22.48 74.6894 22.42 74.6894 22.18C74.7494 22.06 74.6294 21.88 74.6294 21.76C74.5694 21.58 74.6294 21.4 74.6294 21.28C74.6894 20.68 74.7494 20.08 74.9294 19.54C74.9894 19.3 75.1694 19.18 75.1094 18.88C75.0494 18.52 75.0494 18.28 75.1094 17.92C75.2294 17.44 75.1694 16.9 75.4094 16.48L75.5894 15.7C75.6494 15.4 75.5294 15.22 75.5894 14.92C75.5294 14.68 75.7094 14.5 75.7694 14.26C75.8294 14.02 75.6494 13.72 75.7694 13.48C75.8294 13.12 75.8294 12.82 75.8294 12.52C75.8294 12.16 75.9494 11.92 76.0094 11.62C76.0094 11.38 75.9494 11.08 75.9494 10.78C76.0094 10.48 76.0094 10.18 76.0694 9.88C76.1294 9.58 76.0094 9.28 76.0694 8.92C76.0694 8.62 76.1294 8.32 76.1294 7.96C76.1294 7.42 76.2494 6.88 76.3094 6.34V4.48C76.2494 4.18 76.2494 3.34 75.7694 3.46C75.5294 3.52 75.2294 3.7 74.9894 3.82C74.8094 3.94 74.6894 4.24 74.5694 4.42C74.3894 4.66 74.2094 4.72 73.9694 4.9C73.6694 5.08 73.6694 5.2 73.6694 5.5C73.4894 6.04 73.1294 6.52 72.6494 6.82C72.4694 7 72.3494 6.94 72.3494 7.24C72.2894 7.54 72.1694 7.78 72.0494 8.02C71.9294 8.08 71.8094 8.14 71.7494 8.26C71.6894 8.38 71.6894 8.5 71.6294 8.56C71.5694 8.8 71.3294 8.92 71.1494 9.1C71.0294 9.28 71.0294 9.58 70.9094 9.82L70.5494 10.6C70.2494 11.08 70.0094 11.62 69.6494 12.1C69.5894 12.28 69.5294 12.52 69.2894 12.64C69.0494 12.88 68.9894 12.88 69.0494 13.24C68.9894 13.48 68.9294 13.66 68.9294 13.9C68.8694 14.14 68.8094 14.2 68.6894 14.38C68.5094 14.56 68.6294 14.86 68.6294 15.1C68.5694 15.46 68.3894 15.46 68.1494 15.64C68.0294 15.76 67.7294 15.94 67.6094 16.12C67.4894 16.3 67.6094 16.6 67.5494 16.84C67.5494 17.38 67.1894 17.86 67.0094 18.28C66.8294 18.52 66.6494 18.64 66.4094 18.76C66.1094 18.94 66.2294 19.06 66.2294 19.36C66.2294 19.66 66.1094 19.84 66.1094 20.14C66.0494 20.26 66.1094 20.38 66.0494 20.5C66.0494 20.68 65.9294 20.74 65.8694 20.86C65.7494 21.04 65.7494 21.28 65.6294 21.52C65.5094 21.76 65.2094 21.88 64.9694 22.06C64.9694 22.06 64.9694 22.06 65.0294 22.12C65.0294 22.24 65.0294 22.48 64.9694 22.6C64.8494 22.78 64.6694 22.72 64.7294 23.02C64.8494 23.32 64.9694 23.32 64.7294 23.56C64.6094 23.74 64.5494 23.86 64.5494 24.1C64.5494 24.4 64.4894 24.64 64.4894 24.88C64.4894 25.18 64.3694 25.36 64.3094 25.66C64.3094 25.9 64.3694 26.14 64.2494 26.44L63.9494 26.98C63.8894 27.1 63.8894 27.22 63.8894 27.34C63.8294 27.52 63.7694 27.64 63.7694 27.82C63.8894 28.18 64.9694 28.12 65.2694 28.06ZM77.4494 17.86C77.6894 18.04 77.5694 17.5 77.5694 17.38C77.5094 17.2 77.5694 17.08 77.6894 16.96C77.8094 16.9 77.8694 16.96 77.9894 16.9L78.2294 16.66C78.4094 16.54 78.3494 16.36 78.0494 16.3L77.8094 16.36C77.6894 16.3 77.6294 16.18 77.5694 16.18C77.3294 16.12 77.1494 16.36 77.2094 16.54C77.1494 16.78 77.3894 17.02 77.2094 17.26C77.2094 17.38 77.2694 17.8 77.4494 17.86ZM76.3094 20.62C76.4894 20.98 76.7294 20.56 76.8494 20.44C77.0294 20.2 77.2094 20.08 77.1494 19.72C77.0894 19.6 77.0894 19.24 77.3294 19.24C77.5094 19.18 77.5094 19.42 77.5694 19.54C77.6294 19.48 77.9294 19.12 77.8694 19C77.8694 18.88 77.4494 18.64 77.3294 18.64C77.0894 18.64 76.9694 19 76.9094 19.12C76.7294 19.24 76.4894 19.18 76.4894 19.42C76.4294 19.6 76.6694 19.78 76.6694 20.02C76.6094 20.2 76.2494 20.26 76.3094 20.62ZM77.1494 23.92C77.6294 23.8 77.5094 23.56 77.3894 23.2C77.3294 22.84 77.3894 22.6 77.5094 22.24C77.6894 21.88 77.5694 21.46 77.7494 21.1C77.9294 20.92 77.4494 20.38 77.2694 20.62C77.1494 20.74 77.2094 20.98 77.1494 21.1C77.0894 21.28 76.9694 21.46 76.8494 21.58C76.7894 21.76 76.6694 21.88 76.6694 22.12C76.6094 22.3 76.7894 22.42 76.9094 22.66C76.9094 22.84 76.7894 22.84 76.7294 22.96C76.6094 23.14 76.5494 23.26 76.6694 23.44C76.6694 23.8 76.7294 23.98 77.1494 23.92ZM64.9094 21.88C64.8494 21.94 64.9094 22 64.9694 22.06C65.0894 21.88 64.9094 21.7 64.9094 21.88ZM76.4294 24.82C76.5494 24.88 76.6094 24.64 76.4294 24.64C76.3694 24.64 76.3094 24.76 76.4294 24.82ZM76.6694 26.62C77.0894 26.74 76.7894 26.2 76.6094 26.14C76.3094 26.14 76.4294 26.62 76.6694 26.62ZM63.4694 27.7C63.5294 27.64 63.4694 27.46 63.3494 27.46C63.2894 27.52 63.2894 27.76 63.4694 27.7ZM72.2894 29.02C72.4094 28.96 72.6494 28.66 72.4094 28.6C72.2294 28.6 72.1694 28.9 72.2894 29.02ZM69.7094 29.38C69.8294 29.26 70.1894 29.44 70.2494 29.26C70.3694 29.08 70.2494 28.84 70.0694 28.84C69.8294 28.78 69.7094 28.96 69.5894 29.14C69.5294 29.14 69.3494 29.2 69.4094 29.32C69.5294 29.44 69.5894 29.38 69.7094 29.38ZM71.4494 29.2C71.6294 29.14 71.6294 28.9 71.3894 28.96C71.2694 29.02 71.2694 29.26 71.4494 29.2ZM66.9494 29.68C66.9494 29.68 67.3094 29.74 67.3694 29.62C67.4294 29.44 67.1894 29.26 67.0694 29.26C66.6494 29.08 66.4094 29.68 66.9494 29.68ZM65.8694 29.68C65.9294 29.92 66.2894 29.92 66.2894 29.68C66.2294 29.5 65.8694 29.5 65.8694 29.68ZM75.5894 31.18C75.7094 31.18 75.6494 30.82 75.5294 30.82C75.4694 30.88 75.3494 31.12 75.5894 31.18ZM76.0094 33.28C76.1894 33.22 76.1894 32.74 76.1894 32.62V31.84C76.1894 31.72 76.1894 31.54 76.2494 31.42C76.2494 31.3 76.3694 31.18 76.3694 31.12C76.3694 30.88 76.0694 30.88 75.9494 30.94C75.8294 31.12 75.8294 31.42 75.7694 31.6C75.7094 32.02 75.3494 32.5 75.6494 32.98C75.7094 33.1 75.8894 33.28 76.0094 33.28ZM72.5294 31.36C72.4694 31.48 72.2894 31.42 72.2894 31.3C72.3494 31.12 72.5294 31.24 72.5294 31.36ZM69.1094 31.36C69.2294 31.42 69.2894 31.36 69.3494 31.36L69.2294 31.3C69.1094 31.3 69.1094 31.36 69.1094 31.36ZM73.9094 32.92C74.0294 32.86 74.0894 32.56 73.9094 32.56C73.7294 32.56 73.7294 32.86 73.9094 32.92ZM75.6494 36.82C76.0094 36.58 76.1894 35.5 75.7094 35.2C75.8294 35.2 75.6494 34.84 75.5894 34.72C75.5894 34.54 75.6494 34.06 75.4094 34C75.1694 33.94 75.2894 34.54 75.2294 34.66C75.1694 34.78 75.0494 34.84 74.9894 34.96C74.9294 35.14 74.9294 35.32 74.9894 35.5C75.0494 35.8 75.1694 36.1 75.2894 36.4C75.2894 36.64 75.3494 37.06 75.6494 36.82ZM75.6494 35.56C75.5894 35.62 75.4094 35.62 75.4094 35.5C75.3494 35.38 75.7094 35.26 75.7094 35.2C75.7094 35.32 75.7694 35.44 75.6494 35.56ZM74.2694 47.86C74.4494 47.92 74.5694 47.62 74.6294 47.5C74.6894 47.32 74.6294 47.2 74.8694 47.26C74.9894 47.32 75.2894 47.62 75.4094 47.56C75.5294 47.44 75.2894 47.2 75.2294 47.14C75.1094 47.02 74.8094 46.9 74.8094 46.78C74.8094 46.6 75.1694 46.54 75.1694 46.42C75.2894 46.36 75.3494 46.24 75.3494 46.12C75.3494 45.88 75.2294 45.76 75.2294 45.58C75.2894 45.34 75.4694 45.1 75.5294 44.86C75.5894 44.44 75.5894 44.02 75.5294 43.6C75.5294 43.36 75.5294 43.18 75.4094 42.94C75.3494 42.64 75.2894 42.52 75.2894 42.22L75.4694 41.74C75.4694 41.62 75.5894 41.56 75.5894 41.5C75.5294 41.32 75.4694 41.32 75.4094 41.2C75.3494 40.78 75.5894 40.42 75.5894 40C75.5294 39.58 75.5294 39.1 75.5894 38.74C75.6494 38.56 75.7094 38.44 75.8294 38.32C76.0094 38.14 76.2494 38.02 76.1294 37.78C76.1294 37.42 75.5294 37.12 75.2294 37.24C74.9294 37.36 74.4494 37.66 74.5694 38.02C74.6294 38.2 74.6894 38.26 74.8094 38.32C74.9294 38.38 74.9894 38.44 74.9894 38.5C75.0494 38.62 74.9894 38.74 75.0494 38.8C75.1094 38.98 75.2894 38.92 75.3494 39.04C75.4094 39.22 74.9894 39.28 74.9294 39.28C74.3294 39.52 74.5694 39.76 74.7494 40.24C74.8694 40.48 74.9294 40.78 74.9294 41.02C74.9294 41.2 74.8094 41.26 74.8694 41.38V41.44H74.8094C74.7494 41.5 74.5694 41.5 74.6294 41.44C74.6894 41.38 74.7494 41.44 74.8094 41.38C74.6294 41.26 74.4494 41.2 74.2094 41.32C74.0894 41.5 74.2094 41.68 74.2694 41.92C74.2694 42.1 74.3294 42.34 74.3294 42.58C74.3294 42.7 74.3294 43.18 74.4494 43.3C74.5694 43.36 74.6894 43.24 74.8694 43.24C74.9894 43.24 75.2294 43.42 75.1094 43.6C75.0494 43.72 74.8694 43.72 74.6894 43.78C74.5694 43.84 74.5694 43.96 74.4494 44.08C74.3894 44.02 73.9094 43.6 73.8494 43.9C73.9094 44.08 74.2694 44.44 74.4494 44.44V44.5V44.08C74.6894 44.14 74.5694 44.38 74.4494 44.5C74.4494 44.62 74.5094 44.74 74.4494 44.8C74.4494 44.92 74.2694 44.92 74.1494 44.98C73.9094 45.28 74.2694 45.82 74.1494 46.18C74.0894 46.36 74.0294 46.48 74.1494 46.72L74.2094 47.32C74.2094 47.44 74.0894 47.74 74.2694 47.86ZM73.6094 42.1C73.6694 42.04 73.6694 41.98 73.6094 41.92C73.5494 41.98 73.5494 42.04 73.6094 42.1ZM73.3694 48.34C73.3694 48.28 73.3694 48.28 73.3094 48.28C73.1894 48.34 73.3694 48.46 73.3694 48.34ZM75.4094 48.58C75.4694 48.52 75.4694 48.46 75.4694 48.4C75.3494 48.28 75.3494 48.58 75.4094 48.58ZM74.5094 49C74.9294 49 75.0494 48.58 74.5094 48.52C74.3894 48.52 74.1494 48.52 74.1494 48.76C74.1494 48.94 74.3294 49 74.5094 49ZM74.8094 50.02C75.1094 49.96 75.2294 49.18 74.8694 49.24C74.5094 49.3 74.6294 50.02 74.8094 50.02ZM75.4094 52C75.5894 51.94 75.5294 51.58 75.5294 51.46C75.5294 51.22 75.4694 50.98 75.4694 50.8C75.5294 50.62 75.7094 50.44 75.6494 50.26C75.4694 50.08 75.4094 50.26 75.2894 50.38C75.2294 50.5 75.1094 50.62 74.9894 50.8C74.9894 50.92 74.9294 51.16 74.9894 51.34C75.0494 51.52 75.1694 51.58 75.2294 51.76C75.2294 51.94 75.2294 52.12 75.4094 52ZM75.9494 50.92L76.0094 50.86C75.9494 50.8 75.9494 50.8 75.8894 50.8C75.8294 50.74 75.9494 50.92 75.9494 50.92ZM76.4894 54.16C76.5494 54.22 76.7294 54.28 76.7294 54.16C76.7294 54.04 76.5494 53.98 76.4894 54.16ZM91.7059 57.4C91.2259 57.34 90.7459 57.22 90.2659 57.16C89.4259 57.04 88.6459 56.68 87.9859 56.2C87.6259 55.96 87.3859 55.6 87.0859 55.3C86.9659 55.18 86.8459 55.06 86.7259 54.88C86.6059 54.64 86.5459 54.4 86.3659 54.16C85.8259 53.44 85.2859 52.78 84.8659 51.94C84.4459 51.16 84.0859 50.38 84.0859 49.54C84.1459 48.52 84.3259 47.62 84.6259 46.72C84.8059 46.36 84.8659 45.94 85.1059 45.58C85.3459 45.22 85.6459 44.86 85.9459 44.5C86.5459 43.72 87.1459 42.94 87.8059 42.22C88.4659 41.56 89.1859 40.9 89.9059 40.3C90.5659 39.64 91.2259 38.92 92.0059 38.38C92.7859 37.84 93.6259 37.48 94.3459 36.94C94.6459 36.76 95.0059 36.46 94.7659 36.1C94.5859 35.8 94.1059 35.5 93.8059 35.26C93.0859 34.6 92.4259 34 91.6459 33.4C90.1459 32.32 88.7059 31.12 87.6259 29.56C87.3859 29.2 87.2659 28.78 87.0259 28.42C86.7859 28 86.4859 27.64 86.2459 27.28C85.7659 26.44 85.3459 25.54 85.0459 24.64C84.8059 23.8 84.2659 22.96 84.2659 22.12C84.2659 21.64 84.2659 21.22 84.2059 20.8C84.0859 20.32 84.2059 19.84 84.2659 19.42C84.5059 18.46 84.6859 17.5 85.1059 16.66L85.7059 15.58C86.0059 15.22 86.3059 15.04 86.6659 14.8C87.3859 14.26 87.8659 13.48 88.4059 12.82C88.6459 12.46 88.8859 12.34 89.3059 12.16C89.6659 12.04 89.8459 11.92 90.0859 11.56C90.3259 11.26 90.6259 11.08 90.9259 10.9C91.3459 10.66 91.6459 10.36 92.0659 10.06C92.7259 9.58 93.3859 8.98 94.1659 8.56C94.4659 8.38 94.8859 8.2 95.2459 8.02C95.6059 7.9 96.0259 7.78 96.3859 7.54C97.0459 7.06 97.6459 6.52 98.3659 6.1C98.7859 5.92 99.0259 5.74 99.5059 5.68C99.9259 5.56 100.286 5.44 100.646 5.2C101.366 4.72 102.206 4.78 102.926 4.48C103.346 4.36 103.706 4.12 104.066 4C104.546 3.88 104.966 3.76 105.386 3.7C106.286 3.58 107.246 3.52 108.146 3.58C109.766 3.7 111.566 4.18 112.706 5.44C113.186 6.04 113.786 6.7 113.966 7.48C113.966 7.78 114.026 8.2 113.846 8.44C113.606 8.8 113.246 8.68 112.886 8.8C112.526 8.92 112.346 9.28 111.866 9.22C111.386 9.22 111.026 9.22 110.546 9.28C109.646 9.4 108.746 8.92 107.786 8.98C107.366 9.04 106.946 9.22 106.526 9.34L105.086 9.7C104.726 9.88 104.366 10.06 104.006 10.18C103.586 10.24 103.226 10.3 102.806 10.48C102.446 10.66 102.206 10.84 101.786 10.9C101.366 10.96 101.066 11.02 100.646 11.26C99.9259 11.74 99.1459 11.98 98.3059 12.28C97.9459 12.4 97.6459 12.7 97.2859 12.94C96.9259 13.18 96.4459 13.42 96.0259 13.6C95.6659 13.78 95.2459 13.9 94.9459 14.14C94.6459 14.38 94.4059 14.74 94.1059 14.98C93.8059 15.16 93.3859 15.22 93.0859 15.46C92.7259 15.76 92.4259 16.06 92.1259 16.36C91.4659 16.96 90.6859 17.32 90.0259 17.98C88.8259 19.36 87.8059 20.92 87.3859 22.66C87.2659 23.14 87.2659 23.56 87.2059 24.04C87.1459 24.52 87.0259 24.88 87.2059 25.36C87.3259 25.72 87.5059 26.14 87.6859 26.5C87.9259 26.92 88.2259 27.28 88.5259 27.7C89.6059 29.08 91.0459 30.22 92.4259 31.36C93.2059 32.02 93.9859 32.62 94.7659 33.22C95.3659 33.7 95.9059 34.36 96.5659 34.78C97.2859 35.26 97.9459 34.96 98.7259 34.66C99.6259 34.3 100.526 34 101.426 33.7C103.346 33.22 105.206 32.62 107.006 31.78C107.786 31.42 108.626 30.88 109.466 30.58L110.846 30.28C111.326 30.22 111.806 29.98 112.286 29.8C113.186 29.5 114.026 29.14 114.926 28.84C115.706 28.54 116.366 29.02 116.906 29.56C117.146 29.86 117.386 30.1 117.386 30.52C117.386 30.94 117.086 31.18 116.666 31.24C116.306 31.3 115.946 31.36 115.586 31.54C115.166 31.66 114.746 31.9 114.266 32.02C113.906 32.08 113.666 32.2 113.366 32.44C113.006 32.74 112.706 32.86 112.286 32.92C111.806 32.98 111.386 33.16 110.966 33.28C110.546 33.4 110.066 33.52 109.706 33.76C108.926 34.12 108.386 34.48 107.486 34.24C107.066 34.18 106.766 34.18 106.346 34.3C105.866 34.48 105.386 34.6 104.906 34.66C104.426 34.72 103.946 34.72 103.526 34.9C103.166 35.02 102.866 35.26 102.506 35.32C101.666 35.44 100.886 35.86 100.046 36.16C99.8659 36.22 99.2659 36.28 99.1459 36.46C98.9059 36.7 99.3259 37 99.5059 37.12C100.106 37.66 100.706 38.2 101.306 38.68C101.966 39.28 102.626 39.94 103.166 40.6C103.826 41.32 104.246 42.1 104.726 42.88C105.266 43.72 105.626 44.68 105.926 45.58C106.166 46.54 106.406 47.38 106.406 48.4C106.406 48.82 106.346 49.24 106.286 49.66C106.166 50.08 105.926 50.38 105.746 50.74L105.206 51.88C105.026 52.3 104.786 52.54 104.426 52.84C104.186 53.08 104.066 53.5 103.826 53.8C103.526 54.1 103.166 54.28 102.806 54.52C102.086 54.94 101.486 55.54 100.646 55.78C100.226 55.96 99.8059 56.02 99.3859 56.08C99.1459 56.14 98.9059 56.2 98.6659 56.32C98.4859 56.38 98.3659 56.56 98.1859 56.68C97.7659 56.86 97.5259 56.74 97.1059 56.74C96.9259 56.74 96.8059 56.8 96.6259 56.92C96.3859 56.98 96.0859 57.04 95.8459 57.04L93.0259 57.4C92.5459 57.46 92.1259 57.52 91.7059 57.4ZM92.7259 11.44C93.0259 11.62 93.3859 11.08 93.4459 10.9C93.5659 10.78 93.4459 10.6 93.5059 10.42C93.6259 10.3 93.8659 10.18 94.0459 10.3C94.1659 10.3 94.3459 10.3 94.4659 10.36C94.5859 10.36 94.6459 10.42 94.8259 10.48C95.1259 10.42 95.3659 10.18 95.5459 10.12C95.5459 10 95.5459 9.76 95.7259 9.82C95.7859 9.88 95.7259 10 95.6659 10.06L95.5459 10.12C95.5459 10.12 95.6059 10.12 95.6659 10.06C95.9059 9.94 96.1459 9.88 96.3859 9.64C96.4459 9.52 96.4459 9.34 96.6259 9.28C96.8059 9.16 96.9859 9.16 97.1059 9.1C97.4059 8.98 97.7059 8.62 98.0059 8.56C98.1259 8.5 98.3059 8.5 98.3659 8.5C98.5459 8.5 98.6659 8.32 98.7859 8.26C98.9659 8.02 99.2659 7.96 99.3859 7.78C99.4459 7.54 99.2659 7.24 99.3259 7.06C99.3859 7.06 99.5059 6.94 99.5659 6.88L99.8059 6.64C100.166 6.46 100.166 6.64 99.9859 6.94C99.9259 7.06 99.8059 7.24 100.046 7.36C100.166 7.36 100.286 7.24 100.406 7.3C100.526 7.3 100.706 7.3 100.826 7.48C101.006 7.6 101.006 7.84 101.306 7.78C101.486 7.66 101.606 7.42 101.486 7.24C101.426 7.06 101.126 7.06 101.066 6.88C100.886 6.64 101.246 6.58 101.486 6.64C101.606 6.76 101.726 6.82 101.846 6.82L102.206 7C102.446 7.18 102.806 7.18 102.866 6.88C102.926 6.52 102.806 6.34 103.106 6.34C103.586 6.28 103.946 6.28 104.126 5.86C104.186 5.86 104.366 6.16 104.606 6.16C104.846 6.1 104.786 5.98 104.846 5.8C104.906 5.56 105.146 5.56 105.146 5.38C105.266 5.08 104.906 5.02 104.966 4.9C105.086 4.72 105.326 4.84 105.566 4.78C105.686 4.54 105.506 4.24 105.266 4.12C105.086 4.12 104.846 4.42 104.606 4.54C104.546 4.48 103.946 4.66 103.946 4.72C104.066 4.66 104.066 4.96 104.066 5.02C103.946 5.2 103.766 5.26 103.646 5.26C103.526 5.44 103.166 5.62 102.986 5.5C102.926 5.38 102.866 5.2 102.746 5.2C102.506 5.08 102.386 5.26 102.326 5.44C102.086 5.62 102.086 5.92 101.726 5.8C101.366 5.62 101.186 5.86 100.946 6.1C100.766 6.16 100.646 6.16 100.466 6.16C100.286 6.1 100.166 6.16 99.9259 6.22C99.6859 6.28 99.2659 6.16 98.9659 6.34C98.7859 6.46 98.4859 6.58 98.7259 6.88C98.6659 6.88 98.6059 6.94 98.6059 7C98.4859 6.88 98.3059 7 98.4259 7.06C98.1859 7.12 98.0659 7.48 97.8259 7.66C97.7659 7.72 97.7059 7.78 97.5859 7.72L97.2859 7.66L97.3459 7.54C97.3459 7.54 97.2259 7.54 97.2859 7.66C96.8659 7.84 96.4459 8.38 96.1459 8.68C96.0259 8.86 95.8459 9.04 95.7259 8.98C95.4859 8.86 95.5459 8.56 95.3059 8.56C95.1259 8.56 95.0059 8.92 94.8259 8.98C94.7059 9.16 94.4659 9.16 94.3459 9.34C94.2259 9.52 94.2859 9.58 93.9859 9.64C93.8659 9.64 93.6859 9.46 93.4459 9.58C93.2659 9.64 93.0859 9.88 92.9059 10C92.6659 10.12 92.6059 10.36 92.6659 10.48C92.7259 10.72 92.7859 10.9 92.7259 11.08C92.6659 11.2 92.4859 11.38 92.7259 11.44ZM102.746 6.1C102.686 6.1 102.686 6.04 102.686 6.04C102.686 5.92 102.806 5.98 102.746 6.1ZM102.866 7.18C102.986 7.24 102.986 7.18 103.046 7.12C102.986 7.12 102.866 7.12 102.866 7.18ZM98.6059 7.84C98.3659 7.9 98.3059 7.72 98.1259 7.6C98.1859 7.6 98.2459 7.54 98.3059 7.54C98.3659 7.6 98.4859 7.36 98.6059 7.36C98.7259 7.3 98.9659 7.42 98.9659 7.54C99.0259 7.78 98.7259 7.9 98.6059 7.84ZM99.3259 9.04C99.5059 9.04 99.3859 8.8 99.2059 8.86C99.0859 8.98 99.2059 9.04 99.3259 9.04ZM97.9459 9.58C98.0059 9.52 97.8859 9.4 97.7659 9.4C97.7059 9.52 97.7659 9.64 97.9459 9.58ZM96.8059 10.24C96.8659 10.3 97.1059 10.3 97.1059 10.18C97.1659 10 96.8059 10.12 96.8059 10.24ZM93.8659 10.78C94.2259 10.78 94.1659 10.42 93.9859 10.3C93.8059 10.42 93.5059 10.72 93.8659 10.78ZM89.7259 14.92C89.8459 14.98 90.0859 14.8 90.0859 14.62C90.0259 14.44 89.4259 14.26 89.5459 14.08C89.6059 13.96 89.9059 14.14 90.0259 14.14C90.2059 14.08 90.2659 13.9 90.3859 13.78C90.4459 13.72 90.6259 13.72 90.7459 13.66C90.9859 13.54 90.9859 13.36 91.0459 13.12C91.2259 12.82 91.5859 12.82 91.8259 12.76C92.4259 12.64 91.8859 12.28 92.0059 11.92C92.0659 11.68 92.3059 11.62 92.3059 11.5C92.3059 11.26 92.2459 10.96 92.0059 10.9C91.7059 10.9 91.6459 11.08 91.4659 11.26C91.4059 11.38 91.2259 11.32 91.2259 11.5C91.2259 11.56 91.2859 11.62 91.2259 11.74C91.1659 11.92 90.9859 11.92 90.8659 11.98L90.5059 12.34C90.3259 12.58 90.1459 12.58 89.8459 12.7C89.5459 12.82 89.5459 13.12 89.3059 13.42C89.2459 13.48 89.0659 13.6 89.0659 13.78C88.9459 13.96 88.8259 14.14 88.6459 14.14C88.5259 14.26 88.3459 14.56 88.4659 14.74C88.5259 14.8 89.0059 14.86 89.1259 14.8C89.2459 14.8 89.3059 14.74 89.4859 14.8C89.5459 14.8 89.6059 14.92 89.7259 14.92ZM86.6059 15.82C86.6659 15.94 86.9659 15.82 87.0259 15.82C87.2059 15.76 87.3259 15.58 87.5059 15.46C87.6859 15.34 88.3459 15.1 87.9259 14.8C87.9859 14.74 88.0459 14.74 88.0459 14.68C87.9859 14.62 87.8059 14.68 87.9859 14.74C87.8059 14.74 86.5459 15.58 86.6059 15.82ZM85.5859 17.92C85.5859 18.4 86.6059 17.8 86.6659 17.8C86.8459 17.74 86.9659 17.44 87.0859 17.32C87.0859 17.26 87.0859 17.14 87.1459 17.08C87.2059 17.02 87.3259 16.96 87.3859 16.84C87.3859 16.66 87.2059 16.78 87.2059 16.84C86.9059 17.02 86.7259 17.26 86.4859 17.44C86.3659 17.62 86.1859 17.68 85.9459 17.74C85.8859 17.8 85.6459 17.8 85.5859 17.92ZM89.7259 53.02C90.0259 53.02 90.3859 53.08 90.8059 53.02C91.5859 52.96 92.3059 52.78 93.0859 52.72C93.8659 52.6 94.6459 52.42 95.4259 52.18C96.7459 51.76 98.1859 51.28 99.3259 50.38C100.466 49.54 101.246 48.16 101.426 46.72C101.546 46 101.666 45.16 101.486 44.5C101.366 43.84 100.886 43.18 100.526 42.64C100.046 42.04 99.3859 41.62 98.7859 41.14C98.1259 40.66 97.5259 40.06 96.8659 39.58C96.6859 39.4 96.3859 39.22 96.0859 39.28C95.7859 39.28 95.4859 39.52 95.3059 39.76C95.1259 40 94.9459 40.24 94.8259 40.48C94.5259 40.72 94.2259 40.96 93.9259 41.14L93.0859 41.44C92.8459 41.62 92.7259 41.86 92.6659 42.1C92.5459 42.46 92.4259 42.64 92.1859 42.88C91.8859 43.12 91.5859 43.24 91.2859 43.42C90.9859 43.66 90.8659 43.9 90.6859 44.26C90.3859 44.56 90.2059 44.74 90.1459 45.16C90.1459 45.64 89.9059 45.76 89.6659 46.06C89.3059 46.3 89.1259 46.54 89.0059 46.9C88.5859 47.68 88.3459 48.52 88.1059 49.36C87.9859 49.72 87.8059 50.08 87.8659 50.44C87.9259 50.86 87.9859 51.28 87.8659 51.7C87.8059 52 87.6259 52.3 87.8059 52.6C87.9259 52.78 88.3459 52.9 88.5859 52.96C89.0059 53.08 89.3059 53.02 89.7259 53.02ZM117.78 57.4C117.3 57.34 116.82 57.22 116.34 57.16C115.5 57.04 114.72 56.68 114.06 56.2C113.7 55.96 113.46 55.6 113.16 55.3C113.04 55.18 112.92 55.06 112.8 54.88C112.68 54.64 112.62 54.4 112.44 54.16C111.9 53.44 111.36 52.78 110.94 51.94C110.52 51.16 110.16 50.38 110.16 49.54C110.22 48.52 110.4 47.62 110.7 46.72C110.88 46.36 110.94 45.94 111.18 45.58C111.42 45.22 111.72 44.86 112.02 44.5C112.62 43.72 113.22 42.94 113.88 42.22C114.54 41.56 115.26 40.9 115.98 40.3C116.64 39.64 117.3 38.92 118.08 38.38C118.86 37.84 119.7 37.48 120.42 36.94C120.72 36.76 121.08 36.46 120.84 36.1C120.66 35.8 120.18 35.5 119.88 35.26C119.16 34.6 118.5 34 117.72 33.4C116.22 32.32 114.78 31.12 113.7 29.56C113.46 29.2 113.34 28.78 113.1 28.42C112.86 28 112.56 27.64 112.32 27.28C111.84 26.44 111.42 25.54 111.12 24.64C110.88 23.8 110.34 22.96 110.34 22.12C110.34 21.64 110.34 21.22 110.28 20.8C110.16 20.32 110.28 19.84 110.34 19.42C110.58 18.46 110.76 17.5 111.18 16.66L111.78 15.58C112.08 15.22 112.38 15.04 112.74 14.8C113.46 14.26 113.94 13.48 114.48 12.82C114.72 12.46 114.96 12.34 115.38 12.16C115.74 12.04 115.92 11.92 116.16 11.56C116.4 11.26 116.7 11.08 117 10.9C117.42 10.66 117.72 10.36 118.14 10.06C118.8 9.58 119.46 8.98 120.24 8.56C120.54 8.38 120.96 8.2 121.32 8.02C121.68 7.9 122.1 7.78 122.46 7.54C123.12 7.06 123.72 6.52 124.44 6.1C124.86 5.92 125.1 5.74 125.58 5.68C126 5.56 126.36 5.44 126.72 5.2C127.44 4.72 128.28 4.78 129 4.48C129.42 4.36 129.78 4.12 130.14 4C130.62 3.88 131.04 3.76 131.46 3.7C132.36 3.58 133.32 3.52 134.22 3.58C135.84 3.7 137.64 4.18 138.78 5.44C139.26 6.04 139.86 6.7 140.04 7.48C140.04 7.78 140.1 8.2 139.92 8.44C139.68 8.8 139.32 8.68 138.96 8.8C138.6 8.92 138.42 9.28 137.94 9.22C137.46 9.22 137.1 9.22 136.62 9.28C135.72 9.4 134.82 8.92 133.86 8.98C133.44 9.04 133.02 9.22 132.6 9.34L131.16 9.7C130.8 9.88 130.44 10.06 130.08 10.18C129.66 10.24 129.3 10.3 128.88 10.48C128.52 10.66 128.28 10.84 127.86 10.9C127.44 10.96 127.14 11.02 126.72 11.26C126 11.74 125.22 11.98 124.38 12.28C124.02 12.4 123.72 12.7 123.36 12.94C123 13.18 122.52 13.42 122.1 13.6C121.74 13.78 121.32 13.9 121.02 14.14C120.72 14.38 120.48 14.74 120.18 14.98C119.88 15.16 119.46 15.22 119.16 15.46C118.8 15.76 118.5 16.06 118.2 16.36C117.54 16.96 116.76 17.32 116.1 17.98C114.9 19.36 113.88 20.92 113.46 22.66C113.34 23.14 113.34 23.56 113.28 24.04C113.22 24.52 113.1 24.88 113.28 25.36C113.4 25.72 113.58 26.14 113.76 26.5C114 26.92 114.3 27.28 114.6 27.7C115.68 29.08 117.12 30.22 118.5 31.36C119.28 32.02 120.06 32.62 120.84 33.22C121.44 33.7 121.98 34.36 122.64 34.78C123.36 35.26 124.02 34.96 124.8 34.66C125.7 34.3 126.6 34 127.5 33.7C129.42 33.22 131.28 32.62 133.08 31.78C133.86 31.42 134.7 30.88 135.54 30.58L136.92 30.28C137.4 30.22 137.88 29.98 138.36 29.8C139.26 29.5 140.1 29.14 141 28.84C141.78 28.54 142.44 29.02 142.98 29.56C143.22 29.86 143.46 30.1 143.46 30.52C143.46 30.94 143.16 31.18 142.74 31.24C142.38 31.3 142.02 31.36 141.66 31.54C141.24 31.66 140.82 31.9 140.34 32.02C139.98 32.08 139.74 32.2 139.44 32.44C139.08 32.74 138.78 32.86 138.36 32.92C137.88 32.98 137.46 33.16 137.04 33.28C136.62 33.4 136.14 33.52 135.78 33.76C135 34.12 134.46 34.48 133.56 34.24C133.14 34.18 132.84 34.18 132.42 34.3C131.94 34.48 131.46 34.6 130.98 34.66C130.5 34.72 130.02 34.72 129.6 34.9C129.24 35.02 128.94 35.26 128.58 35.32C127.74 35.44 126.96 35.86 126.12 36.16C125.94 36.22 125.34 36.28 125.22 36.46C124.98 36.7 125.4 37 125.58 37.12C126.18 37.66 126.78 38.2 127.38 38.68C128.04 39.28 128.7 39.94 129.24 40.6C129.9 41.32 130.32 42.1 130.8 42.88C131.34 43.72 131.7 44.68 132 45.58C132.24 46.54 132.48 47.38 132.48 48.4C132.48 48.82 132.42 49.24 132.36 49.66C132.24 50.08 132 50.38 131.82 50.74L131.28 51.88C131.1 52.3 130.86 52.54 130.5 52.84C130.26 53.08 130.14 53.5 129.9 53.8C129.6 54.1 129.24 54.28 128.88 54.52C128.16 54.94 127.56 55.54 126.72 55.78C126.3 55.96 125.88 56.02 125.46 56.08C125.22 56.14 124.98 56.2 124.74 56.32C124.56 56.38 124.44 56.56 124.26 56.68C123.84 56.86 123.6 56.74 123.18 56.74C123 56.74 122.88 56.8 122.7 56.92C122.46 56.98 122.16 57.04 121.92 57.04L119.1 57.4C118.62 57.46 118.2 57.52 117.78 57.4ZM118.8 11.44C119.1 11.62 119.46 11.08 119.52 10.9C119.64 10.78 119.52 10.6 119.58 10.42C119.7 10.3 119.94 10.18 120.12 10.3C120.24 10.3 120.42 10.3 120.54 10.36C120.66 10.36 120.72 10.42 120.9 10.48C121.2 10.42 121.44 10.18 121.62 10.12C121.62 10 121.62 9.76 121.8 9.82C121.86 9.88 121.8 10 121.74 10.06L121.62 10.12C121.62 10.12 121.68 10.12 121.74 10.06C121.98 9.94 122.22 9.88 122.46 9.64C122.52 9.52 122.52 9.34 122.7 9.28C122.88 9.16 123.06 9.16 123.18 9.1C123.48 8.98 123.78 8.62 124.08 8.56C124.2 8.5 124.38 8.5 124.44 8.5C124.62 8.5 124.74 8.32 124.86 8.26C125.04 8.02 125.34 7.96 125.46 7.78C125.52 7.54 125.34 7.24 125.4 7.06C125.46 7.06 125.58 6.94 125.64 6.88L125.88 6.64C126.24 6.46 126.24 6.64 126.06 6.94C126 7.06 125.88 7.24 126.12 7.36C126.24 7.36 126.36 7.24 126.48 7.3C126.6 7.3 126.78 7.3 126.9 7.48C127.08 7.6 127.08 7.84 127.38 7.78C127.56 7.66 127.68 7.42 127.56 7.24C127.5 7.06 127.2 7.06 127.14 6.88C126.96 6.64 127.32 6.58 127.56 6.64C127.68 6.76 127.8 6.82 127.92 6.82L128.28 7C128.52 7.18 128.88 7.18 128.94 6.88C129 6.52 128.88 6.34 129.18 6.34C129.66 6.28 130.02 6.28 130.2 5.86C130.26 5.86 130.44 6.16 130.68 6.16C130.92 6.1 130.86 5.98 130.92 5.8C130.98 5.56 131.22 5.56 131.22 5.38C131.34 5.08 130.98 5.02 131.04 4.9C131.16 4.72 131.4 4.84 131.64 4.78C131.76 4.54 131.58 4.24 131.34 4.12C131.16 4.12 130.92 4.42 130.68 4.54C130.62 4.48 130.02 4.66 130.02 4.72C130.14 4.66 130.14 4.96 130.14 5.02C130.02 5.2 129.84 5.26 129.72 5.26C129.6 5.44 129.24 5.62 129.06 5.5C129 5.38 128.94 5.2 128.82 5.2C128.58 5.08 128.46 5.26 128.4 5.44C128.16 5.62 128.16 5.92 127.8 5.8C127.44 5.62 127.26 5.86 127.02 6.1C126.84 6.16 126.72 6.16 126.54 6.16C126.36 6.1 126.24 6.16 126 6.22C125.76 6.28 125.34 6.16 125.04 6.34C124.86 6.46 124.56 6.58 124.8 6.88C124.74 6.88 124.68 6.94 124.68 7C124.56 6.88 124.38 7 124.5 7.06C124.26 7.12 124.14 7.48 123.9 7.66C123.84 7.72 123.78 7.78 123.66 7.72L123.36 7.66L123.42 7.54C123.42 7.54 123.3 7.54 123.36 7.66C122.94 7.84 122.52 8.38 122.22 8.68C122.1 8.86 121.92 9.04 121.8 8.98C121.56 8.86 121.62 8.56 121.38 8.56C121.2 8.56 121.08 8.92 120.9 8.98C120.78 9.16 120.54 9.16 120.42 9.34C120.3 9.52 120.36 9.58 120.06 9.64C119.94 9.64 119.76 9.46 119.52 9.58C119.34 9.64 119.16 9.88 118.98 10C118.74 10.12 118.68 10.36 118.74 10.48C118.8 10.72 118.86 10.9 118.8 11.08C118.74 11.2 118.56 11.38 118.8 11.44ZM128.82 6.1C128.76 6.1 128.76 6.04 128.76 6.04C128.76 5.92 128.88 5.98 128.82 6.1ZM128.94 7.18C129.06 7.24 129.06 7.18 129.12 7.12C129.06 7.12 128.94 7.12 128.94 7.18ZM124.68 7.84C124.44 7.9 124.38 7.72 124.2 7.6C124.26 7.6 124.32 7.54 124.38 7.54C124.44 7.6 124.56 7.36 124.68 7.36C124.8 7.3 125.04 7.42 125.04 7.54C125.1 7.78 124.8 7.9 124.68 7.84ZM125.4 9.04C125.58 9.04 125.46 8.8 125.28 8.86C125.16 8.98 125.28 9.04 125.4 9.04ZM124.02 9.58C124.08 9.52 123.96 9.4 123.84 9.4C123.78 9.52 123.84 9.64 124.02 9.58ZM122.88 10.24C122.94 10.3 123.18 10.3 123.18 10.18C123.24 10 122.88 10.12 122.88 10.24ZM119.94 10.78C120.3 10.78 120.24 10.42 120.06 10.3C119.88 10.42 119.58 10.72 119.94 10.78ZM115.8 14.92C115.92 14.98 116.16 14.8 116.16 14.62C116.1 14.44 115.5 14.26 115.62 14.08C115.68 13.96 115.98 14.14 116.1 14.14C116.28 14.08 116.34 13.9 116.46 13.78C116.52 13.72 116.7 13.72 116.82 13.66C117.06 13.54 117.06 13.36 117.12 13.12C117.3 12.82 117.66 12.82 117.9 12.76C118.5 12.64 117.96 12.28 118.08 11.92C118.14 11.68 118.38 11.62 118.38 11.5C118.38 11.26 118.32 10.96 118.08 10.9C117.78 10.9 117.72 11.08 117.54 11.26C117.48 11.38 117.3 11.32 117.3 11.5C117.3 11.56 117.36 11.62 117.3 11.74C117.24 11.92 117.06 11.92 116.94 11.98L116.58 12.34C116.4 12.58 116.22 12.58 115.92 12.7C115.62 12.82 115.62 13.12 115.38 13.42C115.32 13.48 115.14 13.6 115.14 13.78C115.02 13.96 114.9 14.14 114.72 14.14C114.6 14.26 114.42 14.56 114.54 14.74C114.6 14.8 115.08 14.86 115.2 14.8C115.32 14.8 115.38 14.74 115.56 14.8C115.62 14.8 115.68 14.92 115.8 14.92ZM112.68 15.82C112.74 15.94 113.04 15.82 113.1 15.82C113.28 15.76 113.4 15.58 113.58 15.46C113.76 15.34 114.42 15.1 114 14.8C114.06 14.74 114.12 14.74 114.12 14.68C114.06 14.62 113.88 14.68 114.06 14.74C113.88 14.74 112.62 15.58 112.68 15.82ZM111.66 17.92C111.66 18.4 112.68 17.8 112.74 17.8C112.92 17.74 113.04 17.44 113.16 17.32C113.16 17.26 113.16 17.14 113.22 17.08C113.28 17.02 113.4 16.96 113.46 16.84C113.46 16.66 113.28 16.78 113.28 16.84C112.98 17.02 112.8 17.26 112.56 17.44C112.44 17.62 112.26 17.68 112.02 17.74C111.96 17.8 111.72 17.8 111.66 17.92ZM115.8 53.02C116.1 53.02 116.46 53.08 116.88 53.02C117.66 52.96 118.38 52.78 119.16 52.72C119.94 52.6 120.72 52.42 121.5 52.18C122.82 51.76 124.26 51.28 125.4 50.38C126.54 49.54 127.32 48.16 127.5 46.72C127.62 46 127.74 45.16 127.56 44.5C127.44 43.84 126.96 43.18 126.6 42.64C126.12 42.04 125.46 41.62 124.86 41.14C124.2 40.66 123.6 40.06 122.94 39.58C122.76 39.4 122.46 39.22 122.16 39.28C121.86 39.28 121.56 39.52 121.38 39.76C121.2 40 121.02 40.24 120.9 40.48C120.6 40.72 120.3 40.96 120 41.14L119.16 41.44C118.92 41.62 118.8 41.86 118.74 42.1C118.62 42.46 118.5 42.64 118.26 42.88C117.96 43.12 117.66 43.24 117.36 43.42C117.06 43.66 116.94 43.9 116.76 44.26C116.46 44.56 116.28 44.74 116.22 45.16C116.22 45.64 115.98 45.76 115.74 46.06C115.38 46.3 115.2 46.54 115.08 46.9C114.66 47.68 114.42 48.52 114.18 49.36C114.06 49.72 113.88 50.08 113.94 50.44C114 50.86 114.06 51.28 113.94 51.7C113.88 52 113.7 52.3 113.88 52.6C114 52.78 114.42 52.9 114.66 52.96C115.08 53.08 115.38 53.02 115.8 53.02Z" fill="white"/>
</svg>
