<svg width="64" height="64" viewBox="0 0 64 64" fill="none" xmlns="http://www.w3.org/2000/svg">
<rect y="0.257812" width="63.4833" height="63.4833" rx="31.7416" fill="#E4E4E4"/>
<path d="M38.6667 42.6654C40.1394 42.6654 41.3333 41.4715 41.3333 39.9987C41.3333 38.5259 40.1394 37.332 38.6667 37.332C37.1939 37.332 36 38.5259 36 39.9987C36 41.4715 37.1939 42.6654 38.6667 42.6654Z" stroke="#0A3238" stroke-width="1.5" stroke-linecap="round" stroke-linejoin="round"/>
<path d="M25.3337 42.6654C26.8064 42.6654 28.0003 41.4715 28.0003 39.9987C28.0003 38.5259 26.8064 37.332 25.3337 37.332C23.8609 37.332 22.667 38.5259 22.667 39.9987C22.667 41.4715 23.8609 42.6654 25.3337 42.6654Z" stroke="#0A3238" stroke-width="1.5" stroke-linecap="round" stroke-linejoin="round"/>
<path d="M22.667 39.9614C21.2043 39.8894 20.2937 39.672 19.643 39.0227C18.9923 38.3734 18.7763 37.4614 18.7043 35.9987M28.0003 39.9987H36.0003M41.3337 39.9614C42.7963 39.8894 43.707 39.672 44.3577 39.0227C45.3337 38.0454 45.3337 36.4747 45.3337 33.332V30.6654H39.067C38.0737 30.6654 37.5777 30.6654 37.1763 30.5347C36.7761 30.4047 36.4124 30.1817 36.1148 29.8842C35.8173 29.5866 35.5944 29.2229 35.4643 28.8227C35.3337 28.4214 35.3337 27.9254 35.3337 26.932C35.3337 25.4427 35.3337 24.6987 35.1377 24.096C34.9426 23.4957 34.6082 22.9501 34.1619 22.5038C33.7156 22.0575 33.17 21.7231 32.5697 21.528C31.967 21.332 31.223 21.332 29.7337 21.332H18.667M18.667 26.6654H26.667M18.667 30.6654H24.0003" stroke="#0A3238" stroke-width="1.5" stroke-linecap="round" stroke-linejoin="round"/>
<path d="M35.334 24H37.762C39.7033 24 40.6727 24 41.462 24.472C42.2527 24.9427 42.7127 25.7973 43.6327 27.5067L45.334 30.6667" stroke="#0A3238" stroke-width="1.5" stroke-linecap="round" stroke-linejoin="round"/>
</svg>
