<svg width="64" height="65" viewBox="0 0 64 65" fill="none" xmlns="http://www.w3.org/2000/svg">
<rect y="0.707031" width="63.4833" height="63.4833" rx="31.7416" fill="#0A3238"/>
<path d="M32.1293 17.0006C32.6206 17.0006 33.1043 17.0325 33.5543 17.1075C33.9977 17.1646 34.435 17.2613 34.8612 17.3963C35.2862 17.5238 35.7074 17.6881 36.1249 17.8894C36.5318 18.0825 36.9499 18.3188 37.3681 18.5756C38.0749 19.0256 38.7706 19.3894 39.4793 19.68C40.8742 20.2396 42.3498 20.5719 43.8499 20.6644C44.6087 20.7206 45.3943 20.7494 46.2068 20.7506V28.2506C46.2068 29.6744 46.0249 31.0281 45.6612 32.3119C45.3117 33.5798 44.8152 34.8024 44.1818 35.955C43.5511 37.106 42.8048 38.1898 41.9543 39.1894C41.0913 40.2122 40.1565 41.1722 39.1568 42.0619C38.1431 42.9531 37.0768 43.7827 35.9637 44.5463C34.8487 45.3213 33.7274 46.0356 32.5999 46.6894L32.1499 46.9575L31.6999 46.6894C30.5433 46.02 29.4137 45.3051 28.3137 44.5463C27.1946 43.7909 26.1278 42.9609 25.1206 42.0619C24.1215 41.1721 23.1873 40.2122 22.3249 39.1894C21.4773 38.1851 20.7277 37.102 20.0862 35.955C19.4642 34.7971 18.9682 33.5757 18.6068 32.3119C18.2432 30.989 18.0627 29.6226 18.0706 28.2506V20.7506C18.8831 20.7494 19.6693 20.7206 20.4293 20.6644C21.1788 20.6135 21.9234 20.5063 22.6568 20.3438C23.3749 20.1825 24.0931 19.9688 24.7999 19.68C25.5333 19.3836 26.2365 19.0175 26.8999 18.5869C27.7249 18.0506 28.5612 17.655 29.3862 17.3944C30.2747 17.1223 31.2001 16.9895 32.1293 17.0006ZM44.3206 22.5938C42.9013 22.5243 41.4953 22.287 40.1318 21.8869C38.7761 21.4814 37.4845 20.8862 36.2956 20.1188C35.6787 19.7149 35.0093 19.3976 34.3062 19.1756C33.6034 18.9637 32.8727 18.8588 32.1387 18.8644C31.3992 18.8599 30.6631 18.9648 29.9543 19.1756C29.2504 19.391 28.5819 19.7087 27.9706 20.1188C26.7791 20.8896 25.4843 21.4874 24.1249 21.8944C22.7962 22.2806 21.4031 22.5169 19.9456 22.6031V28.26C19.9456 29.5013 20.1068 30.6938 20.4293 31.8375C20.7581 32.9731 21.2109 34.0691 21.7793 35.1056C22.3548 36.1529 23.0331 37.1403 23.8043 38.0531C24.5862 38.9738 25.4206 39.8306 26.3206 40.6444C27.2206 41.4581 28.1637 42.2119 29.1499 42.9056C30.1462 43.6006 31.1424 44.2363 32.1387 44.8125C33.1586 44.2198 34.1527 43.5836 35.1181 42.9056C36.112 42.2138 37.0602 41.4585 37.9568 40.6444C38.8568 39.8306 39.6931 38.9738 40.4749 38.0531C41.2461 37.1403 41.9244 36.1529 42.4999 35.1056C43.0655 34.0702 43.5115 32.9738 43.8293 31.8375C44.162 30.6744 44.3274 29.4698 44.3206 28.26V22.5938Z" fill="white"/>
<path fill-rule="evenodd" clip-rule="evenodd" d="M39.1193 25.8298L38.2943 25.1211L37.533 25.1867L29.358 34.8392L26.5737 30.8642L25.8237 30.7367L24.9555 31.3573L24.8262 32.1073L28.4055 37.2186L28.8124 37.4436L29.6693 37.4961L30.108 37.3048L39.1737 26.5892L39.1193 25.8298Z" fill="white"/>
</svg>
