<svg width="64" height="65" viewBox="0 0 64 65" fill="none" xmlns="http://www.w3.org/2000/svg">
<rect y="0.808594" width="63.4833" height="63.4833" rx="31.7416" fill="#E4E4E4"/>
<path d="M41 27.25H38.75V25C38.75 24.2129 38.5024 23.4458 38.0422 22.8073C37.582 22.1688 36.9325 21.6913 36.1859 21.4424C35.4392 21.1935 34.6331 21.1859 33.8819 21.4206C33.1306 21.6552 32.4722 22.1204 32 22.75C31.5278 22.1204 30.8694 21.6552 30.1181 21.4206C29.3669 21.1859 28.5608 21.1935 27.8141 21.4424C27.0675 21.6913 26.418 22.1688 25.9578 22.8073C25.4976 23.4458 25.25 24.2129 25.25 25C24.6929 24.5821 24.0304 24.3277 23.3368 24.2652C22.6432 24.2026 21.9458 24.3344 21.3229 24.6459C20.7001 24.9573 20.1762 25.4361 19.8101 26.0285C19.4439 26.6209 19.25 27.3036 19.25 28V33C19.25 36.3815 20.5933 39.6245 22.9844 42.0156C25.3755 44.4067 28.6185 45.75 32 45.75C35.3815 45.75 38.6245 44.4067 41.0156 42.0156C43.4067 39.6245 44.75 36.3815 44.75 33V31C44.75 30.0054 44.3549 29.0516 43.6517 28.3483C42.9484 27.6451 41.9946 27.25 41 27.25ZM35 22.75C35.5967 22.75 36.169 22.9871 36.591 23.409C37.0129 23.831 37.25 24.4033 37.25 25V27.25H33C32.9163 27.2511 32.8328 27.2578 32.75 27.27V25C32.75 24.4033 32.9871 23.831 33.409 23.409C33.831 22.9871 34.4033 22.75 35 22.75ZM26.75 25C26.75 24.4033 26.9871 23.831 27.409 23.409C27.831 22.9871 28.4033 22.75 29 22.75C29.5967 22.75 30.169 22.9871 30.591 23.409C31.0129 23.831 31.25 24.4033 31.25 25V30C31.25 30.5967 31.0129 31.169 30.591 31.591C30.169 32.0129 29.5967 32.25 29 32.25C28.4033 32.25 27.831 32.0129 27.409 31.591C26.9871 31.169 26.75 30.5967 26.75 30V25ZM20.75 28C20.75 27.4033 20.9871 26.831 21.409 26.409C21.831 25.9871 22.4033 25.75 23 25.75C23.5967 25.75 24.169 25.9871 24.591 26.409C25.0129 26.831 25.25 27.4033 25.25 28V30C25.25 30.5967 25.0129 31.169 24.591 31.591C24.169 32.0129 23.5967 32.25 23 32.25C22.4033 32.25 21.831 32.0129 21.409 31.591C20.9871 31.169 20.75 30.5967 20.75 30V28ZM43.25 33C43.25 35.9837 42.0647 38.8452 39.955 40.955C37.8452 43.0647 34.9837 44.25 32 44.25C29.0163 44.25 26.1548 43.0647 24.045 40.955C21.9353 38.8452 20.75 35.9837 20.75 33C21.5456 33.5967 22.5458 33.853 23.5303 33.7123C24.5149 33.5717 25.4033 33.0456 26 32.25C26.3216 32.6787 26.7313 33.0334 27.2016 33.2904C27.6718 33.5473 28.1917 33.7005 28.7261 33.7396C29.2606 33.7787 29.7972 33.7028 30.2998 33.517C30.8025 33.3312 31.2595 33.0398 31.64 32.6625C32.0328 33.4542 32.6911 34.0828 33.5 34.4387C32.7997 34.975 32.2324 35.6655 31.8422 36.4566C31.452 37.2476 31.2494 38.1179 31.25 39C31.25 39.1989 31.329 39.3897 31.4697 39.5303C31.6103 39.671 31.8011 39.75 32 39.75C32.1989 39.75 32.3897 39.671 32.5303 39.5303C32.671 39.3897 32.75 39.1989 32.75 39C32.75 37.8728 33.1978 36.7918 33.9948 35.9948C34.7918 35.1978 35.8728 34.75 37 34.75C37.1989 34.75 37.3897 34.671 37.5303 34.5303C37.671 34.3897 37.75 34.1989 37.75 34C37.75 33.8011 37.671 33.6103 37.5303 33.4697C37.3897 33.329 37.1989 33.25 37 33.25H35C34.4033 33.25 33.831 33.0129 33.409 32.591C32.9871 32.169 32.75 31.5967 32.75 31V29C32.75 28.9337 32.7763 28.8701 32.8232 28.8232C32.8701 28.7763 32.9337 28.75 33 28.75H41C41.5967 28.75 42.169 28.9871 42.591 29.409C43.0129 29.831 43.25 30.4033 43.25 31V33Z" fill="#0A3238"/>
</svg>
