<svg width="1320" height="634" viewBox="0 0 1320 634" fill="none" xmlns="http://www.w3.org/2000/svg">
<path d="M51.8573 511.487C49.9261 511.487 48.2605 510.956 46.8603 509.894C45.4844 508.832 44.4222 507.335 43.6739 505.404C42.9256 503.449 42.5514 501.131 42.5514 498.452C42.5514 495.772 42.9256 493.467 43.6739 491.536C44.4222 489.58 45.4844 488.071 46.8603 487.009C48.2605 485.947 49.9261 485.416 51.8573 485.416C53.7885 485.416 55.4541 485.947 56.8542 487.009C58.2543 488.071 59.3286 489.58 60.0769 491.536C60.8252 493.467 61.1994 495.772 61.1994 498.452C61.1994 501.131 60.8252 503.449 60.0769 505.404C59.3286 507.335 58.2543 508.832 56.8542 509.894C55.4541 510.956 53.7885 511.487 51.8573 511.487ZM51.8573 507.939C53.6195 507.939 54.9834 507.118 55.949 505.476C56.9146 503.811 57.3974 501.469 57.3974 498.452C57.3974 495.434 56.9146 493.105 55.949 491.463C54.9834 489.797 53.6195 488.965 51.8573 488.965C50.0951 488.965 48.7312 489.797 47.7656 491.463C46.8 493.105 46.3172 495.434 46.3172 498.452C46.3172 501.469 46.8 503.811 47.7656 505.476C48.7312 507.118 50.0951 507.939 51.8573 507.939Z" fill="#333333"/>
<path d="M24.6253 417.531L23.4304 414.562L31.1793 405.836C31.5897 405.401 32.0121 404.906 32.4466 404.351C32.9053 403.772 33.3398 403.18 33.7502 402.577C34.1605 401.973 34.4864 401.382 34.7278 400.802C34.9934 400.199 35.1261 399.632 35.1261 399.1C35.1261 398.328 34.9692 397.676 34.6554 397.145C34.3657 396.59 33.9312 396.168 33.3519 395.878C32.7966 395.588 32.1207 395.443 31.3241 395.443C30.6241 395.443 29.9361 395.649 29.2602 396.059C28.5842 396.469 27.9687 397.049 27.4135 397.797C26.8583 398.545 26.4237 399.414 26.1099 400.404L23.1045 398.521C23.5149 397.121 24.1305 395.926 24.9512 394.936C25.7961 393.923 26.7979 393.15 27.9566 392.619C29.1395 392.088 30.4189 391.822 31.7948 391.822C33.2191 391.822 34.4864 392.124 35.5969 392.728C36.7073 393.307 37.5763 394.128 38.204 395.19C38.8316 396.228 39.1454 397.435 39.1454 398.811C39.1454 399.366 39.0851 399.933 38.9644 400.513C38.8437 401.092 38.6506 401.696 38.385 402.323C38.1195 402.927 37.7815 403.566 37.3711 404.242C36.9608 404.894 36.4659 405.582 35.8865 406.306C35.3313 407.03 34.6916 407.791 33.9674 408.587L28.2101 414.852L27.4859 413.765H39.942V417.531H24.6253ZM52.0669 417.893C50.1357 417.893 48.4701 417.362 47.07 416.3C45.694 415.238 44.6319 413.741 43.8835 411.81C43.1352 409.855 42.761 407.537 42.761 404.858C42.761 402.178 43.1352 399.873 43.8835 397.942C44.6319 395.986 45.694 394.478 47.07 393.416C48.4701 392.353 50.1357 391.822 52.0669 391.822C53.9981 391.822 55.6638 392.353 57.0639 393.416C58.464 394.478 59.5382 395.986 60.2865 397.942C61.0349 399.873 61.409 402.178 61.409 404.858C61.409 407.537 61.0349 409.855 60.2865 411.81C59.5382 413.741 58.464 415.238 57.0639 416.3C55.6638 417.362 53.9981 417.893 52.0669 417.893ZM52.0669 414.345C53.8291 414.345 55.193 413.524 56.1586 411.883C57.1242 410.217 57.607 407.875 57.607 404.858C57.607 401.84 57.1242 399.511 56.1586 397.869C55.193 396.204 53.8291 395.371 52.0669 395.371C50.3047 395.371 48.9408 396.204 47.9752 397.869C47.0096 399.511 46.5268 401.84 46.5268 404.858C46.5268 407.875 47.0096 410.217 47.9752 411.883C48.9408 413.524 50.3047 414.345 52.0669 414.345Z" fill="#333333"/>
<path d="M31.2009 323.93V303.507L32.1061 303.725L23.7779 313.9L23.6331 313.465H39.3843V317.05H21.207L19.5414 313.791L31.9613 298.583H34.9667V323.93H31.2009ZM51.8809 324.292C49.9497 324.292 48.2841 323.761 46.884 322.699C45.508 321.636 44.4458 320.14 43.6975 318.209C42.9492 316.253 42.575 313.936 42.575 311.256C42.575 308.577 42.9492 306.271 43.6975 304.34C44.4458 302.385 45.508 300.876 46.884 299.814C48.2841 298.752 49.9497 298.221 51.8809 298.221C53.8121 298.221 55.4777 298.752 56.8778 299.814C58.278 300.876 59.3522 302.385 60.1005 304.34C60.8488 306.271 61.223 308.577 61.223 311.256C61.223 313.936 60.8488 316.253 60.1005 318.209C59.3522 320.14 58.278 321.636 56.8778 322.699C55.4777 323.761 53.8121 324.292 51.8809 324.292ZM51.8809 320.743C53.6431 320.743 55.007 319.922 55.9726 318.281C56.9382 316.615 57.421 314.274 57.421 311.256C57.421 308.239 56.9382 305.909 55.9726 304.268C55.007 302.602 53.6431 301.769 51.8809 301.769C50.1187 301.769 48.7548 302.602 47.7892 304.268C46.8236 305.909 46.3408 308.239 46.3408 311.256C46.3408 314.274 46.8236 316.615 47.7892 318.281C48.7548 319.922 50.1187 320.743 51.8809 320.743Z" fill="#333333"/>
<path d="M30.5706 230.324C29.3153 230.324 28.1445 230.107 27.0583 229.672C25.9961 229.214 25.0667 228.586 24.2701 227.79C23.4976 226.993 22.8821 226.051 22.4234 224.965C21.9889 223.879 21.7716 222.684 21.7716 221.38C21.7716 220.729 21.8561 220.004 22.0251 219.208C22.2182 218.387 22.4958 217.494 22.8579 216.528C23.2442 215.563 23.7028 214.549 24.2339 213.487C24.765 212.4 25.3805 211.278 26.0806 210.119L29.3757 204.543H33.1777L33.3225 204.905L29.3395 211.604C28.6153 212.835 27.9635 214.006 27.3841 215.116C26.8289 216.227 26.3582 217.277 25.972 218.266C25.5857 219.232 25.296 220.113 25.1029 220.91L24.2339 217.18C24.6925 216.432 25.1874 215.78 25.7185 215.225C26.2496 214.645 26.8169 214.163 27.4204 213.776C28.048 213.39 28.6998 213.1 29.3757 212.907C30.0516 212.714 30.7516 212.618 31.4758 212.618C32.876 212.618 34.1554 213.004 35.3141 213.776C36.4969 214.525 37.4384 215.527 38.1384 216.782C38.8626 218.037 39.2247 219.413 39.2247 220.91C39.2247 222.72 38.8506 224.338 38.1022 225.762C37.378 227.162 36.3642 228.272 35.0606 229.093C33.7571 229.914 32.2604 230.324 30.5706 230.324ZM30.5706 226.703C31.5121 226.703 32.3449 226.486 33.0691 226.051C33.8174 225.593 34.3968 224.965 34.8071 224.169C35.2417 223.348 35.4589 222.418 35.4589 221.38C35.4589 220.487 35.2417 219.654 34.8071 218.882C34.3726 218.085 33.7933 217.446 33.0691 216.963C32.3449 216.48 31.5362 216.239 30.643 216.239C29.6533 216.239 28.7722 216.468 27.9997 216.927C27.2272 217.385 26.6237 218.001 26.1892 218.773C25.7547 219.546 25.5374 220.403 25.5374 221.344C25.5374 222.358 25.7547 223.275 26.1892 224.096C26.6237 224.893 27.2152 225.532 27.9635 226.015C28.7118 226.474 29.5809 226.703 30.5706 226.703ZM51.4506 230.686C49.5194 230.686 47.8538 230.155 46.4537 229.093C45.0777 228.031 44.0155 226.534 43.2672 224.603C42.5189 222.648 42.1447 220.33 42.1447 217.651C42.1447 214.971 42.5189 212.666 43.2672 210.735C44.0155 208.779 45.0777 207.271 46.4537 206.209C47.8538 205.146 49.5194 204.615 51.4506 204.615C53.3818 204.615 55.0474 205.146 56.4475 206.209C57.8477 207.271 58.9219 208.779 59.6702 210.735C60.4185 212.666 60.7927 214.971 60.7927 217.651C60.7927 220.33 60.4185 222.648 59.6702 224.603C58.9219 226.534 57.8477 228.031 56.4475 229.093C55.0474 230.155 53.3818 230.686 51.4506 230.686ZM51.4506 227.138C53.2128 227.138 54.5767 226.317 55.5423 224.676C56.5079 223.01 56.9907 220.668 56.9907 217.651C56.9907 214.633 56.5079 212.304 55.5423 210.662C54.5767 208.997 53.2128 208.164 51.4506 208.164C49.6884 208.164 48.3245 208.997 47.3589 210.662C46.3933 212.304 45.9105 214.633 45.9105 217.651C45.9105 220.668 46.3933 223.01 47.3589 224.676C48.3245 226.317 49.6884 227.138 51.4506 227.138Z" fill="#333333"/>
<path d="M30.7879 137.616C29.2188 137.616 27.7824 137.291 26.4789 136.639C25.1995 135.963 24.1735 135.07 23.4011 133.959C22.6286 132.849 22.2424 131.618 22.2424 130.266C22.2424 129.518 22.3389 128.817 22.532 128.166C22.7493 127.49 23.0631 126.874 23.4735 126.319C23.908 125.764 24.427 125.257 25.0305 124.798C25.634 124.34 26.3341 123.929 27.1307 123.567L26.9134 124.327C26.2858 124.086 25.7185 123.796 25.2116 123.458C24.7288 123.096 24.3063 122.686 23.9442 122.227C23.5821 121.769 23.3045 121.274 23.1114 120.743C22.9424 120.212 22.8579 119.656 22.8579 119.077C22.8579 117.798 23.208 116.639 23.908 115.601C24.6322 114.563 25.5857 113.73 26.7686 113.102C27.9756 112.475 29.3153 112.161 30.7879 112.161C32.2604 112.161 33.5881 112.475 34.7709 113.102C35.9779 113.73 36.9314 114.563 37.6315 115.601C38.3557 116.639 38.7178 117.798 38.7178 119.077C38.7178 119.656 38.6212 120.212 38.4281 120.743C38.2591 121.274 38.0057 121.757 37.6677 122.191C37.3297 122.626 36.8952 123.024 36.3642 123.386C35.8572 123.748 35.2779 124.062 34.6261 124.327L34.5175 123.712C35.2417 124.002 35.8934 124.376 36.4728 124.834C37.0763 125.293 37.5953 125.812 38.0298 126.391C38.4643 126.971 38.7902 127.586 39.0075 128.238C39.2489 128.89 39.3696 129.566 39.3696 130.266C39.3696 131.642 38.9833 132.885 38.2109 133.995C37.4384 135.106 36.4004 135.987 35.0968 136.639C33.8174 137.291 32.3811 137.616 30.7879 137.616ZM30.7879 133.995C31.681 133.995 32.4776 133.826 33.1777 133.489C33.9019 133.151 34.4692 132.692 34.8796 132.113C35.2899 131.533 35.4951 130.869 35.4951 130.121C35.4951 129.324 35.2899 128.624 34.8796 128.021C34.4692 127.393 33.9019 126.898 33.1777 126.536C32.4776 126.174 31.681 125.993 30.7879 125.993C29.8947 125.993 29.0981 126.174 28.398 126.536C27.698 126.898 27.1427 127.393 26.7324 128.021C26.322 128.624 26.1168 129.324 26.1168 130.121C26.1168 130.845 26.322 131.497 26.7324 132.076C27.1427 132.656 27.698 133.126 28.398 133.489C29.0981 133.826 29.8947 133.995 30.7879 133.995ZM30.7879 122.517C31.5603 122.517 32.2483 122.372 32.8518 122.082C33.4794 121.793 33.9622 121.407 34.3002 120.924C34.6623 120.417 34.8433 119.837 34.8433 119.186C34.8433 118.534 34.6623 117.955 34.3002 117.448C33.9622 116.941 33.4794 116.542 32.8518 116.253C32.2483 115.939 31.5603 115.782 30.7879 115.782C30.0154 115.782 29.3153 115.939 28.6877 116.253C28.0842 116.542 27.6014 116.941 27.2393 117.448C26.9013 117.955 26.7324 118.534 26.7324 119.186C26.7324 119.837 26.9013 120.417 27.2393 120.924C27.6014 121.407 28.0842 121.793 28.6877 122.082C29.3153 122.372 30.0154 122.517 30.7879 122.517ZM52.2639 137.87C50.3327 137.87 48.6671 137.339 47.267 136.277C45.891 135.215 44.8288 133.718 44.0805 131.787C43.3322 129.831 42.958 127.514 42.958 124.834C42.958 122.155 43.3322 119.85 44.0805 117.918C44.8288 115.963 45.891 114.454 47.267 113.392C48.6671 112.33 50.3327 111.799 52.2639 111.799C54.1951 111.799 55.8607 112.33 57.2608 113.392C58.661 114.454 59.7352 115.963 60.4835 117.918C61.2318 119.85 61.606 122.155 61.606 124.834C61.606 127.514 61.2318 129.831 60.4835 131.787C59.7352 133.718 58.661 135.215 57.2608 136.277C55.8607 137.339 54.1951 137.87 52.2639 137.87ZM52.2639 134.321C54.0261 134.321 55.39 133.501 56.3556 131.859C57.3212 130.193 57.804 127.852 57.804 124.834C57.804 121.817 57.3212 119.487 56.3556 117.846C55.39 116.18 54.0261 115.347 52.2639 115.347C50.5017 115.347 49.1378 116.18 48.1722 117.846C47.2066 119.487 46.7238 121.817 46.7238 124.834C46.7238 127.852 47.2066 130.193 48.1722 131.859C49.1378 133.501 50.5017 134.321 52.2639 134.321Z" fill="#333333"/>
<path d="M8.5538 42.1398V21.5727L9.89356 22.5865L4.89662 25.2298L3.84654 21.8261L10.6178 18.2052H12.5007V42.1398H8.5538ZM4.53452 43.9141V40.1483H16.6286V43.9141H4.53452ZM29.7727 44.2762C27.8415 44.2762 26.1759 43.7451 24.7758 42.6829C23.3998 41.6208 22.3376 40.1241 21.5893 38.1929C20.841 36.2376 20.4668 33.9202 20.4668 31.2407C20.4668 28.5611 20.841 26.2558 21.5893 24.3246C22.3376 22.3693 23.3998 20.8605 24.7758 19.7984C26.1759 18.7362 27.8415 18.2052 29.7727 18.2052C31.7039 18.2052 33.3695 18.7362 34.7696 19.7984C36.1698 20.8605 37.244 22.3693 37.9923 24.3246C38.7406 26.2558 39.1148 28.5611 39.1148 31.2407C39.1148 33.9202 38.7406 36.2376 37.9923 38.1929C37.244 40.1241 36.1698 41.6208 34.7696 42.6829C33.3695 43.7451 31.7039 44.2762 29.7727 44.2762ZM29.7727 40.7276C31.5349 40.7276 32.8988 39.9069 33.8644 38.2653C34.83 36.5997 35.3128 34.2581 35.3128 31.2407C35.3128 28.2232 34.83 25.8937 33.8644 24.2522C32.8988 22.5865 31.5349 21.7537 29.7727 21.7537C28.0105 21.7537 26.6466 22.5865 25.681 24.2522C24.7154 25.8937 24.2326 28.2232 24.2326 31.2407C24.2326 34.2581 24.7154 36.5997 25.681 38.2653C26.6466 39.9069 28.0105 40.7276 29.7727 40.7276ZM51.7673 44.2762C49.8361 44.2762 48.1705 43.7451 46.7703 42.6829C45.3944 41.6208 44.3322 40.1241 43.5839 38.1929C42.8356 36.2376 42.4614 33.9202 42.4614 31.2407C42.4614 28.5611 42.8356 26.2558 43.5839 24.3246C44.3322 22.3693 45.3944 20.8605 46.7703 19.7984C48.1705 18.7362 49.8361 18.2052 51.7673 18.2052C53.6985 18.2052 55.3641 18.7362 56.7642 19.7984C58.1643 20.8605 59.2386 22.3693 59.9869 24.3246C60.7352 26.2558 61.1094 28.5611 61.1094 31.2407C61.1094 33.9202 60.7352 36.2376 59.9869 38.1929C59.2386 40.1241 58.1643 41.6208 56.7642 42.6829C55.3641 43.7451 53.6985 44.2762 51.7673 44.2762ZM51.7673 40.7276C53.5295 40.7276 54.8934 39.9069 55.859 38.2653C56.8246 36.5997 57.3074 34.2581 57.3074 31.2407C57.3074 28.2232 56.8246 25.8937 55.859 24.2522C54.8934 22.5865 53.5295 21.7537 51.7673 21.7537C50.0051 21.7537 48.6412 22.5865 47.6756 24.2522C46.71 25.8937 46.2272 28.2232 46.2272 31.2407C46.2272 34.2581 46.71 36.5997 47.6756 38.2653C48.6412 39.9069 50.0051 40.7276 51.7673 40.7276Z" fill="#333333"/>
<path d="M328.815 632.139V1.80859" stroke="white" stroke-width="2.3075" stroke-miterlimit="10" stroke-linecap="round" stroke-linejoin="round"/>
<path d="M52.8027 628.012H1318.3" stroke="white" stroke-width="2.3075" stroke-miterlimit="10" stroke-linecap="round" stroke-linejoin="round"/>
<path d="M584.905 632.139V1.80859" stroke="white" stroke-width="2.3075" stroke-miterlimit="10" stroke-linecap="round" stroke-linejoin="round"/>
<path d="M841.933 632.139V1.80859" stroke="white" stroke-width="2.3075" stroke-miterlimit="10" stroke-linecap="round" stroke-linejoin="round"/>
<path d="M1092.94 632.139V1.80859" stroke="white" stroke-width="2.3075" stroke-miterlimit="10" stroke-linecap="round" stroke-linejoin="round"/>
<path d="M123.169 579.508C122.175 579.508 121.25 579.377 120.395 579.115C119.558 578.854 118.79 578.461 118.093 577.938C117.412 577.397 116.801 576.734 116.261 575.949L118.197 573.724C119.052 574.946 119.872 575.792 120.657 576.263C121.442 576.734 122.376 576.969 123.457 576.969C124.12 576.969 124.722 576.865 125.263 576.655C125.804 576.446 126.231 576.158 126.545 575.792C126.859 575.425 127.016 575.007 127.016 574.536C127.016 574.221 126.964 573.925 126.859 573.646C126.755 573.367 126.589 573.114 126.362 572.887C126.153 572.66 125.874 572.451 125.525 572.259C125.193 572.067 124.801 571.901 124.347 571.762C123.894 571.604 123.37 571.474 122.777 571.369C121.835 571.177 121.015 570.924 120.317 570.61C119.619 570.296 119.035 569.903 118.564 569.432C118.093 568.961 117.744 568.429 117.517 567.836C117.29 567.225 117.177 566.545 117.177 565.795C117.177 565.062 117.334 564.382 117.648 563.754C117.979 563.125 118.424 562.585 118.982 562.131C119.558 561.66 120.23 561.302 120.997 561.058C121.765 560.796 122.594 560.665 123.484 560.665C124.426 560.665 125.289 560.788 126.074 561.032C126.859 561.276 127.557 561.642 128.168 562.131C128.779 562.602 129.285 563.187 129.686 563.884L127.697 565.847C127.348 565.271 126.955 564.792 126.519 564.408C126.083 564.007 125.603 563.71 125.08 563.518C124.556 563.309 123.998 563.204 123.405 563.204C122.725 563.204 122.131 563.309 121.625 563.518C121.12 563.727 120.718 564.024 120.422 564.408C120.143 564.774 120.003 565.21 120.003 565.716C120.003 566.083 120.073 566.423 120.212 566.737C120.352 567.033 120.561 567.304 120.84 567.548C121.137 567.775 121.53 567.984 122.018 568.176C122.507 568.351 123.091 568.508 123.771 568.647C124.731 568.857 125.586 569.127 126.336 569.459C127.086 569.773 127.723 570.148 128.246 570.584C128.77 571.02 129.162 571.509 129.424 572.049C129.703 572.59 129.843 573.175 129.843 573.803C129.843 574.972 129.572 575.984 129.032 576.838C128.491 577.693 127.723 578.356 126.729 578.827C125.734 579.281 124.548 579.508 123.169 579.508ZM137.982 579.508C137.005 579.508 136.15 579.281 135.418 578.827C134.702 578.374 134.144 577.737 133.743 576.917C133.359 576.097 133.167 575.12 133.167 573.986V565.507H135.862V573.253C135.862 574.056 135.985 574.754 136.229 575.347C136.491 575.923 136.857 576.367 137.328 576.681C137.817 576.995 138.401 577.153 139.081 577.153C139.587 577.153 140.05 577.074 140.468 576.917C140.887 576.743 141.245 576.507 141.541 576.21C141.855 575.914 142.1 575.556 142.274 575.137C142.449 574.719 142.536 574.265 142.536 573.777V565.507H145.231V579.246H142.536V576.367L143.007 576.053C142.798 576.699 142.44 577.283 141.934 577.807C141.445 578.33 140.861 578.749 140.181 579.063C139.5 579.359 138.767 579.508 137.982 579.508ZM149.012 579.246V565.507H151.734V569.825L151.472 568.778C151.664 568.115 151.987 567.513 152.44 566.972C152.911 566.432 153.443 566.004 154.037 565.69C154.647 565.376 155.275 565.219 155.921 565.219C156.217 565.219 156.497 565.245 156.758 565.298C157.037 565.35 157.256 565.411 157.413 565.481L156.706 568.412C156.497 568.325 156.261 568.255 155.999 568.202C155.755 568.133 155.511 568.098 155.267 568.098C154.796 568.098 154.342 568.194 153.906 568.386C153.487 568.56 153.112 568.813 152.781 569.145C152.466 569.459 152.213 569.834 152.022 570.27C151.83 570.689 151.734 571.151 151.734 571.657V579.246H149.012ZM161.059 579.246V563.963C161.059 563.178 161.233 562.48 161.582 561.869C161.931 561.259 162.411 560.779 163.021 560.43C163.632 560.081 164.339 559.907 165.141 559.907C165.699 559.907 166.223 560.011 166.711 560.221C167.2 560.43 167.592 560.709 167.889 561.058L166.973 563.125C166.746 562.916 166.493 562.75 166.214 562.628C165.952 562.489 165.699 562.419 165.455 562.419C165.089 562.419 164.775 562.48 164.513 562.602C164.269 562.707 164.086 562.881 163.963 563.125C163.841 563.352 163.78 563.631 163.78 563.963V579.246H162.419C162.193 579.246 161.966 579.246 161.739 579.246C161.512 579.246 161.285 579.246 161.059 579.246ZM158.86 568.229V565.742H167.025V568.229H158.86ZM174.616 579.508C173.482 579.508 172.444 579.194 171.502 578.566C170.577 577.938 169.835 577.083 169.277 576.001C168.719 574.919 168.44 573.698 168.44 572.337C168.44 570.959 168.719 569.738 169.277 568.673C169.853 567.592 170.621 566.746 171.58 566.135C172.557 565.524 173.648 565.219 174.851 565.219C175.567 565.219 176.221 565.324 176.814 565.533C177.407 565.742 177.922 566.039 178.358 566.423C178.812 566.789 179.178 567.217 179.457 567.705C179.754 568.194 179.937 568.717 180.007 569.275L179.405 569.066V565.507H182.127V579.246H179.405V575.975L180.033 575.792C179.928 576.263 179.71 576.725 179.379 577.179C179.065 577.615 178.655 578.007 178.149 578.356C177.66 578.705 177.111 578.984 176.5 579.194C175.907 579.403 175.279 579.508 174.616 579.508ZM175.322 577.022C176.142 577.022 176.866 576.821 177.494 576.42C178.123 576.018 178.611 575.469 178.96 574.771C179.326 574.056 179.51 573.244 179.51 572.337C179.51 571.447 179.326 570.654 178.96 569.956C178.611 569.258 178.123 568.708 177.494 568.307C176.866 567.906 176.142 567.705 175.322 567.705C174.52 567.705 173.805 567.906 173.176 568.307C172.566 568.708 172.077 569.258 171.711 569.956C171.362 570.654 171.188 571.447 171.188 572.337C171.188 573.244 171.362 574.056 171.711 574.771C172.077 575.469 172.566 576.018 173.176 576.42C173.805 576.821 174.52 577.022 175.322 577.022ZM191.726 579.508C190.452 579.508 189.31 579.194 188.298 578.566C187.303 577.938 186.509 577.083 185.916 576.001C185.341 574.919 185.053 573.707 185.053 572.363C185.053 571.02 185.341 569.807 185.916 568.726C186.509 567.644 187.303 566.789 188.298 566.161C189.31 565.533 190.452 565.219 191.726 565.219C192.947 565.219 194.055 565.472 195.05 565.978C196.061 566.466 196.829 567.138 197.353 567.993L195.861 569.825C195.582 569.424 195.224 569.057 194.788 568.726C194.352 568.394 193.889 568.133 193.401 567.941C192.912 567.749 192.441 567.653 191.988 567.653C191.15 567.653 190.4 567.862 189.737 568.281C189.092 568.682 188.577 569.24 188.193 569.956C187.809 570.671 187.617 571.474 187.617 572.363C187.617 573.253 187.818 574.056 188.219 574.771C188.62 575.469 189.153 576.027 189.816 576.446C190.479 576.865 191.211 577.074 192.014 577.074C192.485 577.074 192.939 576.995 193.375 576.838C193.828 576.681 194.264 576.446 194.683 576.132C195.102 575.818 195.494 575.434 195.861 574.98L197.353 576.812C196.794 577.597 195.992 578.243 194.945 578.749C193.916 579.255 192.843 579.508 191.726 579.508ZM206.307 579.508C204.894 579.508 203.637 579.211 202.538 578.618C201.457 578.007 200.602 577.179 199.974 576.132C199.363 575.085 199.058 573.881 199.058 572.52C199.058 571.439 199.232 570.453 199.581 569.563C199.93 568.673 200.41 567.906 201.02 567.26C201.648 566.597 202.39 566.091 203.245 565.742C204.117 565.376 205.059 565.193 206.071 565.193C206.961 565.193 207.79 565.367 208.557 565.716C209.325 566.048 209.988 566.51 210.546 567.103C211.122 567.696 211.558 568.403 211.855 569.223C212.169 570.026 212.317 570.907 212.3 571.866L212.273 573.018H201.047L200.445 570.872H209.944L209.552 571.317V570.689C209.499 570.113 209.307 569.598 208.976 569.145C208.645 568.691 208.226 568.333 207.72 568.072C207.214 567.81 206.664 567.679 206.071 567.679C205.129 567.679 204.335 567.862 203.69 568.229C203.044 568.578 202.556 569.101 202.224 569.799C201.893 570.479 201.727 571.325 201.727 572.337C201.727 573.297 201.928 574.134 202.329 574.85C202.73 575.547 203.297 576.088 204.03 576.472C204.763 576.856 205.609 577.048 206.568 577.048C207.249 577.048 207.877 576.934 208.453 576.708C209.046 576.481 209.683 576.071 210.363 575.478L211.724 577.388C211.305 577.807 210.79 578.173 210.18 578.487C209.587 578.801 208.95 579.054 208.269 579.246C207.606 579.421 206.952 579.508 206.307 579.508ZM223.244 579.246V560.927H230.703C231.697 560.927 232.595 561.18 233.398 561.686C234.218 562.175 234.872 562.846 235.361 563.701C235.849 564.556 236.094 565.507 236.094 566.554C236.094 567.6 235.849 568.551 235.361 569.406C234.872 570.261 234.218 570.95 233.398 571.474C232.595 571.98 231.697 572.233 230.703 572.233H226.07V579.246H223.244ZM226.07 569.511H230.65C231.121 569.511 231.549 569.38 231.933 569.118C232.316 568.839 232.622 568.482 232.848 568.045C233.093 567.592 233.215 567.095 233.215 566.554C233.215 566.013 233.093 565.524 232.848 565.088C232.622 564.652 232.316 564.303 231.933 564.041C231.549 563.78 231.121 563.649 230.65 563.649H226.07V569.511ZM239.15 579.246V565.507H241.872V569.825L241.61 568.778C241.802 568.115 242.125 567.513 242.578 566.972C243.049 566.432 243.581 566.004 244.175 565.69C244.785 565.376 245.413 565.219 246.059 565.219C246.355 565.219 246.634 565.245 246.896 565.298C247.175 565.35 247.393 565.411 247.55 565.481L246.844 568.412C246.634 568.325 246.399 568.255 246.137 568.202C245.893 568.133 245.649 568.098 245.404 568.098C244.933 568.098 244.48 568.194 244.044 568.386C243.625 568.56 243.25 568.813 242.918 569.145C242.604 569.459 242.351 569.834 242.159 570.27C241.968 570.689 241.872 571.151 241.872 571.657V579.246H239.15ZM255.529 579.508C254.115 579.508 252.859 579.211 251.76 578.618C250.678 578.007 249.824 577.179 249.195 576.132C248.585 575.085 248.279 573.881 248.279 572.52C248.279 571.439 248.454 570.453 248.803 569.563C249.152 568.673 249.632 567.906 250.242 567.26C250.87 566.597 251.612 566.091 252.467 565.742C253.339 565.376 254.281 565.193 255.293 565.193C256.183 565.193 257.012 565.367 257.779 565.716C258.547 566.048 259.21 566.51 259.768 567.103C260.344 567.696 260.78 568.403 261.077 569.223C261.391 570.026 261.539 570.907 261.521 571.866L261.495 573.018H250.268L249.666 570.872H259.166L258.774 571.317V570.689C258.721 570.113 258.529 569.598 258.198 569.145C257.866 568.691 257.448 568.333 256.942 568.072C256.436 567.81 255.886 567.679 255.293 567.679C254.351 567.679 253.557 567.862 252.912 568.229C252.266 568.578 251.778 569.101 251.446 569.799C251.115 570.479 250.949 571.325 250.949 572.337C250.949 573.297 251.149 574.134 251.551 574.85C251.952 575.547 252.519 576.088 253.252 576.472C253.985 576.856 254.831 577.048 255.79 577.048C256.471 577.048 257.099 576.934 257.674 576.708C258.268 576.481 258.904 576.071 259.585 575.478L260.946 577.388C260.527 577.807 260.012 578.173 259.402 578.487C258.809 578.801 258.172 579.054 257.491 579.246C256.828 579.421 256.174 579.508 255.529 579.508ZM264.451 585.003V565.507H267.173V568.647L266.754 568.412C266.858 567.888 267.155 567.391 267.644 566.92C268.132 566.432 268.725 566.039 269.423 565.742C270.138 565.428 270.871 565.271 271.621 565.271C272.86 565.271 273.959 565.577 274.919 566.187C275.878 566.798 276.637 567.635 277.196 568.7C277.754 569.764 278.033 570.985 278.033 572.363C278.033 573.724 277.754 574.946 277.196 576.027C276.655 577.091 275.905 577.938 274.945 578.566C273.985 579.176 272.904 579.482 271.7 579.482C270.897 579.482 270.121 579.325 269.371 579.011C268.621 578.679 267.984 578.26 267.46 577.754C266.937 577.248 266.614 576.725 266.492 576.184L267.173 575.818V585.003H264.451ZM271.255 576.995C272.058 576.995 272.773 576.795 273.401 576.394C274.029 575.992 274.526 575.443 274.893 574.745C275.259 574.047 275.442 573.253 275.442 572.363C275.442 571.474 275.259 570.689 274.893 570.008C274.544 569.31 274.055 568.761 273.427 568.359C272.799 567.958 272.075 567.758 271.255 567.758C270.435 567.758 269.711 567.958 269.083 568.359C268.455 568.743 267.958 569.284 267.591 569.982C267.225 570.68 267.042 571.474 267.042 572.363C267.042 573.253 267.225 574.047 267.591 574.745C267.958 575.443 268.455 575.992 269.083 576.394C269.711 576.795 270.435 576.995 271.255 576.995Z" fill="#333333"/>
<path d="M387.236 579.246L394.328 560.927H397.207L404.247 579.246H401.237L397.05 568.202C396.998 568.08 396.893 567.784 396.736 567.313C396.596 566.842 396.431 566.318 396.239 565.742C396.047 565.167 395.872 564.643 395.715 564.172C395.558 563.684 395.454 563.37 395.401 563.23L396.003 563.204C395.899 563.501 395.768 563.876 395.611 564.329C395.471 564.783 395.314 565.263 395.14 565.769C394.983 566.275 394.826 566.754 394.669 567.208C394.512 567.644 394.381 568.01 394.276 568.307L390.115 579.246H387.236ZM390.377 574.693L391.423 571.971H399.745L400.949 574.693H390.377ZM406.79 579.246V565.507H409.486V568.333L409.015 568.647C409.189 568.037 409.529 567.478 410.035 566.972C410.541 566.449 411.143 566.03 411.841 565.716C412.539 565.385 413.254 565.219 413.987 565.219C415.034 565.219 415.906 565.428 416.604 565.847C417.302 566.248 417.825 566.868 418.174 567.705C418.523 568.543 418.698 569.598 418.698 570.872V579.246H416.002V571.055C416.002 570.27 415.897 569.624 415.688 569.118C415.479 568.595 415.156 568.22 414.72 567.993C414.284 567.749 413.743 567.644 413.097 567.679C412.574 567.679 412.094 567.766 411.658 567.941C411.222 568.098 410.838 568.325 410.506 568.621C410.192 568.918 409.939 569.267 409.747 569.668C409.573 570.052 409.486 570.47 409.486 570.924V579.246H408.151C407.924 579.246 407.698 579.246 407.471 579.246C407.244 579.246 407.017 579.246 406.79 579.246ZM428.53 579.508C427.187 579.508 425.983 579.202 424.919 578.592C423.872 577.964 423.043 577.118 422.433 576.053C421.822 574.972 421.517 573.742 421.517 572.363C421.517 570.985 421.822 569.764 422.433 568.7C423.043 567.618 423.872 566.772 424.919 566.161C425.983 565.533 427.187 565.219 428.53 565.219C429.856 565.219 431.043 565.533 432.089 566.161C433.154 566.772 433.991 567.618 434.602 568.7C435.212 569.764 435.518 570.985 435.518 572.363C435.518 573.742 435.212 574.972 434.602 576.053C433.991 577.118 433.154 577.964 432.089 578.592C431.043 579.202 429.856 579.508 428.53 579.508ZM428.53 577.048C429.35 577.048 430.083 576.847 430.729 576.446C431.374 576.027 431.88 575.469 432.246 574.771C432.613 574.056 432.787 573.253 432.77 572.363C432.787 571.456 432.613 570.654 432.246 569.956C431.88 569.24 431.374 568.682 430.729 568.281C430.083 567.88 429.35 567.679 428.53 567.679C427.71 567.679 426.969 567.888 426.306 568.307C425.66 568.708 425.154 569.267 424.788 569.982C424.422 570.68 424.247 571.474 424.265 572.363C424.247 573.253 424.422 574.056 424.788 574.771C425.154 575.469 425.66 576.027 426.306 576.446C426.969 576.847 427.71 577.048 428.53 577.048ZM444.186 579.508C442.93 579.508 441.805 579.202 440.81 578.592C439.833 577.964 439.057 577.118 438.481 576.053C437.905 574.972 437.617 573.742 437.617 572.363C437.617 570.985 437.897 569.764 438.455 568.7C439.031 567.618 439.807 566.772 440.784 566.161C441.761 565.533 442.869 565.219 444.108 565.219C444.788 565.219 445.442 565.332 446.07 565.559C446.716 565.769 447.292 566.065 447.797 566.449C448.303 566.815 448.696 567.225 448.975 567.679C449.272 568.115 449.42 568.56 449.42 569.014L448.635 569.066V559.88H451.33V579.246H448.635V575.975H449.158C449.158 576.394 449.019 576.812 448.74 577.231C448.46 577.632 448.085 578.007 447.614 578.356C447.161 578.705 446.629 578.984 446.018 579.194C445.425 579.403 444.814 579.508 444.186 579.508ZM444.552 577.179C445.372 577.179 446.096 576.969 446.724 576.551C447.353 576.132 447.841 575.565 448.19 574.85C448.556 574.117 448.74 573.288 448.74 572.363C448.74 571.439 448.556 570.619 448.19 569.903C447.841 569.171 447.353 568.595 446.724 568.176C446.096 567.758 445.372 567.548 444.552 567.548C443.732 567.548 443.008 567.758 442.38 568.176C441.752 568.595 441.255 569.171 440.889 569.903C440.54 570.619 440.365 571.439 440.365 572.363C440.365 573.288 440.54 574.117 440.889 574.85C441.255 575.565 441.752 576.132 442.38 576.551C443.008 576.969 443.732 577.179 444.552 577.179ZM455.486 579.246V565.507H458.181V579.246H455.486ZM456.794 562.471C456.219 562.471 455.774 562.323 455.46 562.026C455.146 561.73 454.989 561.311 454.989 560.77C454.989 560.264 455.146 559.854 455.46 559.54C455.791 559.226 456.236 559.069 456.794 559.069C457.37 559.069 457.815 559.217 458.129 559.514C458.443 559.811 458.6 560.229 458.6 560.77C458.6 561.276 458.434 561.686 458.103 562C457.789 562.314 457.353 562.471 456.794 562.471ZM461.749 579.246V576.995L468.841 567.522V567.836H461.749V565.507H471.772V567.705L464.785 577.048L464.68 576.917H471.929V579.246H461.749ZM475.446 579.246V565.507H478.141V579.246H475.446ZM476.754 562.471C476.178 562.471 475.733 562.323 475.419 562.026C475.105 561.73 474.948 561.311 474.948 560.77C474.948 560.264 475.105 559.854 475.419 559.54C475.751 559.226 476.196 559.069 476.754 559.069C477.33 559.069 477.775 559.217 478.089 559.514C478.403 559.811 478.56 560.229 478.56 560.77C478.56 561.276 478.394 561.686 478.063 562C477.748 562.314 477.312 562.471 476.754 562.471ZM482.284 579.246V565.507H484.98V568.333L484.509 568.647C484.683 568.037 485.023 567.478 485.529 566.972C486.035 566.449 486.637 566.03 487.335 565.716C488.033 565.385 488.748 565.219 489.481 565.219C490.528 565.219 491.4 565.428 492.098 565.847C492.796 566.248 493.319 566.868 493.668 567.705C494.017 568.543 494.192 569.598 494.192 570.872V579.246H491.496V571.055C491.496 570.27 491.391 569.624 491.182 569.118C490.973 568.595 490.65 568.22 490.214 567.993C489.778 567.749 489.237 567.644 488.591 567.679C488.068 567.679 487.588 567.766 487.152 567.941C486.716 568.098 486.332 568.325 486 568.621C485.686 568.918 485.433 569.267 485.241 569.668C485.067 570.052 484.98 570.47 484.98 570.924V579.246H483.645C483.418 579.246 483.191 579.246 482.965 579.246C482.738 579.246 482.511 579.246 482.284 579.246ZM503.998 585.265C503.021 585.265 502.044 585.108 501.067 584.794C500.107 584.498 499.331 584.105 498.738 583.616L499.732 581.523C500.081 581.785 500.491 582.011 500.962 582.203C501.433 582.413 501.931 582.57 502.454 582.674C502.977 582.796 503.492 582.858 503.998 582.858C504.958 582.858 505.76 582.701 506.406 582.386C507.051 582.072 507.54 581.61 507.871 580.999C508.203 580.389 508.368 579.63 508.368 578.723V576.08L508.656 576.263C508.569 576.804 508.281 577.327 507.793 577.833C507.322 578.321 506.728 578.723 506.013 579.037C505.298 579.351 504.565 579.508 503.815 579.508C502.506 579.508 501.337 579.202 500.308 578.592C499.296 577.964 498.494 577.118 497.901 576.053C497.307 574.972 497.011 573.742 497.011 572.363C497.011 570.985 497.299 569.764 497.874 568.7C498.468 567.618 499.27 566.772 500.282 566.161C501.311 565.533 502.463 565.219 503.736 565.219C504.26 565.219 504.766 565.289 505.254 565.428C505.743 565.551 506.196 565.734 506.615 565.978C507.034 566.205 507.409 566.458 507.74 566.737C508.072 567.016 508.342 567.313 508.552 567.627C508.761 567.941 508.892 568.237 508.944 568.516L508.368 568.726V565.507H511.064V578.409C511.064 579.508 510.898 580.476 510.567 581.314C510.253 582.168 509.79 582.884 509.18 583.459C508.569 584.053 507.828 584.498 506.955 584.794C506.083 585.108 505.097 585.265 503.998 585.265ZM504.103 577.022C504.958 577.022 505.717 576.821 506.38 576.42C507.043 576.018 507.557 575.469 507.924 574.771C508.29 574.073 508.473 573.271 508.473 572.363C508.473 571.456 508.281 570.654 507.897 569.956C507.531 569.24 507.016 568.682 506.353 568.281C505.708 567.88 504.958 567.679 504.103 567.679C503.265 567.679 502.515 567.888 501.852 568.307C501.207 568.708 500.692 569.267 500.308 569.982C499.942 570.68 499.759 571.474 499.759 572.363C499.759 573.253 499.942 574.056 500.308 574.771C500.692 575.469 501.207 576.018 501.852 576.42C502.515 576.821 503.265 577.022 504.103 577.022Z" fill="#333333"/>
<path d="M667.623 579.508C666.349 579.508 665.18 579.281 664.116 578.827C663.052 578.374 662.127 577.728 661.342 576.891C660.557 576.036 659.946 575.033 659.51 573.881C659.091 572.73 658.882 571.465 658.882 570.087C658.882 568.778 659.109 567.566 659.563 566.449C660.034 565.315 660.679 564.321 661.499 563.466C662.319 562.611 663.27 561.948 664.352 561.477C665.433 561.006 666.602 560.77 667.858 560.77C668.748 560.77 669.612 560.91 670.449 561.189C671.304 561.451 672.072 561.826 672.752 562.314C673.45 562.785 674.017 563.326 674.453 563.937L672.569 565.899C672.063 565.394 671.548 564.975 671.025 564.643C670.519 564.294 669.996 564.033 669.455 563.858C668.931 563.684 668.399 563.597 667.858 563.597C667.004 563.597 666.201 563.762 665.451 564.094C664.718 564.408 664.072 564.853 663.514 565.428C662.973 566.004 662.546 566.693 662.232 567.496C661.918 568.281 661.761 569.145 661.761 570.087C661.761 571.081 661.909 571.988 662.206 572.808C662.52 573.611 662.956 574.3 663.514 574.876C664.072 575.451 664.735 575.896 665.503 576.21C666.288 576.507 667.152 576.655 668.094 576.655C668.67 576.655 669.237 576.577 669.795 576.42C670.353 576.263 670.877 576.036 671.365 575.739C671.854 575.443 672.299 575.094 672.7 574.693L674.113 576.995C673.712 577.467 673.162 577.894 672.464 578.278C671.784 578.662 671.016 578.967 670.161 579.194C669.324 579.403 668.478 579.508 667.623 579.508ZM683.448 579.508C682.105 579.508 680.901 579.202 679.837 578.592C678.79 577.964 677.961 577.118 677.35 576.053C676.74 574.972 676.435 573.742 676.435 572.363C676.435 570.985 676.74 569.764 677.35 568.7C677.961 567.618 678.79 566.772 679.837 566.161C680.901 565.533 682.105 565.219 683.448 565.219C684.774 565.219 685.96 565.533 687.007 566.161C688.071 566.772 688.909 567.618 689.519 568.7C690.13 569.764 690.435 570.985 690.435 572.363C690.435 573.742 690.13 574.972 689.519 576.053C688.909 577.118 688.071 577.964 687.007 578.592C685.96 579.202 684.774 579.508 683.448 579.508ZM683.448 577.048C684.268 577.048 685.001 576.847 685.646 576.446C686.292 576.027 686.798 575.469 687.164 574.771C687.531 574.056 687.705 573.253 687.688 572.363C687.705 571.456 687.531 570.654 687.164 569.956C686.798 569.24 686.292 568.682 685.646 568.281C685.001 567.88 684.268 567.679 683.448 567.679C682.628 567.679 681.887 567.888 681.224 568.307C680.578 568.708 680.072 569.267 679.706 569.982C679.339 570.68 679.165 571.474 679.182 572.363C679.165 573.253 679.339 574.056 679.706 574.771C680.072 575.469 680.578 576.027 681.224 576.446C681.887 576.847 682.628 577.048 683.448 577.048ZM693.425 579.246V559.88H696.12V579.246H693.425ZM705.861 579.508C704.518 579.508 703.314 579.202 702.25 578.592C701.203 577.964 700.374 577.118 699.764 576.053C699.153 574.972 698.848 573.742 698.848 572.363C698.848 570.985 699.153 569.764 699.764 568.7C700.374 567.618 701.203 566.772 702.25 566.161C703.314 565.533 704.518 565.219 705.861 565.219C707.187 565.219 708.373 565.533 709.42 566.161C710.484 566.772 711.322 567.618 711.933 568.7C712.543 569.764 712.849 570.985 712.849 572.363C712.849 573.742 712.543 574.972 711.933 576.053C711.322 577.118 710.484 577.964 709.42 578.592C708.373 579.202 707.187 579.508 705.861 579.508ZM705.861 577.048C706.681 577.048 707.414 576.847 708.059 576.446C708.705 576.027 709.211 575.469 709.577 574.771C709.944 574.056 710.118 573.253 710.101 572.363C710.118 571.456 709.944 570.654 709.577 569.956C709.211 569.24 708.705 568.682 708.059 568.281C707.414 567.88 706.681 567.679 705.861 567.679C705.041 567.679 704.3 567.888 703.637 568.307C702.991 568.708 702.485 569.267 702.119 569.982C701.752 570.68 701.578 571.474 701.595 572.363C701.578 573.253 701.752 574.056 702.119 574.771C702.485 575.469 702.991 576.027 703.637 576.446C704.3 576.847 705.041 577.048 705.861 577.048ZM715.786 579.246V565.507H718.507V569.825L718.246 568.778C718.438 568.115 718.76 567.513 719.214 566.972C719.685 566.432 720.217 566.004 720.81 565.69C721.421 565.376 722.049 565.219 722.695 565.219C722.991 565.219 723.27 565.245 723.532 565.298C723.811 565.35 724.029 565.411 724.186 565.481L723.48 568.412C723.27 568.325 723.035 568.255 722.773 568.202C722.529 568.133 722.285 568.098 722.04 568.098C721.569 568.098 721.116 568.194 720.679 568.386C720.261 568.56 719.886 568.813 719.554 569.145C719.24 569.459 718.987 569.834 718.795 570.27C718.603 570.689 718.507 571.151 718.507 571.657V579.246H715.786ZM726.785 579.246V565.507H729.481V579.246H726.785ZM728.094 562.471C727.518 562.471 727.073 562.323 726.759 562.026C726.445 561.73 726.288 561.311 726.288 560.77C726.288 560.264 726.445 559.854 726.759 559.54C727.091 559.226 727.536 559.069 728.094 559.069C728.67 559.069 729.115 559.217 729.429 559.514C729.743 559.811 729.9 560.229 729.9 560.77C729.9 561.276 729.734 561.686 729.402 562C729.088 562.314 728.652 562.471 728.094 562.471ZM733.624 579.246V565.507H736.32V568.333L735.849 568.647C736.023 568.037 736.363 567.478 736.869 566.972C737.375 566.449 737.977 566.03 738.675 565.716C739.373 565.385 740.088 565.219 740.821 565.219C741.868 565.219 742.74 565.428 743.438 565.847C744.136 566.248 744.659 566.868 745.008 567.705C745.357 568.543 745.531 569.598 745.531 570.872V579.246H742.836V571.055C742.836 570.27 742.731 569.624 742.522 569.118C742.313 568.595 741.99 568.22 741.554 567.993C741.117 567.749 740.577 567.644 739.931 567.679C739.408 567.679 738.928 567.766 738.492 567.941C738.056 568.098 737.672 568.325 737.34 568.621C737.026 568.918 736.773 569.267 736.581 569.668C736.407 570.052 736.32 570.47 736.32 570.924V579.246H734.985C734.758 579.246 734.531 579.246 734.305 579.246C734.078 579.246 733.851 579.246 733.624 579.246ZM755.338 585.265C754.361 585.265 753.384 585.108 752.407 584.794C751.447 584.498 750.671 584.105 750.078 583.616L751.072 581.523C751.421 581.785 751.831 582.011 752.302 582.203C752.773 582.413 753.271 582.57 753.794 582.674C754.317 582.796 754.832 582.858 755.338 582.858C756.298 582.858 757.1 582.701 757.746 582.386C758.391 582.072 758.88 581.61 759.211 580.999C759.543 580.389 759.708 579.63 759.708 578.723V576.08L759.996 576.263C759.909 576.804 759.621 577.327 759.133 577.833C758.662 578.321 758.068 578.723 757.353 579.037C756.638 579.351 755.905 579.508 755.155 579.508C753.846 579.508 752.677 579.202 751.648 578.592C750.636 577.964 749.834 577.118 749.24 576.053C748.647 574.972 748.351 573.742 748.351 572.363C748.351 570.985 748.638 569.764 749.214 568.7C749.807 567.618 750.61 566.772 751.622 566.161C752.651 565.533 753.803 565.219 755.076 565.219C755.6 565.219 756.106 565.289 756.594 565.428C757.083 565.551 757.536 565.734 757.955 565.978C758.374 566.205 758.749 566.458 759.08 566.737C759.412 567.016 759.682 567.313 759.892 567.627C760.101 567.941 760.232 568.237 760.284 568.516L759.708 568.726V565.507H762.404V578.409C762.404 579.508 762.238 580.476 761.907 581.314C761.593 582.168 761.13 582.884 760.52 583.459C759.909 584.053 759.167 584.498 758.295 584.794C757.423 585.108 756.437 585.265 755.338 585.265ZM755.443 577.022C756.298 577.022 757.056 576.821 757.719 576.42C758.382 576.018 758.897 575.469 759.263 574.771C759.63 574.073 759.813 573.271 759.813 572.363C759.813 571.456 759.621 570.654 759.237 569.956C758.871 569.24 758.356 568.682 757.693 568.281C757.048 567.88 756.298 567.679 755.443 567.679C754.605 567.679 753.855 567.888 753.192 568.307C752.547 568.708 752.032 569.267 751.648 569.982C751.282 570.68 751.098 571.474 751.098 572.363C751.098 573.253 751.282 574.056 751.648 574.771C752.032 575.469 752.547 576.018 753.192 576.42C753.855 576.821 754.605 577.022 755.443 577.022Z" fill="#333333"/>
<path d="M922.869 579.508C921.874 579.508 920.95 579.377 920.095 579.115C919.257 578.854 918.49 578.461 917.792 577.938C917.111 577.397 916.501 576.734 915.96 575.949L917.896 573.724C918.751 574.946 919.571 575.792 920.356 576.263C921.141 576.734 922.075 576.969 923.157 576.969C923.82 576.969 924.421 576.865 924.962 576.655C925.503 576.446 925.931 576.158 926.245 575.792C926.559 575.425 926.716 575.007 926.716 574.536C926.716 574.221 926.663 573.925 926.559 573.646C926.454 573.367 926.288 573.114 926.061 572.887C925.852 572.66 925.573 572.451 925.224 572.259C924.893 572.067 924.5 571.901 924.046 571.762C923.593 571.604 923.069 571.474 922.476 571.369C921.534 571.177 920.714 570.924 920.016 570.61C919.318 570.296 918.734 569.903 918.263 569.432C917.792 568.961 917.443 568.429 917.216 567.836C916.989 567.225 916.876 566.545 916.876 565.795C916.876 565.062 917.033 564.382 917.347 563.754C917.678 563.125 918.123 562.585 918.682 562.131C919.257 561.66 919.929 561.302 920.697 561.058C921.464 560.796 922.293 560.665 923.183 560.665C924.125 560.665 924.988 560.788 925.774 561.032C926.559 561.276 927.257 561.642 927.867 562.131C928.478 562.602 928.984 563.187 929.385 563.884L927.396 565.847C927.047 565.271 926.655 564.792 926.218 564.408C925.782 564.007 925.303 563.71 924.779 563.518C924.256 563.309 923.697 563.204 923.104 563.204C922.424 563.204 921.831 563.309 921.325 563.518C920.819 563.727 920.417 564.024 920.121 564.408C919.842 564.774 919.702 565.21 919.702 565.716C919.702 566.083 919.772 566.423 919.912 566.737C920.051 567.033 920.26 567.304 920.54 567.548C920.836 567.775 921.229 567.984 921.717 568.176C922.206 568.351 922.79 568.508 923.471 568.647C924.43 568.857 925.285 569.127 926.035 569.459C926.785 569.773 927.422 570.148 927.946 570.584C928.469 571.02 928.862 571.509 929.123 572.049C929.402 572.59 929.542 573.175 929.542 573.803C929.542 574.972 929.272 575.984 928.731 576.838C928.19 577.693 927.422 578.356 926.428 578.827C925.433 579.281 924.247 579.508 922.869 579.508ZM939.278 579.508C937.865 579.508 936.609 579.211 935.509 578.618C934.428 578.007 933.573 577.179 932.945 576.132C932.334 575.085 932.029 573.881 932.029 572.52C932.029 571.439 932.203 570.453 932.552 569.563C932.901 568.673 933.381 567.906 933.992 567.26C934.62 566.597 935.361 566.091 936.216 565.742C937.088 565.376 938.03 565.193 939.042 565.193C939.932 565.193 940.761 565.367 941.528 565.716C942.296 566.048 942.959 566.51 943.517 567.103C944.093 567.696 944.529 568.403 944.826 569.223C945.14 570.026 945.288 570.907 945.271 571.866L945.245 573.018H934.018L933.416 570.872H942.915L942.523 571.317V570.689C942.471 570.113 942.279 569.598 941.947 569.145C941.616 568.691 941.197 568.333 940.691 568.072C940.185 567.81 939.635 567.679 939.042 567.679C938.1 567.679 937.306 567.862 936.661 568.229C936.015 568.578 935.527 569.101 935.195 569.799C934.864 570.479 934.698 571.325 934.698 572.337C934.698 573.297 934.899 574.134 935.3 574.85C935.701 575.547 936.268 576.088 937.001 576.472C937.734 576.856 938.58 577.048 939.54 577.048C940.22 577.048 940.848 576.934 941.424 576.708C942.017 576.481 942.654 576.071 943.334 575.478L944.695 577.388C944.276 577.807 943.762 578.173 943.151 578.487C942.558 578.801 941.921 579.054 941.241 579.246C940.578 579.421 939.923 579.508 939.278 579.508ZM953.486 579.508C952.352 579.508 951.314 579.194 950.372 578.566C949.448 577.938 948.706 577.083 948.148 576.001C947.589 574.919 947.31 573.698 947.31 572.337C947.31 570.959 947.589 569.738 948.148 568.673C948.724 567.592 949.491 566.746 950.451 566.135C951.428 565.524 952.518 565.219 953.722 565.219C954.437 565.219 955.092 565.324 955.685 565.533C956.278 565.742 956.793 566.039 957.229 566.423C957.682 566.789 958.049 567.217 958.328 567.705C958.624 568.194 958.808 568.717 958.877 569.275L958.276 569.066V565.507H960.997V579.246H958.276V575.975L958.904 575.792C958.799 576.263 958.581 576.725 958.249 577.179C957.935 577.615 957.525 578.007 957.019 578.356C956.531 578.705 955.981 578.984 955.371 579.194C954.777 579.403 954.149 579.508 953.486 579.508ZM954.193 577.022C955.013 577.022 955.737 576.821 956.365 576.42C956.993 576.018 957.482 575.469 957.831 574.771C958.197 574.056 958.38 573.244 958.38 572.337C958.38 571.447 958.197 570.654 957.831 569.956C957.482 569.258 956.993 568.708 956.365 568.307C955.737 567.906 955.013 567.705 954.193 567.705C953.39 567.705 952.675 567.906 952.047 568.307C951.436 568.708 950.948 569.258 950.582 569.956C950.233 570.654 950.058 571.447 950.058 572.337C950.058 573.244 950.233 574.056 950.582 574.771C950.948 575.469 951.436 576.018 952.047 576.42C952.675 576.821 953.39 577.022 954.193 577.022ZM964.813 579.246V559.88H967.509V579.246H964.813ZM971.774 579.246V565.507H974.469V579.246H971.774ZM973.082 562.471C972.506 562.471 972.062 562.323 971.747 562.026C971.433 561.73 971.276 561.311 971.276 560.77C971.276 560.264 971.433 559.854 971.747 559.54C972.079 559.226 972.524 559.069 973.082 559.069C973.658 559.069 974.103 559.217 974.417 559.514C974.731 559.811 974.888 560.229 974.888 560.77C974.888 561.276 974.722 561.686 974.391 562C974.077 562.314 973.64 562.471 973.082 562.471ZM978.612 579.246V565.507H981.308V568.333L980.837 568.647C981.011 568.037 981.351 567.478 981.857 566.972C982.363 566.449 982.965 566.03 983.663 565.716C984.361 565.385 985.076 565.219 985.809 565.219C986.856 565.219 987.728 565.428 988.426 565.847C989.124 566.248 989.647 566.868 989.996 567.705C990.345 568.543 990.52 569.598 990.52 570.872V579.246H987.824V571.055C987.824 570.27 987.72 569.624 987.51 569.118C987.301 568.595 986.978 568.22 986.542 567.993C986.106 567.749 985.565 567.644 984.919 567.679C984.396 567.679 983.916 567.766 983.48 567.941C983.044 568.098 982.66 568.325 982.329 568.621C982.014 568.918 981.761 569.267 981.57 569.668C981.395 570.052 981.308 570.47 981.308 570.924V579.246H979.973C979.746 579.246 979.52 579.246 979.293 579.246C979.066 579.246 978.839 579.246 978.612 579.246ZM1000.33 585.265C999.349 585.265 998.372 585.108 997.395 584.794C996.436 584.498 995.659 584.105 995.066 583.616L996.061 581.523C996.409 581.785 996.819 582.011 997.291 582.203C997.762 582.413 998.259 582.57 998.782 582.674C999.306 582.796 999.82 582.858 1000.33 582.858C1001.29 582.858 1002.09 582.701 1002.73 582.386C1003.38 582.072 1003.87 581.61 1004.2 580.999C1004.53 580.389 1004.7 579.63 1004.7 578.723V576.08L1004.98 576.263C1004.9 576.804 1004.61 577.327 1004.12 577.833C1003.65 578.321 1003.06 578.723 1002.34 579.037C1001.63 579.351 1000.89 579.508 1000.14 579.508C998.835 579.508 997.666 579.202 996.636 578.592C995.624 577.964 994.822 577.118 994.229 576.053C993.635 574.972 993.339 573.742 993.339 572.363C993.339 570.985 993.627 569.764 994.202 568.7C994.796 567.618 995.598 566.772 996.61 566.161C997.639 565.533 998.791 565.219 1000.06 565.219C1000.59 565.219 1001.09 565.289 1001.58 565.428C1002.07 565.551 1002.52 565.734 1002.94 565.978C1003.36 566.205 1003.74 566.458 1004.07 566.737C1004.4 567.016 1004.67 567.313 1004.88 567.627C1005.09 567.941 1005.22 568.237 1005.27 568.516L1004.7 568.726V565.507H1007.39V578.409C1007.39 579.508 1007.23 580.476 1006.89 581.314C1006.58 582.168 1006.12 582.884 1005.51 583.459C1004.9 584.053 1004.16 584.498 1003.28 584.794C1002.41 585.108 1001.43 585.265 1000.33 585.265ZM1000.43 577.022C1001.29 577.022 1002.04 576.821 1002.71 576.42C1003.37 576.018 1003.89 575.469 1004.25 574.771C1004.62 574.073 1004.8 573.271 1004.8 572.363C1004.8 571.456 1004.61 570.654 1004.23 569.956C1003.86 569.24 1003.34 568.682 1002.68 568.281C1002.04 567.88 1001.29 567.679 1000.43 567.679C999.593 567.679 998.843 567.888 998.18 568.307C997.535 568.708 997.02 569.267 996.636 569.982C996.27 570.68 996.087 571.474 996.087 572.363C996.087 573.253 996.27 574.056 996.636 574.771C997.02 575.469 997.535 576.018 998.18 576.42C998.843 576.821 999.593 577.022 1000.43 577.022Z" fill="#333333"/>
<path d="M1148.11 582.125L1141.18 573.044L1143.51 571.5L1150.36 580.502L1148.11 582.125ZM1142.3 579.508C1141.01 579.508 1139.82 579.272 1138.72 578.801C1137.63 578.33 1136.68 577.676 1135.86 576.838C1135.06 575.984 1134.43 574.989 1133.98 573.855C1133.54 572.704 1133.33 571.447 1133.33 570.087C1133.33 568.726 1133.54 567.478 1133.98 566.344C1134.43 565.193 1135.06 564.198 1135.86 563.361C1136.68 562.506 1137.63 561.843 1138.72 561.372C1139.82 560.901 1141.01 560.665 1142.3 560.665C1143.59 560.665 1144.78 560.901 1145.86 561.372C1146.96 561.843 1147.91 562.506 1148.71 563.361C1149.53 564.216 1150.16 565.219 1150.6 566.371C1151.05 567.505 1151.28 568.743 1151.28 570.087C1151.28 571.43 1151.05 572.677 1150.6 573.829C1150.16 574.963 1149.53 575.957 1148.71 576.812C1147.91 577.667 1146.96 578.33 1145.86 578.801C1144.78 579.272 1143.59 579.508 1142.3 579.508ZM1142.3 576.76C1143.19 576.76 1144 576.594 1144.74 576.263C1145.49 575.931 1146.13 575.469 1146.67 574.876C1147.21 574.265 1147.63 573.559 1147.93 572.756C1148.24 571.936 1148.4 571.046 1148.4 570.087C1148.4 569.127 1148.24 568.246 1147.93 567.443C1147.63 566.623 1147.21 565.917 1146.67 565.324C1146.13 564.713 1145.49 564.242 1144.74 563.911C1144 563.579 1143.19 563.413 1142.3 563.413C1141.41 563.413 1140.59 563.579 1139.84 563.911C1139.11 564.242 1138.46 564.704 1137.9 565.298C1137.36 565.891 1136.95 566.597 1136.65 567.417C1136.35 568.22 1136.2 569.11 1136.2 570.087C1136.2 571.046 1136.35 571.936 1136.65 572.756C1136.95 573.576 1137.36 574.283 1137.9 574.876C1138.46 575.469 1139.11 575.931 1139.84 576.263C1140.59 576.594 1141.41 576.76 1142.3 576.76ZM1159.24 579.508C1158.26 579.508 1157.41 579.281 1156.67 578.827C1155.96 578.374 1155.4 577.737 1155 576.917C1154.62 576.097 1154.42 575.12 1154.42 573.986V565.507H1157.12V573.253C1157.12 574.056 1157.24 574.754 1157.49 575.347C1157.75 575.923 1158.11 576.367 1158.58 576.681C1159.07 576.995 1159.66 577.153 1160.34 577.153C1160.84 577.153 1161.31 577.074 1161.73 576.917C1162.14 576.743 1162.5 576.507 1162.8 576.21C1163.11 575.914 1163.36 575.556 1163.53 575.137C1163.71 574.719 1163.79 574.265 1163.79 573.777V565.507H1166.49V579.246H1163.79V576.367L1164.26 576.053C1164.05 576.699 1163.7 577.283 1163.19 577.807C1162.7 578.33 1162.12 578.749 1161.44 579.063C1160.76 579.359 1160.02 579.508 1159.24 579.508ZM1175.56 579.508C1174.42 579.508 1173.38 579.194 1172.44 578.566C1171.52 577.938 1170.77 577.083 1170.22 576.001C1169.66 574.919 1169.38 573.698 1169.38 572.337C1169.38 570.959 1169.66 569.738 1170.22 568.673C1170.79 567.592 1171.56 566.746 1172.52 566.135C1173.5 565.524 1174.59 565.219 1175.79 565.219C1176.51 565.219 1177.16 565.324 1177.75 565.533C1178.35 565.742 1178.86 566.039 1179.3 566.423C1179.75 566.789 1180.12 567.217 1180.4 567.705C1180.69 568.194 1180.88 568.717 1180.95 569.275L1180.34 569.066V565.507H1183.07V579.246H1180.34V575.975L1180.97 575.792C1180.87 576.263 1180.65 576.725 1180.32 577.179C1180 577.615 1179.59 578.007 1179.09 578.356C1178.6 578.705 1178.05 578.984 1177.44 579.194C1176.85 579.403 1176.22 579.508 1175.56 579.508ZM1176.26 577.022C1177.08 577.022 1177.81 576.821 1178.43 576.42C1179.06 576.018 1179.55 575.469 1179.9 574.771C1180.27 574.056 1180.45 573.244 1180.45 572.337C1180.45 571.447 1180.27 570.654 1179.9 569.956C1179.55 569.258 1179.06 568.708 1178.43 568.307C1177.81 567.906 1177.08 567.705 1176.26 567.705C1175.46 567.705 1174.74 567.906 1174.12 568.307C1173.51 568.708 1173.02 569.258 1172.65 569.956C1172.3 570.654 1172.13 571.447 1172.13 572.337C1172.13 573.244 1172.3 574.056 1172.65 574.771C1173.02 575.469 1173.51 576.018 1174.12 576.42C1174.74 576.821 1175.46 577.022 1176.26 577.022ZM1186.88 579.246V559.88H1189.58V579.246H1186.88ZM1193.84 579.246V565.507H1196.54V579.246H1193.84ZM1195.15 562.471C1194.58 562.471 1194.13 562.323 1193.82 562.026C1193.5 561.73 1193.35 561.311 1193.35 560.77C1193.35 560.264 1193.5 559.854 1193.82 559.54C1194.15 559.226 1194.59 559.069 1195.15 559.069C1195.73 559.069 1196.17 559.217 1196.49 559.514C1196.8 559.811 1196.96 560.229 1196.96 560.77C1196.96 561.276 1196.79 561.686 1196.46 562C1196.15 562.314 1195.71 562.471 1195.15 562.471ZM1202.38 579.246V562H1205.08V579.246H1202.38ZM1199.53 568.124V565.507H1208.27V568.124H1199.53ZM1213.03 585.265L1215.8 578.854L1215.83 580.999L1208.97 565.507H1212.11L1216.4 575.608C1216.49 575.783 1216.6 576.053 1216.72 576.42C1216.84 576.769 1216.94 577.118 1217.03 577.467L1216.35 577.624C1216.49 577.257 1216.62 576.891 1216.74 576.524C1216.88 576.158 1217.01 575.792 1217.14 575.425L1220.72 565.507H1223.91L1218.26 579.246L1215.93 585.265H1213.03ZM1239.1 579.508C1237.83 579.508 1236.69 579.194 1235.67 578.566C1234.68 577.938 1233.89 577.083 1233.29 576.001C1232.72 574.919 1232.43 573.707 1232.43 572.363C1232.43 571.02 1232.72 569.807 1233.29 568.726C1233.89 567.644 1234.68 566.789 1235.67 566.161C1236.69 565.533 1237.83 565.219 1239.1 565.219C1240.32 565.219 1241.43 565.472 1242.43 565.978C1243.44 566.466 1244.2 567.138 1244.73 567.993L1243.24 569.825C1242.96 569.424 1242.6 569.057 1242.16 568.726C1241.73 568.394 1241.26 568.133 1240.78 567.941C1240.29 567.749 1239.82 567.653 1239.36 567.653C1238.53 567.653 1237.78 567.862 1237.11 568.281C1236.47 568.682 1235.95 569.24 1235.57 569.956C1235.18 570.671 1234.99 571.474 1234.99 572.363C1234.99 573.253 1235.19 574.056 1235.59 574.771C1236 575.469 1236.53 576.027 1237.19 576.446C1237.85 576.865 1238.59 577.074 1239.39 577.074C1239.86 577.074 1240.31 576.995 1240.75 576.838C1241.2 576.681 1241.64 576.446 1242.06 576.132C1242.48 575.818 1242.87 575.434 1243.24 574.98L1244.73 576.812C1244.17 577.597 1243.37 578.243 1242.32 578.749C1241.29 579.255 1240.22 579.508 1239.1 579.508ZM1247.27 579.246V559.88H1249.97V568.333L1249.5 568.647C1249.67 568.037 1250.01 567.478 1250.52 566.972C1251.02 566.449 1251.62 566.03 1252.32 565.716C1253.02 565.385 1253.73 565.219 1254.47 565.219C1255.51 565.219 1256.39 565.428 1257.08 565.847C1257.78 566.248 1258.31 566.868 1258.65 567.705C1259 568.543 1259.18 569.598 1259.18 570.872V579.246H1256.48V571.055C1256.48 570.27 1256.38 569.624 1256.17 569.118C1255.96 568.595 1255.64 568.22 1255.2 567.993C1254.76 567.749 1254.22 567.644 1253.58 567.679C1253.05 567.679 1252.57 567.766 1252.14 567.941C1251.7 568.098 1251.32 568.325 1250.99 568.621C1250.67 568.918 1250.42 569.267 1250.23 569.668C1250.05 570.052 1249.97 570.47 1249.97 570.924V579.246H1248.63C1248.4 579.246 1248.18 579.246 1247.95 579.246C1247.72 579.246 1247.5 579.246 1247.27 579.246ZM1269.25 579.508C1267.83 579.508 1266.58 579.211 1265.48 578.618C1264.4 578.007 1263.54 577.179 1262.91 576.132C1262.3 575.085 1262 573.881 1262 572.52C1262 571.439 1262.17 570.453 1262.52 569.563C1262.87 568.673 1263.35 567.906 1263.96 567.26C1264.59 566.597 1265.33 566.091 1266.18 565.742C1267.06 565.376 1268 565.193 1269.01 565.193C1269.9 565.193 1270.73 565.367 1271.5 565.716C1272.26 566.048 1272.93 566.51 1273.49 567.103C1274.06 567.696 1274.5 568.403 1274.79 569.223C1275.11 570.026 1275.26 570.907 1275.24 571.866L1275.21 573.018H1263.99L1263.38 570.872H1272.88L1272.49 571.317V570.689C1272.44 570.113 1272.25 569.598 1271.92 569.145C1271.58 568.691 1271.17 568.333 1270.66 568.072C1270.15 567.81 1269.6 567.679 1269.01 567.679C1268.07 567.679 1267.27 567.862 1266.63 568.229C1265.98 568.578 1265.5 569.101 1265.16 569.799C1264.83 570.479 1264.67 571.325 1264.67 572.337C1264.67 573.297 1264.87 574.134 1265.27 574.85C1265.67 575.547 1266.24 576.088 1266.97 576.472C1267.7 576.856 1268.55 577.048 1269.51 577.048C1270.19 577.048 1270.82 576.934 1271.39 576.708C1271.99 576.481 1272.62 576.071 1273.3 575.478L1274.66 577.388C1274.24 577.807 1273.73 578.173 1273.12 578.487C1272.53 578.801 1271.89 579.054 1271.21 579.246C1270.55 579.421 1269.89 579.508 1269.25 579.508ZM1284 579.508C1282.73 579.508 1281.59 579.194 1280.58 578.566C1279.58 577.938 1278.79 577.083 1278.19 576.001C1277.62 574.919 1277.33 573.707 1277.33 572.363C1277.33 571.02 1277.62 569.807 1278.19 568.726C1278.79 567.644 1279.58 566.789 1280.58 566.161C1281.59 565.533 1282.73 565.219 1284 565.219C1285.23 565.219 1286.33 565.472 1287.33 565.978C1288.34 566.466 1289.11 567.138 1289.63 567.993L1288.14 569.825C1287.86 569.424 1287.5 569.057 1287.07 568.726C1286.63 568.394 1286.17 568.133 1285.68 567.941C1285.19 567.749 1284.72 567.653 1284.27 567.653C1283.43 567.653 1282.68 567.862 1282.02 568.281C1281.37 568.682 1280.86 569.24 1280.47 569.956C1280.09 570.671 1279.9 571.474 1279.9 572.363C1279.9 573.253 1280.1 574.056 1280.5 574.771C1280.9 575.469 1281.43 576.027 1282.09 576.446C1282.76 576.865 1283.49 577.074 1284.29 577.074C1284.76 577.074 1285.22 576.995 1285.65 576.838C1286.11 576.681 1286.54 576.446 1286.96 576.132C1287.38 575.818 1287.77 575.434 1288.14 574.98L1289.63 576.812C1289.07 577.597 1288.27 578.243 1287.22 578.749C1286.19 579.255 1285.12 579.508 1284 579.508ZM1294.63 574.954L1294.5 572.023L1301.07 565.507H1304.71L1294.63 574.954ZM1292.17 579.246V559.88H1294.87V579.246H1292.17ZM1301.44 579.246L1296.26 573.201L1298.17 571.447L1304.89 579.246H1301.44Z" fill="#333333"/>
<path d="M241.933 8.34766H152.107V513.28H241.933V8.34766Z" fill="#E3E4E3"/>
<path d="M241.833 70.9648H152.107V513.049H241.833V70.9648Z" fill="url(#paint0_linear_800_878)"/>
<path d="M495.22 8.34766H405.395V513.28H495.22V8.34766Z" fill="#E3E4E3"/>
<path d="M495.12 44.7969H405.395V513.051H495.12V44.7969Z" fill="url(#paint1_linear_800_878)"/>
<path d="M748.507 8.34766H658.682V513.28H748.507V8.34766Z" fill="#E3E4E3"/>
<path d="M748.407 44.7969H658.682V513.051H748.407V44.7969Z" fill="url(#paint2_linear_800_878)"/>
<path d="M1001.79 8.34766H911.969V513.28H1001.79V8.34766Z" fill="#E3E4E3"/>
<path d="M1001.69 101.812H911.969V513.053H1001.69V101.812Z" fill="url(#paint3_linear_800_878)"/>
<path d="M1255.08 8.34766H1165.26V513.28H1255.08V8.34766Z" fill="#E3E4E3"/>
<path d="M1254.98 8.34766H1165.26V513.052H1254.98V8.34766Z" fill="url(#paint4_linear_800_878)"/>
<defs>
<linearGradient id="paint0_linear_800_878" x1="196.97" y1="70.9648" x2="196.97" y2="513.049" gradientUnits="userSpaceOnUse">
<stop stop-color="#63BECB"/>
<stop offset="1" stop-color="#00E5C7"/>
</linearGradient>
<linearGradient id="paint1_linear_800_878" x1="450.257" y1="44.7969" x2="450.257" y2="513.051" gradientUnits="userSpaceOnUse">
<stop stop-color="#63BECB"/>
<stop offset="1" stop-color="#00E5C7"/>
</linearGradient>
<linearGradient id="paint2_linear_800_878" x1="703.544" y1="44.7969" x2="703.544" y2="513.051" gradientUnits="userSpaceOnUse">
<stop stop-color="#63BECB"/>
<stop offset="1" stop-color="#00E5C7"/>
</linearGradient>
<linearGradient id="paint3_linear_800_878" x1="956.831" y1="101.812" x2="956.831" y2="513.053" gradientUnits="userSpaceOnUse">
<stop stop-color="#63BECB"/>
<stop offset="1" stop-color="#00E5C7"/>
</linearGradient>
<linearGradient id="paint4_linear_800_878" x1="1210.12" y1="8.34766" x2="1210.12" y2="513.052" gradientUnits="userSpaceOnUse">
<stop stop-color="#63BECB"/>
<stop offset="1" stop-color="#00E5C7"/>
</linearGradient>
</defs>
</svg>
