<svg width="46" height="46" viewBox="0 0 46 46" fill="none" xmlns="http://www.w3.org/2000/svg">
<rect width="46" height="46" rx="23" fill="#FDFDFD"/>
<path d="M22.3265 10V13.9671H23.674V10H22.3264H22.3265ZM16.8242 11.1922L15.7202 11.9652L17.9953 15.214L19.0987 14.441L16.8242 11.1922ZM29.176 11.1922L26.9016 14.4411L28.0052 15.2141L30.2802 11.9652L29.1762 11.1922H29.176ZM23 15.0526C19.7036 15.0526 17.0314 17.0543 17.0314 19.5239L20.4224 29.7937H25.5781L28.9689 19.5239C28.9689 17.0544 26.2968 15.0526 23.0003 15.0526H23ZM12.2807 16.2432L11.8203 17.5101L15.5463 18.8667L16.0084 17.6003L12.2806 16.2432H12.2807ZM33.7195 16.2432L29.9917 17.6004L30.4522 18.8669L34.18 17.5102L33.7195 16.2432ZM15.8284 22.035L11.9972 23.0626L12.3448 24.3633L16.1761 23.3371L15.8285 22.035H15.8284ZM30.1718 22.035L29.8244 23.3371L33.6556 24.3631L34.003 23.0624L30.1718 22.035V22.035ZM20.3473 30.5423V32.3275H25.6532V30.5426H20.3473L20.3473 30.5423ZM20.3473 33.2149V35H25.6532V33.2152H20.3473L20.3473 33.2149Z" fill="#0A3238"/>
</svg>
