<svg width="46" height="46" viewBox="0 0 46 46" fill="none" xmlns="http://www.w3.org/2000/svg">
<rect width="46" height="46" rx="23" fill="#FDFDFD"/>
<path d="M22.5 19.25C23.2956 19.25 24.0587 18.9339 24.6213 18.3713C25.1839 17.8087 25.5 17.0456 25.5 16.25C25.5 15.4544 25.1839 14.6913 24.6213 14.1287C24.0587 13.5661 23.2956 13.25 22.5 13.25C21.7044 13.25 20.9413 13.5661 20.3787 14.1287C19.8161 14.6913 19.5 15.4544 19.5 16.25C19.5 17.0456 19.8161 17.8087 20.3787 18.3713C20.9413 18.9339 21.7044 19.25 22.5 19.25ZM18 16.625C18 16.9697 17.9321 17.3111 17.8002 17.6295C17.6683 17.948 17.4749 18.2374 17.2312 18.4812C16.9874 18.7249 16.698 18.9183 16.3795 19.0502C16.0611 19.1821 15.7197 19.25 15.375 19.25C15.0303 19.25 14.6889 19.1821 14.3705 19.0502C14.052 18.9183 13.7626 18.7249 13.5188 18.4812C13.2751 18.2374 13.0817 17.948 12.9498 17.6295C12.8179 17.3111 12.75 16.9697 12.75 16.625C12.75 15.9288 13.0266 15.2611 13.5188 14.7688C14.0111 14.2766 14.6788 14 15.375 14C16.0712 14 16.7389 14.2766 17.2312 14.7688C17.7234 15.2611 18 15.9288 18 16.625ZM32.25 16.625C32.25 16.9697 32.1821 17.3111 32.0502 17.6295C31.9183 17.948 31.7249 18.2374 31.4812 18.4812C31.2374 18.7249 30.948 18.9183 30.6295 19.0502C30.3111 19.1821 29.9697 19.25 29.625 19.25C29.2803 19.25 28.9389 19.1821 28.6205 19.0502C28.302 18.9183 28.0126 18.7249 27.7688 18.4812C27.5251 18.2374 27.3317 17.948 27.1998 17.6295C27.0679 17.3111 27 16.9697 27 16.625C27 15.9288 27.2766 15.2611 27.7688 14.7688C28.2611 14.2766 28.9288 14 29.625 14C30.3212 14 30.9889 14.2766 31.4812 14.7688C31.9734 15.2611 32.25 15.9288 32.25 16.625ZM17.5328 20.75C17.1058 21.2815 16.8737 21.9432 16.875 22.625V28.25C16.875 29.1763 17.0985 30.05 17.4952 30.8202C16.9237 31.1208 16.2841 31.2687 15.6386 31.2495C14.9931 31.2303 14.3635 31.0447 13.8107 30.7108C13.258 30.3768 12.8009 29.9057 12.4836 29.3432C12.1664 28.7807 11.9998 28.1458 12 27.5V22.625C12 22.1277 12.1975 21.6508 12.5492 21.2992C12.9008 20.9475 13.3777 20.75 13.875 20.75H17.5328ZM27.5048 30.8202C27.9128 30.025 28.1254 29.1439 28.125 28.25V22.625C28.125 21.9155 27.879 21.2638 27.4672 20.75H31.125C31.6223 20.75 32.0992 20.9475 32.4508 21.2992C32.8025 21.6508 33 22.1277 33 22.625V27.5C33.0002 28.1458 32.8336 28.7807 32.5164 29.3432C32.1991 29.9057 31.742 30.3768 31.1893 30.7108C30.6365 31.0447 30.0069 31.2303 29.3614 31.2495C28.7159 31.2687 28.0763 31.1208 27.5048 30.8202ZM19.875 20.75C19.3777 20.75 18.9008 20.9475 18.5492 21.2992C18.1975 21.6508 18 22.1277 18 22.625V28.25C18 29.4435 18.4741 30.5881 19.318 31.432C20.1619 32.2759 21.3065 32.75 22.5 32.75C23.6935 32.75 24.8381 32.2759 25.682 31.432C26.5259 30.5881 27 29.4435 27 28.25V22.625C27 22.1277 26.8025 21.6508 26.4508 21.2992C26.0992 20.9475 25.6223 20.75 25.125 20.75H19.875Z" fill="#0A3238"/>
</svg>
